G04*
G04 #@! TF.GenerationSoftware,Altium Limited,Altium Designer,24.1.2 (44)*
G04*
G04 Layer_Physical_Order=1*
G04 Layer_Color=255*
%FSLAX25Y25*%
%MOIN*%
G70*
G04*
G04 #@! TF.SameCoordinates,BA2A6252-B6BC-40F5-9E12-03139480D726*
G04*
G04*
G04 #@! TF.FilePolarity,Positive*
G04*
G01*
G75*
%ADD14C,0.02000*%
%ADD15C,0.02500*%
D14*
X185500Y11500D02*
X197000D01*
X204000Y4500D02*
X255000D01*
X197000Y11500D02*
X204000Y4500D01*
X260000Y20000D02*
X285000D01*
X250000Y10000D02*
X260000Y20000D01*
X259000Y32000D02*
X295943D01*
X235500Y89500D02*
X262000Y63000D01*
X235000Y89500D02*
X235500D01*
X263500Y86000D02*
X294500D01*
X224000Y125500D02*
X291000D01*
X293365Y131500D02*
X295865Y129000D01*
X291075Y131500D02*
X293365D01*
X220000D02*
X291075D01*
X295865Y129000D02*
X296000D01*
X261500Y138500D02*
X280000D01*
X130500Y34500D02*
X153500D01*
X164500Y23500D01*
X177500D01*
X157000Y137000D02*
X209000D01*
X145000Y133000D02*
X151000Y127000D01*
X152000D01*
X105000Y133500D02*
X134000D01*
X104500Y134000D02*
X105000Y133500D01*
X52500Y133000D02*
X97000D01*
X7000Y12500D02*
X21000D01*
X28000Y5500D01*
X10000Y16500D02*
X79000D01*
X101500Y39000D01*
X5000Y53000D02*
X14000D01*
X15000Y52000D01*
X4000Y79500D02*
Y81500D01*
Y79500D02*
X8000Y75500D01*
X6500Y118000D02*
X40500D01*
X4000Y105000D02*
X14500D01*
X49500Y119000D02*
X57500Y127000D01*
X108000D01*
X13000Y140000D02*
X31000D01*
X15000Y143500D02*
X32075D01*
X36490Y140500D02*
X36500D01*
X32075Y143500D02*
X33490D01*
X36490Y140500D01*
X5500Y124500D02*
X44000D01*
X44500Y125000D01*
X189000Y78000D02*
X228500D01*
X238000Y68500D01*
X143500Y7000D02*
X149000Y12500D01*
X94000Y7000D02*
X143500D01*
X94000Y13000D02*
X137000D01*
X90500Y9500D02*
X94000Y13000D01*
X80500Y11000D02*
X87000Y17500D01*
X146000D01*
X182500Y5500D02*
X190500D01*
X160500Y16500D02*
X176000D01*
X149997Y27003D02*
X160500Y16500D01*
X149997Y27003D02*
X149997D01*
X195000Y65500D02*
X233500D01*
X259500Y56000D02*
X295000D01*
X269000Y98500D02*
X295500D01*
X268000Y99500D02*
X269000Y98500D01*
X264500Y14000D02*
X290500D01*
X203500Y89500D02*
X235000D01*
X4000Y111500D02*
X14500D01*
X178500Y84000D02*
X194000Y99500D01*
X205000D01*
X164000Y78000D02*
X180000D01*
X196000Y94000D02*
X238500D01*
X180000Y78000D02*
X196000Y94000D01*
X101500Y39000D02*
X115000D01*
X4500Y33000D02*
X7000Y30500D01*
X14000D01*
X4500Y33000D02*
Y39000D01*
X3500Y20000D02*
X6000Y22500D01*
X74000D01*
X32000Y11000D02*
X80500D01*
X93500Y50500D02*
X106000D01*
X93500Y66500D02*
X105500D01*
X93500Y111000D02*
X105000D01*
X93500Y95500D02*
X103500D01*
X93500Y85000D02*
X105000D01*
X93500Y79500D02*
X102500D01*
X93500Y55500D02*
X101500D01*
X106000Y60000D01*
X6500Y69000D02*
X15000D01*
X3500Y87500D02*
X14000D01*
X7000Y99000D02*
X7135D01*
X8135Y100000D02*
X14500D01*
X7135Y99000D02*
X8135Y100000D01*
X3500Y94000D02*
X14500D01*
X55445Y115445D02*
X61000Y121000D01*
X86199D01*
X93500Y72000D02*
X111500D01*
X6500Y57500D02*
X13500D01*
X255000Y4500D02*
X264500Y14000D01*
X266500Y92000D02*
X290000D01*
X247000Y94500D02*
X261500Y80000D01*
X291500D02*
X295000Y76500D01*
X261500Y80000D02*
X291500D01*
X265000Y74500D02*
X289500D01*
X294500Y69500D01*
X156500Y5500D02*
X174000D01*
X7500Y137000D02*
X10000D01*
X13000Y140000D01*
X109500Y144000D02*
X137000D01*
X185500Y111000D02*
X199000D01*
X199500D01*
X219500Y131000D01*
X220000Y131500D01*
X286000Y137500D02*
X293500D01*
X260000Y107500D02*
X268000Y99500D01*
X281497Y106503D02*
X284500Y103500D01*
X281497Y106503D02*
X281497D01*
X280500Y107500D02*
X281497Y106503D01*
X267500Y107500D02*
X280500D01*
X269000Y62500D02*
X295000D01*
X242000Y107500D02*
X263500Y86000D01*
X252500Y106000D02*
X266500Y92000D01*
X245500Y113000D02*
X252500Y106000D01*
X219500Y113000D02*
X245500D01*
X284000Y112500D02*
X293000Y103500D01*
X254000Y112500D02*
X284000D01*
X225000Y118000D02*
X287500D01*
X292000D01*
X295500Y121500D01*
X203000Y104500D02*
X224000Y125500D01*
X202000Y104500D02*
X203000D01*
X181000D02*
X202000D01*
X174000Y97500D02*
X181000Y104500D01*
X235500Y106500D02*
X242000Y100000D01*
X216500Y106500D02*
X235500D01*
X210000Y100000D02*
X216500Y106500D01*
X218000Y99500D02*
X235000D01*
X195500Y84000D02*
X231500D01*
X259500Y56000D01*
X255000Y51000D02*
X293000D01*
X241000Y65000D02*
X255000Y51000D01*
X265000Y68500D02*
X289500D01*
X264000D02*
X265000D01*
X238500Y94000D02*
X264000Y68500D01*
X232000Y49000D02*
X232500D01*
X194500D02*
X232000D01*
X176500Y67000D02*
X194500Y49000D01*
X195000Y39000D02*
X242500D01*
X191500Y34000D02*
X236500D01*
X191000Y34500D02*
X191500Y34000D01*
X171500Y54000D02*
X191000Y34500D01*
X238000Y29000D02*
X249500Y40500D01*
X213500Y29000D02*
X238000D01*
X234500Y54000D02*
X243000Y45500D01*
X196000Y54500D02*
X226500D01*
X184000Y67000D02*
X191500Y59500D01*
X236500D01*
X237500D01*
X251500Y45500D01*
X289500D01*
X257500Y38000D02*
X292000D01*
X257000D02*
X257500D01*
X251000Y32000D02*
X257000Y38000D01*
X246000Y27000D02*
Y27500D01*
X244500Y25500D02*
X246000Y27000D01*
X242000Y23000D02*
X244500Y25500D01*
X193500Y23000D02*
X242000D01*
X185500Y23500D02*
X187000D01*
X164000Y45000D02*
X185500Y23500D01*
X163000Y45000D02*
X164000D01*
X135000D02*
X163000D01*
X123500Y33500D02*
X135000Y45000D01*
X256000Y25500D02*
X295500D01*
X247500Y17000D02*
X256000Y25500D01*
X202500Y17000D02*
X247500D01*
X176500Y11500D02*
X182500Y5500D01*
X158000Y11500D02*
X176500D01*
X155000D02*
X158000D01*
X147000Y3500D02*
X155000Y11500D01*
X265500Y7000D02*
X288000D01*
X148500Y23000D02*
X154500Y17000D01*
X91000Y23000D02*
X148500D01*
X200500Y11000D02*
X243500D01*
X195000Y16500D02*
X200500Y11000D01*
X182000Y16500D02*
X195000D01*
X149000Y28000D02*
X149997Y27003D01*
X96500Y28000D02*
X149000D01*
X188500Y29000D02*
X208500D01*
X166500Y51000D02*
X188500Y29000D01*
X133500Y51000D02*
X166500D01*
X117000Y34500D02*
X133500Y51000D01*
X116000Y33500D02*
X117000Y34500D01*
X102000Y33500D02*
X116000D01*
X161000Y37000D02*
X170000Y28000D01*
X136500Y39500D02*
X153500D01*
X123500Y58000D02*
X167000D01*
X122500D02*
X123500D01*
X115500Y51000D02*
X122500Y58000D01*
X121500Y66000D02*
X169000D01*
X106000Y50500D02*
X121500Y66000D01*
X191500Y43500D02*
X237500D01*
X169000Y66000D02*
X191500Y43500D01*
X218500Y138000D02*
X256500D01*
X213500Y133000D02*
X218500Y138000D01*
X153500Y133000D02*
X213500D01*
X152000Y127000D02*
X208500D01*
X154500Y139500D02*
X157000Y137000D01*
X146500Y139500D02*
X154500D01*
X255500Y144500D02*
X261500Y138500D01*
X145500Y144500D02*
X255500D01*
X140000Y139000D02*
X145500Y144500D01*
X104500Y139000D02*
X140000D01*
X44500Y144000D02*
X104000D01*
X37000Y136500D02*
X44500Y144000D01*
X16500Y136500D02*
X37000D01*
X10500Y130500D02*
X16500Y136500D01*
X6500Y130500D02*
X10500D01*
X149000Y122000D02*
X204000D01*
X139000Y132000D02*
X149000Y122000D01*
X145000Y110500D02*
X162000D01*
X145000Y116500D02*
X168500D01*
X135000Y126500D02*
X145000Y116500D01*
X134500Y127000D02*
X135000Y126500D01*
X121000Y127000D02*
X134500D01*
X130000Y122500D02*
X139000Y113500D01*
X164500Y104500D02*
X176500Y116500D01*
X136500Y104500D02*
X164500D01*
X114000Y127000D02*
X136500Y104500D01*
X175500Y91500D02*
X184000Y100000D01*
X135000Y91500D02*
X175500D01*
X111500Y78500D02*
X157000D01*
X105000Y85000D02*
X111500Y78500D01*
X4000Y64000D02*
X13500D01*
X102500Y79500D02*
X106000Y76000D01*
X108500Y90500D02*
X116000Y83000D01*
X93500Y90500D02*
X108500D01*
X106000Y101000D02*
X123500Y83500D01*
X105500Y101500D02*
X106000Y101000D01*
X93500Y101500D02*
X105500D01*
X86500Y5500D02*
X90500Y9500D01*
X28000Y5500D02*
X86500D01*
X119500Y45500D02*
X126500Y52500D01*
X97000Y45500D02*
X119500D01*
X131500Y84000D02*
X178500D01*
X131000D02*
X131500D01*
X109000Y106000D02*
X131000Y84000D01*
X108500Y106500D02*
X109000Y106000D01*
X93500Y106500D02*
X108500D01*
X7000Y46500D02*
X14500Y39000D01*
X194500Y73500D02*
X197500Y70500D01*
X227500D01*
X188500Y72000D02*
X195000Y65500D01*
X143000Y72000D02*
X188500D01*
X118000D02*
X138000D01*
X106000Y60000D02*
X118000Y72000D01*
X10500Y81500D02*
X15000D01*
X8000Y75500D02*
X15000D01*
X93500Y61000D02*
X100500D01*
X108000Y116000D02*
X130000Y94000D01*
X62500Y116000D02*
X108000D01*
X184000D02*
X198000D01*
X166000Y98000D02*
X184000Y116000D01*
X135500Y98000D02*
X166000D01*
X133500D02*
X135500D01*
X111000Y120500D02*
X133500Y98000D01*
X110500Y121000D02*
X111000Y120500D01*
X92500Y121000D02*
X110500D01*
X99000Y139500D02*
X104500Y134000D01*
X55500Y139500D02*
X99000D01*
X44500Y125000D02*
X52500Y133000D01*
X39500Y130500D02*
X48500Y139500D01*
X15000Y130500D02*
X39500D01*
X61500Y34498D02*
Y28500D01*
X65499D01*
X33500Y31500D02*
X37499D01*
X40500Y34498D02*
Y28500D01*
X43499D01*
X44499Y29500D01*
Y30499D01*
X43499Y31499D01*
X40500D01*
X43499D01*
X44499Y32499D01*
Y33498D01*
X43499Y34498D01*
X40500D01*
X50499D02*
X48500D01*
X47500Y33498D01*
Y29500D01*
X48500Y28500D01*
X50499D01*
X51499Y29500D01*
Y33498D01*
X50499Y34498D01*
X54500D02*
Y29500D01*
X55500Y28500D01*
X57499D01*
X58499Y29500D01*
Y34498D01*
X68500D02*
Y28500D01*
X71499D01*
X72499Y29500D01*
Y33498D01*
X71499Y34498D01*
X68500D01*
X79499D02*
X75500D01*
Y28500D01*
X79499D01*
X75500Y31499D02*
X77499D01*
X82500Y28500D02*
Y34498D01*
X85499D01*
X86499Y33498D01*
Y31499D01*
X85499Y30499D01*
X82500D01*
X84499D02*
X86499Y28500D01*
X22499Y33498D02*
X21499Y34498D01*
X19500D01*
X18500Y33498D01*
Y29500D01*
X19500Y28500D01*
X21499D01*
X22499Y29500D01*
X26500Y34498D02*
Y29500D01*
X27500Y28500D01*
X29499D01*
X30499Y29500D01*
Y34498D01*
D15*
X209500Y127500D02*
D03*
X250000Y10000D02*
D03*
X259000Y32000D02*
D03*
X263000Y73000D02*
D03*
X294500Y86000D02*
D03*
X291000Y125500D02*
D03*
X296000Y129000D02*
D03*
X280000Y138500D02*
D03*
X130500Y34500D02*
D03*
X209000Y137000D02*
D03*
X145000Y133000D02*
D03*
X134000Y133500D02*
D03*
X97000Y133000D02*
D03*
X7000Y12500D02*
D03*
X10000Y16500D02*
D03*
X5000Y53000D02*
D03*
X4000Y81500D02*
D03*
X6500Y118000D02*
D03*
X4000Y105000D02*
D03*
X49500Y119000D02*
D03*
X31000Y140000D02*
D03*
X36500Y140500D02*
D03*
X5500Y124500D02*
D03*
X190000Y88000D02*
D03*
X149000Y12500D02*
D03*
X137000Y13000D02*
D03*
X146000Y17500D02*
D03*
X190500Y5500D02*
D03*
X234500Y75500D02*
D03*
X239000Y78500D02*
D03*
X295000Y56000D02*
D03*
X295500Y98500D02*
D03*
X290500Y14000D02*
D03*
X285000Y20000D02*
D03*
X289500Y45500D02*
D03*
X177500Y77000D02*
D03*
X197000Y64500D02*
D03*
X237500Y43500D02*
D03*
X172500Y64000D02*
D03*
X115000Y39000D02*
D03*
X101500Y33500D02*
D03*
X213000Y29000D02*
D03*
X249500Y40500D02*
D03*
X242500Y39000D02*
D03*
X233000Y59000D02*
D03*
X165000Y88000D02*
D03*
X205500Y109500D02*
D03*
X185000Y110000D02*
D03*
X131500Y104000D02*
D03*
X112500Y82000D02*
D03*
X117000Y93000D02*
D03*
X139000Y82000D02*
D03*
X144000D02*
D03*
X204500Y99500D02*
D03*
X289500Y68500D02*
D03*
X295000Y76500D02*
D03*
X248000Y104500D02*
D03*
X243000Y117500D02*
D03*
X293000Y103500D02*
D03*
X290000Y92000D02*
D03*
X220500Y123000D02*
D03*
X295500Y122000D02*
D03*
X225000Y118000D02*
D03*
X175000Y107000D02*
D03*
X187000Y121000D02*
D03*
X146500Y139500D02*
D03*
X121500Y127500D02*
D03*
X169500Y126500D02*
D03*
X177500D02*
D03*
X114000Y127000D02*
D03*
X108000D02*
D03*
X185500Y11500D02*
D03*
X296000Y32000D02*
D03*
X246000Y27000D02*
D03*
X91000Y23500D02*
D03*
X32000Y11000D02*
D03*
X243500Y11500D02*
D03*
X147000Y3500D02*
D03*
X4500Y39500D02*
D03*
X4000Y64000D02*
D03*
X3500Y94000D02*
D03*
X204500Y122000D02*
D03*
X139000Y132500D02*
D03*
X256000Y138000D02*
D03*
X153500Y133000D02*
D03*
X104500Y139000D02*
D03*
X55500Y139500D02*
D03*
X48500D02*
D03*
X15500Y130500D02*
D03*
X104000Y144000D02*
D03*
X5500Y130500D02*
D03*
X7500Y137000D02*
D03*
X15000Y143500D02*
D03*
M02*
