M48
;Layer_Color=9474304
;FILE_FORMAT=2:5
INCH,LZ
;TYPE=PLATED
T01F00S00C0.01300
%
T01
X0007Y00125
X001Y00165
X0032Y0011
X00045Y00395
X0005Y0053
X0091Y00235
X01015Y00335
X0115Y0039
X01305Y00345
X0137Y0013
X0149Y00125
X0146Y00175
X0147Y00035
X01905Y00055
X01855Y00115
X0213Y0029
X0246Y0027
X02425Y0039
X02495Y00405
X02375Y00435
X0259Y0032
X025Y001
X02435Y00115
X02905Y0014
X0285Y002
X0296Y0032
X02895Y00455
X0295Y0056
X02895Y00685
X0295Y00765
X02945Y0086
X029Y0092
X02955Y00985
X0293Y01035
X02955Y0122
X0296Y0129
X0291Y01255
X028Y01385
X0256Y0138
X0243Y01175
X0248Y01045
X0239Y00785
X02345Y00755
X0233Y0059
X0263Y0073
X0225Y0118
X02205Y0123
X02095Y01275
X0209Y0137
X02045Y0122
X02055Y01095
X02045Y00995
X019Y0088
X01775Y0077
X01725Y0064
X0197Y00645
X0165Y0088
X0144Y0082
X0139
X01125
X0117Y0093
X01315Y0104
X0134Y01335
X0139Y01325
X0145Y0133
X01465Y01395
X01535Y0133
X01695Y01265
X01775
X0187Y0121
X0185Y011
X0175Y0107
X01215Y01275
X0114Y0127
X0108
X01045Y0139
X0104Y0144
X0097Y0133
X00555Y01395
X00485
X00365Y01405
X0031Y014
X0015Y01435
X00155Y01305
X00055
Y01245
X00065Y0118
X0004Y0105
X00035Y0094
X0004Y00815
Y0064
X00075Y0137
X00495Y0119
M30
