M48
;Layer_Color=9474304
;FILE_FORMAT=4:4
METRIC,LZ
;TYPE=PLATED
T01F00S00C0.3302
T03F00S00C1.0160
T04F00S00C1.0201
T05F00S00C1.1000
%
T01
X0067183Y0016764
X0065532Y0021971
X0070485Y002794
X008763Y0024384
X0087503Y0019431
Y0017272
X0060071Y0045974
X0056896Y0043434
X0053467Y0086995
X0032004Y007747
X001651Y0074422
X0063373Y0076327
X0065532Y007366
X0073152Y00762
T03
X0003048Y0008255
X0005588
X0008128
X0010668
Y0014097
X0008128
X0005588
X0003048
X0031623Y0008001
X0034163
X0036703
X0039243
X0053848Y0010922
X0056388
X0058928
X0061468
X007747Y0009144
X008001
X008255
X008509
X0061468Y0016256
X0058928
X0056388
Y0022098
X0058928
X0061468
X0053848
Y0016256
X0010668Y0019939
X0008128
X0005588
X0003048
X0042799Y0076073
Y0078613
Y0081153
Y0083693
X0078994Y0085217
X0081534
X0084074
X0086614
T04
X0019812Y0043815
X0022352
X0018923Y0082804
Y0085344
X008001Y007874
X008255
T05
X0064897Y0046482
X0067437
X0069977
X0035433Y008128
Y008382
Y008636
M30
