G04*
G04 #@! TF.GenerationSoftware,Altium Limited,Altium Designer,24.1.2 (44)*
G04*
G04 Layer_Color=8421504*
%FSLAX44Y44*%
%MOMM*%
G71*
G04*
G04 #@! TF.SameCoordinates,1CDE90F2-DCA2-4B6B-BF69-51DDCCDC9EC5*
G04*
G04*
G04 #@! TF.FilePolarity,Positive*
G04*
G01*
G75*
%ADD19R,1.8034X1.1176*%
%ADD20R,0.6000X3.4000*%
%ADD21R,1.1176X1.8034*%
%ADD22R,2.6500X0.6000*%
%ADD23R,1.7000X3.0988*%
%ADD24R,1.7000X0.8382*%
D19*
X657860Y426466D02*
D03*
Y396494D02*
D03*
X683260D02*
D03*
Y426466D02*
D03*
X635000Y778764D02*
D03*
Y808736D02*
D03*
X321310Y790956D02*
D03*
Y760984D02*
D03*
X716280Y712216D02*
D03*
Y682244D02*
D03*
X731520Y777748D02*
D03*
Y807720D02*
D03*
D20*
X663730Y818362D02*
D03*
X676430D02*
D03*
X689130D02*
D03*
X701830D02*
D03*
Y764362D02*
D03*
X689130D02*
D03*
X676430D02*
D03*
X663730D02*
D03*
D21*
X860806Y208280D02*
D03*
X830834D02*
D03*
X776224D02*
D03*
X806196D02*
D03*
X776224Y175260D02*
D03*
X806196D02*
D03*
X858266Y173990D02*
D03*
X828294D02*
D03*
X286004Y166370D02*
D03*
X315976D02*
D03*
X374396Y167640D02*
D03*
X344424D02*
D03*
X283464Y228600D02*
D03*
X313436D02*
D03*
X284734Y196850D02*
D03*
X314706D02*
D03*
X374396Y195580D02*
D03*
X344424D02*
D03*
X374396Y228600D02*
D03*
X344424D02*
D03*
X685546Y683260D02*
D03*
X655574D02*
D03*
X685546Y711200D02*
D03*
X655574D02*
D03*
X732536Y863600D02*
D03*
X702564D02*
D03*
X678942D02*
D03*
X648970D02*
D03*
X458216Y869950D02*
D03*
X428244D02*
D03*
X195326Y762000D02*
D03*
X165354D02*
D03*
X515366Y868680D02*
D03*
X485394D02*
D03*
X719074Y279400D02*
D03*
X749046D02*
D03*
X832104Y243840D02*
D03*
X862076D02*
D03*
X807466Y241300D02*
D03*
X777494D02*
D03*
X93980Y436880D02*
D03*
X123952D02*
D03*
D22*
X173570Y257810D02*
D03*
Y245110D02*
D03*
Y232410D02*
D03*
Y219710D02*
D03*
Y207010D02*
D03*
Y194310D02*
D03*
Y181610D02*
D03*
X230290D02*
D03*
Y194310D02*
D03*
Y207010D02*
D03*
Y219710D02*
D03*
Y232410D02*
D03*
Y245110D02*
D03*
X229870Y257810D02*
D03*
X734060Y255270D02*
D03*
X734480Y242570D02*
D03*
Y229870D02*
D03*
Y217170D02*
D03*
Y204470D02*
D03*
Y191770D02*
D03*
Y179070D02*
D03*
X677760D02*
D03*
Y191770D02*
D03*
Y204470D02*
D03*
Y217170D02*
D03*
Y229870D02*
D03*
Y242570D02*
D03*
Y255270D02*
D03*
D23*
X224040Y791210D02*
D03*
D24*
X289040Y768096D02*
D03*
Y791210D02*
D03*
X291540Y814324D02*
D03*
M02*
