G04*
G04 #@! TF.GenerationSoftware,Altium Limited,Altium Designer,24.1.2 (44)*
G04*
G04 Layer_Physical_Order=1*
G04 Layer_Color=255*
%FSLAX44Y44*%
%MOMM*%
G71*
G04*
G04 #@! TF.SameCoordinates,1CDE90F2-DCA2-4B6B-BF69-51DDCCDC9EC5*
G04*
G04*
G04 #@! TF.FilePolarity,Positive*
G04*
G01*
G75*
%ADD10C,0.5080*%
%ADD14C,0.1524*%
%ADD19R,1.8034X1.1176*%
%ADD20R,0.6000X3.4000*%
%ADD21R,1.1176X1.8034*%
%ADD22R,2.6500X0.6000*%
%ADD23R,1.7000X3.0988*%
%ADD24R,1.7000X0.8382*%
%ADD38C,1.7780*%
%ADD39C,1.6500*%
%ADD40C,1.6200*%
%ADD41O,2.0000X3.8000*%
%ADD42O,3.3000X1.8000*%
%ADD43C,0.6350*%
D10*
X635000Y353060D02*
X657860Y330200D01*
Y396494D01*
Y330200D02*
X677760Y310300D01*
X657860Y396494D02*
X683260D01*
X414020Y619760D02*
X635000Y398780D01*
X677760Y255270D02*
Y310300D01*
X635000Y353060D02*
Y398780D01*
X414020Y619760D02*
Y778510D01*
X317500Y257810D02*
X367660Y307970D01*
X229870Y257810D02*
X317500D01*
X749046Y260006D02*
Y279400D01*
X744310Y255270D02*
X749046Y260006D01*
X734060Y255270D02*
X744310D01*
X677760D02*
X734060D01*
X367660Y824870D02*
X414020Y778510D01*
X354965Y837565D02*
X367660Y824870D01*
X354330Y838200D02*
X354965Y837565D01*
X367660Y307970D02*
Y824870D01*
X314960Y282376D02*
Y291664D01*
X311984Y294640D02*
X314960Y291664D01*
X311984Y279400D02*
X314960Y282376D01*
X71120Y279400D02*
X311984D01*
X69016Y294640D02*
X311984D01*
X292302Y813562D02*
X353568D01*
X335407Y793877D02*
X354330Y812800D01*
X335407Y753292D02*
Y793877D01*
X353568Y813562D02*
X354330Y812800D01*
X271245Y750316D02*
X332431D01*
X335407Y753292D01*
X67310Y368736D02*
Y376754D01*
X70286Y365760D02*
X310714D01*
X67310Y368736D02*
X70286Y365760D01*
Y379730D02*
X308610D01*
X67310Y376754D02*
X70286Y379730D01*
X66040Y297616D02*
X69016Y294640D01*
X66040Y297616D02*
Y310714D01*
X67310Y275590D02*
X71120Y279400D01*
X67310Y260786D02*
Y275590D01*
X70286Y257810D02*
X173570D01*
X67310Y260786D02*
X70286Y257810D01*
X316230Y316666D02*
Y331034D01*
X66040Y310714D02*
X69016Y313690D01*
X313254D01*
X316230Y316666D01*
X313254Y334010D02*
X316230Y331034D01*
X70286Y334010D02*
X313254D01*
X67310Y336986D02*
Y347980D01*
Y336986D02*
X70286Y334010D01*
X71120Y351790D02*
X309880D01*
X67310Y347980D02*
X71120Y351790D01*
X173570Y257810D02*
X229870D01*
X224790Y436880D02*
X302260D01*
X223520Y438150D02*
X224790Y436880D01*
X302260D02*
X313690Y425450D01*
Y384810D02*
Y425450D01*
X308610Y379730D02*
X313690Y384810D01*
X310714Y365760D02*
X313690Y362784D01*
Y355600D02*
Y362784D01*
X309880Y351790D02*
X313690Y355600D01*
X673590Y791990D02*
X698394D01*
X701370Y789014D01*
Y764822D02*
Y789014D01*
X663730Y809196D02*
X664190Y808736D01*
Y801390D02*
Y808736D01*
Y801390D02*
X673590Y791990D01*
X663730Y809196D02*
Y818362D01*
X648970Y846963D02*
X655926Y840007D01*
X648970Y846963D02*
Y863600D01*
X663730Y818362D02*
Y832362D01*
X656086Y840007D02*
X663730Y832362D01*
X655926Y840007D02*
X656086D01*
X663270Y808736D02*
X663730Y809196D01*
X635000Y808736D02*
X663270D01*
X427990Y836930D02*
X603377D01*
X631571Y808736D01*
X635000D01*
X259561Y762000D02*
X271245Y750316D01*
X195326Y762000D02*
X259561D01*
X428117Y869823D02*
X428244Y869950D01*
X427990Y836930D02*
X428117Y837057D01*
Y869823D01*
X224040Y791210D02*
X289040D01*
X289167Y791083D02*
X321183D01*
X321310Y790956D01*
X289040Y791210D02*
X289167Y791083D01*
X291540Y814324D02*
X292302Y813562D01*
X354965Y837565D02*
X427355D01*
X427990Y836930D01*
X189230Y853440D02*
X342047D01*
X352206Y863600D01*
X354330D01*
X196332Y825912D02*
X224040Y798204D01*
X191358Y825912D02*
X196332D01*
X224040Y791210D02*
Y798204D01*
X189230Y828040D02*
X191358Y825912D01*
X140010Y833953D02*
Y840740D01*
Y833953D02*
X195326Y778637D01*
Y762000D02*
Y778637D01*
D14*
X392430Y80010D02*
X509270D01*
X538480Y109220D01*
X55880Y140970D02*
X81280D01*
X30480D02*
X55880D01*
Y199390D02*
X81280D01*
X30480D02*
X55880D01*
Y82550D02*
X81280D01*
X30480D02*
X55880D01*
X30480D02*
Y140970D01*
Y199390D02*
Y388620D01*
X78740Y436880D01*
X683260Y448310D02*
X699770Y464820D01*
X683260Y426466D02*
Y448310D01*
X699770Y392480D02*
Y464820D01*
Y392480D02*
X757936Y334314D01*
X648970Y464820D02*
X657860Y455930D01*
Y426466D02*
Y455930D01*
X317881Y760730D02*
X320040Y762889D01*
Y774700D01*
X310769Y768096D02*
X317881Y760984D01*
X321310D01*
X655320Y711454D02*
X655574Y711200D01*
X655320Y736600D02*
X663730Y745010D01*
Y764362D01*
X655320Y711454D02*
Y736600D01*
X731520Y762000D02*
Y777748D01*
X374396Y195580D02*
Y228600D01*
X515366Y868680D02*
X516636Y869950D01*
X534670D01*
X859536Y172720D02*
X875030D01*
X858266Y173990D02*
X859536Y172720D01*
X860806Y204851D02*
Y208280D01*
Y204851D02*
X870424Y195233D01*
X874107D01*
X875030Y194310D01*
X862076Y243840D02*
X876300D01*
X774700Y91440D02*
X806196Y122936D01*
Y175260D01*
X860806Y208280D02*
X862076Y209550D01*
X806196Y175260D02*
X827024D01*
X828294Y173990D01*
X806196Y208280D02*
X830834D01*
X829564Y241300D02*
X832104Y243840D01*
X807466Y241300D02*
X829564D01*
X734480Y179070D02*
X772414D01*
X776224Y175260D01*
X772414Y204470D02*
X776224Y208280D01*
X734480Y204470D02*
X772414D01*
X734480Y229870D02*
X769493D01*
X777494Y237871D01*
Y241300D01*
X367030Y80010D02*
X392430D01*
X355701D02*
X367030D01*
X341630D02*
X355701D01*
X297612Y67818D02*
X343509D01*
X355701Y80010D01*
X183820Y181610D02*
X297612Y67818D01*
X392430Y80010D02*
Y146177D01*
X315976Y166370D02*
X316230Y166116D01*
Y80010D02*
Y166116D01*
X374396Y167640D02*
Y195580D01*
Y164211D02*
X392430Y146177D01*
X286004Y166370D02*
Y169799D01*
X230290Y181610D02*
X274193D01*
X286004Y169799D01*
X278003Y207010D02*
X284734Y200279D01*
X230290Y207010D02*
X278003D01*
X284734Y196850D02*
Y200279D01*
X244350Y228600D02*
X283464D01*
X240540Y232410D02*
X244350Y228600D01*
X230290Y232410D02*
X240540D01*
X313436Y228600D02*
X344424D01*
X314706Y196850D02*
X343154D01*
X344424Y195580D01*
X343154Y166370D02*
X344424Y167640D01*
X315976Y166370D02*
X343154D01*
X639837Y459740D02*
X644918Y464820D01*
X648970D01*
X600710Y459740D02*
X639837D01*
X379730Y245110D02*
X568960Y434340D01*
X674370Y550586D02*
X825500Y701716D01*
Y787400D01*
X674370Y464820D02*
Y550586D01*
X78740Y436880D02*
X93980D01*
X658273Y220633D02*
X667510Y229870D01*
X677760D01*
X656243Y220633D02*
X658273D01*
X655320Y219710D02*
X656243Y220633D01*
X677760Y173570D02*
Y179070D01*
X671830Y167640D02*
X677760Y173570D01*
X704850Y279400D02*
X719074D01*
X655574Y683260D02*
Y711200D01*
X633730Y777494D02*
X635000Y778764D01*
X633730Y763270D02*
Y777494D01*
X165100Y761746D02*
X165354Y762000D01*
X165100Y744220D02*
Y761746D01*
X734480Y242570D02*
X744730D01*
X757936Y255776D01*
Y334314D01*
X724230Y191770D02*
X734480D01*
X700710D02*
X724230D01*
X688010Y204470D02*
X700710Y191770D01*
X677760Y204470D02*
X688010D01*
X717928Y198072D02*
Y210868D01*
Y198072D02*
X724230Y191770D01*
X717928Y210868D02*
X724230Y217170D01*
X734480D01*
X717928Y223472D02*
X724230Y217170D01*
X717928Y223472D02*
Y236268D01*
X724230Y242570D01*
X734480D01*
X667510Y191770D02*
X677760D01*
X614680Y109220D02*
Y138940D01*
X667510Y191770D01*
X614680Y164340D02*
X667510Y217170D01*
X614680Y162560D02*
Y164340D01*
X667510Y217170D02*
X677760D01*
X645920Y220980D02*
X667510Y242570D01*
X614680Y220980D02*
X645920D01*
X667510Y242570D02*
X677760D01*
X173570Y227124D02*
Y232410D01*
Y227124D02*
X174682Y226012D01*
X158952Y213312D02*
X188092D01*
X174682Y226012D02*
X188188D01*
X159048Y200612D02*
X188188D01*
X190122Y198678D01*
Y189942D02*
Y198678D01*
X157269Y217376D02*
X160986D01*
X157018Y202642D02*
X159048Y200612D01*
X160986Y217376D02*
X163320Y219710D01*
X188092Y213312D02*
X190122Y215342D01*
X106680Y163070D02*
X152954Y209344D01*
X190122Y215342D02*
Y224078D01*
X194186Y196644D02*
X196520Y194310D01*
X173570Y186896D02*
X174682Y188008D01*
X183820Y207010D02*
X186154Y204676D01*
X157018Y202642D02*
Y211378D01*
X158952Y213312D01*
X194186Y196644D02*
Y200361D01*
X188188Y226012D02*
X190122Y224078D01*
X186154Y204676D02*
X189871D01*
X152954Y209344D02*
Y213061D01*
X174682Y188008D02*
X188188D01*
X189871Y204676D02*
X194186Y200361D01*
X188188Y188008D02*
X190122Y189942D01*
X152954Y213061D02*
X157269Y217376D01*
X173570Y181610D02*
Y186896D01*
Y181610D02*
X183820D01*
X865505Y852170D02*
X866140D01*
X800735Y787400D02*
X865505Y852170D01*
X800100Y787400D02*
X800735D01*
X81280Y140970D02*
Y199390D01*
X93472Y187198D01*
X156942Y232410D02*
X173570D01*
X111730Y187198D02*
X156942Y232410D01*
X93472Y187198D02*
X111730D01*
X106680Y82550D02*
X135436Y111306D01*
X163320Y194310D02*
X173570D01*
X135436Y166426D02*
X163320Y194310D01*
X135436Y111306D02*
Y166426D01*
X163320Y219710D02*
X173570D01*
X106680Y140970D02*
Y163070D01*
Y199390D02*
X152400Y245110D01*
X173570D01*
X220040Y194310D02*
X230290D01*
X196520D02*
X220040D01*
X173570Y207010D02*
X183820D01*
X213738Y200612D02*
X220040Y194310D01*
X213738Y200612D02*
Y213408D01*
X220040Y219710D01*
X230290D01*
X213738Y226012D02*
X220040Y219710D01*
X213738Y226012D02*
Y238808D01*
X220040Y245110D01*
X230290D01*
X379730D01*
X125222Y438150D02*
X198120D01*
X123952Y436880D02*
X125222Y438150D01*
X685546Y711200D02*
Y739224D01*
X685066Y739705D02*
Y741726D01*
Y739705D02*
X685546Y739224D01*
X676430Y750362D02*
X685066Y741726D01*
X712851Y712216D02*
X716280D01*
X708025Y717042D02*
X712851Y712216D01*
X708025Y717042D02*
Y723136D01*
X689130Y742031D02*
X708025Y723136D01*
X689130Y742031D02*
Y764362D01*
X676430Y750362D02*
Y764362D01*
Y778363D01*
X752696Y739996D02*
X800100Y787400D01*
X695480Y746043D02*
Y782682D01*
Y746043D02*
X697462Y744060D01*
X715264Y683260D02*
X716280Y682244D01*
X685546Y683260D02*
X715264D01*
X695779Y739996D02*
X752696D01*
X691368Y744407D02*
X695779Y739996D01*
X691368Y744407D02*
Y762124D01*
X689130Y764362D02*
X691368Y762124D01*
X697462Y744060D02*
X706197D01*
X708132Y745995D02*
Y790514D01*
X676430Y778363D02*
X682732Y784664D01*
X693497D02*
X695480Y782682D01*
X706197Y744060D02*
X708132Y745995D01*
X700814Y797832D02*
X708132Y790514D01*
X695660Y797832D02*
X700814D01*
X689130Y804362D02*
X695660Y797832D01*
X689130Y804362D02*
Y818362D01*
X682732Y784664D02*
X693497D01*
X727710Y855345D02*
X732536Y860171D01*
X713584Y855345D02*
X727710D01*
X703211Y844973D02*
X713584Y855345D01*
X689130Y818362D02*
Y832362D01*
X732536Y860171D02*
Y863600D01*
X701740Y844973D02*
X703211D01*
X689130Y832362D02*
X701740Y844973D01*
X676430Y832362D02*
X678942Y834875D01*
X676430Y818362D02*
Y832362D01*
X678942Y834875D02*
Y863600D01*
X702564D01*
X728091Y807720D02*
X731520D01*
X701830Y818362D02*
X717449D01*
X728091Y807720D01*
X458216Y869950D02*
X484124D01*
X485394Y868680D01*
X289040Y768096D02*
X310769D01*
D19*
X657860Y426466D02*
D03*
Y396494D02*
D03*
X683260D02*
D03*
Y426466D02*
D03*
X635000Y778764D02*
D03*
Y808736D02*
D03*
X321310Y790956D02*
D03*
Y760984D02*
D03*
X716280Y712216D02*
D03*
Y682244D02*
D03*
X731520Y777748D02*
D03*
Y807720D02*
D03*
D20*
X663730Y818362D02*
D03*
X676430D02*
D03*
X689130D02*
D03*
X701830D02*
D03*
Y764362D02*
D03*
X689130D02*
D03*
X676430D02*
D03*
X663730D02*
D03*
D21*
X860806Y208280D02*
D03*
X830834D02*
D03*
X776224D02*
D03*
X806196D02*
D03*
X776224Y175260D02*
D03*
X806196D02*
D03*
X858266Y173990D02*
D03*
X828294D02*
D03*
X286004Y166370D02*
D03*
X315976D02*
D03*
X374396Y167640D02*
D03*
X344424D02*
D03*
X283464Y228600D02*
D03*
X313436D02*
D03*
X284734Y196850D02*
D03*
X314706D02*
D03*
X374396Y195580D02*
D03*
X344424D02*
D03*
X374396Y228600D02*
D03*
X344424D02*
D03*
X685546Y683260D02*
D03*
X655574D02*
D03*
X685546Y711200D02*
D03*
X655574D02*
D03*
X732536Y863600D02*
D03*
X702564D02*
D03*
X678942D02*
D03*
X648970D02*
D03*
X458216Y869950D02*
D03*
X428244D02*
D03*
X195326Y762000D02*
D03*
X165354D02*
D03*
X515366Y868680D02*
D03*
X485394D02*
D03*
X719074Y279400D02*
D03*
X749046D02*
D03*
X832104Y243840D02*
D03*
X862076D02*
D03*
X807466Y241300D02*
D03*
X777494D02*
D03*
X93980Y436880D02*
D03*
X123952D02*
D03*
D22*
X173570Y257810D02*
D03*
Y245110D02*
D03*
Y232410D02*
D03*
Y219710D02*
D03*
Y207010D02*
D03*
Y194310D02*
D03*
Y181610D02*
D03*
X230290D02*
D03*
Y194310D02*
D03*
Y207010D02*
D03*
Y219710D02*
D03*
Y232410D02*
D03*
Y245110D02*
D03*
X229870Y257810D02*
D03*
X734060Y255270D02*
D03*
X734480Y242570D02*
D03*
Y229870D02*
D03*
Y217170D02*
D03*
Y204470D02*
D03*
Y191770D02*
D03*
Y179070D02*
D03*
X677760D02*
D03*
Y191770D02*
D03*
Y204470D02*
D03*
Y217170D02*
D03*
Y229870D02*
D03*
Y242570D02*
D03*
Y255270D02*
D03*
D23*
X224040Y791210D02*
D03*
D24*
X289040Y768096D02*
D03*
Y791210D02*
D03*
X291540Y814324D02*
D03*
D38*
X341630Y80010D02*
D03*
X316230D02*
D03*
X392430D02*
D03*
X367030D02*
D03*
X800100Y91440D02*
D03*
X774700D02*
D03*
X850900D02*
D03*
X825500D02*
D03*
X55880Y199390D02*
D03*
X30480D02*
D03*
X106680D02*
D03*
X81280D02*
D03*
X55880Y140970D02*
D03*
X30480D02*
D03*
X106680D02*
D03*
X81280D02*
D03*
X55880Y82550D02*
D03*
X30480D02*
D03*
X106680D02*
D03*
X81280D02*
D03*
X563880Y220980D02*
D03*
X538480D02*
D03*
X614680D02*
D03*
X589280D02*
D03*
X563880Y109220D02*
D03*
X538480D02*
D03*
X614680D02*
D03*
X589280D02*
D03*
X563880Y162560D02*
D03*
X538480D02*
D03*
X614680D02*
D03*
X589280D02*
D03*
X815340Y852170D02*
D03*
X789940D02*
D03*
X866140D02*
D03*
X840740D02*
D03*
X427990Y786130D02*
D03*
Y760730D02*
D03*
Y836930D02*
D03*
Y811530D02*
D03*
D39*
X648970Y464820D02*
D03*
X674370D02*
D03*
X699770D02*
D03*
X354330Y812800D02*
D03*
Y838200D02*
D03*
Y863600D02*
D03*
D40*
X198120Y438150D02*
D03*
X223520D02*
D03*
X189230Y853440D02*
D03*
Y828040D02*
D03*
X800100Y787400D02*
D03*
X825500D02*
D03*
D41*
X140010Y840740D02*
D03*
X80010D02*
D03*
D42*
X115010Y794240D02*
D03*
D43*
X320040Y774700D02*
D03*
X655320Y736600D02*
D03*
X731520Y762000D02*
D03*
X875030Y172720D02*
D03*
Y194310D02*
D03*
X876300Y243840D02*
D03*
X568960Y434340D02*
D03*
X600710Y459740D02*
D03*
X633730Y763270D02*
D03*
X534670Y869950D02*
D03*
X165100Y744220D02*
D03*
X655320Y219710D02*
D03*
X671830Y167640D02*
D03*
X704850Y279400D02*
D03*
M02*
