G04*
G04 #@! TF.GenerationSoftware,Altium Limited,Altium Designer,24.1.2 (44)*
G04*
G04 Layer_Color=8388736*
%FSLAX44Y44*%
%MOMM*%
G71*
G04*
G04 #@! TF.SameCoordinates,1CDE90F2-DCA2-4B6B-BF69-51DDCCDC9EC5*
G04*
G04*
G04 #@! TF.FilePolarity,Negative*
G04*
G01*
G75*
%ADD25C,0.0000*%
%ADD26R,2.0066X1.3208*%
%ADD27R,0.8032X3.6032*%
%ADD28R,1.3208X2.0066*%
%ADD29R,2.8532X0.8032*%
%ADD30R,1.9032X3.3020*%
%ADD31R,1.9032X1.0414*%
%ADD32C,1.9812*%
%ADD33C,1.8532*%
%ADD34C,1.8232*%
%ADD35O,2.2032X4.0032*%
%ADD36O,3.5032X2.0032*%
%ADD37C,0.8382*%
D25*
X206731Y438150D02*
G03*
X206731Y438150I-8611J0D01*
G01*
X232131D02*
G03*
X232131Y438150I-8611J0D01*
G01*
X197841Y853440D02*
G03*
X197841Y853440I-8611J0D01*
G01*
Y828040D02*
G03*
X197841Y828040I-8611J0D01*
G01*
X808711Y787400D02*
G03*
X808711Y787400I-8611J0D01*
G01*
X834111D02*
G03*
X834111Y787400I-8611J0D01*
G01*
D26*
X657860Y426466D02*
D03*
Y396494D02*
D03*
X683260D02*
D03*
Y426466D02*
D03*
X635000Y778764D02*
D03*
Y808736D02*
D03*
X321310Y790956D02*
D03*
Y760984D02*
D03*
X716280Y712216D02*
D03*
Y682244D02*
D03*
X731520Y777748D02*
D03*
Y807720D02*
D03*
D27*
X663730Y818362D02*
D03*
X676430D02*
D03*
X689130D02*
D03*
X701830D02*
D03*
Y764362D02*
D03*
X689130D02*
D03*
X676430D02*
D03*
X663730D02*
D03*
D28*
X860806Y208280D02*
D03*
X830834D02*
D03*
X776224D02*
D03*
X806196D02*
D03*
X776224Y175260D02*
D03*
X806196D02*
D03*
X858266Y173990D02*
D03*
X828294D02*
D03*
X286004Y166370D02*
D03*
X315976D02*
D03*
X374396Y167640D02*
D03*
X344424D02*
D03*
X283464Y228600D02*
D03*
X313436D02*
D03*
X284734Y196850D02*
D03*
X314706D02*
D03*
X374396Y195580D02*
D03*
X344424D02*
D03*
X374396Y228600D02*
D03*
X344424D02*
D03*
X685546Y683260D02*
D03*
X655574D02*
D03*
X685546Y711200D02*
D03*
X655574D02*
D03*
X732536Y863600D02*
D03*
X702564D02*
D03*
X678942D02*
D03*
X648970D02*
D03*
X458216Y869950D02*
D03*
X428244D02*
D03*
X195326Y762000D02*
D03*
X165354D02*
D03*
X515366Y868680D02*
D03*
X485394D02*
D03*
X719074Y279400D02*
D03*
X749046D02*
D03*
X832104Y243840D02*
D03*
X862076D02*
D03*
X807466Y241300D02*
D03*
X777494D02*
D03*
X93980Y436880D02*
D03*
X123952D02*
D03*
D29*
X173570Y257810D02*
D03*
Y245110D02*
D03*
Y232410D02*
D03*
Y219710D02*
D03*
Y207010D02*
D03*
Y194310D02*
D03*
Y181610D02*
D03*
X230290D02*
D03*
Y194310D02*
D03*
Y207010D02*
D03*
Y219710D02*
D03*
Y232410D02*
D03*
Y245110D02*
D03*
X229870Y257810D02*
D03*
X734060Y255270D02*
D03*
X734480Y242570D02*
D03*
Y229870D02*
D03*
Y217170D02*
D03*
Y204470D02*
D03*
Y191770D02*
D03*
Y179070D02*
D03*
X677760D02*
D03*
Y191770D02*
D03*
Y204470D02*
D03*
Y217170D02*
D03*
Y229870D02*
D03*
Y242570D02*
D03*
Y255270D02*
D03*
D30*
X224040Y791210D02*
D03*
D31*
X289040Y768096D02*
D03*
Y791210D02*
D03*
X291540Y814324D02*
D03*
D32*
X341630Y80010D02*
D03*
X316230D02*
D03*
X392430D02*
D03*
X367030D02*
D03*
X800100Y91440D02*
D03*
X774700D02*
D03*
X850900D02*
D03*
X825500D02*
D03*
X55880Y199390D02*
D03*
X30480D02*
D03*
X106680D02*
D03*
X81280D02*
D03*
X55880Y140970D02*
D03*
X30480D02*
D03*
X106680D02*
D03*
X81280D02*
D03*
X55880Y82550D02*
D03*
X30480D02*
D03*
X106680D02*
D03*
X81280D02*
D03*
X563880Y220980D02*
D03*
X538480D02*
D03*
X614680D02*
D03*
X589280D02*
D03*
X563880Y109220D02*
D03*
X538480D02*
D03*
X614680D02*
D03*
X589280D02*
D03*
X563880Y162560D02*
D03*
X538480D02*
D03*
X614680D02*
D03*
X589280D02*
D03*
X815340Y852170D02*
D03*
X789940D02*
D03*
X866140D02*
D03*
X840740D02*
D03*
X427990Y786130D02*
D03*
Y760730D02*
D03*
Y836930D02*
D03*
Y811530D02*
D03*
D33*
X648970Y464820D02*
D03*
X674370D02*
D03*
X699770D02*
D03*
X354330Y812800D02*
D03*
Y838200D02*
D03*
Y863600D02*
D03*
D34*
X198120Y438150D02*
D03*
X223520D02*
D03*
X189230Y853440D02*
D03*
Y828040D02*
D03*
X800100Y787400D02*
D03*
X825500D02*
D03*
D35*
X140010Y840740D02*
D03*
X80010D02*
D03*
D36*
X115010Y794240D02*
D03*
D37*
X320040Y774700D02*
D03*
X655320Y736600D02*
D03*
X731520Y762000D02*
D03*
X875030Y172720D02*
D03*
Y194310D02*
D03*
X876300Y243840D02*
D03*
X568960Y434340D02*
D03*
X600710Y459740D02*
D03*
X633730Y763270D02*
D03*
X534670Y869950D02*
D03*
X165100Y744220D02*
D03*
X655320Y219710D02*
D03*
X671830Y167640D02*
D03*
X704850Y279400D02*
D03*
M02*
