G04*
G04 #@! TF.GenerationSoftware,Altium Limited,Altium Designer,24.2.2 (26)*
G04*
G04 Layer_Color=8421504*
%FSLAX44Y44*%
%MOMM*%
G71*
G04*
G04 #@! TF.SameCoordinates,C9C70787-D61E-4D50-BDF8-59307FDF8C79*
G04*
G04*
G04 #@! TF.FilePolarity,Positive*
G04*
G01*
G75*
%ADD22R,0.6000X1.1400*%
%ADD23R,0.3000X1.1400*%
%ADD24R,1.8034X1.1176*%
%ADD25R,1.1176X1.8034*%
%ADD26R,1.9000X1.2065*%
G04:AMPARAMS|DCode=27|XSize=0.508mm|YSize=1.65mm|CornerRadius=0mm|HoleSize=0mm|Usage=FLASHONLY|Rotation=40.000|XOffset=0mm|YOffset=0mm|HoleType=Round|Shape=Rectangle|*
%AMROTATEDRECTD27*
4,1,4,0.3357,-0.7953,-0.7249,0.4687,-0.3357,0.7953,0.7249,-0.4687,0.3357,-0.7953,0.0*
%
%ADD27ROTATEDRECTD27*%

G04:AMPARAMS|DCode=28|XSize=0.508mm|YSize=1.65mm|CornerRadius=0mm|HoleSize=0mm|Usage=FLASHONLY|Rotation=310.000|XOffset=0mm|YOffset=0mm|HoleType=Round|Shape=Rectangle|*
%AMROTATEDRECTD28*
4,1,4,-0.7953,-0.3357,0.4687,0.7249,0.7953,0.3357,-0.4687,-0.7249,-0.7953,-0.3357,0.0*
%
%ADD28ROTATEDRECTD28*%

%ADD29O,2.2000X0.6096*%
%ADD30R,1.5000X1.2000*%
%ADD31R,0.8382X1.7000*%
%ADD32R,3.0988X1.7000*%
%ADD33R,1.4500X0.3000*%
%ADD34R,1.4700X0.3000*%
G04:AMPARAMS|DCode=35|XSize=1.61mm|YSize=0.59mm|CornerRadius=0.0738mm|HoleSize=0mm|Usage=FLASHONLY|Rotation=0.000|XOffset=0mm|YOffset=0mm|HoleType=Round|Shape=RoundedRectangle|*
%AMROUNDEDRECTD35*
21,1,1.6100,0.4425,0,0,0.0*
21,1,1.4625,0.5900,0,0,0.0*
1,1,0.1475,0.7313,-0.2213*
1,1,0.1475,-0.7313,-0.2213*
1,1,0.1475,-0.7313,0.2213*
1,1,0.1475,0.7313,0.2213*
%
%ADD35ROUNDEDRECTD35*%
%ADD36R,1.8542X1.3716*%
%ADD37R,1.8000X1.4000*%
G04:AMPARAMS|DCode=38|XSize=1.35mm|YSize=0.59mm|CornerRadius=0.1475mm|HoleSize=0mm|Usage=FLASHONLY|Rotation=90.000|XOffset=0mm|YOffset=0mm|HoleType=Round|Shape=RoundedRectangle|*
%AMROUNDEDRECTD38*
21,1,1.3500,0.2950,0,0,90.0*
21,1,1.0550,0.5900,0,0,90.0*
1,1,0.2950,0.1475,0.5275*
1,1,0.2950,0.1475,-0.5275*
1,1,0.2950,-0.1475,-0.5275*
1,1,0.2950,-0.1475,0.5275*
%
%ADD38ROUNDEDRECTD38*%
%ADD39R,1.5500X0.6000*%
D22*
X457450Y611630D02*
D03*
X449450D02*
D03*
X401450D02*
D03*
X393450D02*
D03*
D23*
X427950D02*
D03*
X432950D02*
D03*
X437950D02*
D03*
X442950D02*
D03*
X422950D02*
D03*
X417950D02*
D03*
X412950D02*
D03*
X407950D02*
D03*
D24*
X440690Y562864D02*
D03*
Y592836D02*
D03*
X415290D02*
D03*
Y562864D02*
D03*
X205740Y53594D02*
D03*
Y83566D02*
D03*
X670560Y329184D02*
D03*
Y359156D02*
D03*
X674370Y268224D02*
D03*
Y298196D02*
D03*
Y212090D02*
D03*
Y242062D02*
D03*
Y151130D02*
D03*
Y181102D02*
D03*
X363220Y180594D02*
D03*
Y210566D02*
D03*
X443230Y216916D02*
D03*
Y186944D02*
D03*
X207010Y294894D02*
D03*
Y324866D02*
D03*
X240030Y317246D02*
D03*
Y287274D02*
D03*
X242570Y666496D02*
D03*
Y636524D02*
D03*
X314960Y561594D02*
D03*
Y591566D02*
D03*
X190500Y562864D02*
D03*
Y592836D02*
D03*
X189230Y515874D02*
D03*
Y545846D02*
D03*
X27940Y440944D02*
D03*
Y470916D02*
D03*
X314706Y507238D02*
D03*
Y537210D02*
D03*
X354584Y508000D02*
D03*
Y537972D02*
D03*
X87630Y59690D02*
D03*
Y89662D02*
D03*
X354330Y457708D02*
D03*
Y487680D02*
D03*
X314706Y457454D02*
D03*
Y487426D02*
D03*
X59690Y470916D02*
D03*
Y440944D02*
D03*
X737870Y496824D02*
D03*
Y526796D02*
D03*
X289560Y336296D02*
D03*
Y306324D02*
D03*
X64770Y316484D02*
D03*
Y346456D02*
D03*
X739140Y599694D02*
D03*
Y629666D02*
D03*
X706120Y520446D02*
D03*
Y490474D02*
D03*
X737870Y577596D02*
D03*
Y547624D02*
D03*
X54610Y622554D02*
D03*
Y652526D02*
D03*
D25*
X492506Y568960D02*
D03*
X462534D02*
D03*
X52324Y417830D02*
D03*
X82296D02*
D03*
X330454Y656590D02*
D03*
X360426D02*
D03*
X54356Y501650D02*
D03*
X24384D02*
D03*
X51054Y391160D02*
D03*
X81026D02*
D03*
X418846Y228600D02*
D03*
X388874D02*
D03*
X152146Y405130D02*
D03*
X122174D02*
D03*
X341884Y377190D02*
D03*
X371856D02*
D03*
X306324Y617220D02*
D03*
X336296D02*
D03*
X390652Y377190D02*
D03*
X420624D02*
D03*
X655066Y662940D02*
D03*
X625094D02*
D03*
X121666Y279400D02*
D03*
X91694D02*
D03*
X661416Y577850D02*
D03*
X631444D02*
D03*
X643636Y549910D02*
D03*
X613664D02*
D03*
X68834Y142240D02*
D03*
X98806D02*
D03*
X68834Y115570D02*
D03*
X98806D02*
D03*
X616966Y642620D02*
D03*
X586994D02*
D03*
X671830Y406400D02*
D03*
X701802D02*
D03*
X670814Y461010D02*
D03*
X700786D02*
D03*
X671068Y433070D02*
D03*
X701040D02*
D03*
X673354Y664210D02*
D03*
X703326D02*
D03*
D26*
X646760Y242189D02*
D03*
X592760D02*
D03*
X646760Y209931D02*
D03*
X592760D02*
D03*
X645490Y357759D02*
D03*
X591490D02*
D03*
X645490Y325501D02*
D03*
X591490D02*
D03*
X646760Y300609D02*
D03*
X592760D02*
D03*
X646760Y268351D02*
D03*
X592760D02*
D03*
X645490Y183769D02*
D03*
X591490D02*
D03*
X645490Y151511D02*
D03*
X591490D02*
D03*
D27*
X284238Y172774D02*
D03*
X290270Y177835D02*
D03*
X296496Y183060D02*
D03*
X302528Y188121D02*
D03*
X308754Y193346D02*
D03*
X314786Y198407D02*
D03*
X321013Y203631D02*
D03*
X327045Y208693D02*
D03*
X272022Y274266D02*
D03*
X265990Y269205D02*
D03*
X259764Y263980D02*
D03*
X253732Y258919D02*
D03*
X247506Y253694D02*
D03*
X241474Y248633D02*
D03*
X235247Y243409D02*
D03*
X229215Y238347D02*
D03*
D28*
X329191Y229253D02*
D03*
X324130Y235284D02*
D03*
X318905Y241511D02*
D03*
X313844Y247543D02*
D03*
X308619Y253769D02*
D03*
X303558Y259801D02*
D03*
X298334Y266027D02*
D03*
X293272Y272059D02*
D03*
X227699Y217036D02*
D03*
X232760Y211005D02*
D03*
X237985Y204778D02*
D03*
X243046Y198746D02*
D03*
X248271Y192520D02*
D03*
X253332Y186488D02*
D03*
X258557Y180262D02*
D03*
X263618Y174230D02*
D03*
D29*
X219202Y518160D02*
D03*
Y530860D02*
D03*
Y543560D02*
D03*
Y556260D02*
D03*
Y568960D02*
D03*
Y581660D02*
D03*
Y594360D02*
D03*
Y607060D02*
D03*
X278638D02*
D03*
Y594360D02*
D03*
Y581660D02*
D03*
Y568960D02*
D03*
Y556260D02*
D03*
Y543560D02*
D03*
Y530860D02*
D03*
Y518160D02*
D03*
D30*
X177392Y86278D02*
D03*
X111392Y56278D02*
D03*
Y86278D02*
D03*
X177392Y56278D02*
D03*
D31*
X101346Y372820D02*
D03*
X124460Y370320D02*
D03*
X147574D02*
D03*
D32*
X124460Y305320D02*
D03*
D33*
X576170Y613250D02*
D03*
D34*
Y608250D02*
D03*
Y603250D02*
D03*
Y598250D02*
D03*
Y593250D02*
D03*
X620170D02*
D03*
Y598250D02*
D03*
Y603250D02*
D03*
Y608250D02*
D03*
Y613250D02*
D03*
D35*
X680700Y584860D02*
D03*
Y594360D02*
D03*
Y603860D02*
D03*
X703600D02*
D03*
Y594360D02*
D03*
Y584860D02*
D03*
D36*
X264160Y334391D02*
D03*
Y303149D02*
D03*
D37*
X415790Y203240D02*
D03*
X389390Y183840D02*
D03*
X415790D02*
D03*
X389390Y203240D02*
D03*
X277630Y641310D02*
D03*
X304030Y660710D02*
D03*
X277630D02*
D03*
X304030Y641310D02*
D03*
D38*
X598120Y382270D02*
D03*
X588620Y408870D02*
D03*
X579120Y382270D02*
D03*
D39*
X668350Y487680D02*
D03*
Y500380D02*
D03*
Y513080D02*
D03*
Y525780D02*
D03*
X614350Y487680D02*
D03*
Y500380D02*
D03*
Y513080D02*
D03*
Y525780D02*
D03*
M02*
