G04*
G04 #@! TF.GenerationSoftware,Altium Limited,Altium Designer,24.2.2 (26)*
G04*
G04 Layer_Color=2752767*
%FSLAX44Y44*%
%MOMM*%
G71*
G04*
G04 #@! TF.SameCoordinates,C9C70787-D61E-4D50-BDF8-59307FDF8C79*
G04*
G04*
G04 #@! TF.FilePolarity,Positive*
G04*
G01*
G75*
%ADD18C,0.1270*%
%ADD111C,0.1693*%
%ADD112C,0.1016*%
D18*
X454350Y617250D02*
X449270Y627410D01*
X459430D01*
X454350Y617250D01*
Y619282D02*
X451302Y625378D01*
X457398D01*
X454350Y619282D01*
X396550Y617250D02*
X391470Y627410D01*
X401630D01*
X396550Y617250D01*
Y619282D02*
X393502Y625378D01*
X399598D01*
X396550Y619282D01*
X468700Y612350D02*
X471240Y614890D01*
X473780D01*
X471240Y617430D01*
X473780Y619970D01*
X471240D01*
X468700Y622510D01*
X466160Y619970D01*
X463620D01*
X466160Y617430D01*
X463620Y614890D01*
X466160D01*
X468700Y612350D01*
Y614382D02*
X470224Y615906D01*
X471748D01*
X470224Y617430D01*
X471748Y618954D01*
X470224D01*
X468700Y620478D01*
X467176Y618954D01*
X465652D01*
X467176Y617430D01*
X465652Y615906D01*
X467176D01*
X468700Y614382D01*
X382200Y612350D02*
X384740Y614890D01*
X387280D01*
X384740Y617430D01*
X387280Y619970D01*
X384740D01*
X382200Y622510D01*
X379660Y619970D01*
X377120D01*
X379660Y617430D01*
X377120Y614890D01*
X379660D01*
X382200Y612350D01*
Y614382D02*
X383724Y615906D01*
X385248D01*
X383724Y617430D01*
X385248Y618954D01*
X383724D01*
X382200Y620478D01*
X380676Y618954D01*
X379152D01*
X380676Y617430D01*
X379152Y615906D01*
X380676D01*
X382200Y614382D01*
X463620Y654050D02*
X466160Y659130D01*
X463620Y664210D01*
X468700Y661670D01*
X473780Y664210D01*
X471240Y659130D01*
X473780Y654050D01*
X468700Y656590D01*
X463620Y654050D01*
X465652Y656082D02*
X467176Y659130D01*
X465652Y662178D01*
X468700Y660654D01*
X471748Y662178D01*
X470224Y659130D01*
X471748Y656082D01*
X468700Y657606D01*
X465652Y656082D01*
X377120Y654050D02*
X379660Y659130D01*
X377120Y664210D01*
X382200Y661670D01*
X387280Y664210D01*
X384740Y659130D01*
X387280Y654050D01*
X382200Y656590D01*
X377120Y654050D01*
X379152Y656082D02*
X380676Y659130D01*
X379152Y662178D01*
X382200Y660654D01*
X385248Y662178D01*
X383724Y659130D01*
X385248Y656082D01*
X382200Y657606D01*
X379152Y656082D01*
X162560Y473710D02*
X165100Y478790D01*
X162560Y483870D01*
X167640Y481330D01*
X172720Y483870D01*
X170180Y478790D01*
X172720Y473710D01*
X167640Y476250D01*
X162560Y473710D01*
X187960D02*
X190500Y478790D01*
X187960Y483870D01*
X193040Y481330D01*
X198120Y483870D01*
X195580Y478790D01*
X198120Y473710D01*
X193040Y476250D01*
X187960Y473710D01*
X72880Y574600D02*
X75420D01*
X77960Y577140D01*
X80500Y574600D01*
X83040D01*
Y577140D01*
X80500Y579680D01*
X83040Y582220D01*
Y584760D01*
X80500D01*
X77960Y582220D01*
X75420Y584760D01*
X72880D01*
Y582220D01*
X75420Y579680D01*
X72880Y577140D01*
Y574600D01*
X121920Y612140D02*
Y609600D01*
X127000D01*
Y612140D01*
X129540D01*
Y617220D01*
X127000D01*
Y619760D01*
X121920D01*
Y617220D01*
X119380D01*
Y612140D01*
X121920D01*
Y552140D02*
Y549600D01*
X127000D01*
Y552140D01*
X129540D01*
Y557220D01*
X127000D01*
Y559760D01*
X121920D01*
Y557220D01*
X119380D01*
Y552140D01*
X121920D01*
X450850Y440690D02*
X445770Y450850D01*
X455930D01*
X450850Y440690D01*
Y466090D02*
X445770Y476250D01*
X455930D01*
X450850Y466090D01*
X631190Y389890D02*
X626110Y400050D01*
X636270D01*
X631190Y389890D01*
Y415290D02*
X626110Y425450D01*
X636270D01*
X631190Y415290D01*
X539750Y595630D02*
X534670Y605790D01*
X544830D01*
X539750Y595630D01*
Y621030D02*
X534670Y631190D01*
X544830D01*
X539750Y621030D01*
X134620Y114300D02*
X129540Y124460D01*
X139700D01*
X134620Y114300D01*
Y139700D02*
X129540Y149860D01*
X139700D01*
X134620Y139700D01*
X458470Y74930D02*
X453390Y85090D01*
X463550D01*
X458470Y74930D01*
Y49530D02*
X453390Y59690D01*
X463550D01*
X458470Y49530D01*
X19050Y600710D02*
X13970Y610870D01*
X24130D01*
X19050Y600710D01*
Y575310D02*
X13970Y585470D01*
X24130D01*
X19050Y575310D01*
Y651510D02*
X13970Y661670D01*
X24130D01*
X19050Y651510D01*
Y626110D02*
X13970Y636270D01*
X24130D01*
X19050Y626110D01*
X403860Y48260D02*
X398780Y58420D01*
X408940D01*
X403860Y48260D01*
Y73660D02*
X398780Y83820D01*
X408940D01*
X403860Y73660D01*
X96520Y450850D02*
X91440Y461010D01*
X101600D01*
X96520Y450850D01*
X121920D02*
X116840Y461010D01*
X127000D01*
X121920Y450850D01*
X584200Y544830D02*
X579120Y554990D01*
X589280D01*
X584200Y544830D01*
Y519430D02*
X579120Y529590D01*
X589280D01*
X584200Y519430D01*
X81280Y232410D02*
X76200Y242570D01*
X86360D01*
X81280Y232410D01*
X106680D02*
X101600Y242570D01*
X111760D01*
X106680Y232410D01*
X393954Y525526D02*
X388874Y535686D01*
X399034D01*
X393954Y525526D01*
X419354D02*
X414274Y535686D01*
X424434D01*
X419354Y525526D01*
X585470Y447040D02*
X580390Y457200D01*
X590550D01*
X585470Y447040D01*
Y472440D02*
X580390Y482600D01*
X590550D01*
X585470Y472440D01*
X443230Y121920D02*
X438150Y132080D01*
X448310D01*
X443230Y121920D01*
Y147320D02*
X438150Y157480D01*
X448310D01*
X443230Y147320D01*
X158750Y504190D02*
X161290Y506730D01*
X163830D01*
X161290Y509270D01*
X163830Y511810D01*
X161290D01*
X158750Y514350D01*
X156210Y511810D01*
X153670D01*
X156210Y509270D01*
X153670Y506730D01*
X156210D01*
X158750Y504190D01*
X133350D02*
X135890Y506730D01*
X138430D01*
X135890Y509270D01*
X138430Y511810D01*
X135890D01*
X133350Y514350D01*
X130810Y511810D01*
X128270D01*
X130810Y509270D01*
X128270Y506730D01*
X130810D01*
X133350Y504190D01*
X107950D02*
X110490Y506730D01*
X113030D01*
X110490Y509270D01*
X113030Y511810D01*
X110490D01*
X107950Y514350D01*
X105410Y511810D01*
X102870D01*
X105410Y509270D01*
X102870Y506730D01*
X105410D01*
X107950Y504190D01*
X25400Y172720D02*
X27940Y175260D01*
X30480D01*
X27940Y177800D01*
X30480Y180340D01*
X27940D01*
X25400Y182880D01*
X22860Y180340D01*
X20320D01*
X22860Y177800D01*
X20320Y175260D01*
X22860D01*
X25400Y172720D01*
Y147320D02*
X27940Y149860D01*
X30480D01*
X27940Y152400D01*
X30480Y154940D01*
X27940D01*
X25400Y157480D01*
X22860Y154940D01*
X20320D01*
X22860Y152400D01*
X20320Y149860D01*
X22860D01*
X25400Y147320D01*
Y121920D02*
X27940Y124460D01*
X30480D01*
X27940Y127000D01*
X30480Y129540D01*
X27940D01*
X25400Y132080D01*
X22860Y129540D01*
X20320D01*
X22860Y127000D01*
X20320Y124460D01*
X22860D01*
X25400Y121920D01*
Y96520D02*
X27940Y99060D01*
X30480D01*
X27940Y101600D01*
X30480Y104140D01*
X27940D01*
X25400Y106680D01*
X22860Y104140D01*
X20320D01*
X22860Y101600D01*
X20320Y99060D01*
X22860D01*
X25400Y96520D01*
Y71120D02*
X27940Y73660D01*
X30480D01*
X27940Y76200D01*
X30480Y78740D01*
X27940D01*
X25400Y81280D01*
X22860Y78740D01*
X20320D01*
X22860Y76200D01*
X20320Y73660D01*
X22860D01*
X25400Y71120D01*
Y45720D02*
X27940Y48260D01*
X30480D01*
X27940Y50800D01*
X30480Y53340D01*
X27940D01*
X25400Y55880D01*
X22860Y53340D01*
X20320D01*
X22860Y50800D01*
X20320Y48260D01*
X22860D01*
X25400Y45720D01*
X508000Y492760D02*
X510540Y495300D01*
X513080D01*
X510540Y497840D01*
X513080Y500380D01*
X510540D01*
X508000Y502920D01*
X505460Y500380D01*
X502920D01*
X505460Y497840D01*
X502920Y495300D01*
X505460D01*
X508000Y492760D01*
Y467360D02*
X510540Y469900D01*
X513080D01*
X510540Y472440D01*
X513080Y474980D01*
X510540D01*
X508000Y477520D01*
X505460Y474980D01*
X502920D01*
X505460Y472440D01*
X502920Y469900D01*
X505460D01*
X508000Y467360D01*
Y441960D02*
X510540Y444500D01*
X513080D01*
X510540Y447040D01*
X513080Y449580D01*
X510540D01*
X508000Y452120D01*
X505460Y449580D01*
X502920D01*
X505460Y447040D01*
X502920Y444500D01*
X505460D01*
X508000Y441960D01*
Y416560D02*
X510540Y419100D01*
X513080D01*
X510540Y421640D01*
X513080Y424180D01*
X510540D01*
X508000Y426720D01*
X505460Y424180D01*
X502920D01*
X505460Y421640D01*
X502920Y419100D01*
X505460D01*
X508000Y416560D01*
Y391160D02*
X510540Y393700D01*
X513080D01*
X510540Y396240D01*
X513080Y398780D01*
X510540D01*
X508000Y401320D01*
X505460Y398780D01*
X502920D01*
X505460Y396240D01*
X502920Y393700D01*
X505460D01*
X508000Y391160D01*
Y365760D02*
X510540Y368300D01*
X513080D01*
X510540Y370840D01*
X513080Y373380D01*
X510540D01*
X508000Y375920D01*
X505460Y373380D01*
X502920D01*
X505460Y370840D01*
X502920Y368300D01*
X505460D01*
X508000Y365760D01*
Y340360D02*
X510540Y342900D01*
X513080D01*
X510540Y345440D01*
X513080Y347980D01*
X510540D01*
X508000Y350520D01*
X505460Y347980D01*
X502920D01*
X505460Y345440D01*
X502920Y342900D01*
X505460D01*
X508000Y340360D01*
Y314960D02*
X510540Y317500D01*
X513080D01*
X510540Y320040D01*
X513080Y322580D01*
X510540D01*
X508000Y325120D01*
X505460Y322580D01*
X502920D01*
X505460Y320040D01*
X502920Y317500D01*
X505460D01*
X508000Y314960D01*
Y289560D02*
X510540Y292100D01*
X513080D01*
X510540Y294640D01*
X513080Y297180D01*
X510540D01*
X508000Y299720D01*
X505460Y297180D01*
X502920D01*
X505460Y294640D01*
X502920Y292100D01*
X505460D01*
X508000Y289560D01*
Y264160D02*
X510540Y266700D01*
X513080D01*
X510540Y269240D01*
X513080Y271780D01*
X510540D01*
X508000Y274320D01*
X505460Y271780D01*
X502920D01*
X505460Y269240D01*
X502920Y266700D01*
X505460D01*
X508000Y264160D01*
X276860Y419100D02*
X279400Y421640D01*
X281940D01*
X279400Y424180D01*
X281940Y426720D01*
X279400D01*
X276860Y429260D01*
X274320Y426720D01*
X271780D01*
X274320Y424180D01*
X271780Y421640D01*
X274320D01*
X276860Y419100D01*
X302260D02*
X304800Y421640D01*
X307340D01*
X304800Y424180D01*
X307340Y426720D01*
X304800D01*
X302260Y429260D01*
X299720Y426720D01*
X297180D01*
X299720Y424180D01*
X297180Y421640D01*
X299720D01*
X302260Y419100D01*
X276860Y393700D02*
X279400Y396240D01*
X281940D01*
X279400Y398780D01*
X281940Y401320D01*
X279400D01*
X276860Y403860D01*
X274320Y401320D01*
X271780D01*
X274320Y398780D01*
X271780Y396240D01*
X274320D01*
X276860Y393700D01*
X302260D02*
X304800Y396240D01*
X307340D01*
X304800Y398780D01*
X307340Y401320D01*
X304800D01*
X302260Y403860D01*
X299720Y401320D01*
X297180D01*
X299720Y398780D01*
X297180Y396240D01*
X299720D01*
X302260Y393700D01*
X276860Y368300D02*
X279400Y370840D01*
X281940D01*
X279400Y373380D01*
X281940Y375920D01*
X279400D01*
X276860Y378460D01*
X274320Y375920D01*
X271780D01*
X274320Y373380D01*
X271780Y370840D01*
X274320D01*
X276860Y368300D01*
X302260D02*
X304800Y370840D01*
X307340D01*
X304800Y373380D01*
X307340Y375920D01*
X304800D01*
X302260Y378460D01*
X299720Y375920D01*
X297180D01*
X299720Y373380D01*
X297180Y370840D01*
X299720D01*
X302260Y368300D01*
X25400Y223520D02*
X27940Y226060D01*
X30480D01*
X27940Y228600D01*
X30480Y231140D01*
X27940D01*
X25400Y233680D01*
X22860Y231140D01*
X20320D01*
X22860Y228600D01*
X20320Y226060D01*
X22860D01*
X25400Y223520D01*
Y248920D02*
X27940Y251460D01*
X30480D01*
X27940Y254000D01*
X30480Y256540D01*
X27940D01*
X25400Y259080D01*
X22860Y256540D01*
X20320D01*
X22860Y254000D01*
X20320Y251460D01*
X22860D01*
X25400Y248920D01*
Y274320D02*
X27940Y276860D01*
X30480D01*
X27940Y279400D01*
X30480Y281940D01*
X27940D01*
X25400Y284480D01*
X22860Y281940D01*
X20320D01*
X22860Y279400D01*
X20320Y276860D01*
X22860D01*
X25400Y274320D01*
Y299720D02*
X27940Y302260D01*
X30480D01*
X27940Y304800D01*
X30480Y307340D01*
X27940D01*
X25400Y309880D01*
X22860Y307340D01*
X20320D01*
X22860Y304800D01*
X20320Y302260D01*
X22860D01*
X25400Y299720D01*
Y325120D02*
X27940Y327660D01*
X30480D01*
X27940Y330200D01*
X30480Y332740D01*
X27940D01*
X25400Y335280D01*
X22860Y332740D01*
X20320D01*
X22860Y330200D01*
X20320Y327660D01*
X22860D01*
X25400Y325120D01*
Y350520D02*
X27940Y353060D01*
X30480D01*
X27940Y355600D01*
X30480Y358140D01*
X27940D01*
X25400Y360680D01*
X22860Y358140D01*
X20320D01*
X22860Y355600D01*
X20320Y353060D01*
X22860D01*
X25400Y350520D01*
Y375920D02*
X27940Y378460D01*
X30480D01*
X27940Y381000D01*
X30480Y383540D01*
X27940D01*
X25400Y386080D01*
X22860Y383540D01*
X20320D01*
X22860Y381000D01*
X20320Y378460D01*
X22860D01*
X25400Y375920D01*
Y401320D02*
X27940Y403860D01*
X30480D01*
X27940Y406400D01*
X30480Y408940D01*
X27940D01*
X25400Y411480D01*
X22860Y408940D01*
X20320D01*
X22860Y406400D01*
X20320Y403860D01*
X22860D01*
X25400Y401320D01*
X651510Y631190D02*
X654050Y633730D01*
X656590D01*
X654050Y636270D01*
X656590Y638810D01*
X654050D01*
X651510Y641350D01*
X648970Y638810D01*
X646430D01*
X648970Y636270D01*
X646430Y633730D01*
X648970D01*
X651510Y631190D01*
X676910D02*
X679450Y633730D01*
X681990D01*
X679450Y636270D01*
X681990Y638810D01*
X679450D01*
X676910Y641350D01*
X674370Y638810D01*
X671830D01*
X674370Y636270D01*
X671830Y633730D01*
X674370D01*
X676910Y631190D01*
X702310D02*
X704850Y633730D01*
X707390D01*
X704850Y636270D01*
X707390Y638810D01*
X704850D01*
X702310Y641350D01*
X699770Y638810D01*
X697230D01*
X699770Y636270D01*
X697230Y633730D01*
X699770D01*
X702310Y631190D01*
X638100Y117620D02*
X640640D01*
X643180Y120160D01*
X645720Y117620D01*
X648260D01*
Y120160D01*
X645720Y122700D01*
X648260Y125240D01*
Y127780D01*
X645720D01*
X643180Y125240D01*
X640640Y127780D01*
X638100D01*
Y125240D01*
X640640Y122700D01*
X638100Y120160D01*
Y117620D01*
X675640Y73660D02*
Y71120D01*
X680720D01*
Y73660D01*
X683260D01*
Y78740D01*
X680720D01*
Y81280D01*
X675640D01*
Y78740D01*
X673100D01*
Y73660D01*
X675640D01*
X615640D02*
Y71120D01*
X620720D01*
Y73660D01*
X623260D01*
Y78740D01*
X620720D01*
Y81280D01*
X615640D01*
Y78740D01*
X613100D01*
Y73660D01*
X615640D01*
X508000Y45720D02*
X510540Y48260D01*
X513080D01*
X510540Y50800D01*
X513080Y53340D01*
X510540D01*
X508000Y55880D01*
X505460Y53340D01*
X502920D01*
X505460Y50800D01*
X502920Y48260D01*
X505460D01*
X508000Y45720D01*
Y71120D02*
X510540Y73660D01*
X513080D01*
X510540Y76200D01*
X513080Y78740D01*
X510540D01*
X508000Y81280D01*
X505460Y78740D01*
X502920D01*
X505460Y76200D01*
X502920Y73660D01*
X505460D01*
X508000Y71120D01*
Y96520D02*
X510540Y99060D01*
X513080D01*
X510540Y101600D01*
X513080Y104140D01*
X510540D01*
X508000Y106680D01*
X505460Y104140D01*
X502920D01*
X505460Y101600D01*
X502920Y99060D01*
X505460D01*
X508000Y96520D01*
Y121920D02*
X510540Y124460D01*
X513080D01*
X510540Y127000D01*
X513080Y129540D01*
X510540D01*
X508000Y132080D01*
X505460Y129540D01*
X502920D01*
X505460Y127000D01*
X502920Y124460D01*
X505460D01*
X508000Y121920D01*
Y147320D02*
X510540Y149860D01*
X513080D01*
X510540Y152400D01*
X513080Y154940D01*
X510540D01*
X508000Y157480D01*
X505460Y154940D01*
X502920D01*
X505460Y152400D01*
X502920Y149860D01*
X505460D01*
X508000Y147320D01*
Y172720D02*
X510540Y175260D01*
X513080D01*
X510540Y177800D01*
X513080Y180340D01*
X510540D01*
X508000Y182880D01*
X505460Y180340D01*
X502920D01*
X505460Y177800D01*
X502920Y175260D01*
X505460D01*
X508000Y172720D01*
Y198120D02*
X510540Y200660D01*
X513080D01*
X510540Y203200D01*
X513080Y205740D01*
X510540D01*
X508000Y208280D01*
X505460Y205740D01*
X502920D01*
X505460Y203200D01*
X502920Y200660D01*
X505460D01*
X508000Y198120D01*
Y223520D02*
X510540Y226060D01*
X513080D01*
X510540Y228600D01*
X513080Y231140D01*
X510540D01*
X508000Y233680D01*
X505460Y231140D01*
X502920D01*
X505460Y228600D01*
X502920Y226060D01*
X505460D01*
X508000Y223520D01*
X725170Y325120D02*
Y322580D01*
X730250D01*
Y325120D01*
X732790D01*
Y330200D01*
X730250D01*
Y332740D01*
X725170D01*
Y330200D01*
X722630D01*
Y325120D01*
X725170D01*
X726186Y326136D02*
Y324612D01*
X729234D01*
Y326136D01*
X730758D01*
Y329184D01*
X729234D01*
Y330708D01*
X726186D01*
Y329184D01*
X724662D01*
Y326136D01*
X726186D01*
X725170Y360120D02*
Y357580D01*
X730250D01*
Y360120D01*
X732790D01*
Y365200D01*
X730250D01*
Y367740D01*
X725170D01*
Y365200D01*
X722630D01*
Y360120D01*
X725170D01*
X726186Y361136D02*
Y359612D01*
X729234D01*
Y361136D01*
X730758D01*
Y364184D01*
X729234D01*
Y365708D01*
X726186D01*
Y364184D01*
X724662D01*
Y361136D01*
X726186D01*
X736600Y403860D02*
X739140Y406400D01*
X741680D01*
X739140Y408940D01*
X741680Y411480D01*
X739140D01*
X736600Y414020D01*
X734060Y411480D01*
X731520D01*
X734060Y408940D01*
X731520Y406400D01*
X734060D01*
X736600Y403860D01*
Y429260D02*
X739140Y431800D01*
X741680D01*
X739140Y434340D01*
X741680Y436880D01*
X739140D01*
X736600Y439420D01*
X734060Y436880D01*
X731520D01*
X734060Y434340D01*
X731520Y431800D01*
X734060D01*
X736600Y429260D01*
Y454660D02*
X739140Y457200D01*
X741680D01*
X739140Y459740D01*
X741680Y462280D01*
X739140D01*
X736600Y464820D01*
X734060Y462280D01*
X731520D01*
X734060Y459740D01*
X731520Y457200D01*
X734060D01*
X736600Y454660D01*
X20320Y528320D02*
Y538480D01*
X30480D01*
Y528320D01*
X20320D01*
X22352Y530352D02*
Y536448D01*
X28448D01*
Y530352D01*
X22352D01*
X501650Y528320D02*
Y538480D01*
X511810D01*
Y528320D01*
X501650D01*
X503682Y530352D02*
Y536448D01*
X509778D01*
Y530352D01*
X503682D01*
X350520Y20320D02*
Y30480D01*
X360680D01*
Y20320D01*
X350520D01*
X352552Y22352D02*
Y28448D01*
X358648D01*
Y22352D01*
X352552D01*
X71120Y20320D02*
Y30480D01*
X81280D01*
Y20320D01*
X71120D01*
X73152Y22352D02*
Y28448D01*
X79248D01*
Y22352D01*
X73152D01*
X41910Y353060D02*
Y363220D01*
X52070D01*
Y353060D01*
X41910D01*
X40640Y180340D02*
Y190500D01*
X50800D01*
Y180340D01*
X40640D01*
Y158750D02*
Y168910D01*
X50800D01*
Y158750D01*
X40640D01*
Y128270D02*
Y138430D01*
X50800D01*
Y128270D01*
X40640D01*
Y86360D02*
Y96520D01*
X50800D01*
Y86360D01*
X40640D01*
Y53340D02*
Y63500D01*
X50800D01*
Y53340D01*
X40640D01*
X480060Y488950D02*
Y499110D01*
X490220D01*
Y488950D01*
X480060D01*
X478790Y457200D02*
Y467360D01*
X488950D01*
Y457200D01*
X478790D01*
X480060Y431800D02*
Y441960D01*
X490220D01*
Y431800D01*
X480060D01*
X481330Y383540D02*
Y393700D01*
X491490D01*
Y383540D01*
X481330D01*
X483870Y359410D02*
Y369570D01*
X494030D01*
Y359410D01*
X483870D01*
Y332740D02*
Y342900D01*
X494030D01*
Y332740D01*
X483870D01*
X482600Y256540D02*
Y266700D01*
X492760D01*
Y256540D01*
X482600D01*
Y309880D02*
Y320040D01*
X492760D01*
Y309880D01*
X482600D01*
X483870Y281940D02*
Y292100D01*
X494030D01*
Y281940D01*
X483870D01*
X482600Y228600D02*
Y238760D01*
X492760D01*
Y228600D01*
X482600D01*
Y204470D02*
Y214630D01*
X492760D01*
Y204470D01*
X482600D01*
X481330Y175260D02*
Y185420D01*
X491490D01*
Y175260D01*
X481330D01*
Y152400D02*
Y162560D01*
X491490D01*
Y152400D01*
X481330D01*
X482600Y127000D02*
Y137160D01*
X492760D01*
Y127000D01*
X482600D01*
X527050Y91440D02*
Y101600D01*
X537210D01*
Y91440D01*
X527050D01*
X528320Y67310D02*
Y77470D01*
X538480D01*
Y67310D01*
X528320D01*
X529590Y41910D02*
Y52070D01*
X539750D01*
Y41910D01*
X529590D01*
X657860Y250190D02*
Y260350D01*
X668020D01*
Y250190D01*
X657860D01*
X659130Y306070D02*
Y316230D01*
X669290D01*
Y306070D01*
X659130D01*
X676910Y373380D02*
Y383540D01*
X687070D01*
Y373380D01*
X676910D01*
X505460Y562610D02*
Y572770D01*
X515620D01*
Y562610D01*
X505460D01*
X368300Y219710D02*
Y229870D01*
X378460D01*
Y219710D01*
X368300D01*
X317500Y631190D02*
Y641350D01*
X327660D01*
Y631190D01*
X317500D01*
Y340360D02*
Y350520D01*
X327660D01*
Y340360D01*
X317500D01*
X321310Y353060D02*
Y363220D01*
X331470D01*
Y353060D01*
X321310D01*
X337820Y171450D02*
Y181610D01*
X347980D01*
Y171450D01*
X337820D01*
X3810Y491490D02*
Y501650D01*
X13970D01*
Y491490D01*
X3810D01*
X5080Y472440D02*
Y482600D01*
X15240D01*
Y472440D01*
X5080D01*
X353060Y346710D02*
Y356870D01*
X363220D01*
Y346710D01*
X353060D01*
X365760Y391160D02*
Y401320D01*
X375920D01*
Y391160D01*
X365760D01*
X215773Y274545D02*
Y284705D01*
X225933D01*
Y274545D01*
X215773D01*
X217170Y308610D02*
Y318770D01*
X227330D01*
Y308610D01*
X217170D01*
X226060Y351790D02*
Y361950D01*
X236220D01*
Y351790D01*
X226060D01*
X359410Y402590D02*
Y412750D01*
X369570D01*
Y402590D01*
X359410D01*
X330200Y431800D02*
Y441960D01*
X340360D01*
Y431800D01*
X330200D01*
X358140Y427990D02*
Y438150D01*
X368300D01*
Y427990D01*
X358140D01*
X571500Y653352D02*
Y663512D01*
X581660D01*
Y653352D01*
X571500D01*
X636270Y526034D02*
Y536194D01*
X646430D01*
Y526034D01*
X636270D01*
X638810Y589280D02*
Y599440D01*
X648970D01*
Y589280D01*
X638810D01*
X655170Y551330D02*
Y561490D01*
X665330D01*
Y551330D01*
X655170D01*
X212090Y349250D02*
Y359410D01*
X222250D01*
Y349250D01*
X212090D01*
X229870Y331470D02*
Y341630D01*
X240030D01*
Y331470D01*
X229870D01*
X275590Y243840D02*
Y254000D01*
X285750D01*
Y243840D01*
X275590D01*
X556260Y605790D02*
Y615950D01*
X566420D01*
Y605790D01*
X556260D01*
X229225Y258948D02*
Y269108D01*
X239385D01*
Y258948D01*
X229225D01*
X670261Y566420D02*
Y576580D01*
X680421D01*
Y566420D01*
X670261D01*
X234950Y529590D02*
Y539750D01*
X245110D01*
Y529590D01*
X234950D01*
X712470Y539750D02*
Y549910D01*
X722630D01*
Y539750D01*
X712470D01*
X433070Y373380D02*
Y383540D01*
X443230D01*
Y373380D01*
X433070D01*
X276860Y347980D02*
Y358140D01*
X287020D01*
Y347980D01*
X276860D01*
X455930Y181610D02*
Y191770D01*
X466090D01*
Y181610D01*
X455930D01*
X320040Y168910D02*
Y179070D01*
X330200D01*
Y168910D01*
X320040D01*
X185420Y527050D02*
Y537210D01*
X195580D01*
Y527050D01*
X185420D01*
X330200Y589280D02*
Y599440D01*
X340360D01*
Y589280D01*
X330200D01*
X742950Y640080D02*
Y650240D01*
X753110D01*
Y640080D01*
X742950D01*
X656590Y189230D02*
Y199390D01*
X666750D01*
Y189230D01*
X656590D01*
X605790Y464820D02*
Y474980D01*
X615950D01*
Y464820D01*
X605790D01*
X347980Y631190D02*
Y641350D01*
X358140D01*
Y631190D01*
X347980D01*
X215900Y641350D02*
Y651510D01*
X226060D01*
Y641350D01*
X215900D01*
X152400Y379730D02*
Y389890D01*
X162560D01*
Y379730D01*
X152400D01*
X283210Y487680D02*
Y497840D01*
X293370D01*
Y487680D01*
X283210D01*
X715010Y584200D02*
Y594360D01*
X725170D01*
Y584200D01*
X715010D01*
X109220Y31750D02*
Y41910D01*
X119380D01*
Y31750D01*
X109220D01*
X179070Y30480D02*
Y40640D01*
X189230D01*
Y30480D01*
X179070D01*
X208280D02*
Y40640D01*
X218440D01*
Y30480D01*
X208280D01*
X194310Y274320D02*
Y284480D01*
X204470D01*
Y274320D01*
X194310D01*
X68580Y279400D02*
Y289560D01*
X78740D01*
Y279400D01*
X68580D01*
X49530Y294640D02*
Y304800D01*
X59690D01*
Y294640D01*
X49530D01*
X96520Y387350D02*
Y397510D01*
X106680D01*
Y387350D01*
X96520D01*
X91440Y412750D02*
Y422910D01*
X101600D01*
Y412750D01*
X91440D01*
X566420Y190500D02*
Y200660D01*
X576580D01*
Y190500D01*
X566420D01*
X568960Y231140D02*
Y241300D01*
X579120D01*
Y231140D01*
X568960D01*
X565150Y345440D02*
Y355600D01*
X575310D01*
Y345440D01*
X565150D01*
X567690Y289560D02*
Y299720D01*
X577850D01*
Y289560D01*
X567690D01*
X294640Y116840D02*
Y127000D01*
X304800D01*
Y116840D01*
X294640D01*
X284480Y139700D02*
Y149860D01*
X294640D01*
Y139700D01*
X284480D01*
X208280Y171450D02*
Y181610D01*
X218440D01*
Y171450D01*
X208280D01*
X231140Y156210D02*
Y166370D01*
X241300D01*
Y156210D01*
X231140D01*
X168910Y142240D02*
Y152400D01*
X179070D01*
Y142240D01*
X168910D01*
X220980Y139700D02*
Y149860D01*
X231140D01*
Y139700D01*
X220980D01*
X600710Y563880D02*
Y574040D01*
X610870D01*
Y563880D01*
X600710D01*
X636270Y467360D02*
Y477520D01*
X646430D01*
Y467360D01*
X636270D01*
D111*
X391680Y303530D02*
G03*
X391680Y303530I-5080J0D01*
G01*
X456680D02*
G03*
X456680Y303530I-5080J0D01*
G01*
D112*
X389648D02*
G03*
X389648Y303530I-3048J0D01*
G01*
X454648D02*
G03*
X454648Y303530I-3048J0D01*
G01*
M02*
