M48
;Layer_Color=9474304
;FILE_FORMAT=4:4
METRIC,LZ
;TYPE=PLATED
T02F00S00C0.6000
T05F00S00C1.0000
T09F00S00C1.2000
;TYPE=NON_PLATED
%
G90
G05
T02
G00X003822Y0062293
M15
G01Y0061193
M16
G00X003822Y0066313
M15
G01Y0065513
M16
G00X004687Y0066313
M15
G01Y0065513
M16
G00X004687Y0062293
M15
G01Y0061193
M16
T05
G00X0065068Y001227
M15
G01X0063568
M16
G00X0007796Y0058718
M15
G01Y0057218
M16
T09
G00X0061818Y000672
M15
G01Y000852
M16
G00X0067818Y000672
M15
G01Y000852
M16
G00X0013346Y0055468
M15
G01X0011546
M16
G00X0013346Y0061468
M15
G01X0011546
M16
M17
M30
