M48
;Layer_Color=9474304
;FILE_FORMAT=4:4
METRIC,LZ
;TYPE=PLATED
T01F00S00C0.3302
T03F00S00C0.9000
T04F00S00C1.0000
T06F00S00C1.0160
T07F00S00C1.0201
T08F00S00C1.1000
T10F00S00C3.3020
;TYPE=NON_PLATED
T11F00S00C0.6000
%
T01
X0004572Y0005842
Y0009144
Y0013335
X001143Y0003683
X0018415Y0003556
X0021336
X0029972Y0012192
X0048768Y0013208
X0053213Y0009652
X005334Y0007239
X0053467Y0004699
X005715Y0019558
X0057404Y0023622
X0057277Y0029464
X0057023Y0035052
X0066421Y0031115
X0066294Y0025527
X0066167Y0019431
X0068199Y0037846
X0064135Y0047244
X0061087Y004699
X0064135Y00531114
X0048514Y0049403
X0048387Y0046228
X0048514Y0043688
X0048641Y0038862
X0048895Y0036449
Y0033782
X0048768Y0031496
X0048895Y0028702
X0048768Y0026162
Y0023368
Y0020955
X0048641Y0018034
Y0015748
X0046101Y0018669
X0037338Y0022479
X003429Y0017653
X0032512Y0017399
X0028956Y0014478
X0022606
X0023622Y0016129
X0021336Y0017653
X0017399Y0014732
X0019939Y002794
X00220853Y00279625
X00234305Y00264028
X0028067Y0024892
X0028194Y0035306
X0032258Y0034544
X0032639Y0035814
X0035814Y0035179
X0037084Y0039624
X0036449Y0040767
X0036322Y0043307
X0033528Y0043688
X0028829Y0049276
X0024003Y0053467
X001905Y0053213
X0015748Y0038481
X0021717Y0035433
X0023114Y0035687
X0023495Y0033655
X0022225Y0031369
X0043815Y0037846
X001016Y0039243
X0009652Y0041783
X0004699Y0035814
X0005461Y0029972
X0007366Y0028448
X0004572Y0018542
Y0016383
X0001016Y0047752
X0000889Y0049657
X0022098Y0064643
X0032258Y0063627
X0035306
X0033528Y0059436
X0051054Y0056769
X0056134Y0061087
X0057658Y00658431
X0060579Y0056896
X0064389Y0059436
X0066025Y0055641
X00675341Y005715
X0072009Y0058928
X0071755Y0054483
X0074803Y0064516
T03
X003866Y0030353
X004516
T04
X0072771Y0032766
Y0036266
T06
X0013462Y0011938
X0040386Y0007874
Y0005334
X0045847Y0005461
Y0008001
X0044323Y00127
X0063119Y0039497
Y0042037
X0058547Y0045212
Y0047752
X005842Y0052451
X00419354Y00530606
X00393954
X0045085Y0047117
Y0044577
X0044323Y001524
X0013462Y0014478
X0010668Y0023749
X0008128
X0009652Y0045593
X0012192
X0001905Y0058039
Y0060579
Y0063119
Y0065659
X0053975Y0062611
Y0060071
X005842Y0054991
T07
X0016764Y0047879
X0019304
T08
X000254Y000508
Y000762
Y001016
Y00127
X00508
Y001016
Y000762
Y000508
X007366Y0040894
Y0043434
Y0045974
X00508Y0047244
Y0049784
Y0044704
Y0042164
Y0039624
Y0037084
Y0034544
Y0032004
Y0029464
Y0026924
Y002286
Y002032
Y001778
Y001524
X0030226Y0037338
Y0039878
Y0042418
X0027686
Y0039878
Y0037338
X0015875Y0050927
X0013335
X0010795
X000254Y004064
Y00381
Y003556
Y003302
Y003048
Y002794
Y00254
Y002286
Y001778
Y001524
X0065151Y0063627
X0067691
X0070231
T10
X000762Y000254
X003556
X0050673Y005334
X000254
T11
X0039655Y0062233
X0045435
M30
