G04*
G04 #@! TF.GenerationSoftware,Altium Limited,Altium Designer,24.2.2 (26)*
G04*
G04 Layer_Physical_Order=2*
G04 Layer_Color=32768*
%FSLAX44Y44*%
%MOMM*%
G71*
G04*
G04 #@! TF.SameCoordinates,C9C70787-D61E-4D50-BDF8-59307FDF8C79*
G04*
G04*
G04 #@! TF.FilePolarity,Negative*
G04*
G01*
G75*
%ADD72C,0.8382*%
%ADD81C,1.5240*%
%ADD88C,1.0160*%
%ADD89C,1.1080*%
%AMTHOVALD90*
21,1,1.1000,2.1240,0,0,270.0*
1,1,2.1240,0.0000,0.5500*
1,1,2.1240,0.0000,-0.5500*
21,0,1.1000,1.6160,0,0,270.0*
1,0,1.6160,0.0000,0.5500*
1,0,1.6160,0.0000,-0.5500*
4,0,4,-0.0898,0.4602,-0.8408,1.2111,-0.6611,1.3908,0.0898,0.6398,-0.0898,0.4602,0.0*
4,0,4,-0.0898,-0.6398,0.6611,-1.3908,0.8408,-1.2111,0.0898,-0.4602,-0.0898,-0.6398,0.0*
4,0,4,-0.0898,0.6398,0.6611,1.3908,0.8408,1.2111,0.0898,0.4602,-0.0898,0.6398,0.0*
4,0,4,-0.0898,-0.4602,-0.8408,-1.2111,-0.6611,-1.3908,0.0898,-0.6398,-0.0898,-0.4602,0.0*
%
%ADD90THOVALD90*%

%AMTHOVALD91*
21,1,0.8000,2.1240,0,0,270.0*
1,1,2.1240,0.0000,0.4000*
1,1,2.1240,0.0000,-0.4000*
21,0,0.8000,1.6160,0,0,270.0*
1,0,1.6160,0.0000,0.4000*
1,0,1.6160,0.0000,-0.4000*
4,0,4,-0.0898,0.3102,-0.8408,1.0611,-0.6611,1.2408,0.0898,0.4898,-0.0898,0.3102,0.0*
4,0,4,-0.0898,-0.4898,0.6611,-1.2408,0.8408,-1.0611,0.0898,-0.3102,-0.0898,-0.4898,0.0*
4,0,4,-0.0898,0.4898,0.6611,1.2408,0.8408,1.0611,0.0898,0.3102,-0.0898,0.4898,0.0*
4,0,4,-0.0898,-0.3102,-0.8408,-1.0611,-0.6611,-1.2408,0.0898,-0.4898,-0.0898,-0.3102,0.0*
%
%ADD91THOVALD91*%

%ADD92C,1.5281*%
%AMTHOVALD93*
21,1,1.5000,2.5240,0,0,270.0*
1,1,2.5240,0.0000,0.7500*
1,1,2.5240,0.0000,-0.7500*
21,0,1.5000,2.0160,0,0,270.0*
1,0,2.0160,0.0000,0.7500*
1,0,2.0160,0.0000,-0.7500*
4,0,4,-0.0898,0.6602,-0.9822,1.5526,-0.8026,1.7322,0.0898,0.8398,-0.0898,0.6602,0.0*
4,0,4,-0.0898,-0.8398,0.8026,-1.7322,0.9822,-1.5526,0.0898,-0.6602,-0.0898,-0.8398,0.0*
4,0,4,-0.0898,0.8398,0.8026,1.7322,0.9822,1.5526,0.0898,0.6602,-0.0898,0.8398,0.0*
4,0,4,-0.0898,-0.6602,-0.9822,-1.5526,-0.8026,-1.7322,0.0898,-0.8398,-0.0898,-0.6602,0.0*
%
%ADD93THOVALD93*%

%AMTHOVALD94*
21,1,1.8000,2.7240,0,0,180.0*
1,1,2.7240,0.9000,0.0000*
1,1,2.7240,-0.9000,0.0000*
21,0,1.8000,2.2160,0,0,180.0*
1,0,2.2160,0.9000,0.0000*
1,0,2.2160,-0.9000,0.0000*
4,0,4,0.8102,0.0898,1.7733,1.0529,1.9529,0.8733,0.9898,-0.0898,0.8102,0.0898,0.0*
4,0,4,-0.9898,0.0898,-1.9529,-0.8733,-1.7733,-1.0529,-0.8102,-0.0898,-0.9898,0.0898,0.0*
4,0,4,0.9898,0.0898,1.9529,-0.8733,1.7733,-1.0529,0.8102,-0.0898,0.9898,0.0898,0.0*
4,0,4,-0.8102,0.0898,-1.7733,1.0529,-1.9529,0.8733,-0.9898,-0.0898,-0.8102,0.0898,0.0*
%
%ADD94THOVALD94*%

%ADD95O,3.5080X1.7080*%
G04:AMPARAMS|DCode=96|XSize=2.54mm|YSize=2.54mm|CornerRadius=0mm|HoleSize=0mm|Usage=FLASHONLY|Rotation=0.000|XOffset=0mm|YOffset=0mm|HoleType=Round|Shape=Relief|Width=0.254mm|Gap=0.254mm|Entries=4|*
%AMTHD96*
7,0,0,2.5400,2.0320,0.2540,45*
%
%ADD96THD96*%
%ADD97C,1.6080*%
G04:AMPARAMS|DCode=98|XSize=2.624mm|YSize=2.624mm|CornerRadius=0mm|HoleSize=0mm|Usage=FLASHONLY|Rotation=0.000|XOffset=0mm|YOffset=0mm|HoleType=Round|Shape=Relief|Width=0.254mm|Gap=0.254mm|Entries=4|*
%AMTHD98*
7,0,0,2.6240,2.1160,0.2540,45*
%
%ADD98THD98*%
%AMTHOVALD99*
21,1,1.5000,2.5240,0,0,180.0*
1,1,2.5240,0.7500,0.0000*
1,1,2.5240,-0.7500,0.0000*
21,0,1.5000,2.0160,0,0,180.0*
1,0,2.0160,0.7500,0.0000*
1,0,2.0160,-0.7500,0.0000*
4,0,4,0.6602,0.0898,1.5526,0.9822,1.7322,0.8026,0.8398,-0.0898,0.6602,0.0898,0.0*
4,0,4,-0.8398,0.0898,-1.7322,-0.8026,-1.5526,-0.9822,-0.6602,-0.0898,-0.8398,0.0898,0.0*
4,0,4,0.8398,0.0898,1.7322,-0.8026,1.5526,-0.9822,0.6602,-0.0898,0.8398,0.0898,0.0*
4,0,4,-0.6602,0.0898,-1.5526,0.9822,-1.7322,0.8026,-0.8398,-0.0898,-0.6602,0.0898,0.0*
%
%ADD99THOVALD99*%

%AMTHOVALD100*
21,1,1.8000,2.7240,0,0,90.0*
1,1,2.7240,0.0000,-0.9000*
1,1,2.7240,0.0000,0.9000*
21,0,1.8000,2.2160,0,0,90.0*
1,0,2.2160,0.0000,-0.9000*
1,0,2.2160,0.0000,0.9000*
4,0,4,0.0898,-0.8102,1.0529,-1.7733,0.8733,-1.9529,-0.0898,-0.9898,0.0898,-0.8102,0.0*
4,0,4,0.0898,0.9898,-0.8733,1.9529,-1.0529,1.7733,-0.0898,0.8102,0.0898,0.9898,0.0*
4,0,4,0.0898,-0.9898,-0.8733,-1.9529,-1.0529,-1.7733,-0.0898,-0.8102,0.0898,-0.9898,0.0*
4,0,4,0.0898,0.8102,1.0529,1.7733,0.8733,1.9529,-0.0898,0.9898,0.0898,0.8102,0.0*
%
%ADD100THOVALD100*%

%ADD101O,1.7080X3.5080*%
G04:AMPARAMS|DCode=102|XSize=2.424mm|YSize=2.424mm|CornerRadius=0mm|HoleSize=0mm|Usage=FLASHONLY|Rotation=0.000|XOffset=0mm|YOffset=0mm|HoleType=Round|Shape=Relief|Width=0.254mm|Gap=0.254mm|Entries=4|*
%AMTHD102*
7,0,0,2.4240,1.9160,0.2540,45*
%
%ADD102THD102*%
%ADD103C,1.4080*%
%ADD104C,1.5080*%
G04:AMPARAMS|DCode=105|XSize=2.524mm|YSize=2.524mm|CornerRadius=0mm|HoleSize=0mm|Usage=FLASHONLY|Rotation=0.000|XOffset=0mm|YOffset=0mm|HoleType=Round|Shape=Relief|Width=0.254mm|Gap=0.254mm|Entries=4|*
%AMTHD105*
7,0,0,2.5240,2.0160,0.2540,45*
%
%ADD105THD105*%
%ADD106C,3.8100*%
G04:AMPARAMS|DCode=107|XSize=1.8542mm|YSize=1.8542mm|CornerRadius=0mm|HoleSize=0mm|Usage=FLASHONLY|Rotation=0.000|XOffset=0mm|YOffset=0mm|HoleType=Round|Shape=Relief|Width=0.254mm|Gap=0.254mm|Entries=4|*
%AMTHD107*
7,0,0,1.8542,1.3462,0.2540,45*
%
%ADD107THD107*%
D72*
X322580Y345440D02*
D03*
X326390Y358140D02*
D03*
X358140Y351790D02*
D03*
X370840Y396240D02*
D03*
X222250Y313690D02*
D03*
X231140Y356870D02*
D03*
X364490Y407670D02*
D03*
X335280Y436880D02*
D03*
X363220Y433070D02*
D03*
X641350Y531114D02*
D03*
X643890Y594360D02*
D03*
X217170Y354330D02*
D03*
X234950Y336550D02*
D03*
X280670Y248920D02*
D03*
X190500Y532130D02*
D03*
X299720Y121920D02*
D03*
X289560Y144780D02*
D03*
X213360Y176530D02*
D03*
X236220Y161290D02*
D03*
X173990Y147320D02*
D03*
X226060Y144780D02*
D03*
X605790Y568960D02*
D03*
X641350Y472440D02*
D03*
D81*
X450850Y445770D02*
D03*
X631190Y394970D02*
D03*
X539750Y600710D02*
D03*
X134620Y119380D02*
D03*
X458470Y54610D02*
D03*
X19050Y605790D02*
D03*
Y580390D02*
D03*
Y656590D02*
D03*
Y631190D02*
D03*
X403860Y53340D02*
D03*
X96520Y455930D02*
D03*
X584200Y549910D02*
D03*
X81280Y237490D02*
D03*
X393954Y530606D02*
D03*
X585470Y477520D02*
D03*
X443230Y127000D02*
D03*
D88*
X50800Y0D02*
X381000D01*
X25400Y25400D02*
X50800Y0D01*
X-24130Y25400D02*
X25400D01*
X-24130D02*
Y685800D01*
X764540D01*
Y25400D02*
Y685800D01*
X406400Y25400D02*
X764540D01*
X381000Y0D02*
X406400Y25400D01*
D89*
X454350Y622330D02*
D03*
X396550D02*
D03*
D90*
X468700Y617430D02*
D03*
X382200D02*
D03*
D91*
X468700Y659130D02*
D03*
X382200D02*
D03*
D92*
X167640Y478790D02*
D03*
X193040D02*
D03*
D93*
X77960Y579680D02*
D03*
D94*
X124460Y614680D02*
D03*
D95*
Y554680D02*
D03*
D96*
X450850Y471170D02*
D03*
X631190Y420370D02*
D03*
X539750Y626110D02*
D03*
X134620Y144780D02*
D03*
X458470Y80010D02*
D03*
X403860Y78740D02*
D03*
X121920Y455930D02*
D03*
X584200Y524510D02*
D03*
X106680Y237490D02*
D03*
X419354Y530606D02*
D03*
X585470Y452120D02*
D03*
X443230Y152400D02*
D03*
D97*
X158750Y509270D02*
D03*
X133350D02*
D03*
X107950D02*
D03*
X25400Y177800D02*
D03*
Y152400D02*
D03*
Y127000D02*
D03*
Y101600D02*
D03*
Y76200D02*
D03*
Y50800D02*
D03*
X508000Y497840D02*
D03*
Y472440D02*
D03*
Y447040D02*
D03*
Y396240D02*
D03*
Y370840D02*
D03*
Y345440D02*
D03*
Y320040D02*
D03*
Y294640D02*
D03*
Y269240D02*
D03*
X302260Y424180D02*
D03*
X276860Y398780D02*
D03*
X302260D02*
D03*
X276860Y373380D02*
D03*
X302260D02*
D03*
X25400Y228600D02*
D03*
Y304800D02*
D03*
Y330200D02*
D03*
Y355600D02*
D03*
Y381000D02*
D03*
Y406400D02*
D03*
X651510Y636270D02*
D03*
X676910D02*
D03*
X702310D02*
D03*
X508000Y50800D02*
D03*
Y76200D02*
D03*
Y101600D02*
D03*
Y127000D02*
D03*
Y152400D02*
D03*
Y177800D02*
D03*
Y203200D02*
D03*
Y228600D02*
D03*
X736600Y408940D02*
D03*
Y434340D02*
D03*
Y459740D02*
D03*
D98*
X508000Y421640D02*
D03*
X276860Y424180D02*
D03*
X25400Y254000D02*
D03*
Y279400D02*
D03*
D99*
X643180Y122700D02*
D03*
D100*
X678180Y76200D02*
D03*
D101*
X618180D02*
D03*
D102*
X386600Y303530D02*
D03*
D103*
X451600D02*
D03*
D104*
X727710Y327660D02*
D03*
D105*
Y362660D02*
D03*
D106*
X25400Y533400D02*
D03*
X506730D02*
D03*
X355600Y25400D02*
D03*
X76200D02*
D03*
D107*
X46990Y358140D02*
D03*
X45720Y185420D02*
D03*
Y163830D02*
D03*
Y133350D02*
D03*
Y91440D02*
D03*
Y58420D02*
D03*
X485140Y494030D02*
D03*
X483870Y462280D02*
D03*
X485140Y436880D02*
D03*
X486410Y388620D02*
D03*
X488950Y364490D02*
D03*
Y337820D02*
D03*
X487680Y261620D02*
D03*
Y314960D02*
D03*
X488950Y287020D02*
D03*
X487680Y233680D02*
D03*
Y209550D02*
D03*
X486410Y180340D02*
D03*
Y157480D02*
D03*
X487680Y132080D02*
D03*
X532130Y96520D02*
D03*
X533400Y72390D02*
D03*
X534670Y46990D02*
D03*
X662940Y255270D02*
D03*
X664210Y311150D02*
D03*
X681990Y378460D02*
D03*
X510540Y567690D02*
D03*
X373380Y224790D02*
D03*
X322580Y636270D02*
D03*
X342900Y176530D02*
D03*
X8890Y496570D02*
D03*
X10160Y477520D02*
D03*
X220853Y279625D02*
D03*
X576580Y658431D02*
D03*
X660250Y556410D02*
D03*
X561340Y610870D02*
D03*
X234305Y264028D02*
D03*
X675341Y571500D02*
D03*
X240030Y534670D02*
D03*
X717550Y544830D02*
D03*
X438150Y378460D02*
D03*
X281940Y353060D02*
D03*
X461010Y186690D02*
D03*
X325120Y173990D02*
D03*
X335280Y594360D02*
D03*
X748030Y645160D02*
D03*
X661670Y194310D02*
D03*
X610870Y469900D02*
D03*
X353060Y636270D02*
D03*
X220980Y646430D02*
D03*
X157480Y384810D02*
D03*
X288290Y492760D02*
D03*
X720090Y589280D02*
D03*
X114300Y36830D02*
D03*
X184150Y35560D02*
D03*
X213360D02*
D03*
X199390Y279400D02*
D03*
X73660Y284480D02*
D03*
X54610Y299720D02*
D03*
X101600Y392430D02*
D03*
X96520Y417830D02*
D03*
X571500Y195580D02*
D03*
X574040Y236220D02*
D03*
X570230Y350520D02*
D03*
X572770Y294640D02*
D03*
M02*
