G04*
G04 #@! TF.GenerationSoftware,Altium Limited,Altium Designer,24.2.2 (26)*
G04*
G04 Layer_Color=16711935*
%FSLAX44Y44*%
%MOMM*%
G71*
G04*
G04 #@! TF.SameCoordinates,C9C70787-D61E-4D50-BDF8-59307FDF8C79*
G04*
G04*
G04 #@! TF.FilePolarity,Positive*
G04*
G01*
G75*
%ADD10C,0.2000*%
%ADD14C,0.2540*%
%ADD15C,0.1000*%
%ADD18C,0.1270*%
%ADD40C,0.0000*%
%ADD108C,0.0254*%
G36*
X440539Y671907D02*
X440602D01*
X440680Y671900D01*
X440764Y671886D01*
X440863Y671872D01*
X441067Y671837D01*
X441278Y671781D01*
X441489Y671703D01*
X441587Y671654D01*
X441686Y671598D01*
X441693Y671591D01*
X441707Y671584D01*
X441735Y671563D01*
X441763Y671535D01*
X441805Y671506D01*
X441855Y671464D01*
X441911Y671415D01*
X441967Y671359D01*
X442024Y671295D01*
X442087Y671232D01*
X442213Y671070D01*
X442333Y670880D01*
X442439Y670669D01*
Y670662D01*
X442453Y670641D01*
X442460Y670606D01*
X442481Y670564D01*
X442495Y670507D01*
X442516Y670437D01*
X442544Y670359D01*
X442565Y670275D01*
X442586Y670184D01*
X442615Y670078D01*
X442650Y669860D01*
X442678Y669614D01*
X442692Y669360D01*
Y669353D01*
Y669325D01*
Y669283D01*
X442685Y669234D01*
Y669163D01*
X442678Y669093D01*
X442671Y669002D01*
X442657Y668910D01*
X442621Y668706D01*
X442572Y668481D01*
X442502Y668256D01*
X442403Y668038D01*
X442396Y668031D01*
X442389Y668010D01*
X442375Y667981D01*
X442347Y667946D01*
X442319Y667897D01*
X442284Y667841D01*
X442192Y667714D01*
X442073Y667573D01*
X441932Y667433D01*
X441770Y667292D01*
X441580Y667172D01*
X441573Y667165D01*
X441552Y667158D01*
X441524Y667144D01*
X441489Y667123D01*
X441432Y667102D01*
X441376Y667081D01*
X441306Y667053D01*
X441228Y667025D01*
X441144Y666996D01*
X441053Y666968D01*
X440855Y666926D01*
X440630Y666891D01*
X440398Y666877D01*
X440328D01*
X440279Y666884D01*
X440215Y666891D01*
X440138Y666898D01*
X440061Y666905D01*
X439969Y666926D01*
X439779Y666968D01*
X439568Y667032D01*
X439462Y667074D01*
X439364Y667123D01*
X439265Y667186D01*
X439167Y667250D01*
X439160Y667257D01*
X439146Y667264D01*
X439118Y667285D01*
X439082Y667320D01*
X439047Y667355D01*
X438998Y667404D01*
X438949Y667461D01*
X438893Y667517D01*
X438836Y667587D01*
X438780Y667672D01*
X438717Y667756D01*
X438660Y667848D01*
X438611Y667953D01*
X438555Y668059D01*
X438513Y668171D01*
X438470Y668298D01*
X439104Y668446D01*
Y668439D01*
X439111Y668425D01*
X439125Y668397D01*
X439139Y668361D01*
X439153Y668319D01*
X439174Y668263D01*
X439230Y668150D01*
X439301Y668024D01*
X439385Y667897D01*
X439491Y667777D01*
X439603Y667672D01*
X439617Y667658D01*
X439659Y667630D01*
X439730Y667594D01*
X439821Y667545D01*
X439941Y667503D01*
X440075Y667461D01*
X440236Y667433D01*
X440412Y667426D01*
X440469D01*
X440504Y667433D01*
X440553D01*
X440609Y667440D01*
X440743Y667461D01*
X440891Y667489D01*
X441045Y667538D01*
X441207Y667608D01*
X441355Y667700D01*
X441362D01*
X441369Y667714D01*
X441418Y667749D01*
X441482Y667805D01*
X441559Y667890D01*
X441651Y667996D01*
X441735Y668115D01*
X441812Y668263D01*
X441883Y668425D01*
Y668432D01*
X441890Y668446D01*
X441897Y668467D01*
X441904Y668502D01*
X441918Y668544D01*
X441932Y668594D01*
X441953Y668713D01*
X441981Y668854D01*
X442009Y669009D01*
X442024Y669177D01*
X442030Y669360D01*
Y669368D01*
Y669389D01*
Y669424D01*
Y669466D01*
X442024Y669515D01*
Y669578D01*
X442016Y669649D01*
X442009Y669726D01*
X441988Y669895D01*
X441953Y670078D01*
X441911Y670261D01*
X441855Y670444D01*
Y670451D01*
X441848Y670465D01*
X441833Y670486D01*
X441819Y670521D01*
X441777Y670606D01*
X441714Y670704D01*
X441637Y670817D01*
X441538Y670937D01*
X441425Y671042D01*
X441292Y671141D01*
X441285D01*
X441271Y671148D01*
X441250Y671162D01*
X441221Y671176D01*
X441186Y671190D01*
X441144Y671211D01*
X441045Y671253D01*
X440919Y671295D01*
X440778Y671330D01*
X440623Y671359D01*
X440462Y671366D01*
X440412D01*
X440370Y671359D01*
X440321D01*
X440272Y671352D01*
X440145Y671323D01*
X439997Y671288D01*
X439849Y671232D01*
X439695Y671155D01*
X439617Y671112D01*
X439547Y671056D01*
X439540Y671049D01*
X439533Y671042D01*
X439512Y671021D01*
X439484Y671000D01*
X439455Y670965D01*
X439420Y670922D01*
X439378Y670880D01*
X439343Y670824D01*
X439301Y670761D01*
X439251Y670690D01*
X439209Y670620D01*
X439167Y670535D01*
X439132Y670444D01*
X439097Y670345D01*
X439061Y670240D01*
X439033Y670127D01*
X438386Y670289D01*
Y670296D01*
X438393Y670324D01*
X438407Y670367D01*
X438428Y670423D01*
X438449Y670486D01*
X438477Y670564D01*
X438513Y670648D01*
X438555Y670740D01*
X438653Y670937D01*
X438780Y671133D01*
X438857Y671232D01*
X438935Y671330D01*
X439019Y671415D01*
X439118Y671499D01*
X439125Y671506D01*
X439139Y671520D01*
X439174Y671535D01*
X439209Y671563D01*
X439265Y671598D01*
X439322Y671633D01*
X439399Y671668D01*
X439477Y671703D01*
X439568Y671746D01*
X439666Y671781D01*
X439772Y671816D01*
X439885Y671851D01*
X440004Y671879D01*
X440131Y671893D01*
X440265Y671907D01*
X440405Y671914D01*
X440483D01*
X440539Y671907D01*
D02*
G37*
G36*
X419509D02*
X419572D01*
X419650Y671900D01*
X419734Y671886D01*
X419826Y671879D01*
X420030Y671837D01*
X420248Y671788D01*
X420473Y671710D01*
X420585Y671668D01*
X420698Y671612D01*
X420705Y671605D01*
X420726Y671598D01*
X420754Y671577D01*
X420797Y671556D01*
X420846Y671520D01*
X420895Y671485D01*
X421029Y671387D01*
X421169Y671260D01*
X421317Y671105D01*
X421458Y670929D01*
X421585Y670725D01*
Y670718D01*
X421599Y670697D01*
X421613Y670669D01*
X421634Y670620D01*
X421655Y670571D01*
X421676Y670500D01*
X421704Y670430D01*
X421732Y670345D01*
X421760Y670254D01*
X421788Y670148D01*
X421810Y670043D01*
X421831Y669930D01*
X421866Y669684D01*
X421880Y669424D01*
Y669417D01*
Y669389D01*
Y669353D01*
X421873Y669304D01*
Y669241D01*
X421866Y669163D01*
X421852Y669086D01*
X421845Y668995D01*
X421824Y668896D01*
X421810Y668791D01*
X421753Y668565D01*
X421683Y668333D01*
X421585Y668101D01*
X421577Y668094D01*
X421570Y668073D01*
X421556Y668045D01*
X421528Y668002D01*
X421500Y667946D01*
X421465Y667890D01*
X421366Y667756D01*
X421247Y667601D01*
X421099Y667454D01*
X420930Y667306D01*
X420832Y667243D01*
X420733Y667179D01*
X420726Y667172D01*
X420705Y667165D01*
X420677Y667151D01*
X420635Y667130D01*
X420578Y667109D01*
X420515Y667081D01*
X420445Y667053D01*
X420360Y667025D01*
X420269Y666996D01*
X420170Y666975D01*
X420065Y666947D01*
X419952Y666926D01*
X419706Y666891D01*
X419579Y666877D01*
X419354D01*
X419312Y666884D01*
X419256D01*
X419122Y666898D01*
X418974Y666919D01*
X418819Y666954D01*
X418651Y666996D01*
X418489Y667053D01*
X418482D01*
X418468Y667060D01*
X418447Y667067D01*
X418418Y667081D01*
X418341Y667123D01*
X418242Y667172D01*
X418137Y667243D01*
X418024Y667327D01*
X417919Y667419D01*
X417820Y667531D01*
X417806Y667545D01*
X417778Y667587D01*
X417736Y667651D01*
X417680Y667742D01*
X417623Y667855D01*
X417560Y667996D01*
X417497Y668150D01*
X417447Y668326D01*
X418031Y668481D01*
Y668474D01*
X418038Y668467D01*
X418046Y668446D01*
X418052Y668418D01*
X418074Y668354D01*
X418102Y668270D01*
X418144Y668171D01*
X418193Y668080D01*
X418242Y667981D01*
X418306Y667897D01*
X418313Y667890D01*
X418334Y667862D01*
X418376Y667827D01*
X418425Y667777D01*
X418489Y667721D01*
X418573Y667665D01*
X418665Y667608D01*
X418770Y667559D01*
X418784Y667552D01*
X418819Y667538D01*
X418883Y667517D01*
X418967Y667489D01*
X419066Y667468D01*
X419178Y667447D01*
X419305Y667433D01*
X419439Y667426D01*
X419516D01*
X419551Y667433D01*
X419593D01*
X419699Y667440D01*
X419818Y667461D01*
X419952Y667482D01*
X420079Y667517D01*
X420205Y667566D01*
X420219Y667573D01*
X420262Y667587D01*
X420318Y667623D01*
X420388Y667658D01*
X420473Y667714D01*
X420564Y667770D01*
X420649Y667841D01*
X420726Y667918D01*
X420733Y667925D01*
X420761Y667953D01*
X420797Y668002D01*
X420839Y668059D01*
X420888Y668129D01*
X420937Y668214D01*
X420986Y668305D01*
X421036Y668404D01*
Y668411D01*
X421043Y668425D01*
X421050Y668446D01*
X421064Y668481D01*
X421078Y668523D01*
X421092Y668572D01*
X421113Y668629D01*
X421127Y668692D01*
X421162Y668840D01*
X421190Y669009D01*
X421212Y669184D01*
X421219Y669381D01*
Y669389D01*
Y669410D01*
Y669445D01*
X421212Y669487D01*
Y669543D01*
X421204Y669614D01*
X421198Y669684D01*
X421190Y669762D01*
X421162Y669937D01*
X421127Y670120D01*
X421071Y670303D01*
X421001Y670479D01*
Y670486D01*
X420986Y670500D01*
X420979Y670521D01*
X420958Y670549D01*
X420909Y670627D01*
X420832Y670725D01*
X420740Y670831D01*
X420628Y670937D01*
X420494Y671035D01*
X420346Y671126D01*
X420339D01*
X420325Y671133D01*
X420304Y671148D01*
X420269Y671162D01*
X420234Y671176D01*
X420184Y671190D01*
X420072Y671232D01*
X419931Y671267D01*
X419776Y671302D01*
X419607Y671330D01*
X419431Y671338D01*
X419361D01*
X419319Y671330D01*
X419277D01*
X419171Y671316D01*
X419045Y671302D01*
X418911Y671274D01*
X418763Y671232D01*
X418615Y671183D01*
X418608D01*
X418594Y671176D01*
X418580Y671169D01*
X418552Y671155D01*
X418475Y671119D01*
X418390Y671077D01*
X418292Y671028D01*
X418186Y670972D01*
X418088Y670908D01*
X418003Y670838D01*
Y669923D01*
X419439D01*
Y669346D01*
X417370D01*
Y671155D01*
X417377Y671162D01*
X417391Y671169D01*
X417419Y671190D01*
X417454Y671218D01*
X417497Y671246D01*
X417546Y671281D01*
X417609Y671323D01*
X417673Y671366D01*
X417820Y671457D01*
X417989Y671556D01*
X418165Y671647D01*
X418355Y671724D01*
X418362D01*
X418376Y671731D01*
X418404Y671739D01*
X418439Y671753D01*
X418489Y671767D01*
X418545Y671788D01*
X418608Y671802D01*
X418672Y671816D01*
X418826Y671851D01*
X419002Y671886D01*
X419192Y671907D01*
X419389Y671914D01*
X419460D01*
X419509Y671907D01*
D02*
G37*
G36*
X447040Y666961D02*
X445042D01*
X444936Y666968D01*
X444817Y666975D01*
X444690Y666982D01*
X444570Y666996D01*
X444465Y667010D01*
X444451D01*
X444402Y667025D01*
X444338Y667039D01*
X444254Y667060D01*
X444162Y667095D01*
X444064Y667137D01*
X443958Y667186D01*
X443867Y667243D01*
X443853Y667250D01*
X443825Y667271D01*
X443782Y667313D01*
X443726Y667362D01*
X443663Y667426D01*
X443600Y667510D01*
X443529Y667601D01*
X443473Y667707D01*
X443466Y667721D01*
X443452Y667756D01*
X443424Y667820D01*
X443396Y667904D01*
X443374Y668002D01*
X443346Y668115D01*
X443332Y668242D01*
X443325Y668375D01*
Y668382D01*
Y668404D01*
Y668432D01*
X443332Y668481D01*
X443339Y668530D01*
X443346Y668594D01*
X443360Y668664D01*
X443374Y668741D01*
X443424Y668903D01*
X443452Y668988D01*
X443494Y669079D01*
X443543Y669171D01*
X443592Y669255D01*
X443656Y669339D01*
X443726Y669424D01*
X443733Y669431D01*
X443747Y669445D01*
X443768Y669466D01*
X443803Y669487D01*
X443846Y669522D01*
X443902Y669557D01*
X443972Y669600D01*
X444050Y669635D01*
X444141Y669677D01*
X444247Y669719D01*
X444359Y669754D01*
X444493Y669783D01*
X444634Y669811D01*
X444789Y669832D01*
X444964Y669846D01*
X445147Y669853D01*
X446393D01*
Y671830D01*
X447040D01*
Y666961D01*
D02*
G37*
G36*
X437619D02*
X435705D01*
X435656Y666968D01*
X435600D01*
X435473Y666982D01*
X435332Y666996D01*
X435185Y667025D01*
X435037Y667060D01*
X434903Y667109D01*
X434896D01*
X434889Y667116D01*
X434847Y667137D01*
X434784Y667172D01*
X434713Y667222D01*
X434629Y667285D01*
X434537Y667362D01*
X434453Y667461D01*
X434376Y667566D01*
X434369Y667580D01*
X434347Y667623D01*
X434312Y667679D01*
X434277Y667763D01*
X434242Y667862D01*
X434207Y667967D01*
X434186Y668087D01*
X434179Y668207D01*
Y668221D01*
Y668256D01*
X434186Y668319D01*
X434200Y668397D01*
X434221Y668488D01*
X434256Y668587D01*
X434298Y668685D01*
X434355Y668791D01*
X434361Y668805D01*
X434383Y668833D01*
X434425Y668889D01*
X434481Y668945D01*
X434552Y669016D01*
X434636Y669093D01*
X434741Y669163D01*
X434861Y669234D01*
X434854D01*
X434840Y669241D01*
X434819Y669248D01*
X434791Y669262D01*
X434706Y669290D01*
X434608Y669339D01*
X434502Y669403D01*
X434383Y669480D01*
X434277Y669572D01*
X434179Y669684D01*
X434171Y669698D01*
X434143Y669740D01*
X434101Y669804D01*
X434059Y669888D01*
X434017Y670001D01*
X433974Y670120D01*
X433946Y670261D01*
X433939Y670416D01*
Y670423D01*
Y670430D01*
Y670472D01*
X433946Y670542D01*
X433960Y670627D01*
X433974Y670725D01*
X434003Y670831D01*
X434038Y670944D01*
X434087Y671056D01*
X434094Y671070D01*
X434115Y671105D01*
X434143Y671155D01*
X434186Y671225D01*
X434242Y671295D01*
X434298Y671373D01*
X434369Y671450D01*
X434446Y671513D01*
X434453Y671520D01*
X434481Y671542D01*
X434530Y671570D01*
X434594Y671598D01*
X434671Y671640D01*
X434762Y671682D01*
X434861Y671717D01*
X434981Y671753D01*
X434995D01*
X435037Y671767D01*
X435107Y671774D01*
X435199Y671788D01*
X435311Y671802D01*
X435445Y671816D01*
X435593Y671823D01*
X435762Y671830D01*
X437619D01*
Y666961D01*
D02*
G37*
G36*
X431153D02*
X427628D01*
Y667538D01*
X430506D01*
Y669023D01*
X427811D01*
Y669600D01*
X430506D01*
Y671253D01*
X427516D01*
Y671830D01*
X431153D01*
Y666961D01*
D02*
G37*
G36*
X426622D02*
X424751D01*
X424624Y666968D01*
X424483Y666975D01*
X424342Y666989D01*
X424202Y667010D01*
X424082Y667032D01*
X424075D01*
X424061Y667039D01*
X424040D01*
X424012Y667053D01*
X423934Y667074D01*
X423836Y667109D01*
X423723Y667158D01*
X423604Y667222D01*
X423484Y667292D01*
X423372Y667383D01*
X423364Y667390D01*
X423358Y667397D01*
X423336Y667419D01*
X423308Y667440D01*
X423238Y667510D01*
X423153Y667608D01*
X423062Y667728D01*
X422963Y667869D01*
X422872Y668031D01*
X422795Y668214D01*
Y668221D01*
X422788Y668235D01*
X422774Y668263D01*
X422766Y668305D01*
X422745Y668354D01*
X422731Y668411D01*
X422717Y668474D01*
X422696Y668551D01*
X422675Y668629D01*
X422661Y668720D01*
X422626Y668917D01*
X422605Y669135D01*
X422598Y669374D01*
Y669381D01*
Y669396D01*
Y669431D01*
Y669466D01*
X422605Y669515D01*
Y669572D01*
X422612Y669705D01*
X422633Y669860D01*
X422654Y670022D01*
X422689Y670191D01*
X422731Y670359D01*
Y670367D01*
X422738Y670381D01*
X422745Y670402D01*
X422752Y670430D01*
X422781Y670507D01*
X422823Y670606D01*
X422865Y670718D01*
X422921Y670831D01*
X422992Y670950D01*
X423062Y671063D01*
X423069Y671077D01*
X423097Y671112D01*
X423139Y671162D01*
X423196Y671225D01*
X423259Y671295D01*
X423336Y671366D01*
X423414Y671443D01*
X423505Y671506D01*
X423519Y671513D01*
X423548Y671535D01*
X423597Y671563D01*
X423667Y671598D01*
X423751Y671640D01*
X423850Y671675D01*
X423963Y671717D01*
X424089Y671753D01*
X424103D01*
X424124Y671760D01*
X424146Y671767D01*
X424216Y671774D01*
X424314Y671788D01*
X424427Y671802D01*
X424561Y671816D01*
X424708Y671823D01*
X424870Y671830D01*
X426622D01*
Y666961D01*
D02*
G37*
G36*
X416413D02*
X412888D01*
Y667538D01*
X415766D01*
Y669023D01*
X413071D01*
Y669600D01*
X415766D01*
Y671253D01*
X412776D01*
Y671830D01*
X416413D01*
Y666961D01*
D02*
G37*
%LPC*%
G36*
X446393Y669276D02*
X445084D01*
X445035Y669269D01*
X444986D01*
X444929Y669262D01*
X444796Y669248D01*
X444648Y669220D01*
X444500Y669177D01*
X444366Y669121D01*
X444303Y669086D01*
X444254Y669044D01*
X444240Y669030D01*
X444212Y669002D01*
X444169Y668945D01*
X444120Y668875D01*
X444071Y668783D01*
X444029Y668671D01*
X444001Y668544D01*
X443987Y668397D01*
Y668390D01*
Y668382D01*
Y668347D01*
X443993Y668284D01*
X444008Y668214D01*
X444022Y668136D01*
X444050Y668045D01*
X444092Y667960D01*
X444141Y667876D01*
X444148Y667869D01*
X444169Y667841D01*
X444205Y667805D01*
X444247Y667756D01*
X444310Y667707D01*
X444380Y667665D01*
X444458Y667623D01*
X444549Y667587D01*
X444556D01*
X444585Y667580D01*
X444627Y667573D01*
X444683Y667559D01*
X444767Y667552D01*
X444873Y667545D01*
X445000Y667538D01*
X446393D01*
Y669276D01*
D02*
G37*
G36*
X436972Y671253D02*
X435586D01*
X435438Y671246D01*
X435375Y671239D01*
X435318Y671232D01*
X435311D01*
X435283Y671225D01*
X435241Y671218D01*
X435192Y671204D01*
X435072Y671162D01*
X434953Y671105D01*
X434945Y671098D01*
X434924Y671084D01*
X434896Y671063D01*
X434861Y671035D01*
X434826Y670993D01*
X434777Y670950D01*
X434741Y670894D01*
X434699Y670831D01*
X434692Y670824D01*
X434685Y670803D01*
X434671Y670761D01*
X434650Y670711D01*
X434629Y670655D01*
X434615Y670585D01*
X434608Y670500D01*
X434601Y670416D01*
Y670402D01*
Y670374D01*
X434608Y670317D01*
X434622Y670254D01*
X434636Y670184D01*
X434664Y670106D01*
X434699Y670029D01*
X434748Y669951D01*
X434756Y669944D01*
X434777Y669916D01*
X434805Y669881D01*
X434847Y669839D01*
X434903Y669790D01*
X434974Y669740D01*
X435051Y669698D01*
X435143Y669663D01*
X435157Y669656D01*
X435185Y669649D01*
X435248Y669635D01*
X435325Y669621D01*
X435424Y669607D01*
X435544Y669593D01*
X435691Y669578D01*
X436972D01*
Y671253D01*
D02*
G37*
G36*
Y669002D02*
X435776D01*
X435684Y668995D01*
X435586Y668988D01*
X435487Y668980D01*
X435389Y668966D01*
X435311Y668952D01*
X435297Y668945D01*
X435269Y668938D01*
X435227Y668917D01*
X435171Y668889D01*
X435114Y668861D01*
X435051Y668819D01*
X434988Y668762D01*
X434938Y668706D01*
X434931Y668699D01*
X434917Y668678D01*
X434896Y668636D01*
X434875Y668587D01*
X434854Y668530D01*
X434833Y668460D01*
X434819Y668375D01*
X434812Y668284D01*
Y668270D01*
Y668242D01*
X434819Y668199D01*
X434826Y668143D01*
X434840Y668073D01*
X434861Y668002D01*
X434889Y667932D01*
X434931Y667862D01*
X434938Y667855D01*
X434953Y667834D01*
X434981Y667798D01*
X435016Y667763D01*
X435065Y667721D01*
X435121Y667679D01*
X435192Y667637D01*
X435269Y667608D01*
X435276D01*
X435311Y667594D01*
X435361Y667587D01*
X435438Y667573D01*
X435544Y667559D01*
X435663Y667552D01*
X435818Y667538D01*
X436972D01*
Y669002D01*
D02*
G37*
G36*
X425975Y671253D02*
X424821D01*
X424772Y671246D01*
X424666Y671239D01*
X424547Y671232D01*
X424420Y671218D01*
X424293Y671197D01*
X424188Y671169D01*
X424174Y671162D01*
X424138Y671155D01*
X424089Y671133D01*
X424026Y671105D01*
X423955Y671063D01*
X423885Y671021D01*
X423815Y670972D01*
X423745Y670915D01*
X423737Y670901D01*
X423709Y670873D01*
X423667Y670824D01*
X423618Y670753D01*
X423562Y670662D01*
X423498Y670556D01*
X423442Y670437D01*
X423393Y670303D01*
Y670296D01*
X423386Y670282D01*
X423379Y670261D01*
X423372Y670233D01*
X423364Y670198D01*
X423350Y670148D01*
X423336Y670099D01*
X423322Y670043D01*
X423301Y669902D01*
X423280Y669740D01*
X423266Y669557D01*
X423259Y669360D01*
Y669353D01*
Y669325D01*
Y669290D01*
X423266Y669234D01*
Y669171D01*
X423273Y669100D01*
X423280Y669016D01*
X423287Y668931D01*
X423322Y668741D01*
X423364Y668544D01*
X423428Y668361D01*
X423470Y668270D01*
X423512Y668193D01*
Y668186D01*
X423526Y668171D01*
X423540Y668150D01*
X423554Y668122D01*
X423611Y668052D01*
X423681Y667967D01*
X423773Y667876D01*
X423878Y667784D01*
X423998Y667707D01*
X424124Y667644D01*
X424138Y667637D01*
X424174Y667630D01*
X424237Y667608D01*
X424328Y667587D01*
X424441Y667573D01*
X424582Y667552D01*
X424666Y667545D01*
X424758D01*
X424849Y667538D01*
X425975D01*
Y671253D01*
D02*
G37*
%LPD*%
D10*
X458450Y599130D02*
G03*
X458450Y599130I-1000J0D01*
G01*
X717150Y584860D02*
G03*
X717150Y584860I-1000J0D01*
G01*
D14*
X474473Y303530D02*
G03*
X474473Y303530I-55373J0D01*
G01*
D15*
X635850Y522230D02*
G03*
X635850Y522230I-5000J0D01*
G01*
X386089Y205039D02*
X419089D01*
X386089Y181039D02*
X419089D01*
X386089D02*
Y205039D01*
X419089Y181039D02*
Y205039D01*
X274331Y639511D02*
X307331D01*
X274331Y663511D02*
X307331D01*
Y639511D02*
Y663511D01*
X274331Y639511D02*
Y663511D01*
X621850Y482230D02*
X660850D01*
X621850Y531230D02*
X660850D01*
Y482230D02*
Y531230D01*
X621850Y482230D02*
Y531230D01*
D18*
X380750Y685130D02*
X470150D01*
X380750Y611630D02*
Y685130D01*
Y611630D02*
X470150D01*
Y685130D01*
X335450Y680230D02*
X480450D01*
X683150Y578860D02*
X701150D01*
X683150D02*
Y609860D01*
X701150D01*
Y578860D02*
Y609860D01*
D40*
X264922Y304419D02*
G03*
X264922Y304419I-762J0D01*
G01*
D108*
X255143Y301879D02*
X273177D01*
X255143D02*
Y335661D01*
X273177D01*
Y301879D02*
Y335661D01*
X255143Y327533D02*
Y335661D01*
X273177D01*
Y327533D02*
Y335661D01*
X255143Y327533D02*
X273177D01*
Y301879D02*
Y310007D01*
X255143Y301879D02*
X273177D01*
X255143D02*
Y310007D01*
X273177D01*
M02*
