G04*
G04 #@! TF.GenerationSoftware,Altium Limited,Altium Designer,24.2.2 (26)*
G04*
G04 Layer_Color=16711935*
%FSLAX44Y44*%
%MOMM*%
G71*
G04*
G04 #@! TF.SameCoordinates,C9C70787-D61E-4D50-BDF8-59307FDF8C79*
G04*
G04*
G04 #@! TF.FilePolarity,Negative*
G04*
G01*
G75*
%ADD40C,0.0000*%
%ADD58C,0.8032*%
%ADD59O,1.1032X2.2032*%
%ADD60O,1.1032X1.9032*%
%ADD61C,1.8232*%
%ADD62O,2.0032X3.5032*%
%ADD63O,4.0032X2.2032*%
%ADD64C,1.9812*%
%ADD65C,1.8532*%
%ADD66C,1.7272*%
%ADD67O,3.5032X2.0032*%
%ADD68O,2.2032X4.0032*%
%ADD69C,1.8032*%
%ADD70C,2.2032*%
%ADD71O,1.4732X1.7272*%
%ADD72C,0.8382*%
D40*
X176251Y478790D02*
G03*
X176251Y478790I-8611J0D01*
G01*
X201651D02*
G03*
X201651Y478790I-8611J0D01*
G01*
D58*
X454350Y622330D02*
D03*
X396550D02*
D03*
D59*
X468700Y617430D02*
D03*
X382200D02*
D03*
D60*
X468700Y659130D02*
D03*
X382200D02*
D03*
D61*
X167640Y478790D02*
D03*
X193040D02*
D03*
D62*
X77960Y579680D02*
D03*
D63*
X124460Y614680D02*
D03*
Y554680D02*
D03*
D64*
X450850Y445770D02*
D03*
Y471170D02*
D03*
X631190Y394970D02*
D03*
Y420370D02*
D03*
X539750Y600710D02*
D03*
Y626110D02*
D03*
X134620Y119380D02*
D03*
Y144780D02*
D03*
X458470Y80010D02*
D03*
Y54610D02*
D03*
X19050Y605790D02*
D03*
Y580390D02*
D03*
Y656590D02*
D03*
Y631190D02*
D03*
X403860Y53340D02*
D03*
Y78740D02*
D03*
X96520Y455930D02*
D03*
X121920D02*
D03*
X584200Y549910D02*
D03*
Y524510D02*
D03*
X81280Y237490D02*
D03*
X106680D02*
D03*
X393954Y530606D02*
D03*
X419354D02*
D03*
X585470Y452120D02*
D03*
Y477520D02*
D03*
X443230Y127000D02*
D03*
Y152400D02*
D03*
X276860Y424180D02*
D03*
X302260D02*
D03*
X276860Y398780D02*
D03*
X302260D02*
D03*
X276860Y373380D02*
D03*
X302260D02*
D03*
D65*
X158750Y509270D02*
D03*
X133350D02*
D03*
X107950D02*
D03*
X651510Y636270D02*
D03*
X676910D02*
D03*
X702310D02*
D03*
X736600Y408940D02*
D03*
Y434340D02*
D03*
Y459740D02*
D03*
D66*
X25400Y177800D02*
D03*
Y152400D02*
D03*
Y127000D02*
D03*
Y101600D02*
D03*
Y76200D02*
D03*
Y50800D02*
D03*
X508000Y497840D02*
D03*
Y472440D02*
D03*
Y447040D02*
D03*
Y421640D02*
D03*
Y396240D02*
D03*
Y370840D02*
D03*
Y345440D02*
D03*
Y320040D02*
D03*
Y294640D02*
D03*
Y269240D02*
D03*
X25400Y228600D02*
D03*
Y254000D02*
D03*
Y279400D02*
D03*
Y304800D02*
D03*
Y330200D02*
D03*
Y355600D02*
D03*
Y381000D02*
D03*
Y406400D02*
D03*
X508000Y50800D02*
D03*
Y76200D02*
D03*
Y101600D02*
D03*
Y127000D02*
D03*
Y152400D02*
D03*
Y177800D02*
D03*
Y203200D02*
D03*
Y228600D02*
D03*
X25400Y533400D02*
D03*
X355600Y25400D02*
D03*
X76200D02*
D03*
D67*
X643180Y122700D02*
D03*
D68*
X678180Y76200D02*
D03*
X618180D02*
D03*
D69*
X386600Y303530D02*
D03*
X451600D02*
D03*
D70*
X727710Y327660D02*
D03*
Y362660D02*
D03*
D71*
X506730Y533400D02*
D03*
D72*
X46990Y358140D02*
D03*
X45720Y185420D02*
D03*
Y163830D02*
D03*
Y133350D02*
D03*
Y91440D02*
D03*
Y58420D02*
D03*
X485140Y494030D02*
D03*
X483870Y462280D02*
D03*
X485140Y436880D02*
D03*
X486410Y388620D02*
D03*
X488950Y364490D02*
D03*
Y337820D02*
D03*
X487680Y261620D02*
D03*
Y314960D02*
D03*
X488950Y287020D02*
D03*
X487680Y233680D02*
D03*
Y209550D02*
D03*
X486410Y180340D02*
D03*
Y157480D02*
D03*
X487680Y132080D02*
D03*
X532130Y96520D02*
D03*
X533400Y72390D02*
D03*
X534670Y46990D02*
D03*
X662940Y255270D02*
D03*
X664210Y311150D02*
D03*
X681990Y378460D02*
D03*
X510540Y567690D02*
D03*
X373380Y224790D02*
D03*
X322580Y636270D02*
D03*
Y345440D02*
D03*
X326390Y358140D02*
D03*
X342900Y176530D02*
D03*
X8890Y496570D02*
D03*
X10160Y477520D02*
D03*
X358140Y351790D02*
D03*
X370840Y396240D02*
D03*
X220853Y279625D02*
D03*
X222250Y313690D02*
D03*
X231140Y356870D02*
D03*
X364490Y407670D02*
D03*
X335280Y436880D02*
D03*
X363220Y433070D02*
D03*
X576580Y658431D02*
D03*
X641350Y531114D02*
D03*
X643890Y594360D02*
D03*
X660250Y556410D02*
D03*
X217170Y354330D02*
D03*
X234950Y336550D02*
D03*
X280670Y248920D02*
D03*
X561340Y610870D02*
D03*
X234305Y264028D02*
D03*
X675341Y571500D02*
D03*
X240030Y534670D02*
D03*
X717550Y544830D02*
D03*
X438150Y378460D02*
D03*
X281940Y353060D02*
D03*
X461010Y186690D02*
D03*
X325120Y173990D02*
D03*
X190500Y532130D02*
D03*
X335280Y594360D02*
D03*
X748030Y645160D02*
D03*
X661670Y194310D02*
D03*
X610870Y469900D02*
D03*
X353060Y636270D02*
D03*
X220980Y646430D02*
D03*
X157480Y384810D02*
D03*
X288290Y492760D02*
D03*
X720090Y589280D02*
D03*
X114300Y36830D02*
D03*
X184150Y35560D02*
D03*
X213360D02*
D03*
X199390Y279400D02*
D03*
X73660Y284480D02*
D03*
X54610Y299720D02*
D03*
X101600Y392430D02*
D03*
X96520Y417830D02*
D03*
X571500Y195580D02*
D03*
X574040Y236220D02*
D03*
X570230Y350520D02*
D03*
X572770Y294640D02*
D03*
X299720Y121920D02*
D03*
X289560Y144780D02*
D03*
X213360Y176530D02*
D03*
X236220Y161290D02*
D03*
X173990Y147320D02*
D03*
X226060Y144780D02*
D03*
X605790Y568960D02*
D03*
X641350Y472440D02*
D03*
M02*
