G04*
G04 #@! TF.GenerationSoftware,Altium Limited,Altium Designer,24.2.2 (26)*
G04*
G04 Layer_Color=255*
%FSLAX44Y44*%
%MOMM*%
G71*
G04*
G04 #@! TF.SameCoordinates,124A1895-3AD2-4E28-9B74-7A6451F43074*
G04*
G04*
G04 #@! TF.FilePolarity,Positive*
G04*
G01*
G75*
%ADD23R,1.8034X1.1176*%
%ADD24R,1.5000X1.2000*%
%ADD25R,1.8542X1.3716*%
%ADD26R,3.0988X1.7000*%
%ADD27R,0.8382X1.7000*%
%ADD28R,1.1176X1.8034*%
%ADD29R,1.8000X1.4000*%
G04:AMPARAMS|DCode=30|XSize=0.508mm|YSize=1.65mm|CornerRadius=0mm|HoleSize=0mm|Usage=FLASHONLY|Rotation=40.000|XOffset=0mm|YOffset=0mm|HoleType=Round|Shape=Rectangle|*
%AMROTATEDRECTD30*
4,1,4,0.3357,-0.7953,-0.7249,0.4687,-0.3357,0.7953,0.7249,-0.4687,0.3357,-0.7953,0.0*
%
%ADD30ROTATEDRECTD30*%

G04:AMPARAMS|DCode=31|XSize=0.508mm|YSize=1.65mm|CornerRadius=0mm|HoleSize=0mm|Usage=FLASHONLY|Rotation=310.000|XOffset=0mm|YOffset=0mm|HoleType=Round|Shape=Rectangle|*
%AMROTATEDRECTD31*
4,1,4,-0.7953,-0.3357,0.4687,0.7249,0.7953,0.3357,-0.4687,-0.7249,-0.7953,-0.3357,0.0*
%
%ADD31ROTATEDRECTD31*%

%ADD32O,2.2000X0.6096*%
%ADD33R,1.5000X1.5500*%
%ADD34R,0.4000X1.3500*%
%ADD35R,1.0000X0.7000*%
%ADD59C,1.7780*%
%ADD60O,1.8000X3.3000*%
%ADD61O,3.8000X2.0000*%
%ADD62C,1.6200*%
%ADD63C,1.5240*%
%ADD64O,0.7750X1.5500*%
%ADD65O,1.3000X0.6500*%
%ADD66C,1.6500*%
%ADD67O,1.2700X1.5240*%
D23*
X205740Y53594D02*
D03*
Y83566D02*
D03*
X373380Y109474D02*
D03*
Y139446D02*
D03*
X238760Y303784D02*
D03*
Y333756D02*
D03*
X66040Y347726D02*
D03*
Y317754D02*
D03*
X15240Y493776D02*
D03*
Y463804D02*
D03*
X87630Y89662D02*
D03*
Y59690D02*
D03*
X294640Y138176D02*
D03*
Y108204D02*
D03*
X179070Y319786D02*
D03*
Y289814D02*
D03*
X207010D02*
D03*
Y319786D02*
D03*
X314706Y487426D02*
D03*
Y457454D02*
D03*
X363220Y488950D02*
D03*
Y458978D02*
D03*
X314706Y537210D02*
D03*
Y507238D02*
D03*
X363474Y539242D02*
D03*
Y509270D02*
D03*
X67056Y376428D02*
D03*
Y406400D02*
D03*
X177800Y520192D02*
D03*
Y490220D02*
D03*
X314960Y591566D02*
D03*
Y561594D02*
D03*
X184150Y623316D02*
D03*
Y593344D02*
D03*
X46482Y463296D02*
D03*
Y493268D02*
D03*
X19050Y601218D02*
D03*
Y571246D02*
D03*
D24*
X177392Y56278D02*
D03*
X111392Y86278D02*
D03*
Y56278D02*
D03*
X177392Y86278D02*
D03*
D25*
X264160Y301879D02*
D03*
Y333121D02*
D03*
D26*
X115062Y320814D02*
D03*
D27*
X138176Y385814D02*
D03*
X115062D02*
D03*
X91948Y388314D02*
D03*
D28*
X208026Y351790D02*
D03*
X178054D02*
D03*
X420624Y377190D02*
D03*
X390652D02*
D03*
X373126Y374650D02*
D03*
X343154D02*
D03*
X480568Y593344D02*
D03*
X450596D02*
D03*
X95758Y292862D02*
D03*
X125730D02*
D03*
X320294Y156210D02*
D03*
X350266D02*
D03*
X336296Y617220D02*
D03*
X306324D02*
D03*
X360426Y656590D02*
D03*
X330454D02*
D03*
X230886Y659130D02*
D03*
X200914D02*
D03*
X139463Y414787D02*
D03*
X109491D02*
D03*
D29*
X320810Y130850D02*
D03*
X347210Y111450D02*
D03*
X320810D02*
D03*
X347210Y130850D02*
D03*
X304030Y641310D02*
D03*
X277630Y660710D02*
D03*
X304030D02*
D03*
X277630Y641310D02*
D03*
D30*
X229215Y238347D02*
D03*
X235247Y243409D02*
D03*
X241474Y248633D02*
D03*
X247506Y253694D02*
D03*
X253732Y258919D02*
D03*
X259764Y263980D02*
D03*
X265990Y269205D02*
D03*
X272022Y274266D02*
D03*
X327045Y208693D02*
D03*
X321013Y203631D02*
D03*
X314786Y198407D02*
D03*
X308754Y193346D02*
D03*
X302528Y188121D02*
D03*
X296496Y183060D02*
D03*
X290270Y177835D02*
D03*
X284238Y172774D02*
D03*
D31*
X263618Y174230D02*
D03*
X258557Y180262D02*
D03*
X253332Y186488D02*
D03*
X248271Y192520D02*
D03*
X243046Y198746D02*
D03*
X237985Y204778D02*
D03*
X232760Y211005D02*
D03*
X227699Y217036D02*
D03*
X293272Y272059D02*
D03*
X298334Y266027D02*
D03*
X303558Y259801D02*
D03*
X308619Y253769D02*
D03*
X313844Y247543D02*
D03*
X318905Y241511D02*
D03*
X324130Y235284D02*
D03*
X329191Y229253D02*
D03*
D32*
X264668Y483870D02*
D03*
Y496570D02*
D03*
Y509270D02*
D03*
Y521970D02*
D03*
Y534670D02*
D03*
Y547370D02*
D03*
Y560070D02*
D03*
Y572770D02*
D03*
X205232D02*
D03*
Y560070D02*
D03*
Y547370D02*
D03*
Y534670D02*
D03*
Y521970D02*
D03*
Y509270D02*
D03*
Y496570D02*
D03*
Y483870D02*
D03*
D33*
X436324Y661492D02*
D03*
X456324D02*
D03*
D34*
X433324Y634492D02*
D03*
X439824D02*
D03*
X446324D02*
D03*
X452824D02*
D03*
X459324D02*
D03*
D35*
X224595Y627990D02*
D03*
Y618490D02*
D03*
Y608990D02*
D03*
X248220D02*
D03*
Y618490D02*
D03*
Y627990D02*
D03*
D59*
X510286Y621538D02*
D03*
Y646938D02*
D03*
Y570738D02*
D03*
Y596138D02*
D03*
X299720Y375920D02*
D03*
X274320D02*
D03*
X299720Y401320D02*
D03*
X274320D02*
D03*
X299720Y426720D02*
D03*
X274320D02*
D03*
X104902Y455930D02*
D03*
X79502D02*
D03*
X155702D02*
D03*
X130302D02*
D03*
X463550Y386334D02*
D03*
Y411734D02*
D03*
Y335534D02*
D03*
Y360934D02*
D03*
X81280Y228600D02*
D03*
Y254000D02*
D03*
Y177800D02*
D03*
Y203200D02*
D03*
X461772Y106680D02*
D03*
Y81280D02*
D03*
Y157480D02*
D03*
Y132080D02*
D03*
X413766Y104902D02*
D03*
Y79502D02*
D03*
Y155702D02*
D03*
Y130302D02*
D03*
X462026Y511810D02*
D03*
Y537210D02*
D03*
Y461010D02*
D03*
Y486410D02*
D03*
D60*
X55100Y574600D02*
D03*
D61*
X101600Y609600D02*
D03*
Y549600D02*
D03*
D62*
X213360Y452120D02*
D03*
X238760D02*
D03*
D63*
X508000Y269240D02*
D03*
Y294640D02*
D03*
Y320040D02*
D03*
Y345440D02*
D03*
Y370840D02*
D03*
Y396240D02*
D03*
Y421640D02*
D03*
Y447040D02*
D03*
Y472440D02*
D03*
Y497840D02*
D03*
X25400Y533400D02*
D03*
X355600Y25400D02*
D03*
X76200D02*
D03*
X508000Y228600D02*
D03*
Y203200D02*
D03*
Y177800D02*
D03*
Y152400D02*
D03*
Y127000D02*
D03*
Y101600D02*
D03*
Y76200D02*
D03*
Y50800D02*
D03*
X25400Y228600D02*
D03*
Y254000D02*
D03*
Y279400D02*
D03*
Y304800D02*
D03*
Y330200D02*
D03*
Y355600D02*
D03*
Y381000D02*
D03*
Y406400D02*
D03*
Y50800D02*
D03*
Y76200D02*
D03*
Y101600D02*
D03*
Y127000D02*
D03*
Y152400D02*
D03*
Y177800D02*
D03*
D64*
X411324Y661492D02*
D03*
X481324D02*
D03*
D65*
X421324Y634492D02*
D03*
X471324D02*
D03*
D66*
X83058Y500634D02*
D03*
X108458D02*
D03*
X133858D02*
D03*
D67*
X506730Y533400D02*
D03*
M02*
