G04*
G04 #@! TF.GenerationSoftware,Altium Limited,Altium Designer,24.2.2 (26)*
G04*
G04 Layer_Color=8388736*
%FSLAX44Y44*%
%MOMM*%
G71*
G04*
G04 #@! TF.SameCoordinates,124A1895-3AD2-4E28-9B74-7A6451F43074*
G04*
G04*
G04 #@! TF.FilePolarity,Negative*
G04*
G01*
G75*
%ADD25R,1.8542X1.3716*%
%ADD36C,0.0000*%
%ADD37R,2.0066X1.3208*%
%ADD38R,1.7032X1.4032*%
%ADD39R,3.3020X1.9032*%
%ADD40R,1.0414X1.9032*%
%ADD41R,1.3208X2.0066*%
%ADD42R,2.0032X1.6032*%
G04:AMPARAMS|DCode=43|XSize=0.5588mm|YSize=1.7008mm|CornerRadius=0mm|HoleSize=0mm|Usage=FLASHONLY|Rotation=40.000|XOffset=0mm|YOffset=0mm|HoleType=Round|Shape=Rectangle|*
%AMROTATEDRECTD43*
4,1,4,0.3326,-0.8310,-0.7607,0.4719,-0.3326,0.8310,0.7607,-0.4719,0.3326,-0.8310,0.0*
%
%ADD43ROTATEDRECTD43*%

G04:AMPARAMS|DCode=44|XSize=0.5588mm|YSize=1.7008mm|CornerRadius=0mm|HoleSize=0mm|Usage=FLASHONLY|Rotation=310.000|XOffset=0mm|YOffset=0mm|HoleType=Round|Shape=Rectangle|*
%AMROTATEDRECTD44*
4,1,4,-0.8310,-0.3326,0.4719,0.7607,0.8310,0.3326,-0.4719,-0.7607,-0.8310,-0.3326,0.0*
%
%ADD44ROTATEDRECTD44*%

%ADD45O,2.4032X0.8128*%
%ADD46R,1.7032X1.7532*%
%ADD47R,0.6032X1.5532*%
%ADD48R,1.0508X0.7508*%
%ADD49C,1.9812*%
%ADD50O,2.0032X3.5032*%
%ADD51O,4.0032X2.2032*%
%ADD52C,1.8232*%
%ADD53C,1.7272*%
%ADD54O,0.9782X1.7532*%
%ADD55O,1.5032X0.8532*%
%ADD56C,1.8532*%
%ADD57O,1.4732X1.7272*%
%ADD58C,0.8382*%
G36*
X410064Y652752D02*
X409804Y652772D01*
X409544Y652802D01*
X409284Y652852D01*
X409034Y652912D01*
X408774Y652982D01*
X408534Y653072D01*
X408294Y653172D01*
X408054Y653282D01*
X407824Y653412D01*
X407604Y653552D01*
X407384Y653692D01*
X407174Y653852D01*
X406974Y654022D01*
X406784Y654202D01*
X406604Y654392D01*
X406434Y654592D01*
X406274Y654802D01*
X406134Y655022D01*
X405994Y655242D01*
X405864Y655472D01*
X405754Y655712D01*
X405654Y655952D01*
X405564Y656192D01*
X405494Y656452D01*
X405434Y656702D01*
X405384Y656962D01*
X405354Y657222D01*
X405334Y657482D01*
X405324Y657742D01*
Y665242D01*
X405334Y665502D01*
X405354Y665762D01*
X405384Y666022D01*
X405434Y666282D01*
X405494Y666532D01*
X405564Y666792D01*
X405654Y667032D01*
X405754Y667272D01*
X405864Y667512D01*
X405994Y667742D01*
X406134Y667962D01*
X406274Y668182D01*
X406434Y668392D01*
X406604Y668592D01*
X406784Y668782D01*
X406974Y668962D01*
X407174Y669132D01*
X407384Y669292D01*
X407604Y669432D01*
X407824Y669572D01*
X408054Y669702D01*
X408294Y669812D01*
X408534Y669912D01*
X408774Y670002D01*
X409034Y670072D01*
X409284Y670132D01*
X409544Y670182D01*
X409804Y670212D01*
X410064Y670232D01*
X410324Y670242D01*
X424324D01*
Y652742D01*
X410324D01*
X410064Y652752D01*
D02*
G37*
G36*
X468324Y670242D02*
X482324D01*
X482584Y670232D01*
X482844Y670212D01*
X483104Y670182D01*
X483364Y670132D01*
X483614Y670072D01*
X483874Y670002D01*
X484114Y669912D01*
X484354Y669812D01*
X484594Y669702D01*
X484824Y669572D01*
X485044Y669432D01*
X485264Y669292D01*
X485474Y669132D01*
X485674Y668962D01*
X485864Y668782D01*
X486044Y668592D01*
X486214Y668392D01*
X486374Y668182D01*
X486514Y667962D01*
X486654Y667742D01*
X486784Y667512D01*
X486894Y667272D01*
X486994Y667032D01*
X487084Y666792D01*
X487154Y666532D01*
X487214Y666282D01*
X487264Y666022D01*
X487294Y665762D01*
X487314Y665502D01*
X487324Y665242D01*
Y657742D01*
X487314Y657482D01*
X487294Y657222D01*
X487264Y656962D01*
X487214Y656702D01*
X487154Y656452D01*
X487084Y656192D01*
X486994Y655952D01*
X486894Y655712D01*
X486784Y655472D01*
X486654Y655242D01*
X486514Y655022D01*
X486374Y654802D01*
X486214Y654592D01*
X486044Y654392D01*
X485864Y654202D01*
X485674Y654022D01*
X485474Y653852D01*
X485264Y653692D01*
X485044Y653552D01*
X484824Y653412D01*
X484594Y653282D01*
X484354Y653172D01*
X484114Y653072D01*
X483874Y652982D01*
X483614Y652912D01*
X483364Y652852D01*
X483104Y652802D01*
X482844Y652772D01*
X482584Y652752D01*
X482324Y652742D01*
X468324D01*
Y670242D01*
D02*
G37*
D25*
X264160Y301879D02*
D03*
Y333121D02*
D03*
D36*
X221971Y452120D02*
G03*
X221971Y452120I-8611J0D01*
G01*
X247371D02*
G03*
X247371Y452120I-8611J0D01*
G01*
D37*
X205740Y53594D02*
D03*
Y83566D02*
D03*
X373380Y109474D02*
D03*
Y139446D02*
D03*
X238760Y303784D02*
D03*
Y333756D02*
D03*
X66040Y347726D02*
D03*
Y317754D02*
D03*
X15240Y493776D02*
D03*
Y463804D02*
D03*
X87630Y89662D02*
D03*
Y59690D02*
D03*
X294640Y138176D02*
D03*
Y108204D02*
D03*
X179070Y319786D02*
D03*
Y289814D02*
D03*
X207010D02*
D03*
Y319786D02*
D03*
X314706Y487426D02*
D03*
Y457454D02*
D03*
X363220Y488950D02*
D03*
Y458978D02*
D03*
X314706Y537210D02*
D03*
Y507238D02*
D03*
X363474Y539242D02*
D03*
Y509270D02*
D03*
X67056Y376428D02*
D03*
Y406400D02*
D03*
X177800Y520192D02*
D03*
Y490220D02*
D03*
X314960Y591566D02*
D03*
Y561594D02*
D03*
X184150Y623316D02*
D03*
Y593344D02*
D03*
X46482Y463296D02*
D03*
Y493268D02*
D03*
X19050Y601218D02*
D03*
Y571246D02*
D03*
D38*
X177392Y56278D02*
D03*
X111392Y86278D02*
D03*
Y56278D02*
D03*
X177392Y86278D02*
D03*
D39*
X115062Y320814D02*
D03*
D40*
X138176Y385814D02*
D03*
X115062D02*
D03*
X91948Y388314D02*
D03*
D41*
X208026Y351790D02*
D03*
X178054D02*
D03*
X420624Y377190D02*
D03*
X390652D02*
D03*
X373126Y374650D02*
D03*
X343154D02*
D03*
X480568Y593344D02*
D03*
X450596D02*
D03*
X95758Y292862D02*
D03*
X125730D02*
D03*
X320294Y156210D02*
D03*
X350266D02*
D03*
X336296Y617220D02*
D03*
X306324D02*
D03*
X360426Y656590D02*
D03*
X330454D02*
D03*
X230886Y659130D02*
D03*
X200914D02*
D03*
X139463Y414787D02*
D03*
X109491D02*
D03*
D42*
X320810Y130850D02*
D03*
X347210Y111450D02*
D03*
X320810D02*
D03*
X347210Y130850D02*
D03*
X304030Y641310D02*
D03*
X277630Y660710D02*
D03*
X304030D02*
D03*
X277630Y641310D02*
D03*
D43*
X229215Y238347D02*
D03*
X235247Y243409D02*
D03*
X241474Y248633D02*
D03*
X247506Y253694D02*
D03*
X253732Y258919D02*
D03*
X259764Y263980D02*
D03*
X265990Y269205D02*
D03*
X272022Y274266D02*
D03*
X327045Y208693D02*
D03*
X321013Y203631D02*
D03*
X314786Y198407D02*
D03*
X308754Y193346D02*
D03*
X302528Y188121D02*
D03*
X296496Y183060D02*
D03*
X290270Y177835D02*
D03*
X284238Y172774D02*
D03*
D44*
X263618Y174230D02*
D03*
X258557Y180262D02*
D03*
X253332Y186488D02*
D03*
X248271Y192520D02*
D03*
X243046Y198746D02*
D03*
X237985Y204778D02*
D03*
X232760Y211005D02*
D03*
X227699Y217036D02*
D03*
X293272Y272059D02*
D03*
X298334Y266027D02*
D03*
X303558Y259801D02*
D03*
X308619Y253769D02*
D03*
X313844Y247543D02*
D03*
X318905Y241511D02*
D03*
X324130Y235284D02*
D03*
X329191Y229253D02*
D03*
D45*
X264668Y483870D02*
D03*
Y496570D02*
D03*
Y509270D02*
D03*
Y521970D02*
D03*
Y534670D02*
D03*
Y547370D02*
D03*
Y560070D02*
D03*
Y572770D02*
D03*
X205232D02*
D03*
Y560070D02*
D03*
Y547370D02*
D03*
Y534670D02*
D03*
Y521970D02*
D03*
Y509270D02*
D03*
Y496570D02*
D03*
Y483870D02*
D03*
D46*
X436324Y661492D02*
D03*
X456324D02*
D03*
D47*
X433324Y634492D02*
D03*
X439824D02*
D03*
X446324D02*
D03*
X452824D02*
D03*
X459324D02*
D03*
D48*
X224595Y627990D02*
D03*
Y618490D02*
D03*
Y608990D02*
D03*
X248220D02*
D03*
Y618490D02*
D03*
Y627990D02*
D03*
D49*
X510286Y621538D02*
D03*
Y646938D02*
D03*
Y570738D02*
D03*
Y596138D02*
D03*
X299720Y375920D02*
D03*
X274320D02*
D03*
X299720Y401320D02*
D03*
X274320D02*
D03*
X299720Y426720D02*
D03*
X274320D02*
D03*
X104902Y455930D02*
D03*
X79502D02*
D03*
X155702D02*
D03*
X130302D02*
D03*
X463550Y386334D02*
D03*
Y411734D02*
D03*
Y335534D02*
D03*
Y360934D02*
D03*
X81280Y228600D02*
D03*
Y254000D02*
D03*
Y177800D02*
D03*
Y203200D02*
D03*
X461772Y106680D02*
D03*
Y81280D02*
D03*
Y157480D02*
D03*
Y132080D02*
D03*
X413766Y104902D02*
D03*
Y79502D02*
D03*
Y155702D02*
D03*
Y130302D02*
D03*
X462026Y511810D02*
D03*
Y537210D02*
D03*
Y461010D02*
D03*
Y486410D02*
D03*
D50*
X55100Y574600D02*
D03*
D51*
X101600Y609600D02*
D03*
Y549600D02*
D03*
D52*
X213360Y452120D02*
D03*
X238760D02*
D03*
D53*
X508000Y269240D02*
D03*
Y294640D02*
D03*
Y320040D02*
D03*
Y345440D02*
D03*
Y370840D02*
D03*
Y396240D02*
D03*
Y421640D02*
D03*
Y447040D02*
D03*
Y472440D02*
D03*
Y497840D02*
D03*
X25400Y533400D02*
D03*
X355600Y25400D02*
D03*
X76200D02*
D03*
X508000Y228600D02*
D03*
Y203200D02*
D03*
Y177800D02*
D03*
Y152400D02*
D03*
Y127000D02*
D03*
Y101600D02*
D03*
Y76200D02*
D03*
Y50800D02*
D03*
X25400Y228600D02*
D03*
Y254000D02*
D03*
Y279400D02*
D03*
Y304800D02*
D03*
Y330200D02*
D03*
Y355600D02*
D03*
Y381000D02*
D03*
Y406400D02*
D03*
Y50800D02*
D03*
Y76200D02*
D03*
Y101600D02*
D03*
Y127000D02*
D03*
Y152400D02*
D03*
Y177800D02*
D03*
D54*
X411324Y661492D02*
D03*
X481324D02*
D03*
D55*
X421324Y634492D02*
D03*
X471324D02*
D03*
D56*
X83058Y500634D02*
D03*
X108458D02*
D03*
X133858D02*
D03*
D57*
X506730Y533400D02*
D03*
D58*
X220980Y53340D02*
D03*
X127000Y55880D02*
D03*
X490220Y388874D02*
D03*
X489910Y397759D02*
D03*
X489950Y375920D02*
D03*
X438150Y367030D02*
D03*
X526915Y86495D02*
D03*
X488950Y365760D02*
D03*
Y419100D02*
D03*
X491490Y452120D02*
D03*
X524510Y327660D02*
D03*
Y299720D02*
D03*
Y264160D02*
D03*
Y223520D02*
D03*
Y193040D02*
D03*
Y165100D02*
D03*
Y142240D02*
D03*
X529590Y114300D02*
D03*
X530860Y48260D02*
D03*
X-2540Y43180D02*
D03*
X0Y73660D02*
D03*
X43180Y101600D02*
D03*
X-2540Y127000D02*
D03*
X45720Y177800D02*
D03*
X-2540Y147320D02*
D03*
X281940Y289560D02*
D03*
X299749Y317500D02*
D03*
X488950Y320040D02*
D03*
X220980Y332740D02*
D03*
X232596Y331397D02*
D03*
X15240Y477520D02*
D03*
X135890Y580390D02*
D03*
X168910Y566420D02*
D03*
X85090Y309880D02*
D03*
X275590Y69850D02*
D03*
X259080Y74930D02*
D03*
X527050Y427990D02*
D03*
X281940Y256540D02*
D03*
X240030Y351790D02*
D03*
X327660Y438150D02*
D03*
X142240Y90170D02*
D03*
X124460Y86360D02*
D03*
X96212Y107242D02*
D03*
X377190Y439420D02*
D03*
X38100Y88900D02*
D03*
X4445Y87630D02*
D03*
X207010Y598170D02*
D03*
X321310Y638810D02*
D03*
X80010Y294640D02*
D03*
X303530Y154940D02*
D03*
X156210Y386080D02*
D03*
X52070Y363220D02*
D03*
X375920Y167640D02*
D03*
X280670Y220980D02*
D03*
X285750Y204470D02*
D03*
X228600Y269240D02*
D03*
X156210Y314960D02*
D03*
X285750Y483870D02*
D03*
X481330Y571500D02*
D03*
X378460Y655320D02*
D03*
X364490Y591820D02*
D03*
X185420Y650240D02*
D03*
X170180Y622300D02*
D03*
X19050Y631190D02*
D03*
M02*
