G04*
G04 #@! TF.GenerationSoftware,Altium Limited,Altium Designer,24.2.2 (26)*
G04*
G04 Layer_Color=32896*
%FSLAX44Y44*%
%MOMM*%
G71*
G04*
G04 #@! TF.SameCoordinates,124A1895-3AD2-4E28-9B74-7A6451F43074*
G04*
G04*
G04 #@! TF.FilePolarity,Positive*
G04*
G01*
G75*
%ADD10C,0.1524*%
%ADD36C,0.0000*%
D10*
X196850Y59182D02*
X214630D01*
X196850Y51562D02*
Y59182D01*
X214630Y51562D02*
Y59182D01*
X196850Y77978D02*
X214630D01*
Y85598D01*
X196850Y77978D02*
Y85598D01*
X214630Y59182D02*
Y77978D01*
X196850Y85598D02*
X214630D01*
X196850Y59182D02*
Y77978D01*
Y51562D02*
X214630D01*
X196850Y59182D02*
X214630D01*
X196850Y51562D02*
Y59182D01*
X214630Y51562D02*
Y59182D01*
X196850Y77978D02*
X214630D01*
Y85598D01*
X196850Y77978D02*
Y85598D01*
X214630Y59182D02*
Y77978D01*
X196850Y85598D02*
X214630D01*
X196850Y59182D02*
Y77978D01*
Y51562D02*
X214630D01*
X364490Y141478D02*
X382270D01*
Y115062D02*
Y133858D01*
X364490Y107442D02*
X382270D01*
X364490Y115062D02*
Y133858D01*
X382270Y107442D02*
Y115062D01*
X364490Y107442D02*
Y115062D01*
X382270D01*
X364490Y133858D02*
Y141478D01*
X382270Y133858D02*
Y141478D01*
X364490Y133858D02*
X382270D01*
X364490Y141478D02*
X382270D01*
Y115062D02*
Y133858D01*
X364490Y107442D02*
X382270D01*
X364490Y115062D02*
Y133858D01*
X382270Y107442D02*
Y115062D01*
X364490Y107442D02*
Y115062D01*
X382270D01*
X364490Y133858D02*
Y141478D01*
X382270Y133858D02*
Y141478D01*
X364490Y133858D02*
X382270D01*
X134112Y371856D02*
X141986D01*
Y389890D01*
X134112D02*
X141986D01*
X134112Y371856D02*
Y389890D01*
X111252Y371856D02*
X119126D01*
Y389890D01*
X111252D02*
X119126D01*
X111252Y371856D02*
Y389890D01*
X88138Y371856D02*
X96012D01*
Y389890D01*
X88138D02*
X96012D01*
X88138Y371856D02*
Y389890D01*
X99568Y334772D02*
X130556D01*
X99568Y316738D02*
Y334772D01*
Y316738D02*
X130556D01*
Y334772D01*
X81534D02*
Y371856D01*
Y334772D02*
X148590D01*
Y371856D01*
X81534D02*
X148590D01*
X134112D02*
X141986D01*
Y389890D01*
X134112D02*
X141986D01*
X134112Y371856D02*
Y389890D01*
X111252Y371856D02*
X119126D01*
Y389890D01*
X111252D02*
X119126D01*
X111252Y371856D02*
Y389890D01*
X88138Y371856D02*
X96012D01*
Y389890D01*
X88138D02*
X96012D01*
X88138Y371856D02*
Y389890D01*
X99568Y334772D02*
X130556D01*
X99568Y316738D02*
Y334772D01*
Y316738D02*
X130556D01*
Y334772D01*
X81534D02*
Y371856D01*
Y334772D02*
X148590D01*
Y371856D01*
X81534D02*
X148590D01*
X229870Y309372D02*
X247650D01*
X229870Y301752D02*
Y309372D01*
X247650Y301752D02*
Y309372D01*
X229870Y328168D02*
X247650D01*
Y335788D01*
X229870Y328168D02*
Y335788D01*
X247650Y309372D02*
Y328168D01*
X229870Y335788D02*
X247650D01*
X229870Y309372D02*
Y328168D01*
Y301752D02*
X247650D01*
X229870Y309372D02*
X247650D01*
X229870Y301752D02*
Y309372D01*
X247650Y301752D02*
Y309372D01*
X229870Y328168D02*
X247650D01*
Y335788D01*
X229870Y328168D02*
Y335788D01*
X247650Y309372D02*
Y328168D01*
X229870Y335788D02*
X247650D01*
X229870Y309372D02*
Y328168D01*
Y301752D02*
X247650D01*
X57150Y315722D02*
X74930D01*
X57150Y323342D02*
Y342138D01*
Y349758D02*
X74930D01*
Y323342D02*
Y342138D01*
X57150D02*
Y349758D01*
X74930Y342138D02*
Y349758D01*
X57150Y342138D02*
X74930D01*
Y315722D02*
Y323342D01*
X57150Y315722D02*
Y323342D01*
X74930D01*
X57150Y315722D02*
X74930D01*
X57150Y323342D02*
Y342138D01*
Y349758D02*
X74930D01*
Y323342D02*
Y342138D01*
X57150D02*
Y349758D01*
X74930Y342138D02*
Y349758D01*
X57150Y342138D02*
X74930D01*
Y315722D02*
Y323342D01*
X57150Y315722D02*
Y323342D01*
X74930D01*
X176022Y342900D02*
Y360680D01*
X183642D02*
X202438D01*
X210058Y342900D02*
Y360680D01*
X183642Y342900D02*
X202438D01*
Y360680D02*
X210058D01*
X202438Y342900D02*
X210058D01*
X202438D02*
Y360680D01*
X176022Y342900D02*
X183642D01*
X176022Y360680D02*
X183642D01*
Y342900D02*
Y360680D01*
X176022Y342900D02*
Y360680D01*
X183642D02*
X202438D01*
X210058Y342900D02*
Y360680D01*
X183642Y342900D02*
X202438D01*
Y360680D02*
X210058D01*
X202438Y342900D02*
X210058D01*
X202438D02*
Y360680D01*
X176022Y342900D02*
X183642D01*
X176022Y360680D02*
X183642D01*
Y342900D02*
Y360680D01*
X6350Y461772D02*
X24130D01*
X6350Y469392D02*
Y488188D01*
Y495808D02*
X24130D01*
Y469392D02*
Y488188D01*
X6350D02*
Y495808D01*
X24130Y488188D02*
Y495808D01*
X6350Y488188D02*
X24130D01*
Y461772D02*
Y469392D01*
X6350Y461772D02*
Y469392D01*
X24130D01*
X6350Y461772D02*
X24130D01*
X6350Y469392D02*
Y488188D01*
Y495808D02*
X24130D01*
Y469392D02*
Y488188D01*
X6350D02*
Y495808D01*
X24130Y488188D02*
Y495808D01*
X6350Y488188D02*
X24130D01*
Y461772D02*
Y469392D01*
X6350Y461772D02*
Y469392D01*
X24130D01*
X388620Y368300D02*
Y386080D01*
X396240D02*
X415036D01*
X422656Y368300D02*
Y386080D01*
X396240Y368300D02*
X415036D01*
Y386080D02*
X422656D01*
X415036Y368300D02*
X422656D01*
X415036D02*
Y386080D01*
X388620Y368300D02*
X396240D01*
X388620Y386080D02*
X396240D01*
Y368300D02*
Y386080D01*
X388620Y368300D02*
Y386080D01*
X396240D02*
X415036D01*
X422656Y368300D02*
Y386080D01*
X396240Y368300D02*
X415036D01*
Y386080D02*
X422656D01*
X415036Y368300D02*
X422656D01*
X415036D02*
Y386080D01*
X388620Y368300D02*
X396240D01*
X388620Y386080D02*
X396240D01*
Y368300D02*
Y386080D01*
X341122Y365760D02*
Y383540D01*
X375158Y365760D02*
Y383540D01*
X367538D02*
X375158D01*
X367538Y365760D02*
X375158D01*
X367538D02*
Y383540D01*
X341122Y365760D02*
X348742D01*
X341122Y383540D02*
X348742D01*
Y365760D02*
Y383540D01*
X341122Y365760D02*
Y383540D01*
X375158Y365760D02*
Y383540D01*
X367538D02*
X375158D01*
X367538Y365760D02*
X375158D01*
X367538D02*
Y383540D01*
X341122Y365760D02*
X348742D01*
X341122Y383540D02*
X348742D01*
Y365760D02*
Y383540D01*
X474980Y584454D02*
Y602234D01*
Y584454D02*
X482600D01*
X474980Y602234D02*
X482600D01*
X456184Y584454D02*
Y602234D01*
X448564D02*
X456184D01*
X448564Y584454D02*
X456184D01*
Y602234D02*
X474980D01*
X448564Y584454D02*
Y602234D01*
X456184Y584454D02*
X474980D01*
X482600D02*
Y602234D01*
X474980Y584454D02*
Y602234D01*
Y584454D02*
X482600D01*
X474980Y602234D02*
X482600D01*
X456184Y584454D02*
Y602234D01*
X448564D02*
X456184D01*
X448564Y584454D02*
X456184D01*
Y602234D02*
X474980D01*
X448564Y584454D02*
Y602234D01*
X456184Y584454D02*
X474980D01*
X482600D02*
Y602234D01*
X101346Y283972D02*
Y301752D01*
X93726D02*
X101346D01*
X93726Y283972D02*
X101346D01*
X120142D02*
Y301752D01*
Y283972D02*
X127762D01*
X120142Y301752D02*
X127762D01*
X101346Y283972D02*
X120142D01*
X127762D02*
Y301752D01*
X101346D02*
X120142D01*
X93726Y283972D02*
Y301752D01*
X101346Y283972D02*
Y301752D01*
X93726D02*
X101346D01*
X93726Y283972D02*
X101346D01*
X120142D02*
Y301752D01*
Y283972D02*
X127762D01*
X120142Y301752D02*
X127762D01*
X101346Y283972D02*
X120142D01*
X127762D02*
Y301752D01*
X101346D02*
X120142D01*
X93726Y283972D02*
Y301752D01*
X78740Y57658D02*
X96520D01*
X78740Y91694D02*
X96520D01*
X78740Y84074D02*
Y91694D01*
X96520Y84074D02*
Y91694D01*
X78740Y84074D02*
X96520D01*
Y57658D02*
Y65278D01*
X78740Y57658D02*
Y65278D01*
X96520D01*
X78740Y57658D02*
X96520D01*
X78740Y91694D02*
X96520D01*
X78740Y84074D02*
Y91694D01*
X96520Y84074D02*
Y91694D01*
X78740Y84074D02*
X96520D01*
Y57658D02*
Y65278D01*
X78740Y57658D02*
Y65278D01*
X96520D01*
X352298Y147320D02*
Y165100D01*
X318262Y147320D02*
Y165100D01*
Y147320D02*
X325882D01*
X318262Y165100D02*
X325882D01*
Y147320D02*
Y165100D01*
X344678D02*
X352298D01*
X344678Y147320D02*
X352298D01*
X344678D02*
Y165100D01*
X352298Y147320D02*
Y165100D01*
X318262Y147320D02*
Y165100D01*
Y147320D02*
X325882D01*
X318262Y165100D02*
X325882D01*
Y147320D02*
Y165100D01*
X344678D02*
X352298D01*
X344678Y147320D02*
X352298D01*
X344678D02*
Y165100D01*
X285750Y132588D02*
X303530D01*
Y140208D01*
X285750Y132588D02*
Y140208D01*
Y113792D02*
X303530D01*
X285750Y106172D02*
Y113792D01*
X303530Y106172D02*
Y113792D01*
X285750D02*
Y132588D01*
Y106172D02*
X303530D01*
Y113792D02*
Y132588D01*
X285750Y140208D02*
X303530D01*
X285750Y132588D02*
X303530D01*
Y140208D01*
X285750Y132588D02*
Y140208D01*
Y113792D02*
X303530D01*
X285750Y106172D02*
Y113792D01*
X303530Y106172D02*
Y113792D01*
X285750D02*
Y132588D01*
Y106172D02*
X303530D01*
Y113792D02*
Y132588D01*
X285750Y140208D02*
X303530D01*
X170180Y314198D02*
X187960D01*
Y321818D01*
X170180Y314198D02*
Y321818D01*
Y295402D02*
X187960D01*
X170180Y287782D02*
Y295402D01*
X187960Y287782D02*
Y295402D01*
X170180D02*
Y314198D01*
Y287782D02*
X187960D01*
Y295402D02*
Y314198D01*
X170180Y321818D02*
X187960D01*
X170180Y314198D02*
X187960D01*
Y321818D01*
X170180Y314198D02*
Y321818D01*
Y295402D02*
X187960D01*
X170180Y287782D02*
Y295402D01*
X187960Y287782D02*
Y295402D01*
X170180D02*
Y314198D01*
Y287782D02*
X187960D01*
Y295402D02*
Y314198D01*
X170180Y321818D02*
X187960D01*
X198120Y295402D02*
X215900D01*
X198120Y287782D02*
Y295402D01*
X215900Y287782D02*
Y295402D01*
X198120Y314198D02*
X215900D01*
Y321818D01*
X198120Y314198D02*
Y321818D01*
X215900Y295402D02*
Y314198D01*
X198120Y321818D02*
X215900D01*
X198120Y295402D02*
Y314198D01*
Y287782D02*
X215900D01*
X198120Y295402D02*
X215900D01*
X198120Y287782D02*
Y295402D01*
X215900Y287782D02*
Y295402D01*
X198120Y314198D02*
X215900D01*
Y321818D01*
X198120Y314198D02*
Y321818D01*
X215900Y295402D02*
Y314198D01*
X198120Y321818D02*
X215900D01*
X198120Y295402D02*
Y314198D01*
Y287782D02*
X215900D01*
X305816Y455422D02*
X323596D01*
X305816Y489458D02*
X323596D01*
X305816Y481838D02*
Y489458D01*
X323596Y481838D02*
Y489458D01*
X305816Y481838D02*
X323596D01*
Y455422D02*
Y463042D01*
X305816Y455422D02*
Y463042D01*
X323596D01*
X305816Y455422D02*
X323596D01*
X305816Y489458D02*
X323596D01*
X305816Y481838D02*
Y489458D01*
X323596Y481838D02*
Y489458D01*
X305816Y481838D02*
X323596D01*
Y455422D02*
Y463042D01*
X305816Y455422D02*
Y463042D01*
X323596D01*
X354330Y456946D02*
X372110D01*
X354330Y490982D02*
X372110D01*
X354330Y483362D02*
Y490982D01*
X372110Y483362D02*
Y490982D01*
X354330Y483362D02*
X372110D01*
Y456946D02*
Y464566D01*
X354330Y456946D02*
Y464566D01*
X372110D01*
X354330Y456946D02*
X372110D01*
X354330Y490982D02*
X372110D01*
X354330Y483362D02*
Y490982D01*
X372110Y483362D02*
Y490982D01*
X354330Y483362D02*
X372110D01*
Y456946D02*
Y464566D01*
X354330Y456946D02*
Y464566D01*
X372110D01*
X305816Y505206D02*
X323596D01*
X305816Y512826D02*
Y531622D01*
Y539242D02*
X323596D01*
Y512826D02*
Y531622D01*
X305816D02*
Y539242D01*
X323596Y531622D02*
Y539242D01*
X305816Y531622D02*
X323596D01*
Y505206D02*
Y512826D01*
X305816Y505206D02*
Y512826D01*
X323596D01*
X305816Y505206D02*
X323596D01*
X305816Y512826D02*
Y531622D01*
Y539242D02*
X323596D01*
Y512826D02*
Y531622D01*
X305816D02*
Y539242D01*
X323596Y531622D02*
Y539242D01*
X305816Y531622D02*
X323596D01*
Y505206D02*
Y512826D01*
X305816Y505206D02*
Y512826D01*
X323596D01*
X354584Y507238D02*
X372364D01*
X354584Y514858D02*
Y533654D01*
Y541274D02*
X372364D01*
Y514858D02*
Y533654D01*
X354584D02*
Y541274D01*
X372364Y533654D02*
Y541274D01*
X354584Y533654D02*
X372364D01*
Y507238D02*
Y514858D01*
X354584Y507238D02*
Y514858D01*
X372364D01*
X354584Y507238D02*
X372364D01*
X354584Y514858D02*
Y533654D01*
Y541274D02*
X372364D01*
Y514858D02*
Y533654D01*
X354584D02*
Y541274D01*
X372364Y533654D02*
Y541274D01*
X354584Y533654D02*
X372364D01*
Y507238D02*
Y514858D01*
X354584Y507238D02*
Y514858D01*
X372364D01*
X304292Y608330D02*
Y626110D01*
X338328Y608330D02*
Y626110D01*
X330708D02*
X338328D01*
X330708Y608330D02*
X338328D01*
X330708D02*
Y626110D01*
X304292Y608330D02*
X311912D01*
X304292Y626110D02*
X311912D01*
Y608330D02*
Y626110D01*
X304292Y608330D02*
Y626110D01*
X338328Y608330D02*
Y626110D01*
X330708D02*
X338328D01*
X330708Y608330D02*
X338328D01*
X330708D02*
Y626110D01*
X304292Y608330D02*
X311912D01*
X304292Y626110D02*
X311912D01*
Y608330D02*
Y626110D01*
X354838Y647700D02*
Y665480D01*
Y647700D02*
X362458D01*
X354838Y665480D02*
X362458D01*
X336042Y647700D02*
Y665480D01*
X328422D02*
X336042D01*
X328422Y647700D02*
X336042D01*
Y665480D02*
X354838D01*
X328422Y647700D02*
Y665480D01*
X336042Y647700D02*
X354838D01*
X362458D02*
Y665480D01*
X354838Y647700D02*
Y665480D01*
Y647700D02*
X362458D01*
X354838Y665480D02*
X362458D01*
X336042Y647700D02*
Y665480D01*
X328422D02*
X336042D01*
X328422Y647700D02*
X336042D01*
Y665480D02*
X354838D01*
X328422Y647700D02*
Y665480D01*
X336042Y647700D02*
X354838D01*
X362458D02*
Y665480D01*
X225298Y650240D02*
Y668020D01*
Y650240D02*
X232918D01*
X225298Y668020D02*
X232918D01*
X206502Y650240D02*
Y668020D01*
X198882D02*
X206502D01*
X198882Y650240D02*
X206502D01*
Y668020D02*
X225298D01*
X198882Y650240D02*
Y668020D01*
X206502Y650240D02*
X225298D01*
X232918D02*
Y668020D01*
X225298Y650240D02*
Y668020D01*
Y650240D02*
X232918D01*
X225298Y668020D02*
X232918D01*
X206502Y650240D02*
Y668020D01*
X198882D02*
X206502D01*
X198882Y650240D02*
X206502D01*
Y668020D02*
X225298D01*
X198882Y650240D02*
Y668020D01*
X206502Y650240D02*
X225298D01*
X232918D02*
Y668020D01*
X58166Y408432D02*
X75946D01*
Y382016D02*
Y400812D01*
X58166Y374396D02*
X75946D01*
X58166Y382016D02*
Y400812D01*
X75946Y374396D02*
Y382016D01*
X58166Y374396D02*
Y382016D01*
X75946D01*
X58166Y400812D02*
Y408432D01*
X75946Y400812D02*
Y408432D01*
X58166Y400812D02*
X75946D01*
X58166Y408432D02*
X75946D01*
Y382016D02*
Y400812D01*
X58166Y374396D02*
X75946D01*
X58166Y382016D02*
Y400812D01*
X75946Y374396D02*
Y382016D01*
X58166Y374396D02*
Y382016D01*
X75946D01*
X58166Y400812D02*
Y408432D01*
X75946Y400812D02*
Y408432D01*
X58166Y400812D02*
X75946D01*
X107459Y405897D02*
Y423677D01*
X141495Y405897D02*
Y423677D01*
X133875D02*
X141495D01*
X133875Y405897D02*
X141495D01*
X133875D02*
Y423677D01*
X107459Y405897D02*
X115079D01*
X107459Y423677D02*
X115079D01*
Y405897D02*
Y423677D01*
X107459Y405897D02*
Y423677D01*
X141495Y405897D02*
Y423677D01*
X133875D02*
X141495D01*
X133875Y405897D02*
X141495D01*
X133875D02*
Y423677D01*
X107459Y405897D02*
X115079D01*
X107459Y423677D02*
X115079D01*
Y405897D02*
Y423677D01*
X168910Y514604D02*
X186690D01*
Y522224D01*
X168910Y514604D02*
Y522224D01*
Y495808D02*
X186690D01*
X168910Y488188D02*
Y495808D01*
X186690Y488188D02*
Y495808D01*
X168910D02*
Y514604D01*
Y488188D02*
X186690D01*
Y495808D02*
Y514604D01*
X168910Y522224D02*
X186690D01*
X168910Y514604D02*
X186690D01*
Y522224D01*
X168910Y514604D02*
Y522224D01*
Y495808D02*
X186690D01*
X168910Y488188D02*
Y495808D01*
X186690Y488188D02*
Y495808D01*
X168910D02*
Y514604D01*
Y488188D02*
X186690D01*
Y495808D02*
Y514604D01*
X168910Y522224D02*
X186690D01*
X306070Y585978D02*
X323850D01*
Y593598D01*
X306070Y585978D02*
Y593598D01*
Y567182D02*
X323850D01*
X306070Y559562D02*
Y567182D01*
X323850Y559562D02*
Y567182D01*
X306070D02*
Y585978D01*
Y559562D02*
X323850D01*
Y567182D02*
Y585978D01*
X306070Y593598D02*
X323850D01*
X306070Y585978D02*
X323850D01*
Y593598D01*
X306070Y585978D02*
Y593598D01*
Y567182D02*
X323850D01*
X306070Y559562D02*
Y567182D01*
X323850Y559562D02*
Y567182D01*
X306070D02*
Y585978D01*
Y559562D02*
X323850D01*
Y567182D02*
Y585978D01*
X306070Y593598D02*
X323850D01*
X175260Y617728D02*
X193040D01*
Y625348D01*
X175260Y617728D02*
Y625348D01*
Y598932D02*
X193040D01*
X175260Y591312D02*
Y598932D01*
X193040Y591312D02*
Y598932D01*
X175260D02*
Y617728D01*
Y591312D02*
X193040D01*
Y598932D02*
Y617728D01*
X175260Y625348D02*
X193040D01*
X175260Y617728D02*
X193040D01*
Y625348D01*
X175260Y617728D02*
Y625348D01*
Y598932D02*
X193040D01*
X175260Y591312D02*
Y598932D01*
X193040Y591312D02*
Y598932D01*
X175260D02*
Y617728D01*
Y591312D02*
X193040D01*
Y598932D02*
Y617728D01*
X175260Y625348D02*
X193040D01*
X37592Y495300D02*
X55372D01*
X37592Y461264D02*
X55372D01*
Y468884D01*
X37592Y461264D02*
Y468884D01*
X55372D01*
X37592Y487680D02*
Y495300D01*
X55372Y487680D02*
Y495300D01*
X37592Y487680D02*
X55372D01*
X37592Y495300D02*
X55372D01*
X37592Y461264D02*
X55372D01*
Y468884D01*
X37592Y461264D02*
Y468884D01*
X55372D01*
X37592Y487680D02*
Y495300D01*
X55372Y487680D02*
Y495300D01*
X37592Y487680D02*
X55372D01*
X10160Y595630D02*
X27940D01*
Y603250D01*
X10160Y595630D02*
Y603250D01*
Y576834D02*
X27940D01*
X10160Y569214D02*
Y576834D01*
X27940Y569214D02*
Y576834D01*
X10160D02*
Y595630D01*
Y569214D02*
X27940D01*
Y576834D02*
Y595630D01*
X10160Y603250D02*
X27940D01*
X10160Y595630D02*
X27940D01*
Y603250D01*
X10160Y595630D02*
Y603250D01*
Y576834D02*
X27940D01*
X10160Y569214D02*
Y576834D01*
X27940Y569214D02*
Y576834D01*
X10160D02*
Y595630D01*
Y569214D02*
X27940D01*
Y576834D02*
Y595630D01*
X10160Y603250D02*
X27940D01*
D36*
X277822Y176864D02*
X324130Y215722D01*
X235103Y220266D02*
X268084Y180962D01*
X238792Y235629D02*
X273037Y264364D01*
X293868Y259296D02*
X316725Y232055D01*
X265961Y183491D02*
X283853Y181926D01*
X226392Y238155D02*
X232759Y230567D01*
X226392Y238155D02*
X229894Y241094D01*
X236262Y233506D01*
X232759Y230567D02*
X236262Y233506D01*
X232424Y243217D02*
X238792Y235629D01*
X232424Y243217D02*
X235926Y246155D01*
X242294Y238568D01*
X238792Y235629D02*
X242294Y238568D01*
X238650Y248442D02*
X245018Y240853D01*
X238650Y248442D02*
X242153Y251380D01*
X248520Y243792D01*
X245018Y240853D02*
X248520Y243792D01*
X244682Y253503D02*
X251049Y245914D01*
X244682Y253503D02*
X248184Y256441D01*
X254552Y248853D01*
X251049Y245914D02*
X254552Y248853D01*
X250908Y258727D02*
X257276Y251139D01*
X250908Y258727D02*
X254411Y261666D01*
X260778Y254078D01*
X257276Y251139D02*
X260778Y254078D01*
X256940Y263789D02*
X263308Y256200D01*
X256940Y263789D02*
X260443Y266727D01*
X266810Y259139D01*
X263308Y256200D02*
X266810Y259139D01*
X263167Y269013D02*
X269534Y261425D01*
X263167Y269013D02*
X266669Y271952D01*
X273037Y264364D01*
X269534Y261425D02*
X273037Y264364D01*
X269199Y274075D02*
X275566Y266486D01*
X269199Y274075D02*
X272701Y277013D01*
X279068Y269425D01*
X275566Y266486D02*
X279068Y269425D01*
X285867Y268830D02*
X293456Y275197D01*
X296395Y271695D01*
X288806Y265328D02*
X296395Y271695D01*
X285867Y268830D02*
X288806Y265328D01*
X290929Y262798D02*
X298517Y269166D01*
X301456Y265663D01*
X293868Y259296D02*
X301456Y265663D01*
X290929Y262798D02*
X293868Y259296D01*
X296153Y256572D02*
X303742Y262939D01*
X306681Y259437D01*
X299092Y253069D02*
X306681Y259437D01*
X296153Y256572D02*
X299092Y253069D01*
X301215Y250540D02*
X308803Y256907D01*
X311742Y253405D01*
X304153Y247038D02*
X311742Y253405D01*
X301215Y250540D02*
X304153Y247038D01*
X306439Y244314D02*
X314028Y250681D01*
X316967Y247179D01*
X309378Y240811D02*
X316967Y247179D01*
X306439Y244314D02*
X309378Y240811D01*
X311500Y238282D02*
X319089Y244649D01*
X322028Y241147D01*
X314439Y234779D02*
X322028Y241147D01*
X311500Y238282D02*
X314439Y234779D01*
X316725Y232055D02*
X324314Y238423D01*
X327253Y234921D01*
X319664Y228553D02*
X327253Y234921D01*
X316725Y232055D02*
X319664Y228553D01*
X321786Y226023D02*
X329375Y232391D01*
X332314Y228888D01*
X324725Y222521D02*
X332314Y228888D01*
X321786Y226023D02*
X324725Y222521D01*
X324130Y215722D02*
X330498Y208134D01*
X326996Y205195D02*
X330498Y208134D01*
X320628Y212783D02*
X326996Y205195D01*
X320628Y212783D02*
X324130Y215722D01*
X318098Y210661D02*
X324466Y203072D01*
X320964Y200134D02*
X324466Y203072D01*
X314596Y207722D02*
X320964Y200134D01*
X314596Y207722D02*
X318098Y210661D01*
X311872Y205436D02*
X318240Y197848D01*
X314737Y194909D02*
X318240Y197848D01*
X308370Y202497D02*
X314737Y194909D01*
X308370Y202497D02*
X311872Y205436D01*
X305840Y200375D02*
X312208Y192787D01*
X308706Y189848D02*
X312208Y192787D01*
X302338Y197436D02*
X308706Y189848D01*
X302338Y197436D02*
X305840Y200375D01*
X299614Y195150D02*
X305982Y187562D01*
X302479Y184623D02*
X305982Y187562D01*
X296112Y192211D02*
X302479Y184623D01*
X296112Y192211D02*
X299614Y195150D01*
X293582Y190089D02*
X299950Y182500D01*
X296448Y179562D02*
X299950Y182500D01*
X290080Y187150D02*
X296448Y179562D01*
X290080Y187150D02*
X293582Y190089D01*
X287356Y184864D02*
X293723Y177276D01*
X290221Y174337D02*
X293723Y177276D01*
X283853Y181926D02*
X290221Y174337D01*
X283853Y181926D02*
X287356Y184864D01*
X281324Y179803D02*
X287691Y172215D01*
X284189Y169276D02*
X287691Y172215D01*
X277822Y176864D02*
X284189Y169276D01*
X277822Y176864D02*
X281324Y179803D01*
X263434Y171092D02*
X271023Y177459D01*
X260495Y174594D02*
X263434Y171092D01*
X260495Y174594D02*
X268084Y180962D01*
X271023Y177459D01*
X258373Y177123D02*
X265961Y183491D01*
X255434Y180626D02*
X258373Y177123D01*
X255434Y180626D02*
X263023Y186993D01*
X265961Y183491D01*
X253148Y183350D02*
X260737Y189718D01*
X250209Y186853D02*
X253148Y183350D01*
X250209Y186853D02*
X257798Y193220D01*
X260737Y189718D01*
X248087Y189382D02*
X255675Y195749D01*
X245148Y192884D02*
X248087Y189382D01*
X245148Y192884D02*
X252737Y199252D01*
X255675Y195749D01*
X242862Y195608D02*
X250451Y201976D01*
X239923Y199111D02*
X242862Y195608D01*
X239923Y199111D02*
X247512Y205478D01*
X250451Y201976D01*
X237801Y201640D02*
X245389Y208008D01*
X234862Y205143D02*
X237801Y201640D01*
X234862Y205143D02*
X242451Y211510D01*
X245389Y208008D01*
X232577Y207866D02*
X240165Y214234D01*
X229637Y211369D02*
X232577Y207866D01*
X229637Y211369D02*
X237226Y217736D01*
X240165Y214234D01*
X227515Y213899D02*
X235103Y220266D01*
X224576Y217401D02*
X227515Y213899D01*
X224576Y217401D02*
X232165Y223768D01*
X235103Y220266D01*
X324130Y215722D02*
X327827Y218824D01*
X318098Y210661D02*
X320628Y212783D01*
X311872Y205436D02*
X314596Y207722D01*
X305840Y200375D02*
X308370Y202497D01*
X299614Y195150D02*
X302338Y197436D01*
X293582Y190089D02*
X296112Y192211D01*
X287356Y184864D02*
X290080Y187150D01*
X281324Y179803D02*
X283853Y181926D01*
X274124Y173762D02*
X277822Y176864D01*
X271023Y177459D02*
X274124Y173762D01*
X265961Y183491D02*
X268084Y180962D01*
X260737Y189718D02*
X263023Y186993D01*
X255675Y195749D02*
X257798Y193220D01*
X250451Y201976D02*
X252737Y199252D01*
X245389Y208008D02*
X247512Y205478D01*
X240165Y214234D02*
X242451Y211510D01*
X235103Y220266D02*
X237226Y217736D01*
X229063Y227465D02*
X232165Y223768D01*
X229063Y227465D02*
X232759Y230567D01*
X236262Y233506D02*
X238792Y235629D01*
X242294Y238568D02*
X245018Y240853D01*
X248520Y243792D02*
X251049Y245914D01*
X254552Y248853D02*
X257276Y251139D01*
X260778Y254078D02*
X263308Y256200D01*
X266810Y259139D02*
X269534Y261425D01*
X273037Y264364D02*
X275566Y266486D01*
X279068Y269425D02*
X282766Y272527D01*
X285867Y268830D01*
X288806Y265328D02*
X290929Y262798D01*
X293868Y259296D02*
X296153Y256572D01*
X299092Y253069D02*
X301215Y250540D01*
X304153Y247038D02*
X306439Y244314D01*
X309378Y240811D02*
X311500Y238282D01*
X314439Y234779D02*
X316725Y232055D01*
X319664Y228553D02*
X321786Y226023D01*
X324725Y222521D02*
X327827Y218824D01*
X277822Y176864D02*
X324130Y215722D01*
X235103Y220266D02*
X268084Y180962D01*
X238792Y235629D02*
X273037Y264364D01*
X293868Y259296D02*
X316725Y232055D01*
X265961Y183491D02*
X283853Y181926D01*
X226392Y238155D02*
X232759Y230567D01*
X226392Y238155D02*
X229894Y241094D01*
X236262Y233506D01*
X232759Y230567D02*
X236262Y233506D01*
X232424Y243217D02*
X238792Y235629D01*
X232424Y243217D02*
X235926Y246155D01*
X242294Y238568D01*
X238792Y235629D02*
X242294Y238568D01*
X238650Y248442D02*
X245018Y240853D01*
X238650Y248442D02*
X242153Y251380D01*
X248520Y243792D01*
X245018Y240853D02*
X248520Y243792D01*
X244682Y253503D02*
X251049Y245914D01*
X244682Y253503D02*
X248184Y256441D01*
X254552Y248853D01*
X251049Y245914D02*
X254552Y248853D01*
X250908Y258727D02*
X257276Y251139D01*
X250908Y258727D02*
X254411Y261666D01*
X260778Y254078D01*
X257276Y251139D02*
X260778Y254078D01*
X256940Y263789D02*
X263308Y256200D01*
X256940Y263789D02*
X260443Y266727D01*
X266810Y259139D01*
X263308Y256200D02*
X266810Y259139D01*
X263167Y269013D02*
X269534Y261425D01*
X263167Y269013D02*
X266669Y271952D01*
X273037Y264364D01*
X269534Y261425D02*
X273037Y264364D01*
X269199Y274075D02*
X275566Y266486D01*
X269199Y274075D02*
X272701Y277013D01*
X279068Y269425D01*
X275566Y266486D02*
X279068Y269425D01*
X285867Y268830D02*
X293456Y275197D01*
X296395Y271695D01*
X288806Y265328D02*
X296395Y271695D01*
X285867Y268830D02*
X288806Y265328D01*
X290929Y262798D02*
X298517Y269166D01*
X301456Y265663D01*
X293868Y259296D02*
X301456Y265663D01*
X290929Y262798D02*
X293868Y259296D01*
X296153Y256572D02*
X303742Y262939D01*
X306681Y259437D01*
X299092Y253069D02*
X306681Y259437D01*
X296153Y256572D02*
X299092Y253069D01*
X301215Y250540D02*
X308803Y256907D01*
X311742Y253405D01*
X304153Y247038D02*
X311742Y253405D01*
X301215Y250540D02*
X304153Y247038D01*
X306439Y244314D02*
X314028Y250681D01*
X316967Y247179D01*
X309378Y240811D02*
X316967Y247179D01*
X306439Y244314D02*
X309378Y240811D01*
X311500Y238282D02*
X319089Y244649D01*
X322028Y241147D01*
X314439Y234779D02*
X322028Y241147D01*
X311500Y238282D02*
X314439Y234779D01*
X316725Y232055D02*
X324314Y238423D01*
X327253Y234921D01*
X319664Y228553D02*
X327253Y234921D01*
X316725Y232055D02*
X319664Y228553D01*
X321786Y226023D02*
X329375Y232391D01*
X332314Y228888D01*
X324725Y222521D02*
X332314Y228888D01*
X321786Y226023D02*
X324725Y222521D01*
X324130Y215722D02*
X330498Y208134D01*
X326996Y205195D02*
X330498Y208134D01*
X320628Y212783D02*
X326996Y205195D01*
X320628Y212783D02*
X324130Y215722D01*
X318098Y210661D02*
X324466Y203072D01*
X320964Y200134D02*
X324466Y203072D01*
X314596Y207722D02*
X320964Y200134D01*
X314596Y207722D02*
X318098Y210661D01*
X311872Y205436D02*
X318240Y197848D01*
X314737Y194909D02*
X318240Y197848D01*
X308370Y202497D02*
X314737Y194909D01*
X308370Y202497D02*
X311872Y205436D01*
X305840Y200375D02*
X312208Y192787D01*
X308706Y189848D02*
X312208Y192787D01*
X302338Y197436D02*
X308706Y189848D01*
X302338Y197436D02*
X305840Y200375D01*
X299614Y195150D02*
X305982Y187562D01*
X302479Y184623D02*
X305982Y187562D01*
X296112Y192211D02*
X302479Y184623D01*
X296112Y192211D02*
X299614Y195150D01*
X293582Y190089D02*
X299950Y182500D01*
X296448Y179562D02*
X299950Y182500D01*
X290080Y187150D02*
X296448Y179562D01*
X290080Y187150D02*
X293582Y190089D01*
X287356Y184864D02*
X293723Y177276D01*
X290221Y174337D02*
X293723Y177276D01*
X283853Y181926D02*
X290221Y174337D01*
X283853Y181926D02*
X287356Y184864D01*
X281324Y179803D02*
X287691Y172215D01*
X284189Y169276D02*
X287691Y172215D01*
X277822Y176864D02*
X284189Y169276D01*
X277822Y176864D02*
X281324Y179803D01*
X263434Y171092D02*
X271023Y177459D01*
X260495Y174594D02*
X263434Y171092D01*
X260495Y174594D02*
X268084Y180962D01*
X271023Y177459D01*
X258373Y177123D02*
X265961Y183491D01*
X255434Y180626D02*
X258373Y177123D01*
X255434Y180626D02*
X263023Y186993D01*
X265961Y183491D01*
X253148Y183350D02*
X260737Y189718D01*
X250209Y186853D02*
X253148Y183350D01*
X250209Y186853D02*
X257798Y193220D01*
X260737Y189718D01*
X248087Y189382D02*
X255675Y195749D01*
X245148Y192884D02*
X248087Y189382D01*
X245148Y192884D02*
X252737Y199252D01*
X255675Y195749D01*
X242862Y195608D02*
X250451Y201976D01*
X239923Y199111D02*
X242862Y195608D01*
X239923Y199111D02*
X247512Y205478D01*
X250451Y201976D01*
X237801Y201640D02*
X245389Y208008D01*
X234862Y205143D02*
X237801Y201640D01*
X234862Y205143D02*
X242451Y211510D01*
X245389Y208008D01*
X232577Y207866D02*
X240165Y214234D01*
X229637Y211369D02*
X232577Y207866D01*
X229637Y211369D02*
X237226Y217736D01*
X240165Y214234D01*
X227515Y213899D02*
X235103Y220266D01*
X224576Y217401D02*
X227515Y213899D01*
X224576Y217401D02*
X232165Y223768D01*
X235103Y220266D01*
X324130Y215722D02*
X327827Y218824D01*
X318098Y210661D02*
X320628Y212783D01*
X311872Y205436D02*
X314596Y207722D01*
X305840Y200375D02*
X308370Y202497D01*
X299614Y195150D02*
X302338Y197436D01*
X293582Y190089D02*
X296112Y192211D01*
X287356Y184864D02*
X290080Y187150D01*
X281324Y179803D02*
X283853Y181926D01*
X274124Y173762D02*
X277822Y176864D01*
X271023Y177459D02*
X274124Y173762D01*
X265961Y183491D02*
X268084Y180962D01*
X260737Y189718D02*
X263023Y186993D01*
X255675Y195749D02*
X257798Y193220D01*
X250451Y201976D02*
X252737Y199252D01*
X245389Y208008D02*
X247512Y205478D01*
X240165Y214234D02*
X242451Y211510D01*
X235103Y220266D02*
X237226Y217736D01*
X229063Y227465D02*
X232165Y223768D01*
X229063Y227465D02*
X232759Y230567D01*
X236262Y233506D02*
X238792Y235629D01*
X242294Y238568D02*
X245018Y240853D01*
X248520Y243792D02*
X251049Y245914D01*
X254552Y248853D02*
X257276Y251139D01*
X260778Y254078D02*
X263308Y256200D01*
X266810Y259139D02*
X269534Y261425D01*
X273037Y264364D02*
X275566Y266486D01*
X279068Y269425D02*
X282766Y272527D01*
X285867Y268830D01*
X288806Y265328D02*
X290929Y262798D01*
X293868Y259296D02*
X296153Y256572D01*
X299092Y253069D02*
X301215Y250540D01*
X304153Y247038D02*
X306439Y244314D01*
X309378Y240811D02*
X311500Y238282D01*
X314439Y234779D02*
X316725Y232055D01*
X319664Y228553D02*
X321786Y226023D01*
X324725Y222521D02*
X327827Y218824D01*
M02*
