G04*
G04 #@! TF.GenerationSoftware,Altium Limited,Altium Designer,24.2.2 (26)*
G04*
G04 Layer_Color=8421504*
%FSLAX44Y44*%
%MOMM*%
G71*
G04*
G04 #@! TF.SameCoordinates,124A1895-3AD2-4E28-9B74-7A6451F43074*
G04*
G04*
G04 #@! TF.FilePolarity,Positive*
G04*
G01*
G75*
%ADD22C,0.0001*%
%ADD23R,1.8034X1.1176*%
%ADD24R,1.5000X1.2000*%
%ADD25R,1.8542X1.3716*%
%ADD26R,3.0988X1.7000*%
%ADD27R,0.8382X1.7000*%
%ADD28R,1.1176X1.8034*%
%ADD29R,1.8000X1.4000*%
G04:AMPARAMS|DCode=30|XSize=0.508mm|YSize=1.65mm|CornerRadius=0mm|HoleSize=0mm|Usage=FLASHONLY|Rotation=40.000|XOffset=0mm|YOffset=0mm|HoleType=Round|Shape=Rectangle|*
%AMROTATEDRECTD30*
4,1,4,0.3357,-0.7953,-0.7249,0.4687,-0.3357,0.7953,0.7249,-0.4687,0.3357,-0.7953,0.0*
%
%ADD30ROTATEDRECTD30*%

G04:AMPARAMS|DCode=31|XSize=0.508mm|YSize=1.65mm|CornerRadius=0mm|HoleSize=0mm|Usage=FLASHONLY|Rotation=310.000|XOffset=0mm|YOffset=0mm|HoleType=Round|Shape=Rectangle|*
%AMROTATEDRECTD31*
4,1,4,-0.7953,-0.3357,0.4687,0.7249,0.7953,0.3357,-0.4687,-0.7249,-0.7953,-0.3357,0.0*
%
%ADD31ROTATEDRECTD31*%

%ADD32O,2.2000X0.6096*%
%ADD33R,1.5000X1.5500*%
%ADD34R,0.4000X1.3500*%
%ADD35R,1.0000X0.7000*%
G36*
X423324Y653742D02*
X411324D01*
X411064Y653752D01*
X410804Y653772D01*
X410544Y653802D01*
X410284Y653852D01*
X410034Y653912D01*
X409774Y653982D01*
X409534Y654072D01*
X409294Y654172D01*
X409054Y654282D01*
X408824Y654412D01*
X408604Y654552D01*
X408384Y654692D01*
X408174Y654852D01*
X407974Y655022D01*
X407784Y655202D01*
X407604Y655392D01*
X407434Y655592D01*
X407274Y655802D01*
X407134Y656022D01*
X406994Y656242D01*
X406864Y656472D01*
X406754Y656712D01*
X406654Y656952D01*
X406564Y657192D01*
X406494Y657452D01*
X406434Y657702D01*
X406384Y657962D01*
X406354Y658222D01*
X406334Y658482D01*
X406324Y658742D01*
Y664242D01*
X406334Y664502D01*
X406354Y664762D01*
X406384Y665022D01*
X406434Y665282D01*
X406494Y665532D01*
X406564Y665792D01*
X406654Y666032D01*
X406754Y666272D01*
X406864Y666512D01*
X406994Y666742D01*
X407134Y666962D01*
X407274Y667182D01*
X407434Y667392D01*
X407604Y667592D01*
X407784Y667782D01*
X407974Y667962D01*
X408174Y668132D01*
X408384Y668292D01*
X408604Y668432D01*
X408824Y668572D01*
X409054Y668702D01*
X409294Y668812D01*
X409534Y668912D01*
X409774Y669002D01*
X410034Y669072D01*
X410284Y669132D01*
X410544Y669182D01*
X410804Y669212D01*
X411064Y669232D01*
X411324Y669242D01*
X423324D01*
Y653742D01*
D02*
G37*
G36*
X481584Y669232D02*
X481844Y669212D01*
X482104Y669182D01*
X482364Y669132D01*
X482614Y669072D01*
X482874Y669002D01*
X483114Y668912D01*
X483354Y668812D01*
X483594Y668702D01*
X483824Y668572D01*
X484044Y668432D01*
X484264Y668292D01*
X484474Y668132D01*
X484674Y667962D01*
X484864Y667782D01*
X485044Y667592D01*
X485214Y667392D01*
X485374Y667182D01*
X485514Y666962D01*
X485654Y666742D01*
X485784Y666512D01*
X485894Y666272D01*
X485994Y666032D01*
X486084Y665792D01*
X486154Y665532D01*
X486214Y665282D01*
X486264Y665022D01*
X486294Y664762D01*
X486314Y664502D01*
X486324Y664242D01*
Y658742D01*
X486314Y658482D01*
X486294Y658222D01*
X486264Y657962D01*
X486214Y657702D01*
X486154Y657452D01*
X486084Y657192D01*
X485994Y656952D01*
X485894Y656712D01*
X485784Y656472D01*
X485654Y656242D01*
X485514Y656022D01*
X485374Y655802D01*
X485214Y655592D01*
X485044Y655392D01*
X484864Y655202D01*
X484674Y655022D01*
X484474Y654852D01*
X484264Y654692D01*
X484044Y654552D01*
X483824Y654412D01*
X483594Y654282D01*
X483354Y654172D01*
X483114Y654072D01*
X482874Y653982D01*
X482614Y653912D01*
X482364Y653852D01*
X482104Y653802D01*
X481844Y653772D01*
X481584Y653752D01*
X481324Y653742D01*
X469324D01*
Y669242D01*
X481324D01*
X481584Y669232D01*
D02*
G37*
%LPC*%
G36*
X411454Y667242D02*
X411194D01*
X411064Y667232D01*
X410934Y667212D01*
X410804Y667192D01*
X410674Y667152D01*
X410554Y667122D01*
X410424Y667072D01*
X410304Y667022D01*
X410194Y666972D01*
X410074Y666912D01*
X409964Y666842D01*
X409854Y666762D01*
X409754Y666682D01*
X409654Y666602D01*
X409554Y666512D01*
X409464Y666412D01*
X409384Y666312D01*
X409304Y666212D01*
X409224Y666102D01*
X409154Y665992D01*
X409094Y665872D01*
X409044Y665762D01*
X408994Y665642D01*
X408944Y665512D01*
X408914Y665392D01*
X408874Y665262D01*
X408854Y665132D01*
X408834Y665002D01*
X408824Y664872D01*
Y664742D01*
Y658242D01*
Y658112D01*
X408834Y657982D01*
X408854Y657852D01*
X408874Y657722D01*
X408914Y657592D01*
X408944Y657472D01*
X408994Y657342D01*
X409044Y657222D01*
X409094Y657112D01*
X409154Y656992D01*
X409224Y656882D01*
X409304Y656772D01*
X409384Y656672D01*
X409464Y656572D01*
X409554Y656472D01*
X409654Y656382D01*
X409754Y656302D01*
X409854Y656222D01*
X409964Y656142D01*
X410074Y656072D01*
X410194Y656012D01*
X410304Y655962D01*
X410424Y655912D01*
X410554Y655862D01*
X410674Y655832D01*
X410804Y655792D01*
X410934Y655772D01*
X411064Y655752D01*
X411194Y655742D01*
X411454D01*
X411584Y655752D01*
X411714Y655772D01*
X411844Y655792D01*
X411974Y655832D01*
X412094Y655862D01*
X412224Y655912D01*
X412344Y655962D01*
X412454Y656012D01*
X412574Y656072D01*
X412684Y656142D01*
X412794Y656222D01*
X412894Y656302D01*
X412994Y656382D01*
X413094Y656472D01*
X413184Y656572D01*
X413264Y656672D01*
X413344Y656772D01*
X413424Y656882D01*
X413494Y656992D01*
X413554Y657112D01*
X413604Y657222D01*
X413654Y657342D01*
X413704Y657472D01*
X413734Y657592D01*
X413774Y657722D01*
X413794Y657852D01*
X413814Y657982D01*
X413824Y658112D01*
Y658242D01*
Y664742D01*
Y664872D01*
X413814Y665002D01*
X413794Y665132D01*
X413774Y665262D01*
X413734Y665392D01*
X413704Y665512D01*
X413654Y665642D01*
X413604Y665762D01*
X413554Y665872D01*
X413494Y665992D01*
X413424Y666102D01*
X413344Y666212D01*
X413264Y666312D01*
X413184Y666412D01*
X413094Y666512D01*
X412994Y666602D01*
X412894Y666682D01*
X412794Y666762D01*
X412684Y666842D01*
X412574Y666912D01*
X412454Y666972D01*
X412344Y667022D01*
X412224Y667072D01*
X412094Y667122D01*
X411974Y667152D01*
X411844Y667192D01*
X411714Y667212D01*
X411584Y667232D01*
X411454Y667242D01*
D02*
G37*
G36*
X481454D02*
X481194D01*
X481064Y667232D01*
X480934Y667212D01*
X480804Y667192D01*
X480674Y667152D01*
X480554Y667122D01*
X480424Y667072D01*
X480304Y667022D01*
X480194Y666972D01*
X480074Y666912D01*
X479964Y666842D01*
X479854Y666762D01*
X479754Y666682D01*
X479654Y666602D01*
X479554Y666512D01*
X479464Y666412D01*
X479384Y666312D01*
X479304Y666212D01*
X479224Y666102D01*
X479154Y665992D01*
X479094Y665872D01*
X479044Y665762D01*
X478994Y665642D01*
X478944Y665512D01*
X478914Y665392D01*
X478874Y665262D01*
X478854Y665132D01*
X478834Y665002D01*
X478824Y664872D01*
Y664742D01*
Y658242D01*
Y658112D01*
X478834Y657982D01*
X478854Y657852D01*
X478874Y657722D01*
X478914Y657592D01*
X478944Y657472D01*
X478994Y657342D01*
X479044Y657222D01*
X479094Y657112D01*
X479154Y656992D01*
X479224Y656882D01*
X479304Y656772D01*
X479384Y656672D01*
X479464Y656572D01*
X479554Y656472D01*
X479654Y656382D01*
X479754Y656302D01*
X479854Y656222D01*
X479964Y656142D01*
X480074Y656072D01*
X480194Y656012D01*
X480304Y655962D01*
X480424Y655912D01*
X480554Y655862D01*
X480674Y655832D01*
X480804Y655792D01*
X480934Y655772D01*
X481064Y655752D01*
X481194Y655742D01*
X481454D01*
X481584Y655752D01*
X481714Y655772D01*
X481844Y655792D01*
X481974Y655832D01*
X482094Y655862D01*
X482224Y655912D01*
X482344Y655962D01*
X482454Y656012D01*
X482574Y656072D01*
X482684Y656142D01*
X482794Y656222D01*
X482894Y656302D01*
X482994Y656382D01*
X483094Y656472D01*
X483184Y656572D01*
X483264Y656672D01*
X483344Y656772D01*
X483424Y656882D01*
X483494Y656992D01*
X483554Y657112D01*
X483604Y657222D01*
X483654Y657342D01*
X483704Y657472D01*
X483734Y657592D01*
X483774Y657722D01*
X483794Y657852D01*
X483814Y657982D01*
X483824Y658112D01*
Y658242D01*
Y664742D01*
Y664872D01*
X483814Y665002D01*
X483794Y665132D01*
X483774Y665262D01*
X483734Y665392D01*
X483704Y665512D01*
X483654Y665642D01*
X483604Y665762D01*
X483554Y665872D01*
X483494Y665992D01*
X483424Y666102D01*
X483344Y666212D01*
X483264Y666312D01*
X483184Y666412D01*
X483094Y666512D01*
X482994Y666602D01*
X482894Y666682D01*
X482794Y666762D01*
X482684Y666842D01*
X482574Y666912D01*
X482454Y666972D01*
X482344Y667022D01*
X482224Y667072D01*
X482094Y667122D01*
X481974Y667152D01*
X481844Y667192D01*
X481714Y667212D01*
X481584Y667232D01*
X481454Y667242D01*
D02*
G37*
%LPD*%
D22*
X411324Y667492D02*
Y669192D01*
X481324Y653792D02*
Y655492D01*
D23*
X205740Y53594D02*
D03*
Y83566D02*
D03*
X373380Y109474D02*
D03*
Y139446D02*
D03*
X238760Y303784D02*
D03*
Y333756D02*
D03*
X66040Y347726D02*
D03*
Y317754D02*
D03*
X15240Y493776D02*
D03*
Y463804D02*
D03*
X87630Y89662D02*
D03*
Y59690D02*
D03*
X294640Y138176D02*
D03*
Y108204D02*
D03*
X179070Y319786D02*
D03*
Y289814D02*
D03*
X207010D02*
D03*
Y319786D02*
D03*
X314706Y487426D02*
D03*
Y457454D02*
D03*
X363220Y488950D02*
D03*
Y458978D02*
D03*
X314706Y537210D02*
D03*
Y507238D02*
D03*
X363474Y539242D02*
D03*
Y509270D02*
D03*
X67056Y376428D02*
D03*
Y406400D02*
D03*
X177800Y520192D02*
D03*
Y490220D02*
D03*
X314960Y591566D02*
D03*
Y561594D02*
D03*
X184150Y623316D02*
D03*
Y593344D02*
D03*
X46482Y463296D02*
D03*
Y493268D02*
D03*
X19050Y601218D02*
D03*
Y571246D02*
D03*
D24*
X177392Y56278D02*
D03*
X111392Y86278D02*
D03*
Y56278D02*
D03*
X177392Y86278D02*
D03*
D25*
X264160Y301879D02*
D03*
Y333121D02*
D03*
D26*
X115062Y320814D02*
D03*
D27*
X138176Y385814D02*
D03*
X115062D02*
D03*
X91948Y388314D02*
D03*
D28*
X208026Y351790D02*
D03*
X178054D02*
D03*
X420624Y377190D02*
D03*
X390652D02*
D03*
X373126Y374650D02*
D03*
X343154D02*
D03*
X480568Y593344D02*
D03*
X450596D02*
D03*
X95758Y292862D02*
D03*
X125730D02*
D03*
X320294Y156210D02*
D03*
X350266D02*
D03*
X336296Y617220D02*
D03*
X306324D02*
D03*
X360426Y656590D02*
D03*
X330454D02*
D03*
X230886Y659130D02*
D03*
X200914D02*
D03*
X139463Y414787D02*
D03*
X109491D02*
D03*
D29*
X320810Y130850D02*
D03*
X347210Y111450D02*
D03*
X320810D02*
D03*
X347210Y130850D02*
D03*
X304030Y641310D02*
D03*
X277630Y660710D02*
D03*
X304030D02*
D03*
X277630Y641310D02*
D03*
D30*
X229215Y238347D02*
D03*
X235247Y243409D02*
D03*
X241474Y248633D02*
D03*
X247506Y253694D02*
D03*
X253732Y258919D02*
D03*
X259764Y263980D02*
D03*
X265990Y269205D02*
D03*
X272022Y274266D02*
D03*
X327045Y208693D02*
D03*
X321013Y203631D02*
D03*
X314786Y198407D02*
D03*
X308754Y193346D02*
D03*
X302528Y188121D02*
D03*
X296496Y183060D02*
D03*
X290270Y177835D02*
D03*
X284238Y172774D02*
D03*
D31*
X263618Y174230D02*
D03*
X258557Y180262D02*
D03*
X253332Y186488D02*
D03*
X248271Y192520D02*
D03*
X243046Y198746D02*
D03*
X237985Y204778D02*
D03*
X232760Y211005D02*
D03*
X227699Y217036D02*
D03*
X293272Y272059D02*
D03*
X298334Y266027D02*
D03*
X303558Y259801D02*
D03*
X308619Y253769D02*
D03*
X313844Y247543D02*
D03*
X318905Y241511D02*
D03*
X324130Y235284D02*
D03*
X329191Y229253D02*
D03*
D32*
X264668Y483870D02*
D03*
Y496570D02*
D03*
Y509270D02*
D03*
Y521970D02*
D03*
Y534670D02*
D03*
Y547370D02*
D03*
Y560070D02*
D03*
Y572770D02*
D03*
X205232D02*
D03*
Y560070D02*
D03*
Y547370D02*
D03*
Y534670D02*
D03*
Y521970D02*
D03*
Y509270D02*
D03*
Y496570D02*
D03*
Y483870D02*
D03*
D33*
X436324Y661492D02*
D03*
X456324D02*
D03*
D34*
X433324Y634492D02*
D03*
X439824D02*
D03*
X446324D02*
D03*
X452824D02*
D03*
X459324D02*
D03*
D35*
X224595Y627990D02*
D03*
Y618490D02*
D03*
Y608990D02*
D03*
X248220D02*
D03*
Y618490D02*
D03*
Y627990D02*
D03*
M02*
