G04*
G04 #@! TF.GenerationSoftware,Altium Limited,Altium Designer,24.2.2 (26)*
G04*
G04 Layer_Color=16711935*
%FSLAX44Y44*%
%MOMM*%
G71*
G04*
G04 #@! TF.SameCoordinates,124A1895-3AD2-4E28-9B74-7A6451F43074*
G04*
G04*
G04 #@! TF.FilePolarity,Positive*
G04*
G01*
G75*
%ADD13C,0.1000*%
%ADD15C,0.2000*%
%ADD17C,0.1270*%
%ADD21C,0.1778*%
%ADD36C,0.0000*%
%ADD69C,0.0254*%
D13*
X350509Y108649D02*
Y132649D01*
X317509Y108649D02*
Y132649D01*
Y108649D02*
X350509D01*
X317509Y132649D02*
X350509D01*
X274331Y639511D02*
Y663511D01*
X307331Y639511D02*
Y663511D01*
X274331D02*
X307331D01*
X274331Y639511D02*
X307331D01*
D15*
X460824Y620492D02*
G03*
X460824Y620492I-1000J0D01*
G01*
D17*
X409324Y632992D02*
X483324D01*
X409324D02*
Y675992D01*
Y682992D01*
X406074Y688292D02*
X409324Y682992D01*
X406074Y688292D02*
X486574D01*
X483324Y682992D02*
X486574Y688292D01*
X483324Y675992D02*
Y682992D01*
Y632992D02*
Y675992D01*
X409324D02*
X483324D01*
D21*
X424180Y695960D02*
Y702308D01*
X427354D01*
X428412Y701250D01*
Y699134D01*
X427354Y698076D01*
X424180D01*
X434760Y701250D02*
X433702Y702308D01*
X431586D01*
X430528Y701250D01*
Y697018D01*
X431586Y695960D01*
X433702D01*
X434760Y697018D01*
X436876Y702308D02*
Y695960D01*
X440050D01*
X441108Y697018D01*
Y698076D01*
X440050Y699134D01*
X436876D01*
X440050D01*
X441108Y700192D01*
Y701250D01*
X440050Y702308D01*
X436876D01*
X453804D02*
X449572D01*
Y695960D01*
X453804D01*
X449572Y699134D02*
X451688D01*
X455920Y695960D02*
Y702308D01*
X460152Y695960D01*
Y702308D01*
X462268D02*
Y695960D01*
X465442D01*
X466500Y697018D01*
Y701250D01*
X465442Y702308D01*
X462268D01*
D36*
X264922Y303149D02*
G03*
X264922Y303149I-762J0D01*
G01*
D69*
X255143Y308737D02*
X273177D01*
X255143Y300609D02*
Y308737D01*
Y300609D02*
X273177D01*
Y308737D01*
X255143Y326263D02*
X273177D01*
Y334391D01*
X255143D02*
X273177D01*
X255143Y326263D02*
Y334391D01*
X273177Y300609D02*
Y334391D01*
X255143D02*
X273177D01*
X255143Y300609D02*
Y334391D01*
Y300609D02*
X273177D01*
M02*
