G04*
G04 #@! TF.GenerationSoftware,Altium Limited,Altium Designer,24.2.2 (26)*
G04*
G04 Layer_Color=128*
%FSLAX44Y44*%
%MOMM*%
G71*
G04*
G04 #@! TF.SameCoordinates,124A1895-3AD2-4E28-9B74-7A6451F43074*
G04*
G04*
G04 #@! TF.FilePolarity,Positive*
G04*
G01*
G75*
%ADD17C,0.1270*%
D17*
X505206Y621538D02*
X515366D01*
X510286Y616458D02*
Y626618D01*
X505206Y646938D02*
X515366D01*
X510286Y641858D02*
Y652018D01*
X505206Y570738D02*
X515366D01*
X510286Y565658D02*
Y575818D01*
X505206Y596138D02*
X515366D01*
X510286Y591058D02*
Y601218D01*
X50100Y574600D02*
X60100D01*
X55100Y569600D02*
Y579600D01*
X95600Y609600D02*
X107600D01*
X101600Y603600D02*
Y615600D01*
X95600Y549600D02*
X107600D01*
X101600Y543600D02*
Y555600D01*
X294220Y375920D02*
X305220D01*
X299720Y370420D02*
Y381420D01*
X268820Y375920D02*
X279820D01*
X274320Y370420D02*
Y381420D01*
X294220Y401320D02*
X305220D01*
X299720Y395820D02*
Y406820D01*
X268820Y401320D02*
X279820D01*
X274320Y395820D02*
Y406820D01*
X294220Y426720D02*
X305220D01*
X299720Y421220D02*
Y432220D01*
X268820Y426720D02*
X279820D01*
X274320Y421220D02*
Y432220D01*
X208260Y452120D02*
X218460D01*
X213360Y447020D02*
Y457220D01*
X233660Y452120D02*
X243860D01*
X238760Y447020D02*
Y457220D01*
X502500Y269240D02*
X513500D01*
X508000Y263740D02*
Y274740D01*
X502500Y294640D02*
X513500D01*
X508000Y289140D02*
Y300140D01*
X502500Y320040D02*
X513500D01*
X508000Y314540D02*
Y325540D01*
X502500Y345440D02*
X513500D01*
X508000Y339940D02*
Y350940D01*
X502500Y370840D02*
X513500D01*
X508000Y365340D02*
Y376340D01*
X502500Y396240D02*
X513500D01*
X508000Y390740D02*
Y401740D01*
X502500Y421640D02*
X513500D01*
X508000Y416140D02*
Y427140D01*
X502500Y447040D02*
X513500D01*
X508000Y441540D02*
Y452540D01*
X502500Y472440D02*
X513500D01*
X508000Y466940D02*
Y477940D01*
X502500Y497840D02*
X513500D01*
X508000Y492340D02*
Y503340D01*
X99822Y455930D02*
X109982D01*
X104902Y450850D02*
Y461010D01*
X74422Y455930D02*
X84582D01*
X79502Y450850D02*
Y461010D01*
X150622Y455930D02*
X160782D01*
X155702Y450850D02*
Y461010D01*
X125222Y455930D02*
X135382D01*
X130302Y450850D02*
Y461010D01*
X458470Y386334D02*
X468630D01*
X463550Y381254D02*
Y391414D01*
X458470Y411734D02*
X468630D01*
X463550Y406654D02*
Y416814D01*
X458470Y335534D02*
X468630D01*
X463550Y330454D02*
Y340614D01*
X458470Y360934D02*
X468630D01*
X463550Y355854D02*
Y366014D01*
X76200Y228600D02*
X86360D01*
X81280Y223520D02*
Y233680D01*
X76200Y254000D02*
X86360D01*
X81280Y248920D02*
Y259080D01*
X76200Y177800D02*
X86360D01*
X81280Y172720D02*
Y182880D01*
X76200Y203200D02*
X86360D01*
X81280Y198120D02*
Y208280D01*
X456692Y106680D02*
X466852D01*
X461772Y101600D02*
Y111760D01*
X456692Y81280D02*
X466852D01*
X461772Y76200D02*
Y86360D01*
X456692Y157480D02*
X466852D01*
X461772Y152400D02*
Y162560D01*
X456692Y132080D02*
X466852D01*
X461772Y127000D02*
Y137160D01*
X408686Y104902D02*
X418846D01*
X413766Y99822D02*
Y109982D01*
X408686Y79502D02*
X418846D01*
X413766Y74422D02*
Y84582D01*
X408686Y155702D02*
X418846D01*
X413766Y150622D02*
Y160782D01*
X408686Y130302D02*
X418846D01*
X413766Y125222D02*
Y135382D01*
X408824Y661492D02*
X413824D01*
X411324Y658992D02*
Y663992D01*
X478824Y661492D02*
X483824D01*
X481324Y658992D02*
Y663992D01*
X418574Y634492D02*
X424074D01*
X421324Y631742D02*
Y637242D01*
X468574Y634492D02*
X474074D01*
X471324Y631742D02*
Y637242D01*
X77558Y500634D02*
X88558D01*
X83058Y495134D02*
Y506134D01*
X102958Y500634D02*
X113958D01*
X108458Y495134D02*
Y506134D01*
X128358Y500634D02*
X139358D01*
X133858Y495134D02*
Y506134D01*
X8890Y533400D02*
X41910D01*
X25400Y516890D02*
Y549910D01*
X490220Y533400D02*
X523240D01*
X506730Y516890D02*
Y549910D01*
X339090Y25400D02*
X372110D01*
X355600Y8890D02*
Y41910D01*
X59690Y25400D02*
X92710D01*
X76200Y8890D02*
Y41910D01*
X502500Y228600D02*
X513500D01*
X508000Y223100D02*
Y234100D01*
X502500Y203200D02*
X513500D01*
X508000Y197700D02*
Y208700D01*
X502500Y177800D02*
X513500D01*
X508000Y172300D02*
Y183300D01*
X502500Y152400D02*
X513500D01*
X508000Y146900D02*
Y157900D01*
X502500Y127000D02*
X513500D01*
X508000Y121500D02*
Y132500D01*
X502500Y101600D02*
X513500D01*
X508000Y96100D02*
Y107100D01*
X502500Y76200D02*
X513500D01*
X508000Y70700D02*
Y81700D01*
X502500Y50800D02*
X513500D01*
X508000Y45300D02*
Y56300D01*
X456946Y511810D02*
X467106D01*
X462026Y506730D02*
Y516890D01*
X456946Y537210D02*
X467106D01*
X462026Y532130D02*
Y542290D01*
X456946Y461010D02*
X467106D01*
X462026Y455930D02*
Y466090D01*
X456946Y486410D02*
X467106D01*
X462026Y481330D02*
Y491490D01*
X19900Y228600D02*
X30900D01*
X25400Y223100D02*
Y234100D01*
X19900Y254000D02*
X30900D01*
X25400Y248500D02*
Y259500D01*
X19900Y279400D02*
X30900D01*
X25400Y273900D02*
Y284900D01*
X19900Y304800D02*
X30900D01*
X25400Y299300D02*
Y310300D01*
X19900Y330200D02*
X30900D01*
X25400Y324700D02*
Y335700D01*
X19900Y355600D02*
X30900D01*
X25400Y350100D02*
Y361100D01*
X19900Y381000D02*
X30900D01*
X25400Y375500D02*
Y386500D01*
X19900Y406400D02*
X30900D01*
X25400Y400900D02*
Y411900D01*
X19900Y50800D02*
X30900D01*
X25400Y45300D02*
Y56300D01*
X19900Y76200D02*
X30900D01*
X25400Y70700D02*
Y81700D01*
X19900Y101600D02*
X30900D01*
X25400Y96100D02*
Y107100D01*
X19900Y127000D02*
X30900D01*
X25400Y121500D02*
Y132500D01*
X19900Y152400D02*
X30900D01*
X25400Y146900D02*
Y157900D01*
X19900Y177800D02*
X30900D01*
X25400Y172300D02*
Y183300D01*
X219329Y53340D02*
X222631D01*
X220980Y51689D02*
Y54991D01*
X125349Y55880D02*
X128651D01*
X127000Y54229D02*
Y57531D01*
X488569Y388874D02*
X491871D01*
X490220Y387223D02*
Y390525D01*
X488259Y397759D02*
X491561D01*
X489910Y396108D02*
Y399410D01*
X488299Y375920D02*
X491601D01*
X489950Y374269D02*
Y377571D01*
X436499Y367030D02*
X439801D01*
X438150Y365379D02*
Y368681D01*
X525264Y86495D02*
X528566D01*
X526915Y84844D02*
Y88146D01*
X487299Y365760D02*
X490601D01*
X488950Y364109D02*
Y367411D01*
X487299Y419100D02*
X490601D01*
X488950Y417449D02*
Y420751D01*
X489839Y452120D02*
X493141D01*
X491490Y450469D02*
Y453771D01*
X522859Y327660D02*
X526161D01*
X524510Y326009D02*
Y329311D01*
X522859Y299720D02*
X526161D01*
X524510Y298069D02*
Y301371D01*
X522859Y264160D02*
X526161D01*
X524510Y262509D02*
Y265811D01*
X522859Y223520D02*
X526161D01*
X524510Y221869D02*
Y225171D01*
X522859Y193040D02*
X526161D01*
X524510Y191389D02*
Y194691D01*
X522859Y165100D02*
X526161D01*
X524510Y163449D02*
Y166751D01*
X522859Y142240D02*
X526161D01*
X524510Y140589D02*
Y143891D01*
X527939Y114300D02*
X531241D01*
X529590Y112649D02*
Y115951D01*
X529209Y48260D02*
X532511D01*
X530860Y46609D02*
Y49911D01*
X-4191Y43180D02*
X-889D01*
X-2540Y41529D02*
Y44831D01*
X-1651Y73660D02*
X1651D01*
X0Y72009D02*
Y75311D01*
X41529Y101600D02*
X44831D01*
X43180Y99949D02*
Y103251D01*
X-4191Y127000D02*
X-889D01*
X-2540Y125349D02*
Y128651D01*
X44069Y177800D02*
X47371D01*
X45720Y176149D02*
Y179451D01*
X-4191Y147320D02*
X-889D01*
X-2540Y145669D02*
Y148971D01*
X280289Y289560D02*
X283591D01*
X281940Y287909D02*
Y291211D01*
X298098Y317500D02*
X301400D01*
X299749Y315849D02*
Y319151D01*
X487299Y320040D02*
X490601D01*
X488950Y318389D02*
Y321691D01*
X219329Y332740D02*
X222631D01*
X220980Y331089D02*
Y334391D01*
X230945Y331397D02*
X234247D01*
X232596Y329746D02*
Y333048D01*
X13589Y477520D02*
X16891D01*
X15240Y475869D02*
Y479171D01*
X134239Y580390D02*
X137541D01*
X135890Y578739D02*
Y582041D01*
X167259Y566420D02*
X170561D01*
X168910Y564769D02*
Y568071D01*
X83439Y309880D02*
X86741D01*
X85090Y308229D02*
Y311531D01*
X273939Y69850D02*
X277241D01*
X275590Y68199D02*
Y71501D01*
X257429Y74930D02*
X260731D01*
X259080Y73279D02*
Y76581D01*
X525399Y427990D02*
X528701D01*
X527050Y426339D02*
Y429641D01*
X280289Y256540D02*
X283591D01*
X281940Y254889D02*
Y258191D01*
X238379Y351790D02*
X241681D01*
X240030Y350139D02*
Y353441D01*
X326009Y438150D02*
X329311D01*
X327660Y436499D02*
Y439801D01*
X140589Y90170D02*
X143891D01*
X142240Y88519D02*
Y91821D01*
X122809Y86360D02*
X126111D01*
X124460Y84709D02*
Y88011D01*
X94561Y107242D02*
X97863D01*
X96212Y105591D02*
Y108893D01*
X375539Y439420D02*
X378841D01*
X377190Y437769D02*
Y441071D01*
X36449Y88900D02*
X39751D01*
X38100Y87249D02*
Y90551D01*
X2794Y87630D02*
X6096D01*
X4445Y85979D02*
Y89281D01*
X205359Y598170D02*
X208661D01*
X207010Y596519D02*
Y599821D01*
X319659Y638810D02*
X322961D01*
X321310Y637159D02*
Y640461D01*
X78359Y294640D02*
X81661D01*
X80010Y292989D02*
Y296291D01*
X301879Y154940D02*
X305181D01*
X303530Y153289D02*
Y156591D01*
X154559Y386080D02*
X157861D01*
X156210Y384429D02*
Y387731D01*
X50419Y363220D02*
X53721D01*
X52070Y361569D02*
Y364871D01*
X374269Y167640D02*
X377571D01*
X375920Y165989D02*
Y169291D01*
X279019Y220980D02*
X282321D01*
X280670Y219329D02*
Y222631D01*
X284099Y204470D02*
X287401D01*
X285750Y202819D02*
Y206121D01*
X226949Y269240D02*
X230251D01*
X228600Y267589D02*
Y270891D01*
X154559Y314960D02*
X157861D01*
X156210Y313309D02*
Y316611D01*
X284099Y483870D02*
X287401D01*
X285750Y482219D02*
Y485521D01*
X479679Y571500D02*
X482981D01*
X481330Y569849D02*
Y573151D01*
X376809Y655320D02*
X380111D01*
X378460Y653669D02*
Y656971D01*
X362839Y591820D02*
X366141D01*
X364490Y590169D02*
Y593471D01*
X183769Y650240D02*
X187071D01*
X185420Y648589D02*
Y651891D01*
X168529Y622300D02*
X171831D01*
X170180Y620649D02*
Y623951D01*
X17399Y631190D02*
X20701D01*
X19050Y629539D02*
Y632841D01*
M02*
