G04*
G04 #@! TF.GenerationSoftware,Altium Limited,Altium Designer,24.2.2 (26)*
G04*
G04 Layer_Physical_Order=1*
G04 Layer_Color=255*
%FSLAX44Y44*%
%MOMM*%
G71*
G04*
G04 #@! TF.SameCoordinates,124A1895-3AD2-4E28-9B74-7A6451F43074*
G04*
G04*
G04 #@! TF.FilePolarity,Positive*
G04*
G01*
G75*
%ADD10C,0.1524*%
%ADD12C,0.5080*%
%ADD23R,1.8034X1.1176*%
%ADD24R,1.5000X1.2000*%
%ADD25R,1.8542X1.3716*%
%ADD26R,3.0988X1.7000*%
%ADD27R,0.8382X1.7000*%
%ADD28R,1.1176X1.8034*%
%ADD29R,1.8000X1.4000*%
G04:AMPARAMS|DCode=30|XSize=0.508mm|YSize=1.65mm|CornerRadius=0mm|HoleSize=0mm|Usage=FLASHONLY|Rotation=40.000|XOffset=0mm|YOffset=0mm|HoleType=Round|Shape=Rectangle|*
%AMROTATEDRECTD30*
4,1,4,0.3357,-0.7953,-0.7249,0.4687,-0.3357,0.7953,0.7249,-0.4687,0.3357,-0.7953,0.0*
%
%ADD30ROTATEDRECTD30*%

G04:AMPARAMS|DCode=31|XSize=0.508mm|YSize=1.65mm|CornerRadius=0mm|HoleSize=0mm|Usage=FLASHONLY|Rotation=310.000|XOffset=0mm|YOffset=0mm|HoleType=Round|Shape=Rectangle|*
%AMROTATEDRECTD31*
4,1,4,-0.7953,-0.3357,0.4687,0.7249,0.7953,0.3357,-0.4687,-0.7249,-0.7953,-0.3357,0.0*
%
%ADD31ROTATEDRECTD31*%

%ADD32O,2.2000X0.6096*%
%ADD33R,1.5000X1.5500*%
%ADD34R,0.4000X1.3500*%
%ADD35R,1.0000X0.7000*%
%ADD59C,1.7780*%
%ADD60O,1.8000X3.3000*%
%ADD61O,3.8000X2.0000*%
%ADD62C,1.6200*%
%ADD63C,1.5240*%
%ADD64O,0.7750X1.5500*%
%ADD65O,1.3000X0.6500*%
%ADD66C,1.6500*%
%ADD67O,1.2700X1.5240*%
%ADD68C,0.6350*%
G36*
X411054Y653752D02*
X410794Y653772D01*
X410534Y653802D01*
X410274Y653852D01*
X410024Y653912D01*
X409774Y653982D01*
X409524Y654072D01*
X409284Y654172D01*
X409044Y654282D01*
X408814Y654412D01*
X408594Y654542D01*
X408384Y654692D01*
X408174Y654852D01*
X407974Y655022D01*
X407784Y655202D01*
X407604Y655392D01*
X407434Y655592D01*
X407274Y655802D01*
X407124Y656012D01*
X406994Y656232D01*
X406864Y656462D01*
X406754Y656702D01*
X406654Y656942D01*
X406564Y657192D01*
X406494Y657442D01*
X406434Y657692D01*
X406384Y657952D01*
X406354Y658212D01*
X406334Y658472D01*
X406324Y658742D01*
Y664242D01*
X406334Y664502D01*
X406354Y664762D01*
X406384Y665022D01*
X406434Y665282D01*
X406494Y665532D01*
X406564Y665792D01*
X406654Y666032D01*
X406754Y666272D01*
X406864Y666512D01*
X406994Y666742D01*
X407134Y666962D01*
X407274Y667182D01*
X407434Y667392D01*
X407604Y667592D01*
X407784Y667782D01*
X407974Y667962D01*
X408174Y668132D01*
X408384Y668292D01*
X408604Y668432D01*
X408824Y668572D01*
X409054Y668702D01*
X409294Y668812D01*
X409534Y668912D01*
X409774Y669002D01*
X410034Y669072D01*
X410284Y669132D01*
X410544Y669182D01*
X410804Y669212D01*
X411064Y669232D01*
X411324Y669242D01*
X423274D01*
Y669292D01*
X423324D01*
Y653742D01*
X411344D01*
Y655742D01*
X411464D01*
X411594Y655752D01*
X411724Y655772D01*
X411854Y655792D01*
X411984Y655822D01*
X412104Y655862D01*
X412224Y655912D01*
X412344Y655962D01*
X412464Y656012D01*
X412584Y656072D01*
X412694Y656142D01*
X412794Y656222D01*
X412904Y656292D01*
X413004Y656382D01*
X413094Y656472D01*
X413184Y656562D01*
X413274Y656662D01*
X413344Y656772D01*
X413424Y656872D01*
X413494Y656982D01*
X413554Y657102D01*
X413604Y657222D01*
X413654Y657342D01*
X413704Y657462D01*
X413744Y657582D01*
X413774Y657712D01*
X413794Y657842D01*
X413814Y657972D01*
X413824Y658102D01*
Y658242D01*
Y658342D01*
Y664642D01*
Y664742D01*
Y664872D01*
X413814Y665002D01*
X413794Y665132D01*
X413774Y665262D01*
X413734Y665392D01*
X413704Y665512D01*
X413654Y665642D01*
X413604Y665762D01*
X413554Y665872D01*
X413494Y665992D01*
X413424Y666102D01*
X413344Y666212D01*
X413264Y666312D01*
X413184Y666412D01*
X413094Y666512D01*
X412994Y666602D01*
X412894Y666682D01*
X412794Y666762D01*
X412684Y666842D01*
X412574Y666912D01*
X412454Y666972D01*
X412344Y667022D01*
X412224Y667072D01*
X412094Y667122D01*
X411974Y667152D01*
X411844Y667192D01*
X411714Y667212D01*
X411584Y667232D01*
X411454Y667242D01*
X411194D01*
X411064Y667232D01*
X410934Y667212D01*
X410804Y667192D01*
X410674Y667152D01*
X410554Y667122D01*
X410424Y667072D01*
X410304Y667022D01*
X410194Y666972D01*
X410074Y666912D01*
X409964Y666842D01*
X409854Y666762D01*
X409754Y666682D01*
X409654Y666602D01*
X409554Y666512D01*
X409464Y666412D01*
X409384Y666312D01*
X409304Y666212D01*
X409224Y666102D01*
X409154Y665992D01*
X409094Y665872D01*
X409044Y665762D01*
X408994Y665642D01*
X408944Y665512D01*
X408914Y665392D01*
X408874Y665262D01*
X408854Y665132D01*
X408834Y665002D01*
X408824Y664872D01*
Y664742D01*
Y658242D01*
Y658102D01*
X408834Y657972D01*
X408854Y657842D01*
X408874Y657712D01*
X408904Y657582D01*
X408944Y657462D01*
X408994Y657342D01*
X409044Y657222D01*
X409094Y657102D01*
X409154Y656982D01*
X409224Y656872D01*
X409304Y656772D01*
X409374Y656662D01*
X409464Y656562D01*
X409554Y656472D01*
X409644Y656382D01*
X409744Y656292D01*
X409854Y656222D01*
X409954Y656142D01*
X410064Y656072D01*
X410184Y656012D01*
X410304Y655962D01*
X410424Y655912D01*
X410544Y655862D01*
X410664Y655822D01*
X410794Y655792D01*
X410924Y655772D01*
X411054Y655752D01*
X411184Y655742D01*
X411304D01*
Y653742D01*
X411054Y653752D01*
D02*
G37*
G36*
X469324Y669242D02*
X481304D01*
Y667242D01*
X481184D01*
X481054Y667232D01*
X480924Y667212D01*
X480794Y667192D01*
X480664Y667162D01*
X480544Y667122D01*
X480424Y667072D01*
X480304Y667022D01*
X480184Y666972D01*
X480064Y666912D01*
X479954Y666842D01*
X479854Y666762D01*
X479744Y666692D01*
X479644Y666602D01*
X479554Y666512D01*
X479464Y666422D01*
X479374Y666322D01*
X479304Y666212D01*
X479224Y666112D01*
X479154Y666002D01*
X479094Y665882D01*
X479044Y665762D01*
X478994Y665642D01*
X478944Y665522D01*
X478904Y665402D01*
X478874Y665272D01*
X478854Y665142D01*
X478834Y665012D01*
X478824Y664882D01*
Y664742D01*
Y664642D01*
Y658342D01*
Y658242D01*
Y658112D01*
X478834Y657982D01*
X478854Y657852D01*
X478874Y657722D01*
X478914Y657592D01*
X478944Y657472D01*
X478994Y657342D01*
X479044Y657222D01*
X479094Y657112D01*
X479154Y656992D01*
X479224Y656882D01*
X479304Y656772D01*
X479384Y656672D01*
X479464Y656572D01*
X479554Y656472D01*
X479654Y656382D01*
X479754Y656302D01*
X479854Y656222D01*
X479964Y656142D01*
X480074Y656072D01*
X480194Y656012D01*
X480304Y655962D01*
X480424Y655912D01*
X480554Y655862D01*
X480674Y655832D01*
X480804Y655792D01*
X480934Y655772D01*
X481064Y655752D01*
X481194Y655742D01*
X481454D01*
X481584Y655752D01*
X481714Y655772D01*
X481844Y655792D01*
X481974Y655832D01*
X482094Y655862D01*
X482224Y655912D01*
X482344Y655962D01*
X482454Y656012D01*
X482574Y656072D01*
X482684Y656142D01*
X482794Y656222D01*
X482894Y656302D01*
X482994Y656382D01*
X483094Y656472D01*
X483184Y656572D01*
X483264Y656672D01*
X483344Y656772D01*
X483424Y656882D01*
X483494Y656992D01*
X483554Y657112D01*
X483604Y657222D01*
X483654Y657342D01*
X483704Y657472D01*
X483734Y657592D01*
X483774Y657722D01*
X483794Y657852D01*
X483814Y657982D01*
X483824Y658112D01*
Y658242D01*
Y664742D01*
Y664882D01*
X483814Y665012D01*
X483794Y665142D01*
X483774Y665272D01*
X483744Y665402D01*
X483704Y665522D01*
X483654Y665642D01*
X483604Y665762D01*
X483554Y665882D01*
X483494Y666002D01*
X483424Y666112D01*
X483344Y666212D01*
X483274Y666322D01*
X483184Y666422D01*
X483094Y666512D01*
X483004Y666602D01*
X482904Y666692D01*
X482794Y666762D01*
X482694Y666842D01*
X482584Y666912D01*
X482464Y666972D01*
X482344Y667022D01*
X482224Y667072D01*
X482104Y667122D01*
X481984Y667162D01*
X481854Y667192D01*
X481724Y667212D01*
X481594Y667232D01*
X481464Y667242D01*
X481344D01*
Y669242D01*
X481594Y669232D01*
X481854Y669212D01*
X482114Y669182D01*
X482374Y669132D01*
X482624Y669072D01*
X482874Y669002D01*
X483124Y668912D01*
X483364Y668812D01*
X483604Y668702D01*
X483834Y668572D01*
X484054Y668442D01*
X484264Y668292D01*
X484474Y668132D01*
X484674Y667962D01*
X484864Y667782D01*
X485044Y667592D01*
X485214Y667392D01*
X485374Y667182D01*
X485524Y666972D01*
X485654Y666752D01*
X485784Y666522D01*
X485894Y666282D01*
X485994Y666042D01*
X486084Y665792D01*
X486154Y665542D01*
X486214Y665292D01*
X486264Y665032D01*
X486294Y664772D01*
X486314Y664512D01*
X486324Y664242D01*
Y658742D01*
X486314Y658482D01*
X486294Y658222D01*
X486264Y657962D01*
X486214Y657702D01*
X486154Y657452D01*
X486084Y657192D01*
X485994Y656952D01*
X485894Y656712D01*
X485784Y656472D01*
X485654Y656242D01*
X485514Y656022D01*
X485374Y655802D01*
X485214Y655592D01*
X485044Y655392D01*
X484864Y655202D01*
X484674Y655022D01*
X484474Y654852D01*
X484264Y654692D01*
X484044Y654552D01*
X483824Y654412D01*
X483594Y654282D01*
X483354Y654172D01*
X483114Y654072D01*
X482874Y653982D01*
X482614Y653912D01*
X482364Y653852D01*
X482104Y653802D01*
X481844Y653772D01*
X481584Y653752D01*
X481324Y653742D01*
X469374D01*
Y653692D01*
X469324D01*
Y669242D01*
D02*
G37*
D10*
X522415Y91153D02*
G03*
X522246Y90983I4501J-4658D01*
G01*
X111790Y55880D02*
X116630Y51040D01*
X111790Y55880D02*
X127000D01*
X111392Y56278D02*
X111790Y55880D01*
X205994Y53340D02*
X220980D01*
X205740Y53594D02*
X205994Y53340D01*
X213360Y47244D02*
Y48768D01*
X194437Y83566D02*
X205740D01*
X190993Y87010D02*
X194437Y83566D01*
X190993Y87010D02*
Y90227D01*
X187548Y93672D02*
X190993Y90227D01*
X186285Y93672D02*
X187548D01*
X178892Y86278D02*
X186285Y93672D01*
X177392Y86278D02*
X178892D01*
X506876Y396240D02*
X508000D01*
X499510Y388874D02*
X506876Y396240D01*
X490220Y388874D02*
X499510D01*
X394763Y319278D02*
X471884D01*
X274320Y401320D02*
X277338Y404338D01*
X459516Y374142D02*
X468600D01*
Y348742D02*
X478487Y358629D01*
Y364457D01*
X299720Y401320D02*
X319913D01*
X299720Y375920D02*
X347599Y328041D01*
X319913Y401320D02*
X343154Y378079D01*
X471884Y319278D02*
X518922Y366316D01*
X285496Y404338D02*
X294670Y413512D01*
X468600Y374142D02*
X476855Y382397D01*
X468600Y323342D02*
X506192Y360934D01*
X296942Y275730D02*
Y305399D01*
X484124Y315214D02*
X488950Y320040D01*
X393079Y315214D02*
X484124D01*
X285144Y311450D02*
Y369502D01*
X299749Y317500D02*
X390793D01*
X343154Y371221D02*
X365633Y348742D01*
X445927Y360553D02*
X459516Y374142D01*
X352044Y376457D02*
X367948Y360553D01*
X445927D01*
X427990Y377190D02*
X438150Y367030D01*
X420624Y377190D02*
X427990D01*
X272620Y509270D02*
X300560Y537210D01*
X314706D01*
X250366Y481240D02*
Y502920D01*
X460532Y65278D02*
X514858D01*
X522415Y91153D02*
X538349Y106549D01*
X508893Y77093D02*
X522246Y90983D01*
X485013Y433197D02*
Y474853D01*
X508000Y497840D01*
X512524Y432562D02*
X542413Y402673D01*
X463550Y411734D02*
X485013Y433197D01*
X542413Y92833D02*
Y402673D01*
X476220Y407162D02*
X512524D01*
X297066Y323977D02*
X390064D01*
X518922Y366316D02*
Y375364D01*
X400332Y399542D02*
X468600D01*
X476220Y407162D01*
X337092Y290443D02*
X478403D01*
X508000Y320040D01*
X306450Y259801D02*
X337092Y290443D01*
X390793Y317500D02*
X393079Y315214D01*
X277338Y404338D02*
X285496D01*
X293272Y320183D02*
X297066Y323977D01*
X293272Y314817D02*
Y320183D01*
Y314817D02*
X304527Y303563D01*
Y274049D02*
Y303563D01*
X298334Y267856D02*
X304527Y274049D01*
X298334Y266027D02*
Y267856D01*
X506192Y360934D02*
Y369032D01*
X347599Y328041D02*
X407949D01*
X343154Y371221D02*
Y378079D01*
X288417Y286877D02*
Y308177D01*
X289208Y313134D02*
Y365408D01*
X407949Y328041D02*
X412649Y323342D01*
X506192Y369032D02*
X508000Y370840D01*
X352044Y376457D02*
Y385035D01*
X323567Y413512D02*
X352044Y385035D01*
X294670Y413512D02*
X323567D01*
X511889Y382397D02*
X518922Y375364D01*
X390064Y323977D02*
X394763Y319278D01*
X476855Y382397D02*
X511889D01*
X289208Y365408D02*
X299720Y375920D01*
X293272Y272059D02*
X296942Y275730D01*
X332469Y274728D02*
X488088D01*
X338433Y269240D02*
X508000D01*
X311511Y253769D02*
X332469Y274728D01*
X303558Y259801D02*
X306450D01*
X285144Y311450D02*
X288417Y308177D01*
X275673Y274133D02*
X288417Y286877D01*
X272022Y274266D02*
X272155Y274133D01*
X275673D01*
X412649Y323342D02*
X468600D01*
X313844Y247543D02*
X316735D01*
X338433Y269240D01*
X488088Y274728D02*
X508000Y294640D01*
X308619Y253769D02*
X311511D01*
X285144Y369502D02*
X287528Y371886D01*
X365633Y348742D02*
X468600D01*
X478487Y364457D02*
X489950Y375920D01*
X287528Y414528D02*
X299720Y426720D01*
X260227Y414528D02*
X287528D01*
X289208Y313134D02*
X296942Y305399D01*
X287528Y389128D02*
X299720Y401320D01*
X287528Y371886D02*
Y389128D01*
X264668Y630348D02*
X275630Y641310D01*
X230886Y659130D02*
X257810D01*
X218186Y289814D02*
X220980Y292608D01*
Y332740D01*
X207010Y598170D02*
Y604575D01*
X221897Y615792D02*
X224595Y618490D01*
X218227Y615792D02*
X221897D01*
X207010Y604575D02*
X218227Y615792D01*
X421324Y634492D02*
X433324D01*
X256716Y509270D02*
X272620D01*
X207010Y319786D02*
Y350774D01*
X208026Y351790D01*
X15240Y477520D02*
Y493776D01*
X248220Y555866D02*
Y608990D01*
X446324Y608347D02*
Y634492D01*
X508000Y76200D02*
Y76200D01*
X25400Y152400D02*
X143267D01*
X181229Y490220D02*
X201628Y469821D01*
X165481Y513236D02*
X177800Y500917D01*
Y490220D02*
Y500917D01*
X4445Y87630D02*
Y335467D01*
X168910Y565555D02*
Y566420D01*
X165481Y562126D02*
X168910Y565555D01*
X138176Y385814D02*
X138442Y386080D01*
X156210D01*
X88869Y424215D02*
X99379Y434726D01*
X88869Y416910D02*
Y424215D01*
X77216Y317754D02*
X85090Y309880D01*
X297792Y647548D02*
X306530Y638810D01*
X307189Y138176D02*
X308277Y137088D01*
X285750Y196698D02*
X296496Y185951D01*
X314572Y137088D02*
X320810Y130850D01*
X279630Y660710D02*
X292792Y647548D01*
X156210Y301371D02*
Y314960D01*
Y301371D02*
X167767Y289814D01*
X179070D01*
X275590Y69850D02*
X404114D01*
X413766Y79502D01*
X168524Y65580D02*
X258890D01*
X135001Y80169D02*
Y92091D01*
X467860Y411734D02*
X488689Y432562D01*
X247302Y178343D02*
X253332Y184373D01*
X247302Y86708D02*
Y178343D01*
Y86708D02*
X259080Y74930D01*
X253332Y184373D02*
Y186488D01*
X131160Y64406D02*
X167350D01*
X131160Y76328D02*
X135001Y80169D01*
X250366Y481240D02*
X265262Y466344D01*
X259948Y112127D02*
X284830Y87245D01*
X381921D01*
X265262Y466344D02*
X333530D01*
X113196Y72644D02*
X121434Y64406D01*
X413766Y79502D02*
X442468Y50800D01*
X258890Y65580D02*
X269637Y76327D01*
X442468Y50800D02*
X508000D01*
X463550Y411734D02*
X467860D01*
X374904Y376428D02*
X389890D01*
X373126Y374650D02*
X374904Y376428D01*
X389890D02*
X390652Y377190D01*
X508000Y447040D02*
X527050Y427990D01*
X514858Y65278D02*
X542413Y92833D01*
X333530Y466344D02*
X400332Y399542D01*
X234615Y276552D02*
X252248Y258919D01*
X218186Y289814D02*
X231448Y276552D01*
X264668Y496570D02*
X272620D01*
X546477Y89277D02*
Y424009D01*
X304370Y528320D02*
X325091D01*
X457992Y524002D02*
X488110D01*
X497078Y467916D02*
Y476964D01*
X239668Y43180D02*
X241700Y45212D01*
X252363Y113964D02*
X283146Y83181D01*
X504288Y76200D02*
X508000D01*
X25400Y50800D02*
X47244Y72644D01*
X98014Y68580D02*
X100590Y66004D01*
X256716Y534670D02*
X272620D01*
X227154Y564232D02*
X256716Y534670D01*
X445126Y633294D02*
X446324Y634492D01*
X445126Y626374D02*
Y633294D01*
X441706Y557530D02*
Y603729D01*
X246022Y253694D02*
X247506D01*
X208026Y351790D02*
X240030D01*
X312572Y137088D02*
Y144657D01*
X294640Y100330D02*
Y108204D01*
X326925Y180236D02*
Y194375D01*
X295533Y99437D02*
X306798D01*
X324770Y196530D02*
X326925Y194375D01*
X324770Y196530D02*
Y199874D01*
X325120Y161036D02*
Y178431D01*
X231448Y276552D02*
X234615D01*
X252248Y258919D02*
X253732D01*
X207010Y289814D02*
X218186D01*
X347210Y130850D02*
Y156210D01*
X318810Y111450D02*
X322810D01*
X275630Y641310D02*
X279630D01*
X116630Y51040D02*
X172154D01*
X182630D02*
X211088D01*
X228600Y269240D02*
X229523Y268317D01*
X411324Y661492D02*
X481324D01*
X272620Y547370D02*
X289535Y564285D01*
X512524Y407162D02*
X538349Y381337D01*
X100590Y48910D02*
Y66004D01*
X488689Y432562D02*
X512524D01*
X434116Y91694D02*
X460532Y65278D01*
X508000Y50800D02*
X546477Y89277D01*
X497078Y476964D02*
X505254Y485140D01*
X507032Y457962D02*
X512524D01*
X272620Y496570D02*
X304370Y528320D01*
X488110Y524002D02*
X498524Y513588D01*
X526542Y490982D02*
Y554482D01*
X442752Y539242D02*
X457992Y524002D01*
X505254Y485140D02*
X510746D01*
X508000Y472440D02*
X526542Y490982D01*
X510286Y570738D02*
X526542Y554482D01*
X497078Y467916D02*
X507032Y457962D01*
X512524D02*
X546477Y424009D01*
X507698Y513588D02*
X518922Y502364D01*
X336013Y539242D02*
X442752D01*
X252363Y113964D02*
Y172241D01*
X461772Y81280D02*
X499208D01*
X250366Y502920D02*
X256716Y509270D01*
X227358Y447397D02*
X260227Y414528D01*
X227358Y447397D02*
Y454247D01*
X248271Y191036D02*
Y192520D01*
X87630Y89662D02*
X108008D01*
X4445Y335467D02*
X24578Y355600D01*
X177800Y490220D02*
X181229D01*
X363474Y489204D02*
Y509270D01*
X327660Y438150D02*
Y447929D01*
X318135Y457454D02*
X327660Y447929D01*
X142240Y90170D02*
X165100Y113030D01*
X135001Y92091D02*
X241656Y198746D01*
X550541Y77895D02*
Y429899D01*
X167350Y64406D02*
X168524Y65580D01*
X397864Y91694D02*
X434116D01*
X172154Y51040D02*
X177392Y56278D01*
X211088Y51040D02*
X213360Y48768D01*
X177392Y86278D02*
Y105902D01*
X170264Y113030D02*
X177392Y105902D01*
X47931Y592328D02*
X50005Y594402D01*
X211784Y469821D02*
X227358Y454247D01*
X177392Y56278D02*
X182630Y51040D01*
X382497Y76327D02*
X397864Y91694D01*
X130937Y83677D02*
Y96247D01*
X100590Y48910D02*
X106320Y43180D01*
X14478Y65278D02*
X25908Y76708D01*
X20876Y39878D02*
X45094D01*
X380381D02*
X512524D01*
X123968Y76708D02*
X130937Y83677D01*
X73796Y68580D02*
X98014D01*
X45094Y39878D02*
X73796Y68580D01*
X237985Y203294D02*
Y204778D01*
X241700Y45212D02*
X375047D01*
X241656Y198746D02*
X243046D01*
X47244Y72644D02*
X113196D01*
X121434Y64406D02*
X131160D01*
Y76328D01*
X269637Y76327D02*
X382497D01*
X25908Y76708D02*
X123968D01*
X375047Y45212D02*
X380381Y39878D01*
X130937Y96247D02*
X237985Y203294D01*
X165100Y113030D02*
X170264D01*
X14478Y46276D02*
X20876Y39878D01*
X68072Y144272D02*
X163136D01*
X156107Y148336D02*
X224807Y217036D01*
X227699D01*
X25400Y127000D02*
X46736Y148336D01*
X25400Y101600D02*
X68072Y144272D01*
X229869Y211005D02*
X232760D01*
X165481Y513236D02*
Y562126D01*
X111474Y86360D02*
X124460D01*
X96212Y107242D02*
X110290D01*
X377190Y439420D02*
Y448437D01*
X508000Y76200D02*
X508893Y77093D01*
X518922Y493316D02*
Y502364D01*
X510746Y485140D02*
X518922Y493316D01*
X498524Y513588D02*
X507698D01*
X499208Y81280D02*
X504288Y76200D01*
X325091Y528320D02*
X336013Y539242D01*
X538349Y106549D02*
Y381337D01*
X86868Y88900D02*
X87630Y89662D01*
X38100Y88900D02*
X86868D01*
X121878Y594402D02*
X135890Y580390D01*
X111392Y86278D02*
X111474Y86360D01*
X108008Y89662D02*
X111392Y86278D01*
X20858Y592328D02*
X47931D01*
X25400Y177800D02*
X37592Y165608D01*
X229214Y238347D02*
X229215D01*
X92268Y165608D02*
X176261Y249601D01*
X508000Y472440D02*
X550541Y429899D01*
X106320Y43180D02*
X239668D01*
X14478Y46276D02*
Y65278D01*
X170264Y113030D02*
X248271Y191036D01*
X110290Y107242D02*
X110998Y107950D01*
X50005Y594402D02*
X121878D01*
X2921Y574392D02*
X20858Y592328D01*
X24578Y355600D02*
X25400D01*
X201628Y469821D02*
X211784D01*
X2921Y378079D02*
Y574392D01*
Y378079D02*
X25400Y355600D01*
X308277Y137088D02*
X312572D01*
X285750Y196698D02*
Y204470D01*
X229523Y268317D02*
X231399D01*
X306530Y638810D02*
X321310D01*
X19050Y601218D02*
Y631190D01*
X93980Y294640D02*
X95758Y292862D01*
X80010Y294640D02*
X93980D01*
X66040Y317754D02*
X77216D01*
X52993Y365794D02*
X63627Y376428D01*
X67056D01*
X361696Y655320D02*
X378460D01*
X360426Y656590D02*
X361696Y655320D01*
X480568Y593344D02*
X481330Y592582D01*
Y571500D02*
Y592582D01*
X314960Y591566D02*
X315214Y591820D01*
X364490D01*
X196088Y650875D02*
X200914Y655701D01*
X186055Y650875D02*
X196088D01*
X200914Y655701D02*
Y659130D01*
X185420Y650240D02*
X186055Y650875D01*
X277630Y660710D02*
X279630D01*
X294640Y138176D02*
X307189D01*
X52993Y364143D02*
Y365794D01*
X170180Y622300D02*
X183134D01*
X314706Y457454D02*
X318135D01*
X385699Y118364D02*
Y157861D01*
X375920Y167640D02*
X385699Y157861D01*
X183134Y622300D02*
X184150Y623316D01*
X376809Y109474D02*
X385699Y118364D01*
X52070Y363220D02*
X52993Y364143D01*
X303530Y153699D02*
X312572Y144657D01*
X264668Y483870D02*
X285750D01*
X308304Y193346D02*
X308754D01*
X280670Y220980D02*
X308304Y193346D01*
X296496Y183060D02*
Y185951D01*
X373380Y109474D02*
X376809D01*
X381921Y87245D02*
X397510Y102835D01*
X393827Y153005D02*
X408716Y167894D01*
X278257Y99565D02*
Y156560D01*
X282321Y101249D02*
Y145132D01*
X389382Y115002D02*
X389763Y115383D01*
X397510Y102835D02*
Y111635D01*
X397891Y131669D02*
X408716Y142494D01*
X290270Y177835D02*
X293940Y174165D01*
X259948Y112127D02*
Y170560D01*
X294789Y157600D02*
Y169798D01*
X393446Y113319D02*
X393827Y113700D01*
X347210Y111450D02*
X371404D01*
X373380Y109474D01*
X292792Y647548D02*
X297792D01*
X231399Y268317D02*
X246022Y253694D01*
X312572Y137088D02*
X314572D01*
X303530Y153699D02*
Y154940D01*
X363220Y458978D02*
X366649D01*
X377190Y448437D01*
X320294Y156210D02*
X325120Y161036D01*
X441706Y557530D02*
X462026Y537210D01*
X272620Y534670D02*
X288083Y550133D01*
X408716Y117094D02*
X425958D01*
X461772Y81280D01*
X288196Y95373D02*
X378554D01*
X278257Y99565D02*
X286513Y91309D01*
X278257Y156560D02*
X287595Y165899D01*
X418816Y142494D02*
X437769Y123541D01*
X397891Y112016D02*
Y131669D01*
X378554Y95373D02*
X389382Y106201D01*
X456722Y119888D02*
X500888D01*
X456722Y94488D02*
X500888D01*
X389763Y115383D02*
Y154688D01*
X383604Y83181D02*
X401574Y101151D01*
X488442Y171958D02*
X508000Y152400D01*
X401574Y101151D02*
Y109952D01*
X437769Y113441D02*
X456722Y94488D01*
X437769Y113441D02*
Y123541D01*
X259948Y170560D02*
X263618Y174230D01*
X408716Y142494D02*
X418816D01*
X393446Y104518D02*
Y113319D01*
X437769Y138841D02*
X456722Y119888D01*
X408716Y167894D02*
X418816D01*
X287595Y165899D02*
Y169417D01*
X437769Y138841D02*
Y148941D01*
X401574Y109952D02*
X408716Y117094D01*
X331318Y238955D02*
X332167Y239803D01*
X347210Y156210D02*
X350266D01*
X342392D02*
X347210D01*
X321013Y203631D02*
X324770Y199874D01*
X325120Y178431D02*
X326925Y180236D01*
X294640Y100330D02*
X295533Y99437D01*
X306798D02*
X318810Y111450D01*
X320294Y156210D02*
X328168D01*
X333112Y151266D01*
Y121752D02*
Y151266D01*
X322810Y111450D02*
X333112Y121752D01*
X327045Y205802D02*
X336554Y196293D01*
X357806Y139446D02*
X373380D01*
X347210Y130850D02*
X349210D01*
X336554Y162048D02*
X342392Y156210D01*
X336554Y162048D02*
Y196293D01*
X349210Y130850D02*
X357806Y139446D01*
X327045Y205802D02*
Y208693D01*
X293940Y170647D02*
X294789Y169798D01*
X282321Y145132D02*
X294789Y157600D01*
X407033Y171958D02*
X488442D01*
X284238Y172774D02*
X287595Y169417D01*
X393827Y113700D02*
Y153005D01*
X389382Y106201D02*
Y115002D01*
X389763Y154688D02*
X407033Y171958D01*
X293940Y170647D02*
Y174165D01*
X418816Y167894D02*
X437769Y148941D01*
X282321Y101249D02*
X288196Y95373D01*
X397510Y111635D02*
X397891Y112016D01*
X286513Y91309D02*
X380237D01*
X500888Y119888D02*
X508000Y127000D01*
X380237Y91309D02*
X393446Y104518D01*
X329191Y229253D02*
X332861Y232923D01*
X500888Y94488D02*
X508000Y101600D01*
X258557Y178434D02*
Y180262D01*
X332861Y232923D02*
X452877D01*
X508000Y177800D01*
X324130Y235284D02*
X327800Y238955D01*
X332167Y239803D02*
X471397D01*
X508000Y203200D01*
X327800Y238955D02*
X331318D01*
X322423Y241511D02*
X326747Y245835D01*
X318905Y241511D02*
X322423D01*
X326747Y245835D02*
X490765D01*
X508000Y228600D01*
X331470Y622046D02*
Y636397D01*
X233419Y243409D02*
X235247D01*
X37592Y165608D02*
X92268D01*
X227226Y249601D02*
X233419Y243409D01*
X176261Y249601D02*
X227226D01*
X143267Y152400D02*
X229214Y238347D01*
X126001Y420375D02*
X131589Y414787D01*
X139463D01*
X119603Y434726D02*
X126001Y428327D01*
X78359Y406400D02*
X88869Y416910D01*
X126001Y420375D02*
Y428327D01*
X99379Y434726D02*
X119603D01*
X67056Y406400D02*
X78359D01*
X46736Y148336D02*
X156107D01*
X163136Y144272D02*
X229869Y211005D01*
X512524Y39878D02*
X550541Y77895D01*
X283146Y83181D02*
X383604D01*
X252363Y172241D02*
X258557Y178434D01*
X314706Y487426D02*
Y507238D01*
X363220Y488950D02*
X363474Y489204D01*
X264668Y521970D02*
X272620D01*
X292147Y541497D02*
Y550084D01*
X272620Y521970D02*
X292147Y541497D01*
Y550084D02*
X303657Y561594D01*
X314960D01*
X288083Y550133D02*
Y553991D01*
X264668Y560070D02*
X272620D01*
X325599Y617220D02*
X336296D01*
X285471Y587099D02*
X303273Y604901D01*
X313280D01*
X304956Y600837D02*
X355471D01*
X285471Y572921D02*
Y587099D01*
X272620Y560070D02*
X285471Y572921D01*
X289535Y585416D02*
X304956Y600837D01*
X331470Y622046D02*
X336296Y617220D01*
X401428Y582676D02*
X445126Y626374D01*
X248220Y555866D02*
X256716Y547370D01*
X272620D01*
X355471Y600837D02*
X399178Y644544D01*
X449692D02*
X451626Y642610D01*
X399178Y644544D02*
X449692D01*
X289535Y564285D02*
Y585416D01*
X451626Y635690D02*
Y642610D01*
Y635690D02*
X452824Y634492D01*
X288083Y553991D02*
X316768Y582676D01*
X401428D01*
X441706Y603729D02*
X446324Y608347D01*
X227154Y564232D02*
Y583962D01*
X257810Y659130D02*
X275630Y641310D01*
X264668Y572770D02*
Y630348D01*
X295465Y625475D02*
X301498D01*
X306324Y620649D01*
Y617220D02*
Y620649D01*
X279630Y641310D02*
X295465Y625475D01*
X326334Y660710D02*
X330454Y656590D01*
X304030Y660710D02*
X326334D01*
X330454Y637413D02*
Y656590D01*
X313280Y604901D02*
X325599Y617220D01*
X330454Y637413D02*
X331470Y636397D01*
X224595Y586521D02*
Y608990D01*
Y586521D02*
X227154Y583962D01*
X18796Y460248D02*
X43434D01*
X15240Y463804D02*
X18796Y460248D01*
X43434D02*
X46482Y463296D01*
D12*
X279302Y306467D02*
X281940Y303829D01*
X266573Y333121D02*
X279302Y320392D01*
X202742Y621822D02*
X217491Y636570D01*
X174387Y605371D02*
X187994D01*
X25400Y330200D02*
X91440Y264160D01*
X115062Y304694D02*
Y390123D01*
X83710Y256430D02*
X91440D01*
X92727D01*
X91440D02*
Y264160D01*
X81280Y254000D02*
X83710Y256430D01*
X92727D02*
X125730Y289433D01*
Y296291D01*
X213516Y483538D02*
Y483538D01*
X115062Y390123D02*
X115062D01*
X79968Y500634D02*
X79968D01*
X133858D02*
X152019Y518795D01*
X483156Y646310D02*
X491404Y654558D01*
X468112Y646310D02*
X483156D01*
X101600Y519176D02*
Y549600D01*
X81280Y498856D02*
X101600Y519176D01*
X60468Y46990D02*
X71501D01*
X281940Y231957D02*
Y256540D01*
X202742Y620119D02*
Y621822D01*
X109491Y395694D02*
X115062Y390123D01*
X109491Y395694D02*
Y414787D01*
X120303Y301718D02*
X125730Y296291D01*
X115062Y304694D02*
X118038Y301718D01*
X91948Y370205D02*
Y388314D01*
X41810Y354049D02*
Y387559D01*
X52959Y398708D01*
X69469Y347726D02*
X91948Y370205D01*
X66040Y347726D02*
X69469D01*
X118038Y301718D02*
X120303D01*
X63353Y388314D02*
X91948D01*
X52959Y398708D02*
X63353Y388314D01*
X91948D02*
Y411727D01*
X165265Y397256D02*
X195326D01*
X163128Y399394D02*
X165265Y397256D01*
X133067Y399394D02*
X163128D01*
X120159Y412301D02*
X133067Y399394D01*
X120159Y412301D02*
Y425908D01*
X117183Y428884D02*
X120159Y425908D01*
X101799Y428884D02*
X117183D01*
X98207Y425291D02*
X101799Y428884D01*
X98207Y417986D02*
Y425291D01*
X91948Y411727D02*
X98207Y417986D01*
X52959Y414092D02*
X79434Y440568D01*
X238760Y303784D02*
X239713Y302831D01*
X263207D01*
X264160Y301879D01*
X216662Y375920D02*
X274320D01*
X281940Y289560D02*
Y303829D01*
X178054Y355219D02*
X189928Y367094D01*
X71501Y46990D02*
X84201Y59690D01*
X178054Y320802D02*
Y355219D01*
Y320802D02*
X179070Y319786D01*
X18456Y34036D02*
X47514D01*
X281940Y231957D02*
X314786Y199111D01*
X159639Y486592D02*
X194111Y452120D01*
X314786Y198407D02*
X318457Y194737D01*
X217491Y636570D02*
X255324D01*
X159639Y486592D02*
Y590622D01*
X205232Y483870D02*
X213184D01*
X221312Y491998D01*
Y576137D01*
X214337Y583112D02*
X221312Y576137D01*
X184150Y593344D02*
X187579D01*
X197811Y583112D01*
X214337D01*
X195227Y520192D02*
X197005Y521970D01*
X205232D01*
X177800Y520192D02*
X195227D01*
X318457Y193734D02*
Y194737D01*
X207836Y367094D02*
X216662Y375920D01*
X314786Y198407D02*
Y199111D01*
X187994Y605371D02*
X202742Y620119D01*
X189928Y367094D02*
X207836D01*
X302528Y187792D02*
X310007Y180313D01*
X314842D01*
X321083Y186554D02*
Y191107D01*
X314842Y180313D02*
X321083Y186554D01*
X302528Y187792D02*
Y188121D01*
X270891Y337439D02*
Y369054D01*
X266573Y333121D02*
X270891Y337439D01*
X274320Y372483D02*
Y375920D01*
X270891Y369054D02*
X274320Y372483D01*
X259693Y276505D02*
Y297561D01*
X264011Y301879D01*
X264160D01*
X259693Y276505D02*
X262320Y273878D01*
Y272875D02*
Y273878D01*
Y272875D02*
X265990Y269205D01*
X8636Y80147D02*
X12700Y84211D01*
X279302Y306467D02*
Y320392D01*
X108458Y500634D02*
X129009Y480083D01*
X318457Y193734D02*
X321083Y191107D01*
X159639Y590622D02*
X174387Y605371D01*
X249140Y619410D02*
X255324D01*
Y636570D02*
X258300Y633594D01*
X12700Y292100D02*
X25400Y304800D01*
X8636Y43856D02*
X18456Y34036D01*
X84201Y59690D02*
X87630D01*
X30661Y342900D02*
X41810Y354049D01*
X255324Y619410D02*
X258300Y622386D01*
X151306Y480083D02*
X169672Y461717D01*
X79434Y440568D02*
X160096D01*
X194111Y452120D02*
X213360D01*
X20140Y342900D02*
X30661D01*
X12700Y84211D02*
Y292100D01*
X160096Y440568D02*
X169672Y450143D01*
X152019Y632024D02*
X194367Y674372D01*
X8636Y43856D02*
Y80147D01*
X195326Y397256D02*
X216662Y375920D01*
X248220Y618490D02*
X249140Y619410D01*
X258300Y622386D02*
Y633594D01*
X52959Y398708D02*
Y414092D01*
X213516Y483538D02*
X225074Y471980D01*
X213360Y451984D02*
Y452120D01*
X12700Y335460D02*
X20140Y342900D01*
X129009Y480083D02*
X151306D01*
X152019Y518795D02*
Y632024D01*
X491404Y654558D02*
Y668426D01*
X485458Y674372D02*
X491404Y668426D01*
X194367Y674372D02*
X485458D01*
X459324Y605501D02*
Y630282D01*
X195326Y397256D02*
Y433950D01*
X12700Y317500D02*
Y335460D01*
X47514Y34036D02*
X60468Y46990D01*
X12700Y317500D02*
X25400Y304800D01*
X81280Y457708D02*
Y498856D01*
X79502Y455930D02*
X81280Y457708D01*
X459864Y638062D02*
X468112Y646310D01*
X450596Y596773D02*
X459324Y605501D01*
X450596Y593344D02*
Y596773D01*
X195326Y433950D02*
X213360Y451984D01*
X225074Y465806D02*
X238760Y452120D01*
X225074Y465806D02*
Y471980D01*
X169672Y450143D02*
Y461717D01*
X46990Y493776D02*
Y546735D01*
X22479Y571246D02*
X46990Y546735D01*
X19050Y571246D02*
X22479D01*
X46482Y493268D02*
X46990Y493776D01*
X46482Y493268D02*
X72602D01*
X79968Y500634D01*
D23*
X205740Y53594D02*
D03*
Y83566D02*
D03*
X373380Y109474D02*
D03*
Y139446D02*
D03*
X238760Y303784D02*
D03*
Y333756D02*
D03*
X66040Y347726D02*
D03*
Y317754D02*
D03*
X15240Y493776D02*
D03*
Y463804D02*
D03*
X87630Y89662D02*
D03*
Y59690D02*
D03*
X294640Y138176D02*
D03*
Y108204D02*
D03*
X179070Y319786D02*
D03*
Y289814D02*
D03*
X207010D02*
D03*
Y319786D02*
D03*
X314706Y487426D02*
D03*
Y457454D02*
D03*
X363220Y488950D02*
D03*
Y458978D02*
D03*
X314706Y537210D02*
D03*
Y507238D02*
D03*
X363474Y539242D02*
D03*
Y509270D02*
D03*
X67056Y376428D02*
D03*
Y406400D02*
D03*
X177800Y520192D02*
D03*
Y490220D02*
D03*
X314960Y591566D02*
D03*
Y561594D02*
D03*
X184150Y623316D02*
D03*
Y593344D02*
D03*
X46482Y463296D02*
D03*
Y493268D02*
D03*
X19050Y601218D02*
D03*
Y571246D02*
D03*
D24*
X177392Y56278D02*
D03*
X111392Y86278D02*
D03*
Y56278D02*
D03*
X177392Y86278D02*
D03*
D25*
X264160Y301879D02*
D03*
Y333121D02*
D03*
D26*
X115062Y320814D02*
D03*
D27*
X138176Y385814D02*
D03*
X115062D02*
D03*
X91948Y388314D02*
D03*
D28*
X208026Y351790D02*
D03*
X178054D02*
D03*
X420624Y377190D02*
D03*
X390652D02*
D03*
X373126Y374650D02*
D03*
X343154D02*
D03*
X480568Y593344D02*
D03*
X450596D02*
D03*
X95758Y292862D02*
D03*
X125730D02*
D03*
X320294Y156210D02*
D03*
X350266D02*
D03*
X336296Y617220D02*
D03*
X306324D02*
D03*
X360426Y656590D02*
D03*
X330454D02*
D03*
X230886Y659130D02*
D03*
X200914D02*
D03*
X139463Y414787D02*
D03*
X109491D02*
D03*
D29*
X320810Y130850D02*
D03*
X347210Y111450D02*
D03*
X320810D02*
D03*
X347210Y130850D02*
D03*
X304030Y641310D02*
D03*
X277630Y660710D02*
D03*
X304030D02*
D03*
X277630Y641310D02*
D03*
D30*
X229215Y238347D02*
D03*
X235247Y243409D02*
D03*
X241474Y248633D02*
D03*
X247506Y253694D02*
D03*
X253732Y258919D02*
D03*
X259764Y263980D02*
D03*
X265990Y269205D02*
D03*
X272022Y274266D02*
D03*
X327045Y208693D02*
D03*
X321013Y203631D02*
D03*
X314786Y198407D02*
D03*
X308754Y193346D02*
D03*
X302528Y188121D02*
D03*
X296496Y183060D02*
D03*
X290270Y177835D02*
D03*
X284238Y172774D02*
D03*
D31*
X263618Y174230D02*
D03*
X258557Y180262D02*
D03*
X253332Y186488D02*
D03*
X248271Y192520D02*
D03*
X243046Y198746D02*
D03*
X237985Y204778D02*
D03*
X232760Y211005D02*
D03*
X227699Y217036D02*
D03*
X293272Y272059D02*
D03*
X298334Y266027D02*
D03*
X303558Y259801D02*
D03*
X308619Y253769D02*
D03*
X313844Y247543D02*
D03*
X318905Y241511D02*
D03*
X324130Y235284D02*
D03*
X329191Y229253D02*
D03*
D32*
X264668Y483870D02*
D03*
Y496570D02*
D03*
Y509270D02*
D03*
Y521970D02*
D03*
Y534670D02*
D03*
Y547370D02*
D03*
Y560070D02*
D03*
Y572770D02*
D03*
X205232D02*
D03*
Y560070D02*
D03*
Y547370D02*
D03*
Y534670D02*
D03*
Y521970D02*
D03*
Y509270D02*
D03*
Y496570D02*
D03*
Y483870D02*
D03*
D33*
X436324Y661492D02*
D03*
X456324D02*
D03*
D34*
X433324Y634492D02*
D03*
X439824D02*
D03*
X446324D02*
D03*
X452824D02*
D03*
X459324D02*
D03*
D35*
X224595Y627990D02*
D03*
Y618490D02*
D03*
Y608990D02*
D03*
X248220D02*
D03*
Y618490D02*
D03*
Y627990D02*
D03*
D59*
X510286Y621538D02*
D03*
Y646938D02*
D03*
Y570738D02*
D03*
Y596138D02*
D03*
X299720Y375920D02*
D03*
X274320D02*
D03*
X299720Y401320D02*
D03*
X274320D02*
D03*
X299720Y426720D02*
D03*
X274320D02*
D03*
X104902Y455930D02*
D03*
X79502D02*
D03*
X155702D02*
D03*
X130302D02*
D03*
X463550Y386334D02*
D03*
Y411734D02*
D03*
Y335534D02*
D03*
Y360934D02*
D03*
X81280Y228600D02*
D03*
Y254000D02*
D03*
Y177800D02*
D03*
Y203200D02*
D03*
X461772Y106680D02*
D03*
Y81280D02*
D03*
Y157480D02*
D03*
Y132080D02*
D03*
X413766Y104902D02*
D03*
Y79502D02*
D03*
Y155702D02*
D03*
Y130302D02*
D03*
X462026Y511810D02*
D03*
Y537210D02*
D03*
Y461010D02*
D03*
Y486410D02*
D03*
D60*
X55100Y574600D02*
D03*
D61*
X101600Y609600D02*
D03*
Y549600D02*
D03*
D62*
X213360Y452120D02*
D03*
X238760D02*
D03*
D63*
X508000Y269240D02*
D03*
Y294640D02*
D03*
Y320040D02*
D03*
Y345440D02*
D03*
Y370840D02*
D03*
Y396240D02*
D03*
Y421640D02*
D03*
Y447040D02*
D03*
Y472440D02*
D03*
Y497840D02*
D03*
X25400Y533400D02*
D03*
X355600Y25400D02*
D03*
X76200D02*
D03*
X508000Y228600D02*
D03*
Y203200D02*
D03*
Y177800D02*
D03*
Y152400D02*
D03*
Y127000D02*
D03*
Y101600D02*
D03*
Y76200D02*
D03*
Y50800D02*
D03*
X25400Y228600D02*
D03*
Y254000D02*
D03*
Y279400D02*
D03*
Y304800D02*
D03*
Y330200D02*
D03*
Y355600D02*
D03*
Y381000D02*
D03*
Y406400D02*
D03*
Y50800D02*
D03*
Y76200D02*
D03*
Y101600D02*
D03*
Y127000D02*
D03*
Y152400D02*
D03*
Y177800D02*
D03*
D64*
X411324Y661492D02*
D03*
X481324D02*
D03*
D65*
X421324Y634492D02*
D03*
X471324D02*
D03*
D66*
X83058Y500634D02*
D03*
X108458D02*
D03*
X133858D02*
D03*
D67*
X506730Y533400D02*
D03*
D68*
X220980Y53340D02*
D03*
X127000Y55880D02*
D03*
X490220Y388874D02*
D03*
X489910Y397759D02*
D03*
X489950Y375920D02*
D03*
X438150Y367030D02*
D03*
X526915Y86495D02*
D03*
X488950Y365760D02*
D03*
Y419100D02*
D03*
X491490Y452120D02*
D03*
X524510Y327660D02*
D03*
Y299720D02*
D03*
Y264160D02*
D03*
Y223520D02*
D03*
Y193040D02*
D03*
Y165100D02*
D03*
Y142240D02*
D03*
X529590Y114300D02*
D03*
X530860Y48260D02*
D03*
X-2540Y43180D02*
D03*
X0Y73660D02*
D03*
X43180Y101600D02*
D03*
X-2540Y127000D02*
D03*
X45720Y177800D02*
D03*
X-2540Y147320D02*
D03*
X281940Y289560D02*
D03*
X299749Y317500D02*
D03*
X488950Y320040D02*
D03*
X220980Y332740D02*
D03*
X232596Y331397D02*
D03*
X15240Y477520D02*
D03*
X135890Y580390D02*
D03*
X168910Y566420D02*
D03*
X85090Y309880D02*
D03*
X275590Y69850D02*
D03*
X259080Y74930D02*
D03*
X527050Y427990D02*
D03*
X281940Y256540D02*
D03*
X240030Y351790D02*
D03*
X327660Y438150D02*
D03*
X142240Y90170D02*
D03*
X124460Y86360D02*
D03*
X96212Y107242D02*
D03*
X377190Y439420D02*
D03*
X38100Y88900D02*
D03*
X4445Y87630D02*
D03*
X207010Y598170D02*
D03*
X321310Y638810D02*
D03*
X80010Y294640D02*
D03*
X303530Y154940D02*
D03*
X156210Y386080D02*
D03*
X52070Y363220D02*
D03*
X375920Y167640D02*
D03*
X280670Y220980D02*
D03*
X285750Y204470D02*
D03*
X228600Y269240D02*
D03*
X156210Y314960D02*
D03*
X285750Y483870D02*
D03*
X481330Y571500D02*
D03*
X378460Y655320D02*
D03*
X364490Y591820D02*
D03*
X185420Y650240D02*
D03*
X170180Y622300D02*
D03*
X19050Y631190D02*
D03*
M02*
