G04*
G04 #@! TF.GenerationSoftware,Altium Limited,Altium Designer,24.2.2 (26)*
G04*
G04 Layer_Color=255*
%FSLAX44Y44*%
%MOMM*%
G71*
G04*
G04 #@! TF.SameCoordinates,124A1895-3AD2-4E28-9B74-7A6451F43074*
G04*
G04*
G04 #@! TF.FilePolarity,Positive*
G04*
G01*
G75*
%ADD59C,1.7780*%
%ADD60O,1.8000X3.3000*%
%ADD61O,3.8000X2.0000*%
%ADD62C,1.6200*%
%ADD63C,1.5240*%
%ADD64O,0.7750X1.5500*%
%ADD65O,1.3000X0.6500*%
%ADD66C,1.6500*%
%ADD67O,1.2700X1.5240*%
D59*
X510286Y621538D02*
D03*
Y646938D02*
D03*
Y570738D02*
D03*
Y596138D02*
D03*
X299720Y375920D02*
D03*
X274320D02*
D03*
X299720Y401320D02*
D03*
X274320D02*
D03*
X299720Y426720D02*
D03*
X274320D02*
D03*
X104902Y455930D02*
D03*
X79502D02*
D03*
X155702D02*
D03*
X130302D02*
D03*
X463550Y386334D02*
D03*
Y411734D02*
D03*
Y335534D02*
D03*
Y360934D02*
D03*
X81280Y228600D02*
D03*
Y254000D02*
D03*
Y177800D02*
D03*
Y203200D02*
D03*
X461772Y106680D02*
D03*
Y81280D02*
D03*
Y157480D02*
D03*
Y132080D02*
D03*
X413766Y104902D02*
D03*
Y79502D02*
D03*
Y155702D02*
D03*
Y130302D02*
D03*
X462026Y511810D02*
D03*
Y537210D02*
D03*
Y461010D02*
D03*
Y486410D02*
D03*
D60*
X55100Y574600D02*
D03*
D61*
X101600Y609600D02*
D03*
Y549600D02*
D03*
D62*
X213360Y452120D02*
D03*
X238760D02*
D03*
D63*
X508000Y269240D02*
D03*
Y294640D02*
D03*
Y320040D02*
D03*
Y345440D02*
D03*
Y370840D02*
D03*
Y396240D02*
D03*
Y421640D02*
D03*
Y447040D02*
D03*
Y472440D02*
D03*
Y497840D02*
D03*
X25400Y533400D02*
D03*
X355600Y25400D02*
D03*
X76200D02*
D03*
X508000Y228600D02*
D03*
Y203200D02*
D03*
Y177800D02*
D03*
Y152400D02*
D03*
Y127000D02*
D03*
Y101600D02*
D03*
Y76200D02*
D03*
Y50800D02*
D03*
X25400Y228600D02*
D03*
Y254000D02*
D03*
Y279400D02*
D03*
Y304800D02*
D03*
Y330200D02*
D03*
Y355600D02*
D03*
Y381000D02*
D03*
Y406400D02*
D03*
Y50800D02*
D03*
Y76200D02*
D03*
Y101600D02*
D03*
Y127000D02*
D03*
Y152400D02*
D03*
Y177800D02*
D03*
D64*
X411324Y661492D02*
D03*
X481324D02*
D03*
D65*
X421324Y634492D02*
D03*
X471324D02*
D03*
D66*
X83058Y500634D02*
D03*
X108458D02*
D03*
X133858D02*
D03*
D67*
X506730Y533400D02*
D03*
M02*
