M48
;Layer_Color=9474304
;FILE_FORMAT=4:4
METRIC,LZ
;TYPE=PLATED
T01F00S00C0.3302
T05F00S00C1.0160
T06F00S00C1.0201
T07F00S00C1.1000
T09F00S00C3.3020
%
T01
X-0000254Y0004318
X0Y0007366
X00004445Y0008763
X000381Y000889
X0004318Y001016
X00096212Y00107242
X0012446Y0008636
X0014224Y0009017
X00127Y0005588
X-0000254Y00127
X0022098Y0005334
X0025908Y0007493
X0027559Y0006985
X00526915Y00086495
X0052959Y001143
X0052451Y0014224
X0053086Y0004826
X0052451Y001651
Y0019304
Y0022352
Y0026416
Y0029972
Y0032766
X0048895Y0032004
Y0036576
X0048995Y0037592
X0049022Y00388874
X0048991Y00397759
X0048895Y004191
X0049149Y0045212
X0052705Y0042799
X0043815Y0036703
X0037719Y0043942
X0032766Y0043815
X0028575Y0048387
X0024003Y0035179
X00232596Y00331397
X0022098Y0033274
X002286Y0026924
X0028194Y0025654
Y0028956
X00299749Y003175
X0028067Y0022098
X0028575Y0020447
X0030353Y0015494
X0037592Y0016764
X0015621Y0031496
Y0038608
X0005207Y0036322
X0008509Y0030988
X0008001Y0029464
X0004572Y001778
X-0000254Y0014732
X0001524Y0047752
X0001905Y0063119
X0013589Y0058039
X0016891Y0056642
X0017018Y006223
X0018542Y0065024
X0020701Y0059817
X0032131Y0063881
X0037846Y0065532
X0036449Y0059182
X0048133Y005715
T05
X00413766Y00079502
Y00104902
Y00130302
X00461772Y0013208
Y0010668
Y0008128
Y0015748
X00413766Y00155702
X0046355Y00335534
Y00360934
Y00386334
Y00411734
X00462026Y0046101
Y0048641
Y0051181
Y0053721
X00155702Y0045593
X00130302
X00104902
X00079502
X0008128Y00254
Y002286
Y002032
Y001778
X00510286Y00570738
Y00596138
Y00621538
Y00646938
T06
X0021336Y0045212
X0023876
T07
X000254Y000508
Y000762
Y001016
Y00127
X00508
Y001016
Y000762
Y000508
Y001524
Y001778
Y002032
Y002286
Y0026924
Y0029464
Y0032004
Y0034544
Y0037084
Y0039624
Y0042164
Y0044704
Y0047244
Y0049784
X0029972Y0042672
Y0040132
Y0037592
X0027432
Y0040132
Y0042672
X00133858Y00500634
X00108458
X00083058
X000254Y004064
Y00381
Y003556
Y003302
Y003048
Y002794
Y00254
Y002286
Y001778
Y001524
T09
X000762Y000254
X003556
X0050673Y005334
X000254
M30
