G04*
G04 #@! TF.GenerationSoftware,Altium Limited,Altium Designer,24.2.2 (26)*
G04*
G04 Layer_Color=16711935*
%FSLAX44Y44*%
%MOMM*%
G71*
G04*
G04 #@! TF.SameCoordinates,124A1895-3AD2-4E28-9B74-7A6451F43074*
G04*
G04*
G04 #@! TF.FilePolarity,Negative*
G04*
G01*
G75*
%ADD36C,0.0000*%
%ADD49C,1.9812*%
%ADD50O,2.0032X3.5032*%
%ADD51O,4.0032X2.2032*%
%ADD52C,1.8232*%
%ADD53C,1.7272*%
%ADD54O,0.9782X1.7532*%
%ADD55O,1.5032X0.8532*%
%ADD56C,1.8532*%
%ADD57O,1.4732X1.7272*%
%ADD58C,0.8382*%
D36*
X221971Y452120D02*
G03*
X221971Y452120I-8611J0D01*
G01*
X247371D02*
G03*
X247371Y452120I-8611J0D01*
G01*
D49*
X510286Y621538D02*
D03*
Y646938D02*
D03*
Y570738D02*
D03*
Y596138D02*
D03*
X299720Y375920D02*
D03*
X274320D02*
D03*
X299720Y401320D02*
D03*
X274320D02*
D03*
X299720Y426720D02*
D03*
X274320D02*
D03*
X104902Y455930D02*
D03*
X79502D02*
D03*
X155702D02*
D03*
X130302D02*
D03*
X463550Y386334D02*
D03*
Y411734D02*
D03*
Y335534D02*
D03*
Y360934D02*
D03*
X81280Y228600D02*
D03*
Y254000D02*
D03*
Y177800D02*
D03*
Y203200D02*
D03*
X461772Y106680D02*
D03*
Y81280D02*
D03*
Y157480D02*
D03*
Y132080D02*
D03*
X413766Y104902D02*
D03*
Y79502D02*
D03*
Y155702D02*
D03*
Y130302D02*
D03*
X462026Y511810D02*
D03*
Y537210D02*
D03*
Y461010D02*
D03*
Y486410D02*
D03*
D50*
X55100Y574600D02*
D03*
D51*
X101600Y609600D02*
D03*
Y549600D02*
D03*
D52*
X213360Y452120D02*
D03*
X238760D02*
D03*
D53*
X508000Y269240D02*
D03*
Y294640D02*
D03*
Y320040D02*
D03*
Y345440D02*
D03*
Y370840D02*
D03*
Y396240D02*
D03*
Y421640D02*
D03*
Y447040D02*
D03*
Y472440D02*
D03*
Y497840D02*
D03*
X25400Y533400D02*
D03*
X355600Y25400D02*
D03*
X76200D02*
D03*
X508000Y228600D02*
D03*
Y203200D02*
D03*
Y177800D02*
D03*
Y152400D02*
D03*
Y127000D02*
D03*
Y101600D02*
D03*
Y76200D02*
D03*
Y50800D02*
D03*
X25400Y228600D02*
D03*
Y254000D02*
D03*
Y279400D02*
D03*
Y304800D02*
D03*
Y330200D02*
D03*
Y355600D02*
D03*
Y381000D02*
D03*
Y406400D02*
D03*
Y50800D02*
D03*
Y76200D02*
D03*
Y101600D02*
D03*
Y127000D02*
D03*
Y152400D02*
D03*
Y177800D02*
D03*
D54*
X411324Y661492D02*
D03*
X481324D02*
D03*
D55*
X421324Y634492D02*
D03*
X471324D02*
D03*
D56*
X83058Y500634D02*
D03*
X108458D02*
D03*
X133858D02*
D03*
D57*
X506730Y533400D02*
D03*
D58*
X220980Y53340D02*
D03*
X127000Y55880D02*
D03*
X490220Y388874D02*
D03*
X489910Y397759D02*
D03*
X489950Y375920D02*
D03*
X438150Y367030D02*
D03*
X526915Y86495D02*
D03*
X488950Y365760D02*
D03*
Y419100D02*
D03*
X491490Y452120D02*
D03*
X524510Y327660D02*
D03*
Y299720D02*
D03*
Y264160D02*
D03*
Y223520D02*
D03*
Y193040D02*
D03*
Y165100D02*
D03*
Y142240D02*
D03*
X529590Y114300D02*
D03*
X530860Y48260D02*
D03*
X-2540Y43180D02*
D03*
X0Y73660D02*
D03*
X43180Y101600D02*
D03*
X-2540Y127000D02*
D03*
X45720Y177800D02*
D03*
X-2540Y147320D02*
D03*
X281940Y289560D02*
D03*
X299749Y317500D02*
D03*
X488950Y320040D02*
D03*
X220980Y332740D02*
D03*
X232596Y331397D02*
D03*
X15240Y477520D02*
D03*
X135890Y580390D02*
D03*
X168910Y566420D02*
D03*
X85090Y309880D02*
D03*
X275590Y69850D02*
D03*
X259080Y74930D02*
D03*
X527050Y427990D02*
D03*
X281940Y256540D02*
D03*
X240030Y351790D02*
D03*
X327660Y438150D02*
D03*
X142240Y90170D02*
D03*
X124460Y86360D02*
D03*
X96212Y107242D02*
D03*
X377190Y439420D02*
D03*
X38100Y88900D02*
D03*
X4445Y87630D02*
D03*
X207010Y598170D02*
D03*
X321310Y638810D02*
D03*
X80010Y294640D02*
D03*
X303530Y154940D02*
D03*
X156210Y386080D02*
D03*
X52070Y363220D02*
D03*
X375920Y167640D02*
D03*
X280670Y220980D02*
D03*
X285750Y204470D02*
D03*
X228600Y269240D02*
D03*
X156210Y314960D02*
D03*
X285750Y483870D02*
D03*
X481330Y571500D02*
D03*
X378460Y655320D02*
D03*
X364490Y591820D02*
D03*
X185420Y650240D02*
D03*
X170180Y622300D02*
D03*
X19050Y631190D02*
D03*
M02*
