G04*
G04 #@! TF.GenerationSoftware,Altium Limited,Altium Designer,24.2.2 (26)*
G04*
G04 Layer_Color=2752767*
%FSLAX44Y44*%
%MOMM*%
G71*
G04*
G04 #@! TF.SameCoordinates,124A1895-3AD2-4E28-9B74-7A6451F43074*
G04*
G04*
G04 #@! TF.FilePolarity,Positive*
G04*
G01*
G75*
%ADD17C,0.1270*%
%ADD72C,0.1693*%
D17*
X510286Y616458D02*
X505206Y626618D01*
X515366D01*
X510286Y616458D01*
Y641858D02*
X505206Y652018D01*
X515366D01*
X510286Y641858D01*
Y565658D02*
X505206Y575818D01*
X515366D01*
X510286Y565658D01*
Y591058D02*
X505206Y601218D01*
X515366D01*
X510286Y591058D01*
X50020Y569520D02*
X52560D01*
X55100Y572060D01*
X57640Y569520D01*
X60180D01*
Y572060D01*
X57640Y574600D01*
X60180Y577140D01*
Y579680D01*
X57640D01*
X55100Y577140D01*
X52560Y579680D01*
X50020D01*
Y577140D01*
X52560Y574600D01*
X50020Y572060D01*
Y569520D01*
X99060Y607060D02*
Y604520D01*
X104140D01*
Y607060D01*
X106680D01*
Y612140D01*
X104140D01*
Y614680D01*
X99060D01*
Y612140D01*
X96520D01*
Y607060D01*
X99060D01*
Y547060D02*
Y544520D01*
X104140D01*
Y547060D01*
X106680D01*
Y552140D01*
X104140D01*
Y554680D01*
X99060D01*
Y552140D01*
X96520D01*
Y547060D01*
X99060D01*
X299720Y370840D02*
X302260Y373380D01*
X304800D01*
X302260Y375920D01*
X304800Y378460D01*
X302260D01*
X299720Y381000D01*
X297180Y378460D01*
X294640D01*
X297180Y375920D01*
X294640Y373380D01*
X297180D01*
X299720Y370840D01*
X274320D02*
X276860Y373380D01*
X279400D01*
X276860Y375920D01*
X279400Y378460D01*
X276860D01*
X274320Y381000D01*
X271780Y378460D01*
X269240D01*
X271780Y375920D01*
X269240Y373380D01*
X271780D01*
X274320Y370840D01*
X299720Y396240D02*
X302260Y398780D01*
X304800D01*
X302260Y401320D01*
X304800Y403860D01*
X302260D01*
X299720Y406400D01*
X297180Y403860D01*
X294640D01*
X297180Y401320D01*
X294640Y398780D01*
X297180D01*
X299720Y396240D01*
X274320D02*
X276860Y398780D01*
X279400D01*
X276860Y401320D01*
X279400Y403860D01*
X276860D01*
X274320Y406400D01*
X271780Y403860D01*
X269240D01*
X271780Y401320D01*
X269240Y398780D01*
X271780D01*
X274320Y396240D01*
X299720Y421640D02*
X302260Y424180D01*
X304800D01*
X302260Y426720D01*
X304800Y429260D01*
X302260D01*
X299720Y431800D01*
X297180Y429260D01*
X294640D01*
X297180Y426720D01*
X294640Y424180D01*
X297180D01*
X299720Y421640D01*
X274320D02*
X276860Y424180D01*
X279400D01*
X276860Y426720D01*
X279400Y429260D01*
X276860D01*
X274320Y431800D01*
X271780Y429260D01*
X269240D01*
X271780Y426720D01*
X269240Y424180D01*
X271780D01*
X274320Y421640D01*
X208280Y447040D02*
X210820Y452120D01*
X208280Y457200D01*
X213360Y454660D01*
X218440Y457200D01*
X215900Y452120D01*
X218440Y447040D01*
X213360Y449580D01*
X208280Y447040D01*
X233680D02*
X236220Y452120D01*
X233680Y457200D01*
X238760Y454660D01*
X243840Y457200D01*
X241300Y452120D01*
X243840Y447040D01*
X238760Y449580D01*
X233680Y447040D01*
X508000Y264160D02*
X510540Y266700D01*
X513080D01*
X510540Y269240D01*
X513080Y271780D01*
X510540D01*
X508000Y274320D01*
X505460Y271780D01*
X502920D01*
X505460Y269240D01*
X502920Y266700D01*
X505460D01*
X508000Y264160D01*
Y289560D02*
X510540Y292100D01*
X513080D01*
X510540Y294640D01*
X513080Y297180D01*
X510540D01*
X508000Y299720D01*
X505460Y297180D01*
X502920D01*
X505460Y294640D01*
X502920Y292100D01*
X505460D01*
X508000Y289560D01*
Y314960D02*
X510540Y317500D01*
X513080D01*
X510540Y320040D01*
X513080Y322580D01*
X510540D01*
X508000Y325120D01*
X505460Y322580D01*
X502920D01*
X505460Y320040D01*
X502920Y317500D01*
X505460D01*
X508000Y314960D01*
Y340360D02*
X510540Y342900D01*
X513080D01*
X510540Y345440D01*
X513080Y347980D01*
X510540D01*
X508000Y350520D01*
X505460Y347980D01*
X502920D01*
X505460Y345440D01*
X502920Y342900D01*
X505460D01*
X508000Y340360D01*
Y365760D02*
X510540Y368300D01*
X513080D01*
X510540Y370840D01*
X513080Y373380D01*
X510540D01*
X508000Y375920D01*
X505460Y373380D01*
X502920D01*
X505460Y370840D01*
X502920Y368300D01*
X505460D01*
X508000Y365760D01*
Y391160D02*
X510540Y393700D01*
X513080D01*
X510540Y396240D01*
X513080Y398780D01*
X510540D01*
X508000Y401320D01*
X505460Y398780D01*
X502920D01*
X505460Y396240D01*
X502920Y393700D01*
X505460D01*
X508000Y391160D01*
Y416560D02*
X510540Y419100D01*
X513080D01*
X510540Y421640D01*
X513080Y424180D01*
X510540D01*
X508000Y426720D01*
X505460Y424180D01*
X502920D01*
X505460Y421640D01*
X502920Y419100D01*
X505460D01*
X508000Y416560D01*
Y441960D02*
X510540Y444500D01*
X513080D01*
X510540Y447040D01*
X513080Y449580D01*
X510540D01*
X508000Y452120D01*
X505460Y449580D01*
X502920D01*
X505460Y447040D01*
X502920Y444500D01*
X505460D01*
X508000Y441960D01*
Y467360D02*
X510540Y469900D01*
X513080D01*
X510540Y472440D01*
X513080Y474980D01*
X510540D01*
X508000Y477520D01*
X505460Y474980D01*
X502920D01*
X505460Y472440D01*
X502920Y469900D01*
X505460D01*
X508000Y467360D01*
Y492760D02*
X510540Y495300D01*
X513080D01*
X510540Y497840D01*
X513080Y500380D01*
X510540D01*
X508000Y502920D01*
X505460Y500380D01*
X502920D01*
X505460Y497840D01*
X502920Y495300D01*
X505460D01*
X508000Y492760D01*
X104902Y450850D02*
X99822Y461010D01*
X109982D01*
X104902Y450850D01*
X79502D02*
X74422Y461010D01*
X84582D01*
X79502Y450850D01*
X155702D02*
X150622Y461010D01*
X160782D01*
X155702Y450850D01*
X130302D02*
X125222Y461010D01*
X135382D01*
X130302Y450850D01*
X463550Y381254D02*
X458470Y391414D01*
X468630D01*
X463550Y381254D01*
Y406654D02*
X458470Y416814D01*
X468630D01*
X463550Y406654D01*
Y330454D02*
X458470Y340614D01*
X468630D01*
X463550Y330454D01*
Y355854D02*
X458470Y366014D01*
X468630D01*
X463550Y355854D01*
X81280Y223520D02*
X76200Y233680D01*
X86360D01*
X81280Y223520D01*
Y248920D02*
X76200Y259080D01*
X86360D01*
X81280Y248920D01*
Y172720D02*
X76200Y182880D01*
X86360D01*
X81280Y172720D01*
Y198120D02*
X76200Y208280D01*
X86360D01*
X81280Y198120D01*
X461772Y101600D02*
X456692Y111760D01*
X466852D01*
X461772Y101600D01*
Y76200D02*
X456692Y86360D01*
X466852D01*
X461772Y76200D01*
Y152400D02*
X456692Y162560D01*
X466852D01*
X461772Y152400D01*
Y127000D02*
X456692Y137160D01*
X466852D01*
X461772Y127000D01*
X413766Y99822D02*
X408686Y109982D01*
X418846D01*
X413766Y99822D01*
Y74422D02*
X408686Y84582D01*
X418846D01*
X413766Y74422D01*
Y150622D02*
X408686Y160782D01*
X418846D01*
X413766Y150622D01*
Y125222D02*
X408686Y135382D01*
X418846D01*
X413766Y125222D01*
X406244Y656412D02*
Y666572D01*
X416404D01*
Y656412D01*
X406244D01*
X476244D02*
Y666572D01*
X486404D01*
Y656412D01*
X476244D01*
X83058Y495554D02*
X85598Y498094D01*
X88138D01*
X85598Y500634D01*
X88138Y503174D01*
X85598D01*
X83058Y505714D01*
X80518Y503174D01*
X77978D01*
X80518Y500634D01*
X77978Y498094D01*
X80518D01*
X83058Y495554D01*
X108458D02*
X110998Y498094D01*
X113538D01*
X110998Y500634D01*
X113538Y503174D01*
X110998D01*
X108458Y505714D01*
X105918Y503174D01*
X103378D01*
X105918Y500634D01*
X103378Y498094D01*
X105918D01*
X108458Y495554D01*
X133858D02*
X136398Y498094D01*
X138938D01*
X136398Y500634D01*
X138938Y503174D01*
X136398D01*
X133858Y505714D01*
X131318Y503174D01*
X128778D01*
X131318Y500634D01*
X128778Y498094D01*
X131318D01*
X133858Y495554D01*
X20320Y528320D02*
Y538480D01*
X30480D01*
Y528320D01*
X20320D01*
X22352Y530352D02*
Y536448D01*
X28448D01*
Y530352D01*
X22352D01*
X501650Y528320D02*
Y538480D01*
X511810D01*
Y528320D01*
X501650D01*
X503682Y530352D02*
Y536448D01*
X509778D01*
Y530352D01*
X503682D01*
X350520Y20320D02*
Y30480D01*
X360680D01*
Y20320D01*
X350520D01*
X352552Y22352D02*
Y28448D01*
X358648D01*
Y22352D01*
X352552D01*
X71120Y20320D02*
Y30480D01*
X81280D01*
Y20320D01*
X71120D01*
X73152Y22352D02*
Y28448D01*
X79248D01*
Y22352D01*
X73152D01*
X508000Y223520D02*
X510540Y226060D01*
X513080D01*
X510540Y228600D01*
X513080Y231140D01*
X510540D01*
X508000Y233680D01*
X505460Y231140D01*
X502920D01*
X505460Y228600D01*
X502920Y226060D01*
X505460D01*
X508000Y223520D01*
Y198120D02*
X510540Y200660D01*
X513080D01*
X510540Y203200D01*
X513080Y205740D01*
X510540D01*
X508000Y208280D01*
X505460Y205740D01*
X502920D01*
X505460Y203200D01*
X502920Y200660D01*
X505460D01*
X508000Y198120D01*
Y172720D02*
X510540Y175260D01*
X513080D01*
X510540Y177800D01*
X513080Y180340D01*
X510540D01*
X508000Y182880D01*
X505460Y180340D01*
X502920D01*
X505460Y177800D01*
X502920Y175260D01*
X505460D01*
X508000Y172720D01*
Y147320D02*
X510540Y149860D01*
X513080D01*
X510540Y152400D01*
X513080Y154940D01*
X510540D01*
X508000Y157480D01*
X505460Y154940D01*
X502920D01*
X505460Y152400D01*
X502920Y149860D01*
X505460D01*
X508000Y147320D01*
Y121920D02*
X510540Y124460D01*
X513080D01*
X510540Y127000D01*
X513080Y129540D01*
X510540D01*
X508000Y132080D01*
X505460Y129540D01*
X502920D01*
X505460Y127000D01*
X502920Y124460D01*
X505460D01*
X508000Y121920D01*
Y96520D02*
X510540Y99060D01*
X513080D01*
X510540Y101600D01*
X513080Y104140D01*
X510540D01*
X508000Y106680D01*
X505460Y104140D01*
X502920D01*
X505460Y101600D01*
X502920Y99060D01*
X505460D01*
X508000Y96520D01*
Y71120D02*
X510540Y73660D01*
X513080D01*
X510540Y76200D01*
X513080Y78740D01*
X510540D01*
X508000Y81280D01*
X505460Y78740D01*
X502920D01*
X505460Y76200D01*
X502920Y73660D01*
X505460D01*
X508000Y71120D01*
Y45720D02*
X510540Y48260D01*
X513080D01*
X510540Y50800D01*
X513080Y53340D01*
X510540D01*
X508000Y55880D01*
X505460Y53340D01*
X502920D01*
X505460Y50800D01*
X502920Y48260D01*
X505460D01*
X508000Y45720D01*
X462026Y506730D02*
X456946Y516890D01*
X467106D01*
X462026Y506730D01*
Y532130D02*
X456946Y542290D01*
X467106D01*
X462026Y532130D01*
Y455930D02*
X456946Y466090D01*
X467106D01*
X462026Y455930D01*
Y481330D02*
X456946Y491490D01*
X467106D01*
X462026Y481330D01*
X25400Y223520D02*
X27940Y226060D01*
X30480D01*
X27940Y228600D01*
X30480Y231140D01*
X27940D01*
X25400Y233680D01*
X22860Y231140D01*
X20320D01*
X22860Y228600D01*
X20320Y226060D01*
X22860D01*
X25400Y223520D01*
Y248920D02*
X27940Y251460D01*
X30480D01*
X27940Y254000D01*
X30480Y256540D01*
X27940D01*
X25400Y259080D01*
X22860Y256540D01*
X20320D01*
X22860Y254000D01*
X20320Y251460D01*
X22860D01*
X25400Y248920D01*
Y274320D02*
X27940Y276860D01*
X30480D01*
X27940Y279400D01*
X30480Y281940D01*
X27940D01*
X25400Y284480D01*
X22860Y281940D01*
X20320D01*
X22860Y279400D01*
X20320Y276860D01*
X22860D01*
X25400Y274320D01*
Y299720D02*
X27940Y302260D01*
X30480D01*
X27940Y304800D01*
X30480Y307340D01*
X27940D01*
X25400Y309880D01*
X22860Y307340D01*
X20320D01*
X22860Y304800D01*
X20320Y302260D01*
X22860D01*
X25400Y299720D01*
Y325120D02*
X27940Y327660D01*
X30480D01*
X27940Y330200D01*
X30480Y332740D01*
X27940D01*
X25400Y335280D01*
X22860Y332740D01*
X20320D01*
X22860Y330200D01*
X20320Y327660D01*
X22860D01*
X25400Y325120D01*
Y350520D02*
X27940Y353060D01*
X30480D01*
X27940Y355600D01*
X30480Y358140D01*
X27940D01*
X25400Y360680D01*
X22860Y358140D01*
X20320D01*
X22860Y355600D01*
X20320Y353060D01*
X22860D01*
X25400Y350520D01*
Y375920D02*
X27940Y378460D01*
X30480D01*
X27940Y381000D01*
X30480Y383540D01*
X27940D01*
X25400Y386080D01*
X22860Y383540D01*
X20320D01*
X22860Y381000D01*
X20320Y378460D01*
X22860D01*
X25400Y375920D01*
Y401320D02*
X27940Y403860D01*
X30480D01*
X27940Y406400D01*
X30480Y408940D01*
X27940D01*
X25400Y411480D01*
X22860Y408940D01*
X20320D01*
X22860Y406400D01*
X20320Y403860D01*
X22860D01*
X25400Y401320D01*
Y45720D02*
X27940Y48260D01*
X30480D01*
X27940Y50800D01*
X30480Y53340D01*
X27940D01*
X25400Y55880D01*
X22860Y53340D01*
X20320D01*
X22860Y50800D01*
X20320Y48260D01*
X22860D01*
X25400Y45720D01*
Y71120D02*
X27940Y73660D01*
X30480D01*
X27940Y76200D01*
X30480Y78740D01*
X27940D01*
X25400Y81280D01*
X22860Y78740D01*
X20320D01*
X22860Y76200D01*
X20320Y73660D01*
X22860D01*
X25400Y71120D01*
Y96520D02*
X27940Y99060D01*
X30480D01*
X27940Y101600D01*
X30480Y104140D01*
X27940D01*
X25400Y106680D01*
X22860Y104140D01*
X20320D01*
X22860Y101600D01*
X20320Y99060D01*
X22860D01*
X25400Y96520D01*
Y121920D02*
X27940Y124460D01*
X30480D01*
X27940Y127000D01*
X30480Y129540D01*
X27940D01*
X25400Y132080D01*
X22860Y129540D01*
X20320D01*
X22860Y127000D01*
X20320Y124460D01*
X22860D01*
X25400Y121920D01*
Y147320D02*
X27940Y149860D01*
X30480D01*
X27940Y152400D01*
X30480Y154940D01*
X27940D01*
X25400Y157480D01*
X22860Y154940D01*
X20320D01*
X22860Y152400D01*
X20320Y149860D01*
X22860D01*
X25400Y147320D01*
Y172720D02*
X27940Y175260D01*
X30480D01*
X27940Y177800D01*
X30480Y180340D01*
X27940D01*
X25400Y182880D01*
X22860Y180340D01*
X20320D01*
X22860Y177800D01*
X20320Y175260D01*
X22860D01*
X25400Y172720D01*
X220980Y48260D02*
X215900Y58420D01*
X226060D01*
X220980Y48260D01*
Y50292D02*
X217932Y56388D01*
X224028D01*
X220980Y50292D01*
X127000Y50800D02*
X121920Y60960D01*
X132080D01*
X127000Y50800D01*
Y52832D02*
X123952Y58928D01*
X130048D01*
X127000Y52832D01*
X490220Y383794D02*
X485140Y393954D01*
X495300D01*
X490220Y383794D01*
Y385826D02*
X487172Y391922D01*
X493268D01*
X490220Y385826D01*
X489910Y392679D02*
X484830Y402839D01*
X494990D01*
X489910Y392679D01*
Y394711D02*
X486862Y400807D01*
X492958D01*
X489910Y394711D01*
X489950Y370840D02*
X484870Y381000D01*
X495030D01*
X489950Y370840D01*
Y372872D02*
X486902Y378968D01*
X492998D01*
X489950Y372872D01*
X438150Y361950D02*
X433070Y372110D01*
X443230D01*
X438150Y361950D01*
Y363982D02*
X435102Y370078D01*
X441198D01*
X438150Y363982D01*
X526915Y81415D02*
X521835Y91575D01*
X531995D01*
X526915Y81415D01*
Y83447D02*
X523867Y89543D01*
X529963D01*
X526915Y83447D01*
X488950Y360680D02*
X483870Y370840D01*
X494030D01*
X488950Y360680D01*
Y362712D02*
X485902Y368808D01*
X491998D01*
X488950Y362712D01*
Y414020D02*
X483870Y424180D01*
X494030D01*
X488950Y414020D01*
Y416052D02*
X485902Y422148D01*
X491998D01*
X488950Y416052D01*
X491490Y447040D02*
X486410Y457200D01*
X496570D01*
X491490Y447040D01*
Y449072D02*
X488442Y455168D01*
X494538D01*
X491490Y449072D01*
X524510Y322580D02*
X519430Y332740D01*
X529590D01*
X524510Y322580D01*
Y324612D02*
X521462Y330708D01*
X527558D01*
X524510Y324612D01*
Y294640D02*
X519430Y304800D01*
X529590D01*
X524510Y294640D01*
Y296672D02*
X521462Y302768D01*
X527558D01*
X524510Y296672D01*
Y259080D02*
X519430Y269240D01*
X529590D01*
X524510Y259080D01*
Y261112D02*
X521462Y267208D01*
X527558D01*
X524510Y261112D01*
Y218440D02*
X519430Y228600D01*
X529590D01*
X524510Y218440D01*
Y220472D02*
X521462Y226568D01*
X527558D01*
X524510Y220472D01*
Y187960D02*
X519430Y198120D01*
X529590D01*
X524510Y187960D01*
Y189992D02*
X521462Y196088D01*
X527558D01*
X524510Y189992D01*
Y160020D02*
X519430Y170180D01*
X529590D01*
X524510Y160020D01*
Y162052D02*
X521462Y168148D01*
X527558D01*
X524510Y162052D01*
Y137160D02*
X519430Y147320D01*
X529590D01*
X524510Y137160D01*
Y139192D02*
X521462Y145288D01*
X527558D01*
X524510Y139192D01*
X529590Y109220D02*
X524510Y119380D01*
X534670D01*
X529590Y109220D01*
Y111252D02*
X526542Y117348D01*
X532638D01*
X529590Y111252D01*
X530860Y43180D02*
X525780Y53340D01*
X535940D01*
X530860Y43180D01*
Y45212D02*
X527812Y51308D01*
X533908D01*
X530860Y45212D01*
X-2540Y38100D02*
X-7620Y48260D01*
X2540D01*
X-2540Y38100D01*
Y40132D02*
X-5588Y46228D01*
X508D01*
X-2540Y40132D01*
X0Y68580D02*
X-5080Y78740D01*
X5080D01*
X0Y68580D01*
Y70612D02*
X-3048Y76708D01*
X3048D01*
X0Y70612D01*
X43180Y96520D02*
X38100Y106680D01*
X48260D01*
X43180Y96520D01*
Y98552D02*
X40132Y104648D01*
X46228D01*
X43180Y98552D01*
X-2540Y121920D02*
X-7620Y132080D01*
X2540D01*
X-2540Y121920D01*
Y123952D02*
X-5588Y130048D01*
X508D01*
X-2540Y123952D01*
X45720Y172720D02*
X40640Y182880D01*
X50800D01*
X45720Y172720D01*
Y174752D02*
X42672Y180848D01*
X48768D01*
X45720Y174752D01*
X-2540Y142240D02*
X-7620Y152400D01*
X2540D01*
X-2540Y142240D01*
Y144272D02*
X-5588Y150368D01*
X508D01*
X-2540Y144272D01*
X281940Y284480D02*
X276860Y294640D01*
X287020D01*
X281940Y284480D01*
Y286512D02*
X278892Y292608D01*
X284988D01*
X281940Y286512D01*
X299749Y312420D02*
X294669Y322580D01*
X304829D01*
X299749Y312420D01*
Y314452D02*
X296701Y320548D01*
X302797D01*
X299749Y314452D01*
X488950Y314960D02*
X483870Y325120D01*
X494030D01*
X488950Y314960D01*
Y316992D02*
X485902Y323088D01*
X491998D01*
X488950Y316992D01*
X220980Y327660D02*
X215900Y337820D01*
X226060D01*
X220980Y327660D01*
Y329692D02*
X217932Y335788D01*
X224028D01*
X220980Y329692D01*
X232596Y326317D02*
X227516Y336477D01*
X237677D01*
X232596Y326317D01*
Y328349D02*
X229548Y334445D01*
X235644D01*
X232596Y328349D01*
X15240Y472440D02*
X10160Y482600D01*
X20320D01*
X15240Y472440D01*
Y474472D02*
X12192Y480568D01*
X18288D01*
X15240Y474472D01*
X135890Y575310D02*
X130810Y585470D01*
X140970D01*
X135890Y575310D01*
Y577342D02*
X132842Y583438D01*
X138938D01*
X135890Y577342D01*
X168910Y561340D02*
X163830Y571500D01*
X173990D01*
X168910Y561340D01*
Y563372D02*
X165862Y569468D01*
X171958D01*
X168910Y563372D01*
X85090Y304800D02*
X80010Y314960D01*
X90170D01*
X85090Y304800D01*
Y306832D02*
X82042Y312928D01*
X88138D01*
X85090Y306832D01*
X275590Y64770D02*
X270510Y74930D01*
X280670D01*
X275590Y64770D01*
Y66802D02*
X272542Y72898D01*
X278638D01*
X275590Y66802D01*
X259080Y69850D02*
X254000Y80010D01*
X264160D01*
X259080Y69850D01*
Y71882D02*
X256032Y77978D01*
X262128D01*
X259080Y71882D01*
X527050Y422910D02*
X521970Y433070D01*
X532130D01*
X527050Y422910D01*
Y424942D02*
X524002Y431038D01*
X530098D01*
X527050Y424942D01*
X281940Y251460D02*
X276860Y261620D01*
X287020D01*
X281940Y251460D01*
Y253492D02*
X278892Y259588D01*
X284988D01*
X281940Y253492D01*
X240030Y346710D02*
X234950Y356870D01*
X245110D01*
X240030Y346710D01*
Y348742D02*
X236982Y354838D01*
X243078D01*
X240030Y348742D01*
X327660Y433070D02*
X322580Y443230D01*
X332740D01*
X327660Y433070D01*
Y435102D02*
X324612Y441198D01*
X330708D01*
X327660Y435102D01*
X142240Y85090D02*
X137160Y95250D01*
X147320D01*
X142240Y85090D01*
Y87122D02*
X139192Y93218D01*
X145288D01*
X142240Y87122D01*
X124460Y81280D02*
X119380Y91440D01*
X129540D01*
X124460Y81280D01*
Y83312D02*
X121412Y89408D01*
X127508D01*
X124460Y83312D01*
X96212Y102162D02*
X91132Y112322D01*
X101292D01*
X96212Y102162D01*
Y104194D02*
X93164Y110290D01*
X99260D01*
X96212Y104194D01*
X377190Y434340D02*
X372110Y444500D01*
X382270D01*
X377190Y434340D01*
Y436372D02*
X374142Y442468D01*
X380238D01*
X377190Y436372D01*
X38100Y83820D02*
X33020Y93980D01*
X43180D01*
X38100Y83820D01*
Y85852D02*
X35052Y91948D01*
X41148D01*
X38100Y85852D01*
X4445Y82550D02*
X-635Y92710D01*
X9525D01*
X4445Y82550D01*
Y84582D02*
X1397Y90678D01*
X7493D01*
X4445Y84582D01*
X207010Y593090D02*
X201930Y603250D01*
X212090D01*
X207010Y593090D01*
Y595122D02*
X203962Y601218D01*
X210058D01*
X207010Y595122D01*
X321310Y633730D02*
X316230Y643890D01*
X326390D01*
X321310Y633730D01*
Y635762D02*
X318262Y641858D01*
X324358D01*
X321310Y635762D01*
X80010Y289560D02*
X74930Y299720D01*
X85090D01*
X80010Y289560D01*
Y291592D02*
X76962Y297688D01*
X83058D01*
X80010Y291592D01*
X303530Y149860D02*
X298450Y160020D01*
X308610D01*
X303530Y149860D01*
Y151892D02*
X300482Y157988D01*
X306578D01*
X303530Y151892D01*
X156210Y381000D02*
X151130Y391160D01*
X161290D01*
X156210Y381000D01*
Y383032D02*
X153162Y389128D01*
X159258D01*
X156210Y383032D01*
X52070Y358140D02*
X46990Y368300D01*
X57150D01*
X52070Y358140D01*
Y360172D02*
X49022Y366268D01*
X55118D01*
X52070Y360172D01*
X375920Y162560D02*
X370840Y172720D01*
X381000D01*
X375920Y162560D01*
Y164592D02*
X372872Y170688D01*
X378968D01*
X375920Y164592D01*
X280670Y215900D02*
X275590Y226060D01*
X285750D01*
X280670Y215900D01*
Y217932D02*
X277622Y224028D01*
X283718D01*
X280670Y217932D01*
X285750Y199390D02*
X280670Y209550D01*
X290830D01*
X285750Y199390D01*
Y201422D02*
X282702Y207518D01*
X288798D01*
X285750Y201422D01*
X228600Y264160D02*
X223520Y274320D01*
X233680D01*
X228600Y264160D01*
Y266192D02*
X225552Y272288D01*
X231648D01*
X228600Y266192D01*
X156210Y309880D02*
X151130Y320040D01*
X161290D01*
X156210Y309880D01*
Y311912D02*
X153162Y318008D01*
X159258D01*
X156210Y311912D01*
X285750Y478790D02*
X280670Y488950D01*
X290830D01*
X285750Y478790D01*
Y480822D02*
X282702Y486918D01*
X288798D01*
X285750Y480822D01*
X481330Y566420D02*
X476250Y576580D01*
X486410D01*
X481330Y566420D01*
Y568452D02*
X478282Y574548D01*
X484378D01*
X481330Y568452D01*
X378460Y650240D02*
X373380Y660400D01*
X383540D01*
X378460Y650240D01*
Y652272D02*
X375412Y658368D01*
X381508D01*
X378460Y652272D01*
X364490Y586740D02*
X359410Y596900D01*
X369570D01*
X364490Y586740D01*
Y588772D02*
X361442Y594868D01*
X367538D01*
X364490Y588772D01*
X185420Y645160D02*
X180340Y655320D01*
X190500D01*
X185420Y645160D01*
Y647192D02*
X182372Y653288D01*
X188468D01*
X185420Y647192D01*
X170180Y617220D02*
X165100Y627380D01*
X175260D01*
X170180Y617220D01*
Y619252D02*
X167132Y625348D01*
X173228D01*
X170180Y619252D01*
X19050Y626110D02*
X13970Y636270D01*
X24130D01*
X19050Y626110D01*
Y628142D02*
X16002Y634238D01*
X22098D01*
X19050Y628142D01*
D72*
X426404Y634492D02*
G03*
X426404Y634492I-5080J0D01*
G01*
X476404D02*
G03*
X476404Y634492I-5080J0D01*
G01*
M02*
