G04*
G04 #@! TF.GenerationSoftware,Altium Limited,Altium Designer,24.1.2 (44)*
G04*
G04 Layer_Physical_Order=1*
G04 Layer_Color=255*
%FSLAX44Y44*%
%MOMM*%
G71*
G04*
G04 #@! TF.SameCoordinates,F52A13A3-DB3F-44E1-B1C3-80E51AC4D0DF*
G04*
G04*
G04 #@! TF.FilePolarity,Positive*
G04*
G01*
G75*
%ADD10C,0.5080*%
%ADD13C,0.1524*%
%ADD19R,1.8034X1.1176*%
%ADD20R,1.1176X1.8034*%
%ADD21R,0.6000X3.4000*%
%ADD22R,1.7000X0.8382*%
%ADD23R,1.7000X3.0988*%
%ADD36C,1.6200*%
%ADD37C,1.7780*%
%ADD38C,1.6510*%
%ADD39O,2.0000X3.8000*%
%ADD40O,3.3000X1.8000*%
%ADD41C,0.6350*%
D10*
X233680Y327660D02*
Y347544D01*
X236656Y350520D01*
X360680D01*
X350051Y473710D02*
X353861Y469900D01*
X319786Y476758D02*
Y477520D01*
Y476758D02*
X322834Y473710D01*
X350051D01*
X353861Y469900D02*
X380107D01*
X319350Y444500D02*
X356870D01*
X311730Y436880D02*
X319350Y444500D01*
X182880Y430337D02*
X199451Y413766D01*
X203760D01*
X182880Y430337D02*
Y460248D01*
X140010Y459740D02*
X182372D01*
X182880Y460248D01*
X458597Y411480D02*
X479171Y390906D01*
X431800Y411480D02*
X458597D01*
X479171Y390906D02*
X482600D01*
X424180Y422109D02*
Y439420D01*
Y422109D02*
X431800Y414489D01*
Y411480D02*
Y414489D01*
X557070Y354460D02*
Y374692D01*
X542934Y383080D02*
X545870Y380144D01*
X557070Y354460D02*
X557530Y354000D01*
X551618Y380144D02*
X557070Y374692D01*
X545870Y380144D02*
X551618D01*
X519890Y393056D02*
Y410560D01*
Y393056D02*
X529866Y383080D01*
X518970Y411480D02*
X519890Y410560D01*
X529866Y383080D02*
X542934D01*
X404550Y413330D02*
X431800Y386080D01*
X404550Y413330D02*
Y445458D01*
X380107Y469900D02*
X404550Y445458D01*
X422749Y381000D02*
X427829Y386080D01*
X431800D01*
X370586Y381000D02*
X422749D01*
X206260Y436880D02*
X271260D01*
X482600Y390906D02*
X516336D01*
X519430Y394000D01*
X360680Y350520D02*
X370586Y360426D01*
Y381000D01*
X271260Y436880D02*
X311730D01*
D13*
X619506Y406400D02*
X635000D01*
X482600Y345440D02*
Y360934D01*
X508000Y342900D02*
X517192D01*
X202277Y475903D02*
X203200Y474980D01*
X182880Y490220D02*
X186309D01*
X200626Y475903D01*
X202277D01*
X284226Y381000D02*
X284480Y380746D01*
X775589Y244094D02*
X820420Y288925D01*
Y431800D01*
X772160Y244094D02*
X775589D01*
X626491Y157734D02*
X629920D01*
X551180Y190500D02*
X593725D01*
X626491Y157734D01*
X542129Y220980D02*
X547209Y215900D01*
X551180D01*
X447040Y220980D02*
X542129D01*
X551180Y215900D02*
Y217888D01*
X544830Y224238D02*
Y354000D01*
Y224238D02*
X551180Y217888D01*
X506076Y490220D02*
X524002D01*
X657860Y406400D02*
X669417Y417957D01*
Y487387D01*
X659345Y497459D02*
X669417Y487387D01*
X513315Y497459D02*
X659345D01*
X506076Y490220D02*
X513315Y497459D01*
X449580Y490220D02*
X506076D01*
X558800Y485140D02*
X561340Y482600D01*
X657860D01*
X558800Y435970D02*
Y485140D01*
X554037Y385986D02*
X563832Y376191D01*
X544830Y408000D02*
Y422000D01*
X548290Y385986D02*
X554037D01*
X563832Y335632D02*
Y376191D01*
X561898Y333698D02*
X563832Y335632D01*
X553162Y333698D02*
X561898D01*
X551132Y335728D02*
Y372368D01*
X549198Y374302D02*
X551132Y372368D01*
Y335728D02*
X553162Y333698D01*
X544830Y389446D02*
X548290Y385986D01*
X544830Y422000D02*
X558800Y435970D01*
X538432Y374302D02*
X549198D01*
X544830Y389446D02*
Y408000D01*
X532130Y368000D02*
X538432Y374302D01*
X528066Y299720D02*
X532130Y303784D01*
Y354000D02*
Y368000D01*
Y303784D02*
Y354000D01*
X528828Y425302D02*
Y485140D01*
Y485394D01*
X532130Y408000D02*
Y422000D01*
X524002Y490220D02*
X528828Y485394D01*
Y425302D02*
X532130Y422000D01*
X772160Y157734D02*
X848360D01*
X497840Y281940D02*
Y299466D01*
X498094Y299720D01*
X519430Y345138D02*
Y354000D01*
X517192Y342900D02*
X519430Y345138D01*
X630174Y274320D02*
X647700D01*
X284480Y365760D02*
Y380746D01*
X848614Y274320D02*
X868680D01*
X848360Y274066D02*
X848614Y274320D01*
X772160Y274066D02*
X772414Y274320D01*
X792480D01*
X706374D02*
X726440D01*
X706120Y274066D02*
X706374Y274320D01*
X629920Y274066D02*
X630174Y274320D01*
X274320Y480060D02*
X287274D01*
X289814Y477520D01*
X203200Y463054D02*
Y474980D01*
Y463054D02*
X206260Y459994D01*
X587934Y408000D02*
X589534Y406400D01*
X557530Y408000D02*
X587934D01*
X772160Y187706D02*
X775589D01*
X848360D02*
Y244094D01*
X706120Y157734D02*
X772160D01*
X629920D02*
X706120D01*
X772160Y192532D02*
Y244094D01*
X706120Y187706D02*
Y244094D01*
X629920Y187706D02*
Y244094D01*
X314706Y381000D02*
X340614D01*
D19*
X629920Y187706D02*
D03*
Y157734D02*
D03*
X706120Y187706D02*
D03*
Y157734D02*
D03*
X772160Y187706D02*
D03*
Y157734D02*
D03*
X848360Y187706D02*
D03*
Y157734D02*
D03*
X182880Y460248D02*
D03*
Y490220D02*
D03*
X482600Y360934D02*
D03*
Y390906D02*
D03*
X629920Y244094D02*
D03*
Y274066D02*
D03*
X706120Y244094D02*
D03*
Y274066D02*
D03*
X772160Y244094D02*
D03*
Y274066D02*
D03*
X848360Y244094D02*
D03*
Y274066D02*
D03*
D20*
X558800Y485140D02*
D03*
X528066Y299720D02*
D03*
X528828Y485140D02*
D03*
X340614Y381000D02*
D03*
X370586D02*
D03*
X289814Y477520D02*
D03*
X319786D02*
D03*
X314706Y381000D02*
D03*
X284734D02*
D03*
X619506Y406400D02*
D03*
X589534D02*
D03*
X498094Y299720D02*
D03*
D21*
X544830Y408000D02*
D03*
X532130Y354000D02*
D03*
Y408000D02*
D03*
X519430D02*
D03*
X557530D02*
D03*
Y354000D02*
D03*
X544830D02*
D03*
X519430D02*
D03*
D22*
X203760Y413766D02*
D03*
X206260Y436880D02*
D03*
Y459994D02*
D03*
D23*
X271260Y436880D02*
D03*
D36*
X551180Y215900D02*
D03*
Y190500D02*
D03*
X431800Y386080D02*
D03*
Y411480D02*
D03*
X356870Y444500D02*
D03*
Y469900D02*
D03*
D37*
X421640Y220980D02*
D03*
X447040D02*
D03*
X370840D02*
D03*
X396240D02*
D03*
X795020Y431800D02*
D03*
X820420D02*
D03*
X744220D02*
D03*
X769620D02*
D03*
X208280Y327660D02*
D03*
X233680D02*
D03*
X157480D02*
D03*
X182880D02*
D03*
D38*
X424180Y439420D02*
D03*
X474980D02*
D03*
X449580Y490220D02*
D03*
X657860Y482600D02*
D03*
Y406400D02*
D03*
D39*
X140010Y459740D02*
D03*
X80010D02*
D03*
D40*
X115010Y413240D02*
D03*
D41*
X635000Y406400D02*
D03*
X482600Y345440D02*
D03*
X508000Y342900D02*
D03*
X497840Y281940D02*
D03*
X647700Y274320D02*
D03*
X868680D02*
D03*
X792480D02*
D03*
X726440D02*
D03*
X284480Y365760D02*
D03*
X274320Y480060D02*
D03*
X203200Y474980D02*
D03*
M02*
