G04*
G04 #@! TF.GenerationSoftware,Altium Limited,Altium Designer,24.1.2 (44)*
G04*
G04 Layer_Color=8421504*
%FSLAX44Y44*%
%MOMM*%
G71*
G04*
G04 #@! TF.SameCoordinates,F52A13A3-DB3F-44E1-B1C3-80E51AC4D0DF*
G04*
G04*
G04 #@! TF.FilePolarity,Positive*
G04*
G01*
G75*
%ADD19R,1.8034X1.1176*%
%ADD20R,1.1176X1.8034*%
%ADD21R,0.6000X3.4000*%
%ADD22R,1.7000X0.8382*%
%ADD23R,1.7000X3.0988*%
D19*
X629920Y187706D02*
D03*
Y157734D02*
D03*
X706120Y187706D02*
D03*
Y157734D02*
D03*
X772160Y187706D02*
D03*
Y157734D02*
D03*
X848360Y187706D02*
D03*
Y157734D02*
D03*
X182880Y460248D02*
D03*
Y490220D02*
D03*
X482600Y360934D02*
D03*
Y390906D02*
D03*
X629920Y244094D02*
D03*
Y274066D02*
D03*
X706120Y244094D02*
D03*
Y274066D02*
D03*
X772160Y244094D02*
D03*
Y274066D02*
D03*
X848360Y244094D02*
D03*
Y274066D02*
D03*
D20*
X558800Y485140D02*
D03*
X528066Y299720D02*
D03*
X528828Y485140D02*
D03*
X340614Y381000D02*
D03*
X370586D02*
D03*
X289814Y477520D02*
D03*
X319786D02*
D03*
X314706Y381000D02*
D03*
X284734D02*
D03*
X619506Y406400D02*
D03*
X589534D02*
D03*
X498094Y299720D02*
D03*
D21*
X544830Y408000D02*
D03*
X532130Y354000D02*
D03*
Y408000D02*
D03*
X519430D02*
D03*
X557530D02*
D03*
Y354000D02*
D03*
X544830D02*
D03*
X519430D02*
D03*
D22*
X203760Y413766D02*
D03*
X206260Y436880D02*
D03*
Y459994D02*
D03*
D23*
X271260Y436880D02*
D03*
M02*
