G04*
G04 #@! TF.GenerationSoftware,Altium Limited,Altium Designer,24.1.2 (44)*
G04*
G04 Layer_Color=8388736*
%FSLAX44Y44*%
%MOMM*%
G71*
G04*
G04 #@! TF.SameCoordinates,F52A13A3-DB3F-44E1-B1C3-80E51AC4D0DF*
G04*
G04*
G04 #@! TF.FilePolarity,Negative*
G04*
G01*
G75*
%ADD24C,0.0000*%
%ADD25R,2.1082X1.4224*%
%ADD26R,1.4224X2.1082*%
%ADD27R,0.9048X3.7048*%
%ADD28R,2.0048X1.1430*%
%ADD29R,2.0048X3.4036*%
%ADD30C,1.9248*%
%ADD31C,2.0828*%
%ADD32C,1.9558*%
%ADD33O,2.3048X4.1048*%
%ADD34O,3.6048X2.1048*%
%ADD35C,0.9398*%
D24*
X559791Y215900D02*
G03*
X559791Y215900I-8611J0D01*
G01*
Y190500D02*
G03*
X559791Y190500I-8611J0D01*
G01*
X440411Y386080D02*
G03*
X440411Y386080I-8611J0D01*
G01*
Y411480D02*
G03*
X440411Y411480I-8611J0D01*
G01*
X365481Y444500D02*
G03*
X365481Y444500I-8611J0D01*
G01*
Y469900D02*
G03*
X365481Y469900I-8611J0D01*
G01*
D25*
X629920Y187706D02*
D03*
Y157734D02*
D03*
X706120Y187706D02*
D03*
Y157734D02*
D03*
X772160Y187706D02*
D03*
Y157734D02*
D03*
X848360Y187706D02*
D03*
Y157734D02*
D03*
X182880Y460248D02*
D03*
Y490220D02*
D03*
X482600Y360934D02*
D03*
Y390906D02*
D03*
X629920Y244094D02*
D03*
Y274066D02*
D03*
X706120Y244094D02*
D03*
Y274066D02*
D03*
X772160Y244094D02*
D03*
Y274066D02*
D03*
X848360Y244094D02*
D03*
Y274066D02*
D03*
D26*
X558800Y485140D02*
D03*
X528066Y299720D02*
D03*
X528828Y485140D02*
D03*
X340614Y381000D02*
D03*
X370586D02*
D03*
X289814Y477520D02*
D03*
X319786D02*
D03*
X314706Y381000D02*
D03*
X284734D02*
D03*
X619506Y406400D02*
D03*
X589534D02*
D03*
X498094Y299720D02*
D03*
D27*
X544830Y408000D02*
D03*
X532130Y354000D02*
D03*
Y408000D02*
D03*
X519430D02*
D03*
X557530D02*
D03*
Y354000D02*
D03*
X544830D02*
D03*
X519430D02*
D03*
D28*
X203760Y413766D02*
D03*
X206260Y436880D02*
D03*
Y459994D02*
D03*
D29*
X271260Y436880D02*
D03*
D30*
X551180Y215900D02*
D03*
Y190500D02*
D03*
X431800Y386080D02*
D03*
Y411480D02*
D03*
X356870Y444500D02*
D03*
Y469900D02*
D03*
D31*
X421640Y220980D02*
D03*
X447040D02*
D03*
X370840D02*
D03*
X396240D02*
D03*
X795020Y431800D02*
D03*
X820420D02*
D03*
X744220D02*
D03*
X769620D02*
D03*
X208280Y327660D02*
D03*
X233680D02*
D03*
X157480D02*
D03*
X182880D02*
D03*
D32*
X424180Y439420D02*
D03*
X474980D02*
D03*
X449580Y490220D02*
D03*
X657860Y482600D02*
D03*
Y406400D02*
D03*
D33*
X140010Y459740D02*
D03*
X80010D02*
D03*
D34*
X115010Y413240D02*
D03*
D35*
X635000Y406400D02*
D03*
X482600Y345440D02*
D03*
X508000Y342900D02*
D03*
X497840Y281940D02*
D03*
X647700Y274320D02*
D03*
X868680D02*
D03*
X792480D02*
D03*
X726440D02*
D03*
X284480Y365760D02*
D03*
X274320Y480060D02*
D03*
X203200Y474980D02*
D03*
M02*
