M48
;Layer_Color=9474304
;FILE_FORMAT=4:4
METRIC,LZ
;TYPE=PLATED
T01F00S00C0.3302
T02F00S00C1.0000
T04F00S00C1.0160
T05F00S00C1.0201
%
T01
X006477Y0027432
X0072644
X0079248
X0086868
X00635Y004064
X00508Y003429
X004826Y0034544
X0049784Y0028194
X0028448Y0036576
X0027432Y0048006
X002032Y0047498
T02
X0065786Y004064
Y004826
X0044958Y0049022
X0042418Y0043942
X0047498
T04
X0074422Y004318
X0076962
X0079502
X0082042
X0044704Y0022098
X0042164
X0039624
X0037084
X0023368Y0032766
X0020828
X0018288
X0015748
T05
X0055118Y001905
Y002159
X004318Y0038608
Y0041148
X0035687Y004445
Y004699
M30
