G04*
G04 #@! TF.GenerationSoftware,Altium Limited,Altium Designer,24.1.2 (44)*
G04*
G04 Layer_Color=65535*
%FSLAX44Y44*%
%MOMM*%
G71*
G04*
G04 #@! TF.SameCoordinates,F52A13A3-DB3F-44E1-B1C3-80E51AC4D0DF*
G04*
G04*
G04 #@! TF.FilePolarity,Positive*
G04*
G01*
G75*
%ADD10C,0.5080*%
%ADD11C,0.2540*%
%ADD12C,0.3000*%
%ADD13C,0.1524*%
%ADD14C,0.4000*%
%ADD15C,0.1999*%
%ADD16C,0.3810*%
%ADD17C,0.2000*%
%ADD18C,0.1270*%
G36*
X256447Y71287D02*
X256593Y71189D01*
X256642Y71165D01*
X256690Y71116D01*
X256739Y71092D01*
X256873Y70958D01*
X256995Y70690D01*
X257019Y70447D01*
X256982Y70216D01*
X256873Y70057D01*
X256849Y70009D01*
X256775Y69936D01*
X256763Y69899D01*
X256715Y69875D01*
X256666Y69826D01*
X256508Y69741D01*
X256532Y69692D01*
X261254Y69668D01*
X261352Y69644D01*
X261559Y69510D01*
X261693Y69400D01*
X261717Y69352D01*
X261790Y69278D01*
X261887Y69059D01*
X261912Y68889D01*
X261887Y68621D01*
X261838Y68573D01*
X261717Y68354D01*
X261534Y68171D01*
X261413Y68122D01*
X261242Y68049D01*
X259806Y68025D01*
X259769Y67988D01*
X259830Y67927D01*
X260001Y67830D01*
X260110Y67721D01*
X260135Y67672D01*
X260256Y67477D01*
X260281Y67161D01*
X260232Y66942D01*
X260183Y66893D01*
X260086Y66723D01*
X259952Y66589D01*
X259903Y66564D01*
X259855Y66516D01*
X259782Y66491D01*
X259769Y66455D01*
X259806Y66418D01*
X261364Y66394D01*
X261437Y66321D01*
X261607Y66224D01*
X261717Y66114D01*
X261741Y66065D01*
X261790Y66017D01*
X261887Y65798D01*
X261912Y65627D01*
X261887Y65384D01*
X261765Y65165D01*
X261717Y65116D01*
X261693Y65067D01*
X261607Y64982D01*
X261559Y64958D01*
X261486Y64885D01*
X261400Y64848D01*
X261413Y64788D01*
X264029Y64800D01*
X264017Y64861D01*
X263895Y64934D01*
X263847Y64982D01*
X263798Y65006D01*
X263689Y65116D01*
X263591Y65286D01*
X263542Y65408D01*
X263567Y65895D01*
X263615Y65944D01*
X263640Y65992D01*
X263762Y66163D01*
X263871Y66272D01*
X264042Y66370D01*
X264114Y66394D01*
X264285Y66418D01*
X264626Y66394D01*
X264699Y66321D01*
X264869Y66224D01*
X264954Y66138D01*
X264979Y66090D01*
X265052Y66017D01*
X265112Y65858D01*
X265149Y65822D01*
X265173Y65579D01*
X265149Y65408D01*
X265003Y65140D01*
X264954Y65092D01*
X264930Y65043D01*
X264869Y64982D01*
X264820Y64958D01*
X264772Y64909D01*
X264613Y64848D01*
X264589Y64800D01*
X264650Y64739D01*
X264699Y64714D01*
X264747Y64666D01*
X264869Y64593D01*
X264954Y64507D01*
X264979Y64459D01*
X265052Y64386D01*
X265149Y64167D01*
X265173Y63996D01*
X265149Y63777D01*
X265003Y63509D01*
X264954Y63461D01*
X264930Y63412D01*
X264869Y63351D01*
X264820Y63327D01*
X264772Y63278D01*
X264553Y63181D01*
X264455Y63157D01*
X261741Y63144D01*
X261510Y63157D01*
X261449Y63120D01*
X261461Y63035D01*
X261668Y62925D01*
X261693Y62877D01*
X261765Y62804D01*
X261887Y62536D01*
X261912Y62439D01*
X261887Y62122D01*
X261765Y61903D01*
X261693Y61830D01*
X261668Y61781D01*
X261607Y61720D01*
X261559Y61696D01*
X261510Y61647D01*
X261315Y61574D01*
X261303Y61562D01*
X261388Y61477D01*
X261437Y61453D01*
X261486Y61404D01*
X261656Y61307D01*
X261717Y61221D01*
X261765Y61173D01*
X261887Y60905D01*
X261912Y60808D01*
X261887Y60491D01*
X261741Y60248D01*
X261693Y60199D01*
X261668Y60150D01*
X261607Y60090D01*
X261522Y60053D01*
X261498Y60004D01*
X261425Y59931D01*
X261437Y59895D01*
X261693Y59907D01*
X261778Y59895D01*
X261851Y59919D01*
X262021Y59895D01*
X262995Y59870D01*
X263165Y59749D01*
X263287Y59676D01*
X263348Y59591D01*
X263396Y59542D01*
X263518Y59274D01*
X263542Y59104D01*
X263518Y58885D01*
X263372Y58617D01*
X263323Y58568D01*
X263299Y58520D01*
X263238Y58459D01*
X263116Y58386D01*
X262946Y58313D01*
X262776Y58264D01*
X261486Y58240D01*
X261473Y58179D01*
X261534Y58118D01*
X261656Y58045D01*
X261693Y58008D01*
X261717Y57960D01*
X261765Y57911D01*
X261790Y57862D01*
X261887Y57643D01*
X261912Y57546D01*
X261887Y57229D01*
X261838Y57181D01*
X261778Y57023D01*
X261693Y56937D01*
X261668Y56889D01*
X261607Y56828D01*
X261486Y56755D01*
X261315Y56682D01*
X261023Y56633D01*
X259842Y56621D01*
X259867Y56523D01*
X259903Y56487D01*
X260025Y56414D01*
X260086Y56353D01*
X260110Y56304D01*
X260159Y56256D01*
X260256Y56037D01*
X260281Y55866D01*
X260256Y55599D01*
X260159Y55452D01*
X260135Y55379D01*
X260062Y55306D01*
X260037Y55258D01*
X259976Y55197D01*
X259855Y55124D01*
X259672Y55039D01*
X259684Y54978D01*
X259842Y54917D01*
X259879Y54880D01*
X259928Y54856D01*
X260062Y54746D01*
X260183Y54576D01*
X260256Y54406D01*
X260281Y54235D01*
X260256Y53968D01*
X260159Y53822D01*
X260086Y53700D01*
X260037Y53651D01*
X260013Y53602D01*
X259976Y53566D01*
X259855Y53493D01*
X259684Y53420D01*
X259441Y53396D01*
X259198Y53420D01*
X259076Y53493D01*
X258905Y53590D01*
X258845Y53675D01*
X258796Y53724D01*
X258771Y53773D01*
X258650Y54041D01*
X258674Y54479D01*
X258723Y54527D01*
X258820Y54698D01*
X258869Y54746D01*
X258893Y54795D01*
X258930Y54832D01*
X259003Y54856D01*
X259064Y54917D01*
X259088Y54990D01*
X257822Y55014D01*
X257554Y55063D01*
X257469Y55100D01*
X257421Y55148D01*
X257372Y55173D01*
X257262Y55233D01*
X257238Y55282D01*
X257165Y55355D01*
X257141Y55404D01*
X257019Y55672D01*
X257043Y56085D01*
X257165Y56304D01*
X257238Y56377D01*
X257262Y56426D01*
X257408Y56499D01*
X257457Y56596D01*
X257421Y56633D01*
X254962Y56609D01*
X254950Y56572D01*
X255011Y56487D01*
X255132Y56414D01*
X255242Y56304D01*
X255364Y56037D01*
X255388Y55793D01*
X255352Y55562D01*
X255242Y55379D01*
X255218Y55331D01*
X255084Y55197D01*
X254974Y55136D01*
X254950Y55063D01*
X255059Y55026D01*
X256398Y55002D01*
X256520Y54953D01*
X256642Y54880D01*
X256690Y54832D01*
X256739Y54807D01*
X256873Y54674D01*
X256995Y54406D01*
X257019Y54162D01*
X256982Y53931D01*
X256812Y53663D01*
X256715Y53566D01*
X256593Y53493D01*
X256581Y53432D01*
X256690Y53396D01*
X257068Y53408D01*
X257968Y53383D01*
X258236Y53286D01*
X258321Y53201D01*
X258406Y53164D01*
X258431Y53116D01*
X258504Y53043D01*
X258625Y52775D01*
X258650Y52604D01*
X258625Y52337D01*
X258528Y52191D01*
X258455Y52069D01*
X258394Y52008D01*
X258272Y51959D01*
X252430Y51984D01*
X252297Y52093D01*
X252248Y52142D01*
X252175Y52312D01*
X252126Y52434D01*
X252151Y52799D01*
X252272Y53018D01*
X252382Y53176D01*
X252504Y53250D01*
X252613Y53359D01*
X252601Y53396D01*
X251043Y53420D01*
X250921Y53493D01*
X250873Y53542D01*
X250751Y53615D01*
X250714Y53651D01*
X250690Y53700D01*
X250568Y53870D01*
X250544Y53968D01*
X250495Y54089D01*
X250520Y54406D01*
X250568Y54527D01*
X250641Y54649D01*
X250690Y54698D01*
X250714Y54746D01*
X250751Y54807D01*
X251092Y55002D01*
X251104Y55014D01*
X251043Y55075D01*
X250946Y55100D01*
X250873Y55173D01*
X250751Y55245D01*
X250690Y55306D01*
X250666Y55355D01*
X250617Y55404D01*
X250593Y55452D01*
X250495Y55696D01*
X250520Y56037D01*
X250568Y56158D01*
X250641Y56280D01*
X250690Y56329D01*
X250714Y56377D01*
X250800Y56463D01*
X250909Y56523D01*
X250933Y56621D01*
X249619Y56645D01*
X249327Y56718D01*
X249242Y56803D01*
X249120Y56876D01*
X249059Y56937D01*
X248986Y57059D01*
X248937Y57108D01*
X248864Y57375D01*
X248889Y57667D01*
X248937Y57789D01*
X248962Y57838D01*
X249035Y57911D01*
X249108Y58033D01*
X249144Y58069D01*
X249193Y58094D01*
X249303Y58179D01*
X249278Y58252D01*
X244678Y58276D01*
X244410Y58373D01*
X244349Y58434D01*
X244300Y58459D01*
X244191Y58544D01*
X244167Y58593D01*
X244057Y58726D01*
X244020Y58860D01*
X243996Y59031D01*
X243972Y59104D01*
X243996Y59177D01*
X244033Y59359D01*
X244081Y59481D01*
X244142Y59542D01*
X244167Y59591D01*
X244325Y59749D01*
X244373Y59773D01*
X244422Y59822D01*
X244580Y59907D01*
X244556Y59956D01*
X244398Y60016D01*
X244349Y60065D01*
X244300Y60090D01*
X244167Y60199D01*
X244093Y60321D01*
X244045Y60369D01*
X243996Y60662D01*
X243972Y60735D01*
X243996Y60808D01*
X244045Y61051D01*
X244057Y61063D01*
X244142Y61173D01*
X244167Y61221D01*
X244325Y61380D01*
X244373Y61404D01*
X244544Y61526D01*
X244580Y61538D01*
X244556Y61586D01*
X244398Y61647D01*
X244179Y61818D01*
X244093Y61952D01*
X244045Y62000D01*
X243996Y62292D01*
X243984Y62353D01*
X244033Y62621D01*
X244081Y62743D01*
X244142Y62804D01*
X244167Y62852D01*
X244325Y63011D01*
X244446Y63084D01*
X244568Y63132D01*
X244811Y63157D01*
X245091Y63120D01*
X245347Y62937D01*
X245457Y62828D01*
X245481Y62779D01*
X245530Y62731D01*
X245578Y62560D01*
X245627Y62365D01*
X245590Y62183D01*
X245542Y61988D01*
X245457Y61903D01*
X245384Y61781D01*
X245323Y61720D01*
X245274Y61696D01*
X245225Y61647D01*
X245031Y61574D01*
X245019Y61538D01*
X245311Y61343D01*
X245457Y61197D01*
X245481Y61148D01*
X245530Y61100D01*
X245578Y60929D01*
X245627Y60735D01*
X245590Y60552D01*
X245542Y60357D01*
X245457Y60272D01*
X245384Y60150D01*
X245347Y60114D01*
X245225Y60041D01*
X245165Y59956D01*
X245116Y59931D01*
X245128Y59895D01*
X245457Y59907D01*
X247392Y59895D01*
X247465Y59919D01*
X247635Y59895D01*
X247733Y59919D01*
X247745Y59931D01*
X247659Y59992D01*
X247623Y60029D01*
X247611Y60065D01*
X247562Y60090D01*
X247428Y60199D01*
X247355Y60321D01*
X247307Y60369D01*
X247270Y60528D01*
X247234Y60662D01*
X247258Y60905D01*
X247307Y61027D01*
X247380Y61148D01*
X247489Y61307D01*
X247538Y61331D01*
X247586Y61380D01*
X247635Y61404D01*
X247781Y61501D01*
X248171Y61526D01*
X248268Y61501D01*
X248402Y61465D01*
X248463Y61404D01*
X248584Y61331D01*
X248718Y61197D01*
X248791Y61075D01*
X248840Y60954D01*
X248864Y60710D01*
X248840Y60467D01*
X248743Y60296D01*
X248633Y60138D01*
X248584Y60114D01*
X248475Y60029D01*
X248451Y59980D01*
X248378Y59931D01*
X248390Y59895D01*
X248645Y59907D01*
X250678Y59895D01*
X250751Y59919D01*
X250848Y59895D01*
X250982Y59907D01*
X250958Y59956D01*
X250824Y60090D01*
X250714Y60150D01*
X250641Y60272D01*
X250593Y60321D01*
X250508Y60552D01*
X250495Y60856D01*
X250568Y61027D01*
X250593Y61100D01*
X250666Y61173D01*
X250690Y61221D01*
X250800Y61355D01*
X250921Y61428D01*
X251092Y61501D01*
X251335Y61526D01*
X251579Y61501D01*
X251700Y61428D01*
X251871Y61307D01*
X251980Y61197D01*
X252102Y60929D01*
X252126Y60686D01*
X252078Y60394D01*
X252005Y60321D01*
X251931Y60199D01*
X251822Y60090D01*
X251773Y60065D01*
X251700Y59992D01*
X251566Y59956D01*
X251542Y59907D01*
X251579Y59870D01*
X251700Y59797D01*
X251871Y59676D01*
X251980Y59566D01*
X252053Y59444D01*
X252102Y59323D01*
X252126Y59006D01*
X252102Y58909D01*
X252078Y58763D01*
X252005Y58690D01*
X251931Y58568D01*
X251822Y58459D01*
X251773Y58434D01*
X251712Y58373D01*
X251688Y58325D01*
X251664Y58300D01*
X254207Y58288D01*
X254220Y58300D01*
X254171Y58349D01*
X254147Y58398D01*
X254086Y58459D01*
X253976Y58520D01*
X253903Y58641D01*
X253855Y58690D01*
X253794Y58848D01*
X253757Y58958D01*
X253782Y59323D01*
X253903Y59542D01*
X253952Y59591D01*
X253976Y59639D01*
X254061Y59724D01*
X254110Y59749D01*
X254280Y59870D01*
X254329Y59895D01*
X254341Y59931D01*
X254305Y59968D01*
X254171Y60004D01*
X254110Y60065D01*
X253988Y60138D01*
X253891Y60284D01*
X253855Y60321D01*
X253794Y60479D01*
X253757Y60588D01*
X253782Y60954D01*
X253903Y61173D01*
X253976Y61246D01*
X254000Y61294D01*
X254061Y61355D01*
X254183Y61428D01*
X254232Y61477D01*
X254402Y61501D01*
X254499Y61526D01*
X254840Y61501D01*
X255035Y61380D01*
X255084Y61355D01*
X255218Y61221D01*
X255315Y61051D01*
X255364Y60929D01*
X255388Y60686D01*
X255352Y60455D01*
X255205Y60211D01*
X255084Y60090D01*
X255035Y60065D01*
X254901Y59931D01*
X254913Y59895D01*
X255169Y59907D01*
X255376Y59895D01*
X255449Y59919D01*
X255522Y59895D01*
X256471Y59870D01*
X256593Y59797D01*
X256642Y59749D01*
X256763Y59676D01*
X256849Y59591D01*
X256873Y59542D01*
X256995Y59347D01*
X257019Y58982D01*
X256995Y58909D01*
X256970Y58787D01*
X256922Y58739D01*
X256824Y58568D01*
X256715Y58459D01*
X256629Y58422D01*
X256605Y58373D01*
X256569Y58288D01*
X260719Y58300D01*
X260695Y58349D01*
X260609Y58459D01*
X260500Y58520D01*
X260475Y58568D01*
X260402Y58641D01*
X260281Y58909D01*
X260305Y59371D01*
X260354Y59420D01*
X260451Y59591D01*
X260524Y59664D01*
X260548Y59712D01*
X260743Y59834D01*
X260865Y59907D01*
X260840Y59956D01*
X260682Y60016D01*
X260634Y60065D01*
X260512Y60138D01*
X260451Y60223D01*
X260402Y60272D01*
X260281Y60540D01*
X260305Y61002D01*
X260354Y61051D01*
X260451Y61221D01*
X260524Y61294D01*
X260536Y61331D01*
X260707Y61428D01*
X260719Y61489D01*
X260609Y61526D01*
X259246Y61550D01*
X258978Y61696D01*
X258869Y61781D01*
X258845Y61830D01*
X258771Y61903D01*
X258650Y62171D01*
X258674Y62609D01*
X258747Y62731D01*
X258771Y62779D01*
X258881Y62913D01*
X258954Y62986D01*
X259088Y63047D01*
X259100Y63108D01*
X258978Y63157D01*
X258674Y63144D01*
X256021Y63169D01*
X255887Y63230D01*
X255717Y63327D01*
X255668Y63376D01*
X255619Y63400D01*
X255558Y63485D01*
X255510Y63534D01*
X255388Y63802D01*
X255412Y64240D01*
X255461Y64289D01*
X255558Y64459D01*
X255607Y64507D01*
X255631Y64556D01*
X255692Y64617D01*
X255863Y64714D01*
X255984Y64763D01*
X256228Y64788D01*
X257518Y64812D01*
X257530Y64824D01*
X257469Y64885D01*
X257396Y64909D01*
X257323Y64982D01*
X257274Y65006D01*
X257214Y65067D01*
X257189Y65116D01*
X257141Y65165D01*
X257019Y65433D01*
X257043Y65871D01*
X257092Y65919D01*
X257189Y66090D01*
X257238Y66138D01*
X257262Y66187D01*
X257323Y66248D01*
X257372Y66272D01*
X257494Y66345D01*
X257615Y66394D01*
X257786Y66418D01*
X259149Y66443D01*
X259161Y66455D01*
X259100Y66516D01*
X258978Y66589D01*
X258845Y66698D01*
X258820Y66747D01*
X258771Y66796D01*
X258650Y67063D01*
X258674Y67502D01*
X258723Y67550D01*
X258820Y67721D01*
X258869Y67769D01*
X258893Y67818D01*
X258930Y67854D01*
X258978Y67879D01*
X259137Y67964D01*
X259112Y68013D01*
X259076Y68049D01*
X256544Y68025D01*
X256508Y67988D01*
X256569Y67927D01*
X256739Y67830D01*
X256873Y67696D01*
X256970Y67526D01*
X256995Y67453D01*
X257019Y67210D01*
X256982Y66954D01*
X256946Y66917D01*
X256922Y66869D01*
X256800Y66698D01*
X256642Y66540D01*
X256374Y66418D01*
X254329Y66443D01*
X254110Y66564D01*
X254061Y66613D01*
X254013Y66637D01*
X253952Y66698D01*
X253927Y66747D01*
X253879Y66796D01*
X253757Y67063D01*
X253782Y67477D01*
X253903Y67696D01*
X253976Y67769D01*
X254000Y67818D01*
X254134Y67903D01*
X254244Y67964D01*
X254232Y68025D01*
X254134Y68049D01*
X252674Y68074D01*
X252625Y68122D01*
X252455Y68220D01*
X252406Y68268D01*
X252358Y68293D01*
X252321Y68329D01*
X252297Y68378D01*
X252248Y68426D01*
X252175Y68597D01*
X252126Y68719D01*
X252151Y69084D01*
X252272Y69303D01*
X252382Y69437D01*
X252504Y69558D01*
X252601Y69583D01*
X252637Y69619D01*
X252662Y69692D01*
X252625Y69753D01*
X252455Y69851D01*
X252321Y69960D01*
X252297Y70009D01*
X252248Y70057D01*
X252175Y70228D01*
X252126Y70349D01*
X252151Y70715D01*
X252272Y70934D01*
X252382Y71068D01*
X252479Y71165D01*
X252747Y71287D01*
X252844Y71311D01*
X253185Y71287D01*
X253331Y71189D01*
X253453Y71116D01*
X253611Y70958D01*
X253684Y70836D01*
X253733Y70715D01*
X253757Y70398D01*
X253733Y70301D01*
X253708Y70179D01*
X253635Y70106D01*
X253538Y69936D01*
X253477Y69875D01*
X253428Y69851D01*
X253380Y69802D01*
X253282Y69777D01*
X253246Y69741D01*
X253258Y69704D01*
X253356Y69680D01*
X255863Y69704D01*
X255875Y69765D01*
X255729Y69838D01*
X255692Y69875D01*
X255644Y69899D01*
X255583Y69960D01*
X255558Y70009D01*
X255485Y70082D01*
X255461Y70179D01*
X255412Y70228D01*
X255388Y70398D01*
X255412Y70739D01*
X255534Y70958D01*
X255607Y71031D01*
X255619Y71068D01*
X255668Y71092D01*
X255765Y71189D01*
X255838Y71214D01*
X256009Y71287D01*
X256106Y71311D01*
X256447Y71287D01*
D02*
G37*
G36*
X271101D02*
X271247Y71189D01*
X271368Y71116D01*
X271417Y71068D01*
X271466Y71043D01*
X271551Y70909D01*
X271624Y70739D01*
X271673Y70569D01*
X271648Y70276D01*
X271624Y70203D01*
X271551Y70082D01*
X271429Y69911D01*
X271393Y69875D01*
X271344Y69851D01*
X271295Y69802D01*
X271161Y69741D01*
X271137Y69644D01*
X271198Y69583D01*
X271320Y69534D01*
X271356Y69498D01*
X271368Y69485D01*
X271417Y69437D01*
X271466Y69412D01*
X271551Y69278D01*
X271600Y69230D01*
X271636Y69096D01*
X271660Y68999D01*
X271673Y68719D01*
X271575Y68475D01*
X271527Y68426D01*
X271453Y68305D01*
X271417Y68268D01*
X271368Y68244D01*
X271295Y68171D01*
X271028Y68049D01*
X270614Y68074D01*
X270395Y68195D01*
X270322Y68268D01*
X270273Y68293D01*
X270212Y68354D01*
X270139Y68475D01*
X270090Y68597D01*
X270066Y68694D01*
X270042Y68865D01*
X270078Y69096D01*
X270103Y69193D01*
X270163Y69254D01*
X270188Y69303D01*
X270273Y69437D01*
X270322Y69461D01*
X270395Y69534D01*
X270516Y69583D01*
X270553Y69619D01*
X270516Y69656D01*
X270419Y69680D01*
X268958Y69704D01*
X268910Y69753D01*
X268739Y69851D01*
X268691Y69899D01*
X268642Y69924D01*
X268581Y69984D01*
X268508Y70106D01*
X268459Y70228D01*
X268435Y70325D01*
X268411Y70544D01*
X268435Y70617D01*
X268459Y70788D01*
X268581Y70958D01*
X268618Y71043D01*
X268666Y71068D01*
X268764Y71165D01*
X269032Y71287D01*
X269129Y71311D01*
X271101Y71287D01*
D02*
G37*
G36*
X266208D02*
X266427Y71165D01*
X266500Y71092D01*
X266549Y71068D01*
X266585Y71031D01*
X266609Y70982D01*
X266658Y70934D01*
X266682Y70885D01*
X266780Y70666D01*
X266804Y70496D01*
X266780Y70301D01*
X266634Y70033D01*
X266524Y69899D01*
X266451Y69826D01*
X266135Y69680D01*
X264699Y69656D01*
X264662Y69619D01*
X264674Y69583D01*
X264893Y69461D01*
X264954Y69400D01*
X264979Y69352D01*
X265052Y69278D01*
X265173Y68962D01*
X265149Y68646D01*
X265027Y68426D01*
X264979Y68378D01*
X264954Y68329D01*
X264820Y68195D01*
X264772Y68171D01*
X264504Y68049D01*
X264090Y68074D01*
X263968Y68147D01*
X263920Y68171D01*
X263786Y68281D01*
X263664Y68402D01*
X263640Y68475D01*
X263542Y68621D01*
X263567Y69157D01*
X263640Y69230D01*
X263737Y69400D01*
X263847Y69510D01*
X264029Y69595D01*
X264017Y69656D01*
X263920Y69680D01*
X262435Y69704D01*
X262362Y69777D01*
X262289Y69802D01*
X262155Y69911D01*
X262033Y70033D01*
X262009Y70106D01*
X261912Y70252D01*
Y70471D01*
Y70496D01*
X261936Y70788D01*
X262009Y70861D01*
X262082Y70982D01*
X262167Y71092D01*
X262216Y71116D01*
X262289Y71189D01*
X262508Y71287D01*
X262605Y71311D01*
X266208Y71287D01*
D02*
G37*
G36*
X248292D02*
X248536Y71141D01*
X248609Y71068D01*
X248657Y71043D01*
X248694Y71007D01*
X248767Y70885D01*
X248840Y70715D01*
X248864Y70471D01*
X248840Y70228D01*
X248657Y69924D01*
X248609Y69899D01*
X248536Y69826D01*
X248414Y69777D01*
X248378Y69765D01*
X248402Y69692D01*
X249862Y69668D01*
X249960Y69644D01*
X250021Y69583D01*
X250118Y69558D01*
X250240Y69437D01*
X250288Y69412D01*
X250325Y69376D01*
X250422Y69205D01*
X250471Y69084D01*
X250495Y68840D01*
X250459Y68585D01*
X250374Y68451D01*
X250325Y68354D01*
X250313Y68341D01*
X250240Y68268D01*
X250191Y68244D01*
X250118Y68171D01*
X249850Y68049D01*
X247806Y68074D01*
X247586Y68195D01*
X247514Y68268D01*
X247465Y68293D01*
X247428Y68329D01*
X247355Y68451D01*
X247282Y68621D01*
X247234Y68792D01*
X247258Y69059D01*
X247307Y69181D01*
X247331Y69230D01*
X247453Y69400D01*
X247465Y69437D01*
X247514Y69461D01*
X247586Y69534D01*
X247757Y69632D01*
X247769Y69717D01*
X247733Y69753D01*
X247562Y69851D01*
X247514Y69899D01*
X247465Y69924D01*
X247428Y69960D01*
X247355Y70082D01*
X247282Y70252D01*
X247234Y70423D01*
X247258Y70666D01*
X247282Y70739D01*
X247331Y70861D01*
X247380Y70909D01*
X247404Y70958D01*
X247465Y71068D01*
X247514Y71092D01*
X247574Y71129D01*
X247586Y71165D01*
X247854Y71287D01*
X247952Y71311D01*
X248292Y71287D01*
D02*
G37*
G36*
X245055Y69656D02*
X245201Y69558D01*
X245323Y69485D01*
X245432Y69376D01*
X245505Y69254D01*
X245554Y69205D01*
X245578Y69059D01*
X245603Y68986D01*
X245627Y68816D01*
X245603Y68743D01*
X245566Y68585D01*
X245518Y68463D01*
X245457Y68402D01*
X245384Y68281D01*
X245298Y68220D01*
X245177Y68147D01*
X244958Y68049D01*
X244544Y68074D01*
X244495Y68122D01*
X244471D01*
X244459Y68134D01*
X244373Y68171D01*
X244240Y68281D01*
X244167Y68329D01*
X244069Y68500D01*
X244020Y68621D01*
X243996Y68792D01*
X244020Y69132D01*
X244093Y69254D01*
X244142Y69303D01*
X244215Y69425D01*
X244300Y69510D01*
X244349Y69534D01*
X244519Y69632D01*
X244592Y69656D01*
X244690Y69680D01*
X245055Y69656D01*
D02*
G37*
G36*
X267863Y68025D02*
X268009Y67927D01*
X268058Y67903D01*
X268131Y67830D01*
X268179Y67806D01*
X268216Y67769D01*
X268240Y67721D01*
X268313Y67648D01*
X268374Y67489D01*
X268411Y67355D01*
X268435Y67258D01*
X268411Y67063D01*
X268338Y66893D01*
X268265Y66771D01*
X268155Y66637D01*
X267985Y66516D01*
X267766Y66418D01*
X266877Y66406D01*
X266646Y66418D01*
X266573Y66394D01*
X266500Y66418D01*
X265721Y66443D01*
X265672Y66491D01*
X265551Y66540D01*
X265502Y66589D01*
X265453Y66613D01*
X265319Y66747D01*
X265271Y66844D01*
X265259Y66856D01*
X265222Y66893D01*
X265173Y67015D01*
X265198Y67526D01*
X265319Y67696D01*
X265344Y67745D01*
X265502Y67903D01*
X265770Y68025D01*
X265867Y68049D01*
X267863Y68025D01*
D02*
G37*
G36*
X253209Y66394D02*
X253380Y66272D01*
X253465Y66236D01*
X253489Y66187D01*
X253526Y66151D01*
X253575Y66126D01*
X253696Y65932D01*
X253733Y65822D01*
X253757Y65579D01*
X253708Y65286D01*
X253635Y65213D01*
X253562Y65092D01*
X253380Y64909D01*
X253258Y64861D01*
X253234D01*
X253222Y64848D01*
X253185Y64812D01*
X253015Y64788D01*
X252723Y64812D01*
X252455Y64958D01*
X252406Y65006D01*
X252358Y65031D01*
X252321Y65067D01*
X252248Y65189D01*
X252126Y65457D01*
X252151Y65822D01*
X252272Y66041D01*
X252382Y66199D01*
X252430Y66224D01*
X252479Y66272D01*
X252601Y66345D01*
X252723Y66394D01*
X252893Y66418D01*
X253209Y66394D01*
D02*
G37*
G36*
X249948D02*
X250094Y66297D01*
X250215Y66224D01*
X250325Y66114D01*
X250398Y65992D01*
X250471Y65822D01*
X250495Y65579D01*
X250459Y65323D01*
X250374Y65189D01*
X250252Y65019D01*
X250167Y64958D01*
X250118Y64909D01*
X249850Y64788D01*
X249461Y64812D01*
X249266Y64909D01*
X249254Y64921D01*
X249217Y64958D01*
X249169Y64982D01*
X249059Y65067D01*
X248986Y65189D01*
X248913Y65360D01*
X248864Y65481D01*
X248889Y65798D01*
X248937Y65919D01*
X249011Y66041D01*
X249120Y66175D01*
X249217Y66272D01*
X249339Y66345D01*
X249461Y66394D01*
X249631Y66418D01*
X249948Y66394D01*
D02*
G37*
G36*
X251591Y64751D02*
X251773Y64641D01*
X251822Y64617D01*
X251956Y64483D01*
X252053Y64313D01*
X252102Y64191D01*
X252126Y63948D01*
X252078Y63656D01*
X252005Y63583D01*
X251895Y63400D01*
X251846Y63376D01*
X251798Y63327D01*
X251749Y63303D01*
X251700Y63254D01*
X251542Y63193D01*
X251432Y63157D01*
X251092Y63181D01*
X250873Y63303D01*
X250824Y63351D01*
X250714Y63412D01*
X250690Y63461D01*
X250568Y63631D01*
X250532Y63765D01*
X250495Y63875D01*
X250520Y64191D01*
X250641Y64410D01*
X250666Y64434D01*
Y64459D01*
X250714Y64507D01*
X250739Y64556D01*
X250824Y64617D01*
X251067Y64763D01*
X251384Y64788D01*
X251591Y64751D01*
D02*
G37*
G36*
X246686Y68025D02*
X246832Y67927D01*
X246954Y67854D01*
X247063Y67745D01*
X247136Y67623D01*
X247185Y67575D01*
X247221Y67392D01*
X247234Y67088D01*
X247209Y67015D01*
X247173Y66881D01*
X247087Y66796D01*
X247027Y66662D01*
X246978Y66637D01*
X246808Y66516D01*
X246710Y66491D01*
X246698Y66406D01*
X246783Y66321D01*
X246954Y66224D01*
X247063Y66114D01*
X247087Y66065D01*
X247185Y65919D01*
X247209Y65822D01*
X247234Y65652D01*
X247209Y65335D01*
X247136Y65213D01*
X247087Y65165D01*
X247015Y65043D01*
X246954Y64982D01*
X246905Y64958D01*
X246856Y64909D01*
X246698Y64848D01*
X246674Y64800D01*
X246759Y64714D01*
X246808Y64690D01*
X246978Y64568D01*
X247087Y64459D01*
X247160Y64337D01*
X247209Y64215D01*
X247234Y63972D01*
X247209Y63704D01*
X247136Y63583D01*
X247087Y63534D01*
X247015Y63412D01*
X246978Y63376D01*
X246929Y63351D01*
X246856Y63278D01*
X246637Y63181D01*
X246540Y63157D01*
X246199Y63181D01*
X245980Y63303D01*
X245931Y63351D01*
X245883Y63376D01*
X245822Y63412D01*
X245724Y63583D01*
X245676Y63631D01*
X245639Y63790D01*
X245615Y63887D01*
X245603Y64069D01*
X245651Y64191D01*
X245688Y64325D01*
X245749Y64410D01*
X245858Y64544D01*
X245956Y64641D01*
X246077Y64714D01*
X246187Y64800D01*
X246162Y64848D01*
X245980Y64934D01*
X245931Y64982D01*
X245883Y65006D01*
X245822Y65043D01*
X245724Y65213D01*
X245676Y65262D01*
X245639Y65420D01*
X245615Y65518D01*
X245603Y65700D01*
X245651Y65822D01*
X245688Y65956D01*
X245749Y66041D01*
X245858Y66175D01*
X245956Y66272D01*
X246126Y66370D01*
X246162Y66406D01*
X246138Y66479D01*
X245992Y66552D01*
X245931Y66613D01*
X245810Y66686D01*
X245688Y66881D01*
X245651Y67015D01*
X245603Y67210D01*
X245627Y67404D01*
X245639Y67416D01*
X245664Y67514D01*
X245700Y67599D01*
X245870Y67818D01*
X245956Y67903D01*
X246223Y68025D01*
X246321Y68049D01*
X246686Y68025D01*
D02*
G37*
G36*
X105128Y61868D02*
X110818Y61730D01*
X111466Y61822D01*
X114889Y61730D01*
X115259Y61637D01*
X115906Y61452D01*
X117340Y61498D01*
X117942Y61452D01*
X118219Y61544D01*
X118867Y61637D01*
X119330Y61822D01*
X119792Y61730D01*
X119931Y61591D01*
X119977Y61175D01*
X119792Y60712D01*
X119607Y60527D01*
X119422Y60434D01*
X119191Y59925D01*
X119006Y59185D01*
X118589Y58769D01*
X118404Y58677D01*
X118266Y58538D01*
X118173Y58168D01*
X118081Y57520D01*
X117572Y57011D01*
X117433Y56965D01*
X117248Y56502D01*
X117155Y55947D01*
X116739Y55438D01*
X116600Y55300D01*
X116508Y55115D01*
X116045Y54282D01*
X115675Y53912D01*
X115583Y53357D01*
X115305Y52894D01*
X114750Y52339D01*
X114657Y52062D01*
Y51969D01*
X114565Y51414D01*
X114334Y51090D01*
X114149Y50998D01*
X114010Y50859D01*
X113917Y50674D01*
X113732Y50211D01*
X113362Y49564D01*
X113177Y49379D01*
X112900Y48731D01*
X112622Y48268D01*
X112483Y48130D01*
X112298Y48037D01*
X112160Y47898D01*
X112067Y47528D01*
X111928Y46927D01*
X111697Y46603D01*
X111373Y46372D01*
X111142Y46140D01*
X110818Y45262D01*
X110679Y45123D01*
X110587Y44938D01*
X110402Y44753D01*
X110309Y44568D01*
X109847Y43735D01*
X109569Y43457D01*
X109384Y42995D01*
X109245Y42486D01*
X109107Y42347D01*
X109060Y42209D01*
X108875Y42116D01*
X108551Y41792D01*
X108366Y41330D01*
X108274Y40867D01*
X107858Y40358D01*
X107719Y40219D01*
X107626Y40034D01*
X107164Y39202D01*
X106979Y39017D01*
X106793Y38554D01*
X106377Y37768D01*
X106192Y37675D01*
X105961Y37444D01*
X105776Y36981D01*
X105637Y36380D01*
X105498Y36241D01*
X105406Y36056D01*
X105036Y35686D01*
X104943Y35501D01*
X104527Y34992D01*
X103879Y34807D01*
X102954Y34715D01*
X101381Y34530D01*
X100132Y34391D01*
X99392Y34298D01*
X98976Y34252D01*
X98698Y34345D01*
X98421Y34252D01*
X97403Y34345D01*
X96571Y34807D01*
X95830Y35547D01*
X95645Y35640D01*
X95506Y35779D01*
X95322Y36519D01*
X95229Y36981D01*
X94998Y37213D01*
X94813Y37305D01*
X94674Y37444D01*
X94489Y38092D01*
X94304Y38554D01*
X93841Y39017D01*
X93610Y39618D01*
X93379Y39942D01*
X93240Y40081D01*
X93055Y40173D01*
X92823Y40405D01*
X92731Y40775D01*
X92823Y41422D01*
X92962Y41561D01*
X93332Y41653D01*
X96015Y41561D01*
X96293Y41653D01*
X100040Y41607D01*
X100502Y41700D01*
X100965Y41885D01*
X101474Y42209D01*
X101566Y43041D01*
X101751Y43504D01*
X102399Y43874D01*
X102538Y44013D01*
X102492Y44799D01*
X102677Y45262D01*
X102862Y45354D01*
X103370Y45771D01*
X103509Y46279D01*
X103972Y46834D01*
X104203Y47436D01*
X104388Y47898D01*
X104712Y48222D01*
X105128Y48453D01*
X105221Y49656D01*
X105452Y49887D01*
X105915Y50165D01*
X106053Y50304D01*
X106146Y51044D01*
X106470Y51460D01*
X106655Y51553D01*
X106793Y51691D01*
X106979Y52154D01*
X107256Y52617D01*
X107395Y52755D01*
X107580Y52848D01*
X107719Y52987D01*
X107811Y53357D01*
X107904Y54745D01*
X107673Y54976D01*
X107025Y55068D01*
X105822Y54976D01*
X101751Y55161D01*
X94443Y55253D01*
X85977Y55300D01*
X85376Y55253D01*
X85098Y55346D01*
X84543Y55438D01*
X84127Y55762D01*
X83757Y56687D01*
X83109Y57335D01*
X82971Y58214D01*
X82739Y58538D01*
X82415Y58769D01*
X82277Y58908D01*
X81999Y60018D01*
X81351Y60666D01*
X81444Y61591D01*
X81675Y61822D01*
X82045Y61915D01*
X82924Y61776D01*
X83664Y61683D01*
X84682Y61591D01*
X85376Y61544D01*
X85653Y61637D01*
X87319Y61730D01*
X87596Y61822D01*
X87966Y61915D01*
X92453Y61961D01*
X105128Y61868D01*
D02*
G37*
G36*
X253222Y63120D02*
X253404Y63011D01*
X253453Y62986D01*
X253587Y62852D01*
X253684Y62682D01*
X253733Y62560D01*
X253757Y62317D01*
X253708Y62025D01*
X253660Y61976D01*
X253648Y61964D01*
X253562Y61830D01*
X253453Y61720D01*
X253404Y61696D01*
X253331Y61623D01*
X253173Y61562D01*
X253039Y61526D01*
X252723Y61550D01*
X252504Y61672D01*
X252455Y61720D01*
X252345Y61781D01*
X252321Y61830D01*
X252199Y62000D01*
X252175Y62098D01*
X252126Y62219D01*
X252151Y62560D01*
X252297Y62828D01*
X252345Y62877D01*
X252370Y62925D01*
X252430Y62986D01*
X252601Y63084D01*
X252723Y63132D01*
X252966Y63157D01*
X253222Y63120D01*
D02*
G37*
G36*
X249948Y63132D02*
X250069Y63059D01*
X250240Y62937D01*
X250349Y62828D01*
X250422Y62706D01*
X250471Y62585D01*
X250495Y62268D01*
X250471Y62171D01*
X250447Y62025D01*
X250374Y61952D01*
X250301Y61830D01*
X250240Y61745D01*
X250191Y61720D01*
X250021Y61599D01*
X249923Y61574D01*
X249802Y61526D01*
X249485Y61550D01*
X249363Y61599D01*
X249242Y61672D01*
X249193Y61720D01*
X249083Y61781D01*
X248937Y62025D01*
X248864Y62268D01*
X248889Y62536D01*
X248937Y62658D01*
X249011Y62779D01*
X249120Y62937D01*
X249169Y62962D01*
X249217Y63011D01*
X249266Y63035D01*
X249290D01*
X249363Y63108D01*
X249461Y63132D01*
X249704Y63157D01*
X249948Y63132D01*
D02*
G37*
G36*
X283831Y71287D02*
X284050Y71189D01*
X284099Y71165D01*
X284148Y71116D01*
X284196Y71092D01*
X284330Y70982D01*
X284452Y70861D01*
X284476Y70812D01*
X284574Y70666D01*
X284634Y70508D01*
X284671Y70374D01*
X284695Y70276D01*
X284671Y60783D01*
X284574Y60564D01*
X284501Y60443D01*
X284391Y60309D01*
X284355Y60272D01*
X284342Y60236D01*
X284294Y60211D01*
X284196Y60114D01*
X284026Y60016D01*
X283953Y59992D01*
X283856Y59968D01*
X283697Y59931D01*
X283369Y59895D01*
X274289Y59919D01*
X274216Y59943D01*
X274119Y59968D01*
X273985Y60004D01*
X273924Y60065D01*
X273803Y60114D01*
X273729Y60187D01*
X273681Y60211D01*
X273571Y60321D01*
X273547Y60369D01*
X273498Y60418D01*
X273401Y60588D01*
X273352Y60710D01*
X273316Y60893D01*
X273279Y61221D01*
Y64678D01*
Y64702D01*
X273304Y70301D01*
X273328Y70374D01*
X273352Y70471D01*
X273389Y70605D01*
X273498Y70788D01*
X273522Y70836D01*
X273620Y70934D01*
X273632Y70970D01*
X273681Y70995D01*
X273778Y71092D01*
X273827Y71116D01*
X273876Y71165D01*
X274107Y71250D01*
X274216Y71287D01*
X274387Y71311D01*
X283831Y71287D01*
D02*
G37*
G36*
X264626Y61501D02*
X264796Y61380D01*
X264845Y61355D01*
X264979Y61221D01*
X265003Y61173D01*
X265052Y61124D01*
X265149Y60905D01*
X265173Y60735D01*
X265149Y60515D01*
X265003Y60248D01*
X264954Y60199D01*
X264930Y60150D01*
X264869Y60090D01*
X264747Y60016D01*
X264528Y59919D01*
X264431Y59895D01*
X264139Y59919D01*
X263871Y60065D01*
X263737Y60175D01*
X263689Y60223D01*
X263591Y60394D01*
X263542Y60515D01*
Y60564D01*
Y60588D01*
X263567Y61002D01*
X263664Y61148D01*
X263689Y61197D01*
X263786Y61294D01*
X263810Y61343D01*
X264005Y61465D01*
X264114Y61501D01*
X264285Y61526D01*
X264626Y61501D01*
D02*
G37*
G36*
X258114Y61489D02*
X258260Y61392D01*
X258394Y61307D01*
X258455Y61221D01*
X258504Y61173D01*
X258625Y60905D01*
X258650Y60808D01*
X258625Y60467D01*
X258565Y60382D01*
X258552Y60369D01*
X258455Y60199D01*
X258346Y60090D01*
X258297Y60065D01*
X258224Y59992D01*
X257907Y59895D01*
X257640Y59919D01*
X257518Y59968D01*
X257396Y60041D01*
X257238Y60150D01*
X257214Y60199D01*
X257141Y60272D01*
X257019Y60540D01*
X257043Y60978D01*
X257092Y61027D01*
X257141Y61148D01*
X257214Y61221D01*
X257238Y61270D01*
X257348Y61380D01*
X257469Y61453D01*
X257591Y61501D01*
X257834Y61526D01*
X258114Y61489D01*
D02*
G37*
G36*
X241477Y71287D02*
X241696Y71189D01*
X241817Y71116D01*
X241951Y71007D01*
X241988Y70970D01*
X242024Y70958D01*
Y70934D01*
X242146Y70812D01*
X242292Y70496D01*
X242329Y70313D01*
X242365Y69984D01*
X242341Y60905D01*
X242316Y60832D01*
X242292Y60735D01*
X242256Y60601D01*
X242195Y60540D01*
X242146Y60418D01*
X242073Y60345D01*
X242049Y60296D01*
X241939Y60187D01*
X241891Y60163D01*
X241817Y60090D01*
X241720Y60065D01*
X241647Y59992D01*
X241367Y59931D01*
X241039Y59895D01*
X231959Y59919D01*
X231886Y59943D01*
X231789Y59968D01*
X231655Y60004D01*
X231472Y60114D01*
X231424Y60138D01*
X231326Y60236D01*
X231290Y60248D01*
X231265Y60296D01*
X231168Y60394D01*
X231144Y60443D01*
X231095Y60491D01*
X231010Y60722D01*
X230973Y60832D01*
X230949Y61002D01*
X230973Y70447D01*
X231071Y70666D01*
X231095Y70715D01*
X231144Y70763D01*
X231168Y70812D01*
X231278Y70946D01*
X231399Y71068D01*
X231448Y71092D01*
X231594Y71189D01*
X231752Y71250D01*
X231862Y71287D01*
X232032Y71311D01*
X241477Y71287D01*
D02*
G37*
G36*
X271125Y63132D02*
X271247Y63059D01*
X271295Y63011D01*
X271417Y62937D01*
X271502Y62852D01*
X271575Y62731D01*
X271624Y62609D01*
X271673Y62439D01*
X271648Y62146D01*
X271624Y62073D01*
X271527Y61903D01*
X271417Y61745D01*
X271295Y61672D01*
X271247Y61623D01*
X271113Y61586D01*
X271088Y61538D01*
X271125Y61501D01*
X271174Y61477D01*
X271344Y61355D01*
X271393Y61331D01*
X271502Y61221D01*
X271575Y61100D01*
X271624Y60978D01*
X271673Y60808D01*
X271648Y60515D01*
X271624Y60443D01*
X271527Y60272D01*
X271417Y60138D01*
X271368Y60090D01*
X271320Y60065D01*
X271247Y59992D01*
X271113Y59956D01*
X271088Y59907D01*
X271149Y59846D01*
X271222Y59822D01*
X271271Y59773D01*
X271320Y59749D01*
X271453Y59639D01*
X271502Y59591D01*
X271539Y59505D01*
X271575Y59493D01*
X271624Y59371D01*
X271660Y59238D01*
X271673Y58958D01*
X271624Y58836D01*
X271600Y58739D01*
X271563Y58678D01*
X271527Y58665D01*
X271453Y58544D01*
X271368Y58459D01*
X271320Y58434D01*
X271247Y58361D01*
X270906Y58264D01*
X270687Y58288D01*
X270565Y58337D01*
X270468Y58361D01*
X270370Y58459D01*
X270322Y58483D01*
X270212Y58593D01*
X270139Y58714D01*
X270090Y58763D01*
X270054Y58994D01*
X270042Y59177D01*
X270066Y59250D01*
X270103Y59408D01*
X270212Y59566D01*
X270236Y59615D01*
X270346Y59724D01*
X270395Y59749D01*
X270541Y59846D01*
X270650Y59907D01*
X270626Y59956D01*
X270529Y59980D01*
X270395Y60065D01*
X270261Y60175D01*
X270212Y60223D01*
X270139Y60345D01*
X270090Y60394D01*
X270054Y60625D01*
X270042Y60808D01*
X270066Y60881D01*
X270103Y61039D01*
X270285Y61294D01*
X270346Y61355D01*
X270480Y61416D01*
X270468Y61501D01*
X270370Y61526D01*
X267985Y61501D01*
X267973Y61441D01*
X268034Y61380D01*
X268155Y61307D01*
X268240Y61221D01*
X268265Y61173D01*
X268313Y61124D01*
X268362Y61002D01*
X268435Y60759D01*
X268399Y60528D01*
X268338Y60369D01*
X268313Y60321D01*
X268240Y60248D01*
X268167Y60126D01*
X268034Y60041D01*
X267985Y59992D01*
X267668Y59895D01*
X267401Y59919D01*
X267279Y59968D01*
X267157Y60041D01*
X267108Y60090D01*
X267060Y60114D01*
X266975Y60199D01*
X266963Y60211D01*
X266877Y60345D01*
X266829Y60467D01*
X266804Y60564D01*
X266792Y60747D01*
X266816Y60942D01*
X266841Y61039D01*
X266877Y61075D01*
X266902Y61124D01*
X267023Y61294D01*
X267084Y61355D01*
X267206Y61428D01*
X267376Y61550D01*
X267388Y61562D01*
X267352Y61599D01*
X267194Y61635D01*
X267108Y61720D01*
X267060Y61745D01*
X266950Y61854D01*
X266877Y61976D01*
X266804Y62146D01*
X266829Y62658D01*
X266902Y62731D01*
X266999Y62901D01*
X267084Y62986D01*
X267255Y63084D01*
X267376Y63132D01*
X267620Y63157D01*
X271125Y63132D01*
D02*
G37*
G36*
X266257Y59870D02*
X266427Y59749D01*
X266476Y59724D01*
X266609Y59591D01*
X266634Y59542D01*
X266682Y59493D01*
X266780Y59250D01*
X266804Y59152D01*
X266780Y58909D01*
X266634Y58641D01*
X266524Y58483D01*
X266403Y58410D01*
X266366Y58373D01*
X266342Y58325D01*
X266317Y58300D01*
X269263Y58276D01*
X269409Y58252D01*
X269506Y58227D01*
X269591Y58191D01*
X269640Y58142D01*
X269689Y58118D01*
X269823Y58008D01*
X269932Y57874D01*
X269993Y57741D01*
X270042Y57570D01*
X270066Y57424D01*
X270042Y57351D01*
X270005Y57217D01*
X269956Y57095D01*
X269896Y57010D01*
X269786Y56876D01*
X269737Y56828D01*
X269689Y56803D01*
X269543Y56706D01*
X269470Y56682D01*
X269433Y56645D01*
X269470Y56609D01*
X269591Y56560D01*
X269810Y56390D01*
X269871Y56329D01*
X269896Y56280D01*
X269944Y56231D01*
X269993Y56110D01*
X270042Y55939D01*
X270066Y55793D01*
X270042Y55720D01*
X270005Y55586D01*
X269956Y55465D01*
X269896Y55379D01*
X269847Y55331D01*
X269823Y55282D01*
X269737Y55197D01*
X269701Y55185D01*
X269689Y55173D01*
X269543Y55075D01*
X269433Y55014D01*
X269494Y54953D01*
X269628Y54917D01*
X269713Y54832D01*
X269823Y54771D01*
X269847Y54722D01*
X269956Y54588D01*
X270042Y54308D01*
X270066Y54162D01*
X270042Y54089D01*
X270017Y53992D01*
X269993Y53919D01*
X269896Y53748D01*
X269847Y53700D01*
X269823Y53651D01*
X269737Y53566D01*
X269616Y53493D01*
X269604Y53432D01*
X269713Y53396D01*
X271052Y53371D01*
X271174Y53323D01*
X271295Y53250D01*
X271344Y53201D01*
X271453Y53140D01*
X271478Y53091D01*
X271587Y52957D01*
X271648Y52751D01*
X271673Y52653D01*
X271648Y52361D01*
X271600Y52239D01*
X271575Y52191D01*
X271527Y52142D01*
X271502Y52093D01*
X271393Y51959D01*
X271088Y51753D01*
X271113Y51704D01*
X271271Y51643D01*
X271320Y51594D01*
X271368Y51570D01*
X271478Y51485D01*
X271551Y51363D01*
X271600Y51314D01*
X271636Y51181D01*
X271660Y51083D01*
X271673Y50803D01*
X271575Y50560D01*
X271527Y50511D01*
X271502Y50462D01*
X271393Y50328D01*
X271125Y50158D01*
X270735Y50134D01*
X270662Y50158D01*
X270541Y50182D01*
X270492Y50231D01*
X270443Y50255D01*
X270273Y50377D01*
X270212Y50438D01*
X270139Y50560D01*
X270090Y50682D01*
X270066Y50779D01*
X270042Y50949D01*
X270078Y51181D01*
X270103Y51278D01*
X270163Y51339D01*
X270188Y51387D01*
X270249Y51497D01*
X270297Y51521D01*
X270346Y51570D01*
X270395Y51594D01*
X270516Y51716D01*
X270553Y51728D01*
X270541Y51765D01*
X268958Y51789D01*
X268654Y51996D01*
X268581Y52069D01*
X268508Y52191D01*
X268459Y52312D01*
X268435Y52410D01*
X268411Y52629D01*
X268435Y52702D01*
X268459Y52897D01*
X268557Y52994D01*
X268630Y53116D01*
X268715Y53201D01*
X268764Y53225D01*
X268898Y53359D01*
X268885Y53396D01*
X266293Y53383D01*
X266305Y53347D01*
X266354Y53323D01*
X266415Y53237D01*
X266451Y53201D01*
X266524Y53176D01*
X266585Y53116D01*
X266609Y53067D01*
X266707Y52921D01*
X266780Y52751D01*
X266804Y52580D01*
X266780Y52385D01*
X266634Y52118D01*
X266585Y52069D01*
X266561Y52020D01*
X266476Y51935D01*
X266354Y51862D01*
X266305Y51813D01*
X266135Y51789D01*
X266038Y51765D01*
X265721Y51789D01*
X265599Y51862D01*
X265429Y51959D01*
X265368Y52045D01*
X265295Y52118D01*
X265222Y52239D01*
X265198Y52312D01*
X265173Y52410D01*
X265198Y52872D01*
X265319Y53043D01*
X265344Y53091D01*
X265453Y53201D01*
X265502Y53225D01*
X265636Y53359D01*
X265624Y53396D01*
X264090Y53420D01*
X263920Y53517D01*
X263786Y53602D01*
X263762Y53651D01*
X263664Y53748D01*
X263542Y54016D01*
X263567Y54503D01*
X263640Y54576D01*
X263737Y54746D01*
X263822Y54832D01*
X263932Y54893D01*
X263981Y54990D01*
X262715Y55014D01*
X262447Y55063D01*
X262325Y55112D01*
X262264Y55173D01*
X262143Y55245D01*
X262082Y55331D01*
X262033Y55379D01*
X261912Y55647D01*
X261936Y56110D01*
X262033Y56256D01*
X262058Y56304D01*
X262131Y56377D01*
X262155Y56426D01*
X262192Y56463D01*
X262313Y56536D01*
X262362Y56584D01*
X262508Y56609D01*
X262581Y56633D01*
X262678Y56657D01*
X264528Y56633D01*
X264601Y56609D01*
X264772Y56511D01*
X264942Y56390D01*
X265040Y56244D01*
X265076Y56207D01*
X265100Y56110D01*
X265149Y55988D01*
X265173Y55891D01*
X265149Y55623D01*
X265027Y55404D01*
X264979Y55355D01*
X264954Y55306D01*
X264893Y55221D01*
X264735Y55136D01*
X264760Y55039D01*
X268812Y55026D01*
X268849Y55063D01*
X268788Y55173D01*
X268666Y55245D01*
X268581Y55331D01*
X268508Y55452D01*
X268459Y55574D01*
X268435Y55672D01*
X268411Y55891D01*
X268435Y55964D01*
X268472Y56146D01*
X268557Y56256D01*
X268630Y56377D01*
X268715Y56463D01*
X268825Y56523D01*
X268849Y56621D01*
X265904Y56645D01*
X265611Y56718D01*
X265526Y56803D01*
X265405Y56876D01*
X265319Y56962D01*
X265222Y57132D01*
X265173Y57254D01*
X265198Y57765D01*
X265271Y57838D01*
X265368Y58008D01*
X265453Y58094D01*
X265575Y58166D01*
X265745Y58264D01*
X265758Y58300D01*
X265721Y58337D01*
X265587Y58373D01*
X265551Y58410D01*
X265502Y58434D01*
X265368Y58544D01*
X265319Y58593D01*
X265222Y58763D01*
X265173Y58885D01*
X265198Y59396D01*
X265271Y59469D01*
X265368Y59639D01*
X265453Y59724D01*
X265575Y59797D01*
X265745Y59870D01*
X265916Y59895D01*
X266257Y59870D01*
D02*
G37*
G36*
X248268Y56609D02*
X248426Y56572D01*
X248512Y56487D01*
X248560Y56463D01*
X248718Y56304D01*
X248743Y56256D01*
X248791Y56207D01*
X248840Y56037D01*
X248864Y55866D01*
X248840Y55574D01*
X248767Y55452D01*
X248645Y55282D01*
X248536Y55173D01*
X248487Y55148D01*
X248438Y55100D01*
X248268Y55051D01*
X248098Y55026D01*
X247806Y55051D01*
X247733Y55075D01*
X247684Y55100D01*
X247611Y55173D01*
X247562Y55197D01*
X247453Y55282D01*
X247428Y55331D01*
X247319Y55465D01*
X247294Y55562D01*
X247234Y55769D01*
Y55866D01*
Y55891D01*
X247307Y56158D01*
X247331Y56207D01*
X247404Y56280D01*
X247477Y56402D01*
X247538Y56463D01*
X247659Y56536D01*
X247708Y56584D01*
X247866Y56621D01*
X247964Y56645D01*
X248146Y56657D01*
X248268Y56609D01*
D02*
G37*
G36*
X231984D02*
X232057Y56584D01*
X232081D01*
X232203Y56511D01*
X232361Y56402D01*
X232385Y56353D01*
X232458Y56280D01*
X232580Y56012D01*
X232556Y55574D01*
X232482Y55452D01*
X232458Y55404D01*
X232349Y55270D01*
X232300Y55197D01*
X232129Y55100D01*
X232008Y55051D01*
X231837Y55026D01*
X231521Y55051D01*
X231351Y55148D01*
X231180Y55270D01*
X231119Y55355D01*
X231071Y55404D01*
X230973Y55623D01*
X230949Y55720D01*
X230973Y56061D01*
X231095Y56280D01*
X231168Y56353D01*
X231192Y56402D01*
X231253Y56463D01*
X231375Y56536D01*
X231424Y56584D01*
X231582Y56621D01*
X231679Y56645D01*
X231862Y56657D01*
X231984Y56609D01*
D02*
G37*
G36*
X243327Y58264D02*
X243400Y58240D01*
X243534Y58203D01*
X243619Y58118D01*
X243668Y58094D01*
X243777Y58008D01*
X243801Y57960D01*
X243923Y57789D01*
X243996Y57522D01*
X243972Y57278D01*
X243923Y57156D01*
X243850Y57035D01*
X243728Y56864D01*
X243594Y56779D01*
X243558Y56743D01*
X243570Y56657D01*
X244982Y56633D01*
X245055Y56609D01*
X245177Y56560D01*
X245250Y56487D01*
X245298Y56463D01*
X245408Y56377D01*
X245432Y56329D01*
X245554Y56158D01*
X245590Y56000D01*
X245615Y55903D01*
X245627Y55769D01*
X245603Y55696D01*
X245578Y55599D01*
X245518Y55440D01*
X245457Y55379D01*
X245432Y55331D01*
X245396Y55270D01*
X245359Y55258D01*
X245347Y55221D01*
X245298Y55197D01*
X245128Y55075D01*
X244970Y55039D01*
X244824Y55014D01*
X244033Y55002D01*
X243960Y55026D01*
X243862Y55002D01*
X243010Y55026D01*
X242937Y55051D01*
X242779Y55112D01*
X242718Y55173D01*
X242670Y55197D01*
X242511Y55355D01*
X242487Y55404D01*
X242438Y55452D01*
X242390Y55574D01*
X242365Y55891D01*
X242402Y56122D01*
X242487Y56256D01*
X242596Y56414D01*
X242645Y56438D01*
X242779Y56548D01*
X242767Y56633D01*
X240296Y56621D01*
X240320Y56523D01*
X240357Y56487D01*
X240479Y56414D01*
X240540Y56353D01*
X240564Y56304D01*
X240613Y56256D01*
X240661Y56134D01*
X240734Y55964D01*
X240710Y55623D01*
X240588Y55404D01*
X240430Y55197D01*
X240308Y55124D01*
X240138Y55051D01*
X239968Y55026D01*
X239651Y55051D01*
X239481Y55148D01*
X239347Y55258D01*
X239249Y55355D01*
X239177Y55477D01*
X239128Y55599D01*
X239103Y55842D01*
X239140Y56122D01*
X239322Y56377D01*
X239408Y56463D01*
X239456Y56487D01*
X239517Y56548D01*
X239505Y56633D01*
X238118Y56657D01*
X238045Y56682D01*
X237886Y56743D01*
X237826Y56803D01*
X237777Y56828D01*
X237619Y56986D01*
X237558Y57095D01*
X237546Y57108D01*
X237497Y57229D01*
X237472Y57473D01*
X237509Y57753D01*
X237692Y58008D01*
X237801Y58118D01*
X237923Y58191D01*
X238045Y58240D01*
X238215Y58264D01*
X238312Y58288D01*
X243327Y58264D01*
D02*
G37*
G36*
X282517Y58240D02*
X282687Y58142D01*
X282821Y58057D01*
X282845Y58008D01*
X282943Y57911D01*
X283064Y57643D01*
X283040Y57181D01*
X282943Y57035D01*
X282918Y56986D01*
X282845Y56913D01*
X282821Y56864D01*
X282785Y56828D01*
X282663Y56755D01*
X282541Y56706D01*
X282493Y56682D01*
X282456Y56645D01*
X282493Y56609D01*
X282651Y56548D01*
X282712Y56487D01*
X282833Y56414D01*
X282894Y56329D01*
X282943Y56280D01*
X283064Y56012D01*
X283040Y55550D01*
X282943Y55404D01*
X282918Y55355D01*
X282821Y55258D01*
X282797Y55209D01*
X282602Y55087D01*
X282480Y55039D01*
X282456Y55014D01*
X282517Y54953D01*
X282638Y54929D01*
X282712Y54856D01*
X282833Y54783D01*
X282894Y54698D01*
X282943Y54649D01*
X283064Y54381D01*
X283040Y53919D01*
X282992Y53870D01*
X282894Y53700D01*
X282821Y53627D01*
X282797Y53578D01*
X282602Y53456D01*
X282468Y53420D01*
X282298Y53396D01*
X280375Y53420D01*
X280253Y53493D01*
X280046Y53627D01*
X280022Y53675D01*
X279912Y53809D01*
X279863Y53931D01*
X279827Y54041D01*
X279803Y54138D01*
X279827Y54406D01*
X279973Y54674D01*
X280022Y54722D01*
X280046Y54771D01*
X280107Y54832D01*
X280229Y54905D01*
X280277Y54953D01*
X280423Y54978D01*
X280545Y55026D01*
X281860Y55051D01*
X281872Y55112D01*
X281835Y55173D01*
X281665Y55270D01*
X281604Y55355D01*
X281531Y55477D01*
X281458Y55647D01*
X281434Y55745D01*
X281458Y56061D01*
X281507Y56110D01*
X281567Y56268D01*
X281653Y56353D01*
X281677Y56402D01*
X281738Y56463D01*
X281860Y56536D01*
X282042Y56621D01*
X282030Y56682D01*
X281872Y56743D01*
X281811Y56803D01*
X281689Y56876D01*
X281653Y56913D01*
X281628Y56962D01*
X281555Y57035D01*
X281494Y57193D01*
X281458Y57229D01*
X281434Y57473D01*
X281458Y57692D01*
X281507Y57741D01*
X281567Y57899D01*
X281653Y57984D01*
X281677Y58033D01*
X281726Y58081D01*
X281738Y58094D01*
X281860Y58166D01*
X281908Y58215D01*
X282200Y58264D01*
X282517Y58240D01*
D02*
G37*
G36*
X272683Y55002D02*
X272805Y54953D01*
X272926Y54880D01*
X272975Y54832D01*
X273023Y54807D01*
X273133Y54698D01*
X273170Y54613D01*
X273206Y54601D01*
X273255Y54479D01*
X273291Y54321D01*
X273304Y54089D01*
X273255Y53968D01*
X273230Y53846D01*
X273157Y53773D01*
X273133Y53724D01*
X273023Y53590D01*
X272853Y53469D01*
X272780Y53444D01*
X272683Y53420D01*
X272512Y53396D01*
X272220Y53420D01*
X272196Y53444D01*
X272172D01*
X272123Y53469D01*
X272050Y53542D01*
X271928Y53615D01*
X271843Y53700D01*
X271770Y53822D01*
X271721Y53943D01*
X271673Y54138D01*
X271697Y54430D01*
X271721Y54503D01*
X271746Y54552D01*
X271916Y54771D01*
X271977Y54832D01*
X272026Y54856D01*
X272099Y54929D01*
X272342Y55002D01*
X272439Y55026D01*
X272683Y55002D01*
D02*
G37*
G36*
X241720D02*
X241793Y54978D01*
X241915Y54929D01*
X241988Y54856D01*
X242110Y54783D01*
X242171Y54722D01*
X242243Y54601D01*
X242292Y54552D01*
X242316Y54430D01*
X242365Y54308D01*
X242341Y54016D01*
X242292Y53895D01*
X242219Y53773D01*
X242085Y53590D01*
X242037Y53566D01*
X241866Y53444D01*
X241574Y53396D01*
X241282Y53420D01*
X241160Y53493D01*
X241112Y53517D01*
X241099Y53529D01*
X240953Y53651D01*
X240880Y53724D01*
X240807Y53846D01*
X240759Y53968D01*
X240734Y54211D01*
X240771Y54491D01*
X240868Y54637D01*
X240929Y54722D01*
X240978Y54771D01*
X240990Y54807D01*
X241039Y54832D01*
X241209Y54953D01*
X241477Y55026D01*
X241720Y55002D01*
D02*
G37*
G36*
X262922Y53371D02*
X263043Y53323D01*
X263092Y53298D01*
X263141Y53250D01*
X263190Y53225D01*
X263299Y53164D01*
X263372Y53043D01*
X263421Y52994D01*
Y52970D01*
X263518Y52751D01*
X263542Y52653D01*
X263518Y52361D01*
X263396Y52142D01*
X263348Y52093D01*
X263323Y52045D01*
X263165Y51959D01*
X262192Y51984D01*
X262143Y52032D01*
X262094Y52057D01*
X262033Y52118D01*
X261912Y52385D01*
X261936Y52872D01*
X262009Y52945D01*
X262106Y53116D01*
X262192Y53201D01*
X262240Y53225D01*
X262289Y53274D01*
X262337Y53298D01*
X262459Y53347D01*
X262630Y53396D01*
X262922Y53371D01*
D02*
G37*
G36*
X275750Y51765D02*
X275847D01*
X275944Y51740D01*
X276066Y51692D01*
X276188Y51619D01*
X276237Y51570D01*
X276285Y51546D01*
X276395Y51436D01*
X276468Y51314D01*
X276517Y51193D01*
X276541Y51095D01*
X276565Y50901D01*
X276541Y50827D01*
X276504Y50621D01*
X276468Y50584D01*
X276444Y50535D01*
X276395Y50487D01*
X276358Y50402D01*
X276310Y50377D01*
X276273Y50341D01*
X276261Y50304D01*
X276091Y50207D01*
X275969Y50158D01*
X275725Y50134D01*
X273851Y50158D01*
X273547Y50365D01*
X273474Y50438D01*
X273401Y50560D01*
X273352Y50682D01*
X273304Y50852D01*
X273328Y51168D01*
X273352Y51241D01*
X273425Y51363D01*
X273474Y51412D01*
X273547Y51533D01*
X273693Y51631D01*
X273729Y51667D01*
X273888Y51728D01*
X274022Y51765D01*
X274411Y51789D01*
X275056Y51777D01*
X275677Y51789D01*
X275750Y51765D01*
D02*
G37*
G36*
X275896Y58264D02*
X275969Y58240D01*
X276103Y58203D01*
X276188Y58118D01*
X276310Y58045D01*
X276395Y57960D01*
X276468Y57838D01*
X276517Y57716D01*
X276565Y57424D01*
X276541Y57327D01*
X276492Y57108D01*
X276419Y57035D01*
X276346Y56913D01*
X276261Y56828D01*
X276139Y56755D01*
X275957Y56670D01*
X275969Y56609D01*
X276127Y56548D01*
X276164Y56511D01*
X276212Y56487D01*
X276346Y56377D01*
X276395Y56329D01*
X276468Y56207D01*
X276517Y56085D01*
X276565Y55793D01*
X276541Y55696D01*
X276492Y55477D01*
X276419Y55404D01*
X276346Y55282D01*
X276285Y55221D01*
X276164Y55148D01*
X276127Y55063D01*
X276164Y55026D01*
X277551Y55002D01*
X277624Y54978D01*
X277746Y54929D01*
X277794Y54880D01*
X277843Y54856D01*
X277977Y54746D01*
X278026Y54698D01*
X278099Y54576D01*
X278148Y54454D01*
X278172Y54357D01*
X278184Y54174D01*
X278135Y53882D01*
X278074Y53822D01*
X277989Y53663D01*
X277941Y53639D01*
X277892Y53566D01*
X277770Y53493D01*
X277600Y53396D01*
X277588Y53359D01*
X277624Y53323D01*
X277746Y53298D01*
X277965Y53128D01*
X278026Y53067D01*
X278099Y52945D01*
X278148Y52824D01*
X278172Y52726D01*
X278148Y52288D01*
X278026Y52118D01*
X277989Y52032D01*
X277941Y52008D01*
X277892Y51935D01*
X277722Y51838D01*
X277600Y51789D01*
X277356Y51765D01*
X277101Y51801D01*
X277016Y51838D01*
X276943Y51911D01*
X276821Y51984D01*
X276736Y52069D01*
X276711Y52118D01*
X276663Y52166D01*
X276614Y52288D01*
X276541Y52531D01*
X276565Y52751D01*
X276638Y52921D01*
X276663Y52970D01*
X276736Y53043D01*
X276809Y53164D01*
X276943Y53250D01*
X277003Y53335D01*
X277052Y53359D01*
X277040Y53396D01*
X275482Y53420D01*
X275360Y53493D01*
X275312Y53542D01*
X275190Y53615D01*
X275105Y53700D01*
X275080Y53748D01*
X275032Y53797D01*
X274983Y53919D01*
X274934Y54089D01*
X274910Y54187D01*
X274946Y54369D01*
X275032Y54601D01*
X275105Y54674D01*
X275178Y54795D01*
X275324Y54893D01*
X275360Y54929D01*
X275433Y54953D01*
X275458D01*
X275506Y54978D01*
X275543Y55014D01*
X275506Y55051D01*
X275287Y55173D01*
X275153Y55282D01*
X275105Y55331D01*
X275080Y55379D01*
X275032Y55428D01*
X274983Y55550D01*
X274934Y55720D01*
X274910Y55818D01*
X274946Y56000D01*
X275032Y56231D01*
X275105Y56304D01*
X275166Y56414D01*
X275214Y56438D01*
X275324Y56499D01*
X275373Y56596D01*
X275336Y56633D01*
X273948Y56657D01*
X273876Y56682D01*
X273717Y56743D01*
X273632Y56828D01*
X273583Y56852D01*
X273474Y56962D01*
X273449Y57010D01*
X273377Y57083D01*
X273340Y57217D01*
X273316Y57315D01*
X273304Y57594D01*
X273352Y57716D01*
X273389Y57850D01*
X273474Y57935D01*
X273498Y57984D01*
X273632Y58118D01*
X273754Y58191D01*
X273876Y58240D01*
X274046Y58264D01*
X274143Y58288D01*
X275896Y58264D01*
D02*
G37*
G36*
X249875Y53371D02*
X249996Y53323D01*
X250118Y53250D01*
X250276Y53140D01*
X250301Y53091D01*
X250349Y53043D01*
X250422Y52921D01*
X250471Y52799D01*
X250495Y52483D01*
X250471Y52385D01*
Y52337D01*
Y52312D01*
X250398Y52191D01*
X250276Y52020D01*
X250167Y51911D01*
X250045Y51838D01*
X249923Y51789D01*
X249607Y51765D01*
X246175Y51789D01*
X246053Y51862D01*
X245883Y51984D01*
X245773Y52093D01*
X245749Y52142D01*
X245700Y52191D01*
X245603Y52531D01*
X245627Y52751D01*
X245651Y52824D01*
X245700Y52945D01*
X245773Y53018D01*
X245846Y53140D01*
X245907Y53201D01*
X246029Y53274D01*
X246077Y53323D01*
X246345Y53396D01*
X249875Y53371D01*
D02*
G37*
G36*
X240114D02*
X240235Y53323D01*
X240284Y53298D01*
X240454Y53176D01*
X240503Y53152D01*
X240588Y53018D01*
X240637Y52970D01*
X240722Y52738D01*
X240734Y52434D01*
X240661Y52264D01*
X240588Y52142D01*
X240479Y51984D01*
X240430Y51959D01*
X240296Y51874D01*
X240308Y51789D01*
X240406Y51765D01*
X240613Y51777D01*
X240795Y51765D01*
X240868Y51789D01*
X241696Y51765D01*
X241866Y51692D01*
X241988Y51619D01*
X242037Y51570D01*
X242146Y51509D01*
X242219Y51387D01*
X242268Y51339D01*
X242365Y51022D01*
X242341Y50754D01*
X242292Y50633D01*
X242219Y50511D01*
X242171Y50462D01*
X242146Y50414D01*
X242012Y50280D01*
X241891Y50207D01*
X241769Y50158D01*
X241452Y50134D01*
X236998D01*
X236389Y50158D01*
X236219Y50280D01*
X236097Y50353D01*
X236012Y50438D01*
X235988Y50487D01*
X235915Y50608D01*
X235866Y50730D01*
X235842Y50901D01*
X235866Y51217D01*
X235988Y51387D01*
X236012Y51436D01*
X236085Y51509D01*
X236097Y51546D01*
X236146Y51570D01*
X236316Y51692D01*
X236414Y51716D01*
X236535Y51765D01*
X236998Y51789D01*
X237521Y51777D01*
X238945Y51789D01*
X239018Y51765D01*
X239298Y51777D01*
X239456Y51765D01*
X239542Y51825D01*
X239517Y51874D01*
X239481Y51911D01*
X239359Y51984D01*
X239249Y52093D01*
X239177Y52215D01*
X239128Y52337D01*
X239103Y52580D01*
X239140Y52860D01*
X239201Y52945D01*
X239359Y53176D01*
X239408Y53201D01*
X239578Y53323D01*
X239712Y53359D01*
X239821Y53396D01*
X240114Y53371D01*
D02*
G37*
G36*
X236828Y56633D02*
X236901Y56609D01*
X237022Y56560D01*
X237071Y56511D01*
X237120Y56487D01*
X237229Y56426D01*
X237253Y56377D01*
X237363Y56244D01*
X237412Y56122D01*
X237472Y55988D01*
X237448Y55599D01*
X237327Y55379D01*
X237278Y55331D01*
X237253Y55282D01*
X237168Y55197D01*
X237095Y55173D01*
X237034Y55112D01*
X237059Y55039D01*
X238398Y55014D01*
X238495Y54990D01*
X238653Y54929D01*
X238702Y54880D01*
X238750Y54856D01*
X238884Y54771D01*
X238957Y54649D01*
X239006Y54601D01*
X239030Y54503D01*
X239103Y54333D01*
X239079Y53992D01*
X239067Y53980D01*
X238957Y53748D01*
X238884Y53675D01*
X238860Y53627D01*
X238799Y53566D01*
X238677Y53493D01*
X238507Y53420D01*
X238264Y53396D01*
X235355Y53383D01*
X235379Y53335D01*
X235513Y53201D01*
X235623Y53140D01*
X235647Y53091D01*
X235696Y53043D01*
X235720Y52994D01*
X235842Y52726D01*
X235817Y52337D01*
X235696Y52118D01*
X235623Y52045D01*
X235598Y51996D01*
X235537Y51935D01*
X235416Y51862D01*
X235245Y51789D01*
X235002Y51765D01*
X234746Y51801D01*
X234600Y51898D01*
X234466Y51984D01*
X234430Y52020D01*
X234405Y52069D01*
X234333Y52142D01*
X234235Y52361D01*
X234211Y52458D01*
X234235Y52824D01*
X234357Y53018D01*
X234381Y53067D01*
X234515Y53201D01*
X234564Y53225D01*
X234698Y53359D01*
X234685Y53396D01*
X234113Y53383D01*
X233261Y53408D01*
X233140Y53432D01*
X233018Y53481D01*
X232957Y53542D01*
X232835Y53615D01*
X232799Y53651D01*
X232775Y53700D01*
X232702Y53773D01*
X232604Y53992D01*
X232580Y54089D01*
X232604Y54454D01*
X232702Y54601D01*
X232775Y54722D01*
X232823Y54771D01*
X232835Y54807D01*
X233079Y54953D01*
X233322Y55026D01*
X236243Y55051D01*
X236280Y55087D01*
X236219Y55173D01*
X236097Y55245D01*
X235988Y55355D01*
X235866Y55623D01*
X235842Y55793D01*
X235866Y56085D01*
X235988Y56280D01*
X236012Y56329D01*
X236170Y56487D01*
X236219Y56511D01*
X236268Y56560D01*
X236608Y56657D01*
X236828Y56633D01*
D02*
G37*
G36*
X231959Y53371D02*
X232081Y53323D01*
X232203Y53250D01*
X232361Y53140D01*
X232385Y53091D01*
X232458Y53018D01*
X232580Y52751D01*
X232556Y52312D01*
X232507Y52264D01*
X232385Y52045D01*
X232251Y51911D01*
X232178Y51886D01*
X232105Y51813D01*
X231935Y51789D01*
X231837Y51765D01*
X231497Y51789D01*
X231326Y51911D01*
X231205Y51984D01*
X231144Y52069D01*
X231071Y52142D01*
X231046Y52239D01*
X230998Y52288D01*
X230949Y52458D01*
X230973Y52824D01*
X231022Y52872D01*
X231144Y53091D01*
X231192Y53140D01*
X231205Y53176D01*
X231326Y53250D01*
X231375Y53298D01*
X231691Y53396D01*
X231837D01*
X231959Y53371D01*
D02*
G37*
G36*
X269275Y50134D02*
X269445Y50109D01*
X269713Y49963D01*
X269847Y49854D01*
X269920Y49732D01*
X269969Y49683D01*
X270042Y49416D01*
X270054Y49282D01*
X270030Y49160D01*
X269944Y48929D01*
X269896Y48880D01*
X269871Y48832D01*
X269762Y48698D01*
X269531Y48539D01*
X269482Y48491D01*
X269506Y48442D01*
X269689Y48357D01*
X269737Y48308D01*
X269786Y48284D01*
X269847Y48223D01*
X269871Y48174D01*
X269969Y48028D01*
X270030Y47870D01*
X270054Y47651D01*
X270030Y47529D01*
X269944Y47298D01*
X269896Y47249D01*
X269871Y47201D01*
X269786Y47091D01*
X269737Y47067D01*
X269689Y47018D01*
X269616Y46994D01*
X269579Y46957D01*
X269604Y46908D01*
X269713Y46872D01*
X269932Y46896D01*
X270005Y46872D01*
X270395Y46896D01*
X271052Y46872D01*
X271320Y46726D01*
X271393Y46653D01*
X271441Y46629D01*
X271502Y46568D01*
X271527Y46495D01*
X271600Y46422D01*
X271673Y46154D01*
X271648Y45862D01*
X271624Y45789D01*
X271575Y45667D01*
X271502Y45594D01*
X271441Y45484D01*
X271393Y45460D01*
X271320Y45387D01*
X271052Y45265D01*
X270882Y45241D01*
X269993Y45253D01*
X269129Y45241D01*
X269056Y45265D01*
X268934Y45290D01*
X268885Y45339D01*
X268715Y45436D01*
X268642Y45509D01*
X268605Y45521D01*
X268508Y45691D01*
X268435Y45862D01*
X268411Y46105D01*
X268435Y46178D01*
X268459Y46373D01*
X268533Y46446D01*
X268630Y46616D01*
X268666Y46653D01*
X268715Y46677D01*
X268788Y46750D01*
X268946Y46811D01*
X268971Y46860D01*
X268934Y46921D01*
X268885Y46945D01*
X268837Y46994D01*
X268715Y47067D01*
X268666Y47115D01*
X268618Y47140D01*
X268581Y47176D01*
X268557Y47249D01*
X268459Y47395D01*
X268435Y47566D01*
X268411Y47663D01*
X268472Y48016D01*
X268533Y48077D01*
X268557Y48126D01*
X268642Y48260D01*
X268691Y48284D01*
X268739Y48333D01*
X268776Y48345D01*
X268788Y48381D01*
X268837Y48405D01*
X268922Y48442D01*
X268910Y48503D01*
X265380Y48527D01*
X265344Y48564D01*
X265368Y50097D01*
X265405Y50134D01*
X265575Y50158D01*
X265648Y50134D01*
X265721Y50158D01*
X266877Y50146D01*
X267449Y50158D01*
X267474D01*
X268508Y50146D01*
X269202Y50158D01*
X269275Y50134D01*
D02*
G37*
G36*
X246588D02*
X246808Y50036D01*
X246856Y50012D01*
X246929Y49939D01*
X246978Y49915D01*
X247063Y49830D01*
X247136Y49708D01*
X247185Y49659D01*
X247234Y49367D01*
X247209Y49075D01*
X247185Y49002D01*
X247160Y48953D01*
X247112Y48905D01*
X247087Y48856D01*
X246978Y48722D01*
X246905Y48649D01*
X246637Y48527D01*
X246394Y48503D01*
X242913Y48527D01*
X242718Y48649D01*
X242670Y48673D01*
X242511Y48832D01*
Y48856D01*
X242499Y48868D01*
X242438Y48953D01*
X242390Y49075D01*
X242365Y49318D01*
X242390Y49586D01*
X242463Y49708D01*
X242511Y49756D01*
X242584Y49878D01*
X242645Y49939D01*
X242694Y49963D01*
X242767Y50036D01*
X242864Y50061D01*
X243035Y50134D01*
X243570Y50158D01*
X244093Y50146D01*
X245493Y50158D01*
X245566Y50134D01*
X246029Y50158D01*
X246588Y50134D01*
D02*
G37*
G36*
X241720Y48503D02*
X241988Y48357D01*
X242171Y48223D01*
X242243Y48101D01*
X242316Y47931D01*
X242365Y47761D01*
X242341Y47493D01*
X242292Y47371D01*
X242219Y47249D01*
X242171Y47201D01*
X242146Y47152D01*
X242012Y47018D01*
X241744Y46896D01*
X241501Y46872D01*
X239651Y46896D01*
X239481Y47018D01*
X239359Y47091D01*
X239274Y47176D01*
X239177Y47347D01*
X239128Y47468D01*
X239103Y47712D01*
X239140Y47967D01*
X239237Y48113D01*
X239322Y48247D01*
X239359Y48284D01*
X239408Y48308D01*
X239505Y48405D01*
X239602Y48430D01*
X239773Y48503D01*
X240235Y48527D01*
X240807Y48515D01*
X240966Y48527D01*
X240990D01*
X241720Y48503D01*
D02*
G37*
G36*
X283904Y51765D02*
X284099Y51740D01*
X284367Y51594D01*
X284476Y51509D01*
X284501Y51460D01*
X284574Y51387D01*
X284695Y51120D01*
X284671Y50682D01*
X284574Y50535D01*
X284501Y50414D01*
X284367Y50280D01*
X284294Y50255D01*
X284245Y50207D01*
X284123Y50158D01*
X283807Y50134D01*
X282578Y50122D01*
X282602Y50073D01*
X282687Y50012D01*
X282760Y49939D01*
X282809Y49915D01*
X282918Y49805D01*
X283016Y49635D01*
X283064Y49513D01*
X283040Y49026D01*
X282967Y48953D01*
X282870Y48783D01*
X282736Y48649D01*
X282565Y48552D01*
X282505Y48491D01*
X282529Y48442D01*
X282687Y48381D01*
X282760Y48308D01*
X282809Y48284D01*
X282918Y48174D01*
X283016Y48004D01*
X283064Y47882D01*
X283040Y47395D01*
X282967Y47322D01*
X282870Y47152D01*
X282760Y47042D01*
X282638Y46994D01*
X282602Y46957D01*
X282614Y46896D01*
X282785Y46872D01*
X282955Y46896D01*
X283150Y46872D01*
X283223Y46896D01*
X284099Y46872D01*
X284245Y46775D01*
X284318Y46750D01*
X284391Y46677D01*
X284440Y46653D01*
X284501Y46592D01*
X284525Y46543D01*
X284574Y46495D01*
X284647Y46373D01*
X284695Y46251D01*
X284671Y45789D01*
X284622Y45740D01*
X284525Y45570D01*
X284342Y45387D01*
X284221Y45314D01*
X284099Y45265D01*
X283856Y45241D01*
X282675Y45253D01*
X282578Y45229D01*
X282602Y45156D01*
X282736Y45071D01*
X282870Y44961D01*
X282918Y44913D01*
X283016Y44742D01*
X283064Y44620D01*
X283040Y44134D01*
X282967Y44061D01*
X282894Y43939D01*
X282833Y43854D01*
X282785Y43829D01*
X282687Y43732D01*
X282590Y43708D01*
X282553Y43671D01*
X282578Y43549D01*
X282614Y43513D01*
X282687Y43488D01*
X282821Y43379D01*
X282918Y43282D01*
X283016Y43111D01*
X283064Y42990D01*
X283040Y42503D01*
X282967Y42430D01*
X282894Y42308D01*
X282687Y42101D01*
X282590Y42077D01*
X282553Y42040D01*
X282541Y41979D01*
X282602Y41894D01*
X282724Y41845D01*
X282918Y41651D01*
X283016Y41480D01*
X283064Y41359D01*
X283040Y40896D01*
X282943Y40750D01*
X282918Y40701D01*
X282712Y40494D01*
X282541Y40397D01*
X282529Y40361D01*
X282590Y40275D01*
X282760Y40178D01*
X282943Y39996D01*
X283064Y39728D01*
X283040Y39265D01*
X282943Y39119D01*
X282918Y39070D01*
X282760Y38912D01*
X282712Y38888D01*
X282663Y38839D01*
X282541Y38791D01*
X282529Y38730D01*
X282638Y38620D01*
X282760Y38547D01*
X282943Y38365D01*
X283064Y38097D01*
X283040Y37634D01*
X282943Y37488D01*
X282918Y37440D01*
X282760Y37281D01*
X282712Y37257D01*
X282663Y37208D01*
X282505Y37148D01*
X282529Y37099D01*
X282638Y36989D01*
X282809Y36892D01*
X282870Y36807D01*
X282943Y36734D01*
X283064Y36466D01*
X283040Y36003D01*
X282918Y35833D01*
X282894Y35784D01*
X282760Y35650D01*
X282712Y35626D01*
X282663Y35577D01*
X282565Y35553D01*
X282517Y35529D01*
X282480Y35492D01*
X282541Y35431D01*
X282590Y35407D01*
X282736Y35310D01*
X282785Y35285D01*
X282918Y35152D01*
X283064Y34835D01*
X283040Y34372D01*
X282992Y34324D01*
X282967Y34275D01*
X282845Y34105D01*
X282785Y34044D01*
X282736Y34020D01*
X282651Y33934D01*
X282638Y33922D01*
X282578Y33886D01*
X282602Y33837D01*
X282687Y33825D01*
X282760Y33849D01*
X284099Y33825D01*
X284172Y33800D01*
X284294Y33728D01*
X284464Y33606D01*
X284598Y33423D01*
X284695Y33204D01*
X284671Y32742D01*
X284598Y32669D01*
X284501Y32498D01*
X284391Y32389D01*
X284342Y32364D01*
X284294Y32316D01*
X284172Y32267D01*
X284075Y32243D01*
X284002Y32218D01*
X283758Y32194D01*
X282651Y32182D01*
X282675Y32084D01*
X282712Y32048D01*
X282833Y31975D01*
X282918Y31890D01*
X283016Y31719D01*
X283064Y31598D01*
X283040Y31111D01*
X282992Y31062D01*
X282967Y31013D01*
X282845Y30843D01*
X282760Y30758D01*
X282712Y30733D01*
X282565Y30636D01*
X282419Y30612D01*
X282346Y30587D01*
X282054Y30612D01*
X281981Y30636D01*
X281811Y30733D01*
X281677Y30819D01*
X281653Y30867D01*
X281531Y31038D01*
X281458Y31208D01*
X281434Y31305D01*
X281458Y31622D01*
X281580Y31841D01*
X281653Y31914D01*
X281677Y31963D01*
X281714Y32024D01*
X281884Y32121D01*
X282042Y32206D01*
X282018Y32255D01*
X281981Y32291D01*
X281860Y32316D01*
X281786Y32389D01*
X281665Y32462D01*
X281567Y32608D01*
X281434Y32912D01*
X281458Y33253D01*
X281580Y33472D01*
X281653Y33545D01*
X281677Y33594D01*
X281762Y33679D01*
X281884Y33752D01*
X282042Y33861D01*
X281981Y33922D01*
X281860Y33947D01*
X281786Y34020D01*
X281665Y34093D01*
X281604Y34178D01*
X281531Y34299D01*
X281458Y34470D01*
X281434Y34567D01*
X281458Y34884D01*
X281604Y35127D01*
X281653Y35176D01*
X281677Y35224D01*
X281738Y35285D01*
X281896Y35371D01*
X281872Y35444D01*
X280509Y35468D01*
X280265Y35565D01*
X280180Y35626D01*
X280022Y35736D01*
X279949Y35857D01*
X279803Y36174D01*
X279827Y36490D01*
X279973Y36758D01*
X280022Y36807D01*
X280046Y36855D01*
X280107Y36916D01*
X280156Y36941D01*
X280350Y37062D01*
X280448Y37087D01*
X281056Y37111D01*
X281580Y37099D01*
X281738Y37111D01*
X281811Y37087D01*
X281933Y37111D01*
X281945Y37148D01*
X281908Y37184D01*
X281786Y37257D01*
X281738Y37306D01*
X281689Y37330D01*
X281653Y37367D01*
X281628Y37415D01*
X281555Y37488D01*
X281434Y37805D01*
X281458Y38145D01*
X281604Y38389D01*
X281653Y38438D01*
X281677Y38486D01*
X281738Y38547D01*
X281786Y38572D01*
X281957Y38693D01*
X281993Y38730D01*
X281969Y38803D01*
X281811Y38864D01*
X281738Y38937D01*
X281689Y38961D01*
X281653Y38997D01*
X281628Y39046D01*
X281555Y39119D01*
X281494Y39277D01*
X281458Y39314D01*
X281434Y39557D01*
X281458Y39776D01*
X281507Y39825D01*
X281567Y39983D01*
X281653Y40068D01*
X281677Y40117D01*
X281762Y40178D01*
X281811Y40227D01*
X281933Y40300D01*
X281969Y40336D01*
X281981Y40397D01*
X281933Y40446D01*
X281811Y40494D01*
X281738Y40567D01*
X281689Y40592D01*
X281653Y40628D01*
X281628Y40677D01*
X281555Y40750D01*
X281458Y40969D01*
X281434Y41139D01*
X281458Y41407D01*
X281507Y41456D01*
X281567Y41614D01*
X281653Y41699D01*
X281677Y41748D01*
X281762Y41809D01*
X281811Y41858D01*
X281945Y41919D01*
X281969Y42016D01*
X281957Y42052D01*
X281786Y42150D01*
X281738Y42198D01*
X281689Y42223D01*
X281653Y42259D01*
X281628Y42308D01*
X281555Y42381D01*
X281458Y42600D01*
X281434Y42770D01*
X281458Y43014D01*
X281604Y43282D01*
X281653Y43330D01*
X281677Y43379D01*
X281762Y43440D01*
X281933Y43537D01*
X281945Y43574D01*
X281908Y43610D01*
X280375Y43635D01*
X280229Y43732D01*
X280180Y43756D01*
X280107Y43829D01*
X280058Y43854D01*
X280022Y43890D01*
X279997Y43939D01*
X279924Y44012D01*
X279827Y44255D01*
X279803Y44353D01*
X279827Y44645D01*
X279949Y44864D01*
X279997Y44913D01*
X280058Y45022D01*
X280107Y45046D01*
X280180Y45119D01*
X280448Y45241D01*
X280910Y45265D01*
X281555Y45253D01*
X281689Y45265D01*
X281762Y45241D01*
X281908Y45265D01*
X281920Y45326D01*
X281884Y45363D01*
X281714Y45460D01*
X281653Y45521D01*
X281628Y45570D01*
X281555Y45643D01*
X281458Y45862D01*
X281434Y45959D01*
X281458Y46276D01*
X281604Y46543D01*
X281653Y46592D01*
X281677Y46641D01*
X281762Y46702D01*
X281811Y46750D01*
X281945Y46811D01*
X281933Y46872D01*
X281823Y46884D01*
X280521Y46872D01*
X280448Y46896D01*
X280326Y46921D01*
X280277Y46969D01*
X280107Y47067D01*
X280022Y47152D01*
X279997Y47201D01*
X279924Y47274D01*
X279876Y47395D01*
X279851Y47444D01*
X279827Y47517D01*
X279803Y47614D01*
X279827Y47906D01*
X279876Y47955D01*
X279900Y48053D01*
X280022Y48223D01*
X280046Y48272D01*
X280180Y48357D01*
X280229Y48405D01*
X280387Y48466D01*
X280496Y48503D01*
X280886Y48527D01*
X281555Y48515D01*
X281665Y48527D01*
X281738Y48503D01*
X281884Y48527D01*
X281896Y48612D01*
X281701Y48734D01*
X281628Y48807D01*
X281604Y48856D01*
X281555Y48905D01*
X281458Y49124D01*
X281434Y49221D01*
X281458Y49537D01*
X281580Y49756D01*
X281628Y49805D01*
X281689Y49915D01*
X281811Y49988D01*
X281860Y50036D01*
X281993Y50073D01*
X282018Y50122D01*
X281957Y50182D01*
X281908Y50207D01*
X281860Y50255D01*
X281738Y50328D01*
X281628Y50438D01*
X281604Y50487D01*
X281555Y50535D01*
X281458Y50754D01*
X281434Y50852D01*
X281458Y51168D01*
X281580Y51387D01*
X281628Y51436D01*
X281653Y51485D01*
X281689Y51546D01*
X281811Y51619D01*
X281860Y51667D01*
X282091Y51753D01*
X282285Y51777D01*
X283831Y51789D01*
X283904Y51765D01*
D02*
G37*
G36*
X279231Y50109D02*
X279450Y49988D01*
X279498Y49939D01*
X279547Y49915D01*
X279657Y49805D01*
X279730Y49683D01*
X279754Y49635D01*
X279766Y49623D01*
X279790Y49525D01*
X279803Y49124D01*
X279778Y49051D01*
X279705Y48929D01*
X279584Y48759D01*
X279474Y48649D01*
X279206Y48527D01*
X278963Y48503D01*
X278732Y48539D01*
X278537Y48661D01*
X278452Y48722D01*
X278391Y48783D01*
X278367Y48832D01*
X278293Y48905D01*
X278196Y49148D01*
X278172Y49318D01*
X278196Y49513D01*
X278342Y49781D01*
X278427Y49915D01*
X278549Y49988D01*
X278598Y50036D01*
X278695Y50061D01*
X278866Y50134D01*
X279231Y50109D01*
D02*
G37*
G36*
X249899D02*
X250167Y49963D01*
X250252Y49878D01*
X250301Y49756D01*
X250276Y48807D01*
X250191Y48673D01*
X250069Y48625D01*
X250033Y48588D01*
X250057Y48539D01*
X250191Y48503D01*
X250288Y48478D01*
X250301Y46933D01*
X250264Y46896D01*
X250167Y46872D01*
X247806Y46896D01*
X247611Y47018D01*
X247562Y47042D01*
X247428Y47176D01*
X247404Y47225D01*
X247331Y47298D01*
X247234Y47614D01*
X247258Y47882D01*
X247307Y48004D01*
X247380Y48126D01*
X247489Y48284D01*
X247538Y48308D01*
X247708Y48430D01*
X247806Y48454D01*
X247927Y48503D01*
X248244Y48527D01*
X248986Y48515D01*
X249096Y48527D01*
X249169Y48503D01*
X249315Y48527D01*
X249327Y48612D01*
X249132Y48734D01*
X249083Y48759D01*
X249059Y48807D01*
X248937Y48977D01*
X248901Y49111D01*
X248864Y49221D01*
X248889Y49513D01*
X248913Y49537D01*
Y49562D01*
X248974Y49720D01*
X249059Y49805D01*
X249083Y49878D01*
X249120Y49915D01*
X249242Y49988D01*
X249290Y50036D01*
X249449Y50097D01*
X249558Y50134D01*
X249899Y50109D01*
D02*
G37*
G36*
X235245D02*
X235513Y49963D01*
X235623Y49878D01*
X235647Y49830D01*
X235720Y49756D01*
X235842Y49489D01*
X235817Y49075D01*
X235696Y48856D01*
X235598Y48759D01*
X235574Y48710D01*
X235367Y48576D01*
X235245Y48527D01*
X234929Y48503D01*
X234904Y48527D01*
X234880D01*
X234710Y48552D01*
X234637Y48625D01*
X234478Y48710D01*
X234454Y48759D01*
X234357Y48856D01*
X234259Y49026D01*
X234235Y49099D01*
X234211Y49197D01*
X234235Y49586D01*
X234284Y49635D01*
X234308Y49683D01*
X234430Y49854D01*
X234466Y49915D01*
X234515Y49939D01*
X234685Y50061D01*
X234783Y50085D01*
X234904Y50134D01*
X235245Y50109D01*
D02*
G37*
G36*
X231984D02*
X232251Y49963D01*
X232385Y49854D01*
X232409Y49805D01*
X232458Y49756D01*
X232580Y49489D01*
X232556Y49051D01*
X232507Y49002D01*
X232409Y48832D01*
X232361Y48783D01*
X232336Y48734D01*
X232276Y48673D01*
X232105Y48576D01*
X231984Y48527D01*
X231740Y48503D01*
X231448Y48552D01*
X231375Y48625D01*
X231253Y48698D01*
X231168Y48783D01*
X231156Y48795D01*
X231095Y48856D01*
X230949Y49172D01*
X230973Y49562D01*
X231071Y49708D01*
X231144Y49830D01*
X231192Y49878D01*
X231205Y49915D01*
X231253Y49939D01*
X231424Y50061D01*
X231521Y50085D01*
X231643Y50134D01*
X231984Y50109D01*
D02*
G37*
G36*
X236901Y48478D02*
X237120Y48357D01*
X237168Y48308D01*
X237217Y48284D01*
X237278Y48223D01*
X237302Y48174D01*
X237351Y48126D01*
X237400Y48004D01*
X237424Y47955D01*
X237472Y47833D01*
X237448Y47444D01*
X237400Y47395D01*
X237375Y47298D01*
X237302Y47225D01*
X237278Y47176D01*
X237120Y47018D01*
X236998Y46945D01*
X236876Y46896D01*
X236560Y46872D01*
X236511Y46896D01*
X236487D01*
X236341Y46921D01*
X236268Y46994D01*
X236146Y47067D01*
X235988Y47225D01*
X235890Y47395D01*
X235866Y47468D01*
X235842Y47639D01*
X235866Y47955D01*
X235963Y48101D01*
X235988Y48150D01*
X236061Y48223D01*
X236085Y48272D01*
X236170Y48333D01*
X236219Y48381D01*
X236487Y48503D01*
X236901Y48478D01*
D02*
G37*
G36*
X250240Y45241D02*
X250288Y45217D01*
X250313Y42101D01*
X250325Y42089D01*
X250264Y42004D01*
X250167Y41979D01*
X249461Y42004D01*
X249193Y42150D01*
X249059Y42284D01*
X249035Y42332D01*
X248986Y42381D01*
X248962Y42430D01*
X248913Y42551D01*
X248864Y42722D01*
X248889Y43014D01*
X249011Y43233D01*
X249132Y43403D01*
X249217Y43464D01*
X249376Y43549D01*
X249351Y43598D01*
X248913Y43622D01*
X248852Y43635D01*
X248779Y43610D01*
X247806Y43635D01*
X247659Y43732D01*
X247538Y43805D01*
X247428Y43914D01*
X247404Y43963D01*
X247367Y44000D01*
X247355Y44012D01*
X247331Y44061D01*
X247282Y44182D01*
X247246Y44316D01*
X247234Y44547D01*
X247282Y44669D01*
X247343Y44827D01*
X247404Y44888D01*
X247477Y45010D01*
X247562Y45071D01*
X247611Y45119D01*
X247879Y45241D01*
X248341Y45265D01*
X248986Y45253D01*
X250167Y45265D01*
X250240Y45241D01*
D02*
G37*
G36*
X272707Y50109D02*
X272926Y49988D01*
X273109Y49854D01*
X273182Y49732D01*
X273230Y49683D01*
X273255Y49586D01*
X273291Y49428D01*
X273304Y49197D01*
X273255Y49075D01*
X273218Y48941D01*
X273133Y48856D01*
X273060Y48734D01*
X272975Y48673D01*
X272853Y48600D01*
X272841Y48564D01*
X272878Y48527D01*
X272975Y48503D01*
X273194Y48527D01*
X273267Y48503D01*
X273656Y48527D01*
X274289Y48503D01*
X274557Y48357D01*
X274740Y48223D01*
X274886Y47979D01*
X274922Y47773D01*
X274934Y47614D01*
X274910Y47541D01*
X274874Y47383D01*
X274788Y47249D01*
X274679Y47091D01*
X274630Y47067D01*
X274460Y46969D01*
X274447Y46957D01*
X274484Y46896D01*
X274654Y46872D01*
X274752Y46896D01*
X274995Y46872D01*
X275093Y46896D01*
X276663Y46884D01*
X276796Y46896D01*
X276870Y46872D01*
X276991Y46896D01*
X277028Y46933D01*
X277003Y46982D01*
X276967Y47018D01*
X276894Y47042D01*
X276760Y47152D01*
X276736Y47201D01*
X276663Y47274D01*
X276614Y47395D01*
X276541Y47639D01*
X276565Y47858D01*
X276614Y47979D01*
X276711Y48150D01*
X276796Y48284D01*
X276918Y48357D01*
X276967Y48405D01*
X277064Y48430D01*
X277235Y48503D01*
X277600Y48478D01*
X277819Y48357D01*
X277868Y48308D01*
X277916Y48284D01*
X278026Y48174D01*
X278099Y48053D01*
X278148Y47931D01*
X278172Y47833D01*
X278148Y47395D01*
X278026Y47225D01*
X277989Y47140D01*
X277941Y47115D01*
X277868Y47042D01*
X277709Y46957D01*
X277734Y46908D01*
X277819Y46872D01*
X277843D01*
X278087Y46896D01*
X278160Y46872D01*
X278622Y46896D01*
X279206Y46872D01*
X279450Y46726D01*
X279498Y46677D01*
X279547Y46653D01*
X279657Y46543D01*
X279730Y46422D01*
X279803Y46251D01*
X279778Y45764D01*
X279705Y45691D01*
X279608Y45521D01*
X279498Y45412D01*
X279450Y45387D01*
X279255Y45265D01*
X278866Y45241D01*
X278196Y45253D01*
X277685Y45229D01*
X277709Y45156D01*
X277794Y45119D01*
X277928Y45010D01*
X278001Y44961D01*
X278099Y44791D01*
X278148Y44742D01*
X278172Y44499D01*
X278148Y44134D01*
X278026Y43963D01*
X278001Y43914D01*
X277868Y43781D01*
X277819Y43756D01*
X277649Y43659D01*
X277575Y43635D01*
X277405Y43610D01*
X277113Y43635D01*
X277064Y43683D01*
X277016Y43708D01*
X276894Y43781D01*
X276845Y43829D01*
X276796Y43854D01*
X276760Y43890D01*
X276736Y43939D01*
X276638Y44085D01*
X276577Y44243D01*
X276541Y44377D01*
X276565Y44596D01*
X276614Y44718D01*
X276711Y44888D01*
X276796Y45022D01*
X276845Y45046D01*
X276894Y45095D01*
X277064Y45192D01*
X277076Y45205D01*
X277040Y45241D01*
X276541Y45253D01*
X274995Y45241D01*
X274922Y45265D01*
X274825Y45241D01*
X274435Y45217D01*
X274423Y45180D01*
X274618Y45058D01*
X274654Y45022D01*
X274703Y44998D01*
X274764Y44937D01*
X274788Y44864D01*
X274861Y44791D01*
X274886Y44693D01*
X274934Y44401D01*
X274874Y44121D01*
X274764Y43963D01*
X274703Y43854D01*
X274654Y43829D01*
X274581Y43756D01*
X274314Y43635D01*
X274143Y43610D01*
X273876Y43635D01*
X273729Y43732D01*
X273608Y43805D01*
X273559Y43854D01*
X273510Y43878D01*
X273413Y44024D01*
X273377Y44061D01*
X273352Y44158D01*
X273304Y44328D01*
X273328Y44645D01*
X273352Y44718D01*
X273425Y44840D01*
X273547Y45010D01*
X273583Y45046D01*
X273632Y45071D01*
X273681Y45119D01*
X273839Y45205D01*
X273815Y45278D01*
X273729Y45363D01*
X273656Y45387D01*
X273559Y45484D01*
X273510Y45509D01*
X273413Y45655D01*
X273377Y45691D01*
X273352Y45789D01*
X273304Y45959D01*
X273328Y46276D01*
X273352Y46349D01*
X273425Y46470D01*
X273547Y46641D01*
X273583Y46677D01*
X273632Y46702D01*
X273681Y46750D01*
X273815Y46811D01*
X273790Y46860D01*
X273328Y46884D01*
X273316Y46896D01*
X273243Y46872D01*
X272220Y46896D01*
X272050Y47018D01*
X272001Y47042D01*
X271928Y47115D01*
X271880Y47140D01*
X271843Y47176D01*
X271770Y47298D01*
X271721Y47420D01*
X271673Y47614D01*
X271697Y47906D01*
X271721Y47979D01*
X271794Y48101D01*
X271843Y48150D01*
X271867Y48223D01*
X271928Y48284D01*
X271977Y48308D01*
X272050Y48381D01*
X272208Y48442D01*
X272232Y48491D01*
X272123Y48600D01*
X272074Y48625D01*
X271965Y48685D01*
X271940Y48734D01*
X271855Y48795D01*
X271770Y48929D01*
X271721Y49051D01*
X271673Y49245D01*
X271697Y49537D01*
X271721Y49610D01*
X271794Y49732D01*
X271843Y49781D01*
X271916Y49903D01*
X272062Y50000D01*
X272099Y50036D01*
X272257Y50097D01*
X272366Y50134D01*
X272707Y50109D01*
D02*
G37*
G36*
X243424Y46848D02*
X243473Y46799D01*
X243570Y46775D01*
X243643Y46702D01*
X243692Y46677D01*
X243801Y46592D01*
X243826Y46519D01*
X243899Y46446D01*
X243972Y46203D01*
X243996Y46105D01*
X243972Y45886D01*
X243923Y45764D01*
X243899Y45691D01*
X243728Y45472D01*
X243643Y45387D01*
X243375Y45265D01*
X243132Y45241D01*
X242986Y45265D01*
X242962D01*
X242864Y45290D01*
X242815Y45339D01*
X242645Y45436D01*
X242536Y45545D01*
X242463Y45667D01*
X242414Y45716D01*
X242365Y46008D01*
X242390Y46349D01*
X242621Y46653D01*
X242755Y46762D01*
X242876Y46811D01*
X242913Y46848D01*
X243010Y46872D01*
X243424Y46848D01*
D02*
G37*
G36*
X235221Y46872D02*
X235489Y46726D01*
X235537Y46677D01*
X235586Y46653D01*
X235647Y46592D01*
X235671Y46543D01*
X235720Y46495D01*
X235842Y46227D01*
X235817Y45813D01*
X235696Y45594D01*
X235489Y45387D01*
X235318Y45290D01*
X235245Y45265D01*
X234929Y45241D01*
X233821Y45253D01*
X233724Y45229D01*
X233700Y45205D01*
X233760Y45144D01*
X233882Y45071D01*
X234016Y44961D01*
X234040Y44913D01*
X234089Y44864D01*
X234211Y44596D01*
X234186Y44158D01*
X234138Y44109D01*
X234040Y43939D01*
X233967Y43866D01*
X233955Y43829D01*
X233906Y43805D01*
X233858Y43756D01*
X233760Y43732D01*
X233724Y43695D01*
X233736Y43635D01*
X233834Y43610D01*
X235294Y43586D01*
X235440Y43488D01*
X235489Y43464D01*
X235537Y43415D01*
X235586Y43391D01*
X235647Y43330D01*
X235671Y43282D01*
X235720Y43233D01*
X235732Y43196D01*
X235744Y43184D01*
X235842Y42965D01*
X235817Y42551D01*
X235744Y42430D01*
X235720Y42381D01*
X235671Y42332D01*
X235647Y42284D01*
X235513Y42150D01*
X235464Y42125D01*
X235343Y42052D01*
X235331Y42040D01*
X235367Y42004D01*
X235464Y41979D01*
X235647Y41992D01*
X236888Y41967D01*
X236973Y41931D01*
X237022Y41882D01*
X237144Y41809D01*
X237278Y41699D01*
X237302Y41651D01*
X237351Y41602D01*
X237472Y41334D01*
X237448Y40945D01*
X237327Y40726D01*
X237278Y40677D01*
X237253Y40628D01*
X237168Y40543D01*
X237120Y40519D01*
X237071Y40470D01*
X236949Y40422D01*
X236937Y40336D01*
X237022Y40251D01*
X237193Y40154D01*
X237278Y40068D01*
X237302Y40020D01*
X237375Y39947D01*
X237400Y39849D01*
X237472Y39679D01*
X237448Y39314D01*
X237327Y39095D01*
X237278Y39046D01*
X237253Y38997D01*
X237168Y38912D01*
X237120Y38888D01*
X237071Y38839D01*
X236913Y38778D01*
X236986Y38657D01*
X237193Y38523D01*
X237278Y38438D01*
X237302Y38389D01*
X237375Y38316D01*
X237400Y38219D01*
X237472Y38048D01*
X237448Y37683D01*
X237327Y37464D01*
X237278Y37415D01*
X237253Y37367D01*
X237193Y37306D01*
X237144Y37281D01*
X237071Y37208D01*
X236961Y37148D01*
X236973Y37111D01*
X237071Y37087D01*
X237314Y37111D01*
X237387Y37087D01*
X237777Y37111D01*
X238507Y37087D01*
X238677Y36989D01*
X238848Y36868D01*
X238909Y36807D01*
X238933Y36758D01*
X239006Y36685D01*
X239030Y36588D01*
X239103Y36417D01*
X239079Y36077D01*
X238933Y35809D01*
X238824Y35675D01*
X238775Y35650D01*
X238702Y35577D01*
X238653Y35553D01*
X238592Y35517D01*
X238617Y35468D01*
X238750Y35456D01*
X238824Y35480D01*
X240759Y35468D01*
X241574Y35480D01*
X241647Y35456D01*
X241842Y35431D01*
X242012Y35310D01*
X242061Y35285D01*
X242171Y35176D01*
X242195Y35127D01*
X242268Y35054D01*
X242292Y34957D01*
X242341Y34835D01*
X242365Y34738D01*
X242341Y34470D01*
X242292Y34348D01*
X242219Y34227D01*
X242171Y34178D01*
X242097Y34056D01*
X241964Y33971D01*
X241915Y33922D01*
X241781Y33886D01*
X241672Y33849D01*
X241501Y33825D01*
X238665Y33813D01*
X238690Y33715D01*
X238726Y33679D01*
X238799Y33654D01*
X238860Y33618D01*
X238884Y33569D01*
X238994Y33435D01*
X239103Y33156D01*
X239079Y32815D01*
X238957Y32596D01*
X238824Y32413D01*
X238702Y32340D01*
X238495Y32231D01*
X238556Y32170D01*
X238726Y32072D01*
X238860Y31987D01*
X238884Y31938D01*
X238994Y31804D01*
X239103Y31525D01*
X239079Y31184D01*
X238957Y30965D01*
X238824Y30782D01*
X238702Y30709D01*
X238653Y30660D01*
X238519Y30624D01*
X238422Y30600D01*
X238276Y30575D01*
X236000Y30563D01*
X235951Y30587D01*
X235878Y30563D01*
X235623Y30575D01*
X234369Y30563D01*
X234296Y30587D01*
X234223Y30563D01*
X233967Y30575D01*
X231813Y30563D01*
X231740Y30587D01*
X231570Y30612D01*
X231497Y30636D01*
X231326Y30733D01*
X231192Y30819D01*
X231168Y30867D01*
X231095Y30940D01*
X230973Y31208D01*
X230949Y31305D01*
X230973Y31646D01*
X231022Y31695D01*
X231144Y31914D01*
X231192Y31963D01*
X231217Y32011D01*
X231411Y32133D01*
X231448Y32170D01*
X231679Y32206D01*
X234698Y32231D01*
X234600Y32328D01*
X234576Y32376D01*
X234442Y32462D01*
X234381Y32547D01*
X234235Y32790D01*
X234211Y32961D01*
X234235Y33277D01*
X234333Y33423D01*
X234405Y33545D01*
X234454Y33594D01*
X234478Y33642D01*
X234515Y33679D01*
X234685Y33776D01*
X234795Y33837D01*
X234783Y33898D01*
X234625Y33959D01*
X234539Y34020D01*
X234430Y34105D01*
X234405Y34153D01*
X234333Y34227D01*
X234235Y34446D01*
X234211Y34543D01*
X234235Y34908D01*
X234333Y35054D01*
X234405Y35176D01*
X234478Y35249D01*
X234491Y35285D01*
X234661Y35383D01*
X234832Y35456D01*
X235367Y35480D01*
X236329Y35468D01*
X236353Y35517D01*
X236219Y35602D01*
X236146Y35675D01*
X236097Y35699D01*
X236012Y35784D01*
X235988Y35833D01*
X235866Y36028D01*
X235842Y36344D01*
X235878Y36576D01*
X235939Y36636D01*
X236036Y36807D01*
X236195Y36965D01*
X236365Y37062D01*
X236402Y37099D01*
X236377Y37172D01*
X236280Y37196D01*
X236195Y37257D01*
X236146Y37306D01*
X236097Y37330D01*
X235988Y37440D01*
X235890Y37610D01*
X235866Y37683D01*
X235842Y37926D01*
X235866Y38194D01*
X235939Y38267D01*
X236036Y38438D01*
X236195Y38596D01*
X236365Y38693D01*
X236402Y38754D01*
X236341Y38815D01*
X236243Y38839D01*
X236146Y38937D01*
X236097Y38961D01*
X235988Y39070D01*
X235890Y39241D01*
X235866Y39314D01*
X235842Y39557D01*
X235866Y39801D01*
X235963Y39947D01*
X236036Y40068D01*
X236170Y40202D01*
X236329Y40263D01*
X236304Y40336D01*
X234892Y40361D01*
X234771Y40385D01*
X234734Y40422D01*
X234564Y40519D01*
X234430Y40628D01*
X234357Y40701D01*
X234235Y40969D01*
X234211Y41066D01*
X234235Y41432D01*
X234333Y41578D01*
X234357Y41626D01*
X234466Y41760D01*
X234515Y41809D01*
X234722Y41919D01*
X234685Y41979D01*
X233152Y42004D01*
X233006Y42101D01*
X232957Y42125D01*
X232908Y42174D01*
X232860Y42198D01*
X232750Y42308D01*
X232726Y42357D01*
X232604Y42551D01*
X232580Y42795D01*
X232604Y43063D01*
X232653Y43111D01*
X232677Y43160D01*
X232750Y43282D01*
X232823Y43355D01*
X232835Y43391D01*
X232884Y43415D01*
X232957Y43488D01*
X233091Y43549D01*
X233115Y43647D01*
X233055Y43708D01*
X232884Y43805D01*
X232726Y43963D01*
X232604Y44231D01*
X232580Y44328D01*
X232604Y44693D01*
X232653Y44742D01*
X232677Y44791D01*
X232750Y44913D01*
X232823Y44985D01*
X232835Y45022D01*
X232884Y45046D01*
X232957Y45119D01*
X233091Y45180D01*
X233067Y45229D01*
X232957Y45265D01*
X232884Y45241D01*
X231521Y45265D01*
X231375Y45363D01*
X231253Y45436D01*
X231144Y45545D01*
X231119Y45594D01*
X231071Y45643D01*
X230973Y45862D01*
X230949Y45959D01*
X230973Y46300D01*
X231071Y46470D01*
X231095Y46519D01*
X231192Y46616D01*
X231205Y46653D01*
X231253Y46677D01*
X231326Y46750D01*
X231594Y46872D01*
X232129Y46896D01*
X235221Y46872D01*
D02*
G37*
G36*
X263530Y50694D02*
X264796Y50669D01*
X264808Y50608D01*
X264735Y50535D01*
X264541Y50170D01*
X264419Y49951D01*
X264321Y49781D01*
X264200Y49586D01*
X264054Y49318D01*
X263956Y49148D01*
X263859Y49002D01*
X263689Y48685D01*
X263591Y48515D01*
X263469Y48296D01*
X263421Y48247D01*
X263396Y48174D01*
X263275Y47979D01*
X263250Y47931D01*
X263129Y47736D01*
X262983Y47468D01*
X262885Y47298D01*
X262764Y47079D01*
X262691Y46957D01*
X262666Y46908D01*
X262569Y46762D01*
X262398Y46446D01*
X262301Y46276D01*
X262179Y46056D01*
X262058Y45862D01*
X261912Y45594D01*
X261790Y45375D01*
X261668Y45180D01*
X261498Y44864D01*
X261400Y44693D01*
X261279Y44499D01*
X261254Y44450D01*
X261133Y44255D01*
X261108Y44207D01*
X260987Y44012D01*
X260889Y43842D01*
X260767Y43622D01*
X260682Y43513D01*
X259563Y43488D01*
X259246Y43464D01*
X258723Y43501D01*
X258625Y43525D01*
X258479Y43671D01*
X258236Y44134D01*
X258041Y44474D01*
X257993Y44523D01*
X257798Y44888D01*
X257676Y45058D01*
X257688Y45144D01*
X257822Y45132D01*
X257883Y45144D01*
X257907Y45119D01*
X257980Y45144D01*
X259502Y45132D01*
X259648Y45156D01*
X259782Y45241D01*
X259818Y45278D01*
X259940Y45497D01*
X260062Y45691D01*
X260086Y45740D01*
X260183Y45911D01*
X260208Y45959D01*
X260305Y46105D01*
X260329Y46154D01*
X260427Y46324D01*
X260548Y46519D01*
X260573Y46568D01*
X260670Y46738D01*
X260792Y46933D01*
X261035Y47371D01*
X261157Y47566D01*
X261181Y47614D01*
X261376Y47955D01*
X261741Y48612D01*
X261790Y48734D01*
X261765Y48905D01*
X261729Y48941D01*
X261559Y48990D01*
X259490Y49014D01*
X255449Y49038D01*
X255327Y49111D01*
X255291Y49148D01*
X255266Y49221D01*
X255145Y49416D01*
X254998Y49683D01*
X254877Y49903D01*
X254779Y50073D01*
X254682Y50219D01*
X254463Y50657D01*
X254499Y50694D01*
X261875Y50718D01*
X261899D01*
X263530Y50694D01*
D02*
G37*
G36*
X66503Y62932D02*
X66826Y62701D01*
X67289Y61868D01*
X68075Y61822D01*
X68353Y61915D01*
X69001Y61822D01*
X69278Y61730D01*
X70481Y61822D01*
X74413Y61868D01*
X74783Y61498D01*
X74875Y61313D01*
X75199Y60897D01*
X75384Y60804D01*
X75523Y60666D01*
X75708Y60203D01*
X76032Y59602D01*
X76494Y59324D01*
X76633Y58908D01*
X76726Y58075D01*
X77466Y57613D01*
X77651Y56965D01*
X77928Y56502D01*
X78298Y56132D01*
X78437Y55623D01*
X78576Y55300D01*
X78900Y54976D01*
X79085Y54883D01*
X79224Y54745D01*
X79316Y54097D01*
X79409Y53634D01*
X79732Y53311D01*
X79917Y53218D01*
X80149Y52987D01*
X80288Y52385D01*
X80473Y51923D01*
X81120Y51645D01*
X86162Y51599D01*
X86394Y51645D01*
X86671Y51553D01*
X87596Y51645D01*
X87874Y51553D01*
X100132Y51599D01*
X100502Y51507D01*
X100688Y51322D01*
X100595Y50581D01*
X100410Y50396D01*
X100364Y50258D01*
X100179Y50165D01*
X99855Y49841D01*
X99762Y49471D01*
X99531Y48870D01*
X99115Y48453D01*
X98930Y47991D01*
X98791Y47389D01*
X98560Y47066D01*
X98236Y46834D01*
X98097Y46696D01*
X98005Y46326D01*
X97912Y45678D01*
X97588Y45354D01*
X97403Y45262D01*
X96756Y44614D01*
X96339Y44568D01*
X95877Y44660D01*
X92222Y44707D01*
X91945Y44614D01*
X86579Y44521D01*
X85838Y44429D01*
X85700Y44290D01*
X85515Y43643D01*
X85607Y43180D01*
X85838Y42949D01*
X86301Y42671D01*
X86440Y42532D01*
X86764Y41653D01*
X87180Y41237D01*
X87319Y40636D01*
X87458Y40312D01*
X87781Y39988D01*
X87966Y39896D01*
X88198Y39664D01*
X88290Y38647D01*
X88521Y38415D01*
X89030Y38184D01*
X89215Y37722D01*
X89169Y36935D01*
X89447Y36658D01*
X89863Y36426D01*
X90048Y35964D01*
X90141Y35594D01*
X90557Y35085D01*
X90696Y34946D01*
X90881Y34298D01*
X90973Y34113D01*
X91297Y33790D01*
X91482Y33697D01*
X91713Y33466D01*
X91806Y32356D01*
X92546Y31893D01*
X92731Y31430D01*
X92639Y30690D01*
X92870Y30459D01*
X93379Y30228D01*
X93564Y29765D01*
X93656Y29025D01*
X93980Y28701D01*
X94165Y28609D01*
X94396Y28100D01*
X94535Y27498D01*
X94766Y27175D01*
X95136Y26805D01*
X95368Y25833D01*
X95599Y25509D01*
X95877Y25232D01*
X96062Y24769D01*
X96154Y24122D01*
X96617Y23474D01*
X96802Y22826D01*
X96894Y21624D01*
X96802Y21068D01*
X96571Y20837D01*
X96385Y20745D01*
X96154Y20513D01*
X95969Y20051D01*
X95877Y19403D01*
X95645Y19079D01*
X95460Y18987D01*
X95136Y18663D01*
X94951Y18016D01*
X94766Y17553D01*
X94581Y17368D01*
X94489Y17183D01*
X94026Y16350D01*
X93610Y16211D01*
X93101Y16443D01*
X93009Y16813D01*
X92916Y17830D01*
X92453Y18293D01*
X92361Y18478D01*
X92083Y19126D01*
X91991Y19496D01*
X91575Y19912D01*
X91390Y20005D01*
X91251Y20143D01*
X91066Y20606D01*
X90973Y20976D01*
X90326Y21901D01*
X89863Y22734D01*
X89586Y23011D01*
X89400Y23474D01*
X89308Y23844D01*
X88984Y24260D01*
X88799Y24353D01*
X88568Y24584D01*
X88383Y25232D01*
X88290Y25602D01*
X87735Y26157D01*
X87180Y27175D01*
X86903Y27452D01*
X86718Y28100D01*
X86347Y28747D01*
X86209Y28886D01*
X86024Y28979D01*
X85885Y29395D01*
X85700Y30135D01*
X85561Y30366D01*
X85376Y30459D01*
X85191Y30644D01*
X85052Y30690D01*
X84867Y31153D01*
X84636Y31754D01*
X84220Y32171D01*
X83942Y32818D01*
X83849Y33003D01*
X83618Y33327D01*
X83433Y33419D01*
X83294Y33558D01*
X83109Y34298D01*
X82924Y34761D01*
X82693Y34992D01*
X82508Y35085D01*
X82277Y35316D01*
X82045Y36288D01*
X81537Y36796D01*
X80889Y37999D01*
X80704Y38184D01*
X80380Y39063D01*
X80288Y39248D01*
X80103Y39341D01*
X79686Y39757D01*
X79594Y40127D01*
X79501Y40682D01*
X78854Y41330D01*
X78576Y41977D01*
X78298Y42440D01*
X78021Y42717D01*
X77836Y43180D01*
X77512Y43781D01*
X77327Y43874D01*
X77096Y44105D01*
X76818Y45215D01*
X76587Y45447D01*
X76402Y45539D01*
X76171Y45678D01*
X75985Y46140D01*
X75893Y46881D01*
X75245Y47528D01*
X75060Y48176D01*
X74968Y48546D01*
X74413Y49101D01*
X74228Y49564D01*
X73950Y50026D01*
X73488Y50489D01*
X73349Y51368D01*
X73210Y51507D01*
X73117Y51691D01*
X72562Y52062D01*
X72470Y52432D01*
X72331Y53033D01*
X72100Y53357D01*
X71637Y53819D01*
X71498Y54328D01*
X71313Y54791D01*
X70990Y55115D01*
X70897Y55300D01*
X70388Y56271D01*
X70203Y56364D01*
X69972Y56595D01*
X69879Y56965D01*
X69694Y57798D01*
X69047Y58445D01*
X68954Y58815D01*
X68815Y59324D01*
X68538Y59602D01*
X68353Y59694D01*
X68029Y60018D01*
X67937Y60203D01*
X67705Y60527D01*
X67520Y60619D01*
X66780Y61082D01*
X66410Y61175D01*
X66086Y61221D01*
Y62608D01*
Y62701D01*
X66132Y63025D01*
X66503Y62932D01*
D02*
G37*
G36*
X270273Y43610D02*
X271125Y43586D01*
X271247Y43513D01*
X271295Y43488D01*
X271356Y43452D01*
X271368Y43415D01*
X271417Y43391D01*
X271502Y43306D01*
X271575Y43184D01*
X271624Y43063D01*
X271673Y42892D01*
X271648Y42600D01*
X271624Y42527D01*
X271527Y42357D01*
X271441Y42223D01*
X271393Y42198D01*
X271320Y42125D01*
X271198Y42077D01*
X271161Y42040D01*
X271198Y42004D01*
X271295Y41979D01*
X271527Y41992D01*
X271807Y41979D01*
X271831Y42004D01*
X271904Y41979D01*
X273157Y41992D01*
X273437Y41979D01*
X273462Y42004D01*
X273535Y41979D01*
X276018Y41955D01*
X276066Y41906D01*
X276237Y41809D01*
X276285Y41760D01*
X276334Y41736D01*
X276395Y41675D01*
X276468Y41553D01*
X276517Y41432D01*
X276541Y41334D01*
X276553Y41127D01*
X276504Y40860D01*
X276419Y40750D01*
X276346Y40628D01*
X276285Y40567D01*
X276237Y40543D01*
X276164Y40470D01*
X276066Y40446D01*
X276054Y40385D01*
X276164Y40348D01*
X276444Y40361D01*
X277612Y40336D01*
X277916Y40154D01*
X278026Y40044D01*
X278123Y39874D01*
X278148Y39801D01*
X278172Y39703D01*
X278148Y39241D01*
X278074Y39168D01*
X277977Y38997D01*
X277941Y38961D01*
X277892Y38937D01*
X277794Y38839D01*
X277673Y38766D01*
X277722Y38718D01*
X278087Y38742D01*
X278160Y38718D01*
X278622Y38742D01*
X279231Y38718D01*
X279425Y38596D01*
X279547Y38523D01*
X279657Y38413D01*
X279754Y38243D01*
X279778Y38170D01*
X279803Y38073D01*
X279778Y37610D01*
X279705Y37537D01*
X279632Y37415D01*
X279498Y37281D01*
X279450Y37257D01*
X279377Y37184D01*
X279279Y37160D01*
X279158Y37111D01*
X279060Y37087D01*
X276115Y37062D01*
X276103Y37001D01*
X276139Y36965D01*
X276261Y36916D01*
X276395Y36782D01*
X276468Y36661D01*
X276517Y36539D01*
X276541Y36442D01*
X276565Y36247D01*
X276541Y36174D01*
X276504Y35967D01*
X276444Y35882D01*
X276395Y35833D01*
X276322Y35711D01*
X276176Y35614D01*
X276139Y35577D01*
X275981Y35517D01*
X275993Y35456D01*
X276042Y35431D01*
X276212Y35310D01*
X276261Y35285D01*
X276395Y35152D01*
X276468Y35030D01*
X276517Y34908D01*
X276541Y34811D01*
X276565Y34616D01*
X276541Y34543D01*
X276504Y34336D01*
X276468Y34299D01*
X276444Y34251D01*
X276395Y34202D01*
X276334Y34093D01*
X276285Y34068D01*
X276237Y34020D01*
X276188Y33995D01*
X276151Y33959D01*
X276139Y33922D01*
X276091Y33898D01*
X276054Y33861D01*
X276091Y33825D01*
X276334Y33849D01*
X277575Y33825D01*
X277649Y33800D01*
X277770Y33728D01*
X277941Y33606D01*
X278026Y33521D01*
X278099Y33399D01*
X278148Y33277D01*
X278172Y33180D01*
X278184Y32997D01*
X278135Y32705D01*
X278050Y32620D01*
X277977Y32498D01*
X277892Y32413D01*
X277843Y32389D01*
X277782Y32328D01*
X277758Y32279D01*
X277709Y32231D01*
X279121Y32206D01*
X279316Y32157D01*
X279571Y31975D01*
X279657Y31890D01*
X279730Y31768D01*
X279778Y31646D01*
X279803Y31549D01*
X279778Y31111D01*
X279657Y30940D01*
X279632Y30892D01*
X279498Y30758D01*
X279450Y30733D01*
X279401Y30685D01*
X279279Y30636D01*
X279146Y30600D01*
X278951Y30575D01*
X278330Y30563D01*
X278257Y30587D01*
X277977Y30575D01*
X277843Y30587D01*
X277758Y30551D01*
X277782Y30454D01*
X277916Y30368D01*
X278026Y30259D01*
X278099Y30137D01*
X278148Y30015D01*
X278172Y29918D01*
X278184Y29736D01*
X278135Y29468D01*
X277953Y29212D01*
X277868Y29127D01*
X277819Y29103D01*
X277770Y29054D01*
X277612Y28993D01*
X277588Y28944D01*
X277624Y28908D01*
X277722Y28884D01*
X277941Y28713D01*
X278026Y28628D01*
X278099Y28506D01*
X278148Y28384D01*
X278172Y28287D01*
X278184Y28105D01*
X278135Y27837D01*
X277953Y27581D01*
X277868Y27496D01*
X277819Y27472D01*
X277673Y27374D01*
X277600Y27350D01*
X277588Y27313D01*
X277624Y27277D01*
X277782Y27216D01*
X277843Y27155D01*
X277892Y27131D01*
X278026Y26997D01*
X278050Y26948D01*
X278148Y26802D01*
X278184Y26498D01*
X278160Y26303D01*
X278135Y26206D01*
X277953Y25950D01*
X277892Y25889D01*
X277770Y25817D01*
X277758Y25756D01*
X277794Y25719D01*
X279182Y25695D01*
X279352Y25622D01*
X279401Y25597D01*
X279474Y25524D01*
X279523Y25500D01*
X279681Y25342D01*
X279705Y25269D01*
X279778Y25196D01*
X279803Y24879D01*
X279778Y24587D01*
X279705Y24514D01*
X279608Y24344D01*
X279498Y24234D01*
X279328Y24137D01*
X279219Y24052D01*
X279255Y24015D01*
X279413Y23954D01*
X279474Y23893D01*
X279523Y23869D01*
X279584Y23833D01*
X279608Y23784D01*
X279681Y23711D01*
X279754Y23589D01*
X279778Y23516D01*
X279803Y23419D01*
X279778Y22956D01*
X279705Y22883D01*
X279608Y22713D01*
X279523Y22628D01*
X279364Y22543D01*
X279389Y22469D01*
X280776Y22445D01*
X280898Y22396D01*
X281044Y22323D01*
X281081Y22287D01*
X281129Y22263D01*
X281178Y22214D01*
X281215Y22202D01*
X281239Y22153D01*
X281312Y22080D01*
X281385Y21958D01*
X281409Y21885D01*
X281434Y21788D01*
X281409Y21350D01*
X281312Y21204D01*
X281287Y21155D01*
X281251Y21094D01*
X281202Y21070D01*
X281166Y21033D01*
X281154Y20997D01*
X281105Y20972D01*
X280935Y20851D01*
X280898Y20814D01*
X280922Y20741D01*
X281081Y20680D01*
X281178Y20583D01*
X281227Y20559D01*
X281287Y20473D01*
X281409Y20279D01*
X281434Y20181D01*
X281409Y19719D01*
X281312Y19573D01*
X281287Y19524D01*
X281081Y19317D01*
X280922Y19232D01*
X280898Y19159D01*
X280959Y19098D01*
X281056Y19074D01*
X281178Y18952D01*
X281227Y18928D01*
X281263Y18891D01*
X281287Y18843D01*
X281409Y18648D01*
X281434Y18550D01*
X281409Y18088D01*
X281312Y17942D01*
X281287Y17893D01*
X281105Y17711D01*
X281056Y17686D01*
X280935Y17613D01*
X280813Y17565D01*
X280350Y17589D01*
X280302Y17638D01*
X280131Y17735D01*
X279997Y17869D01*
X279973Y17918D01*
X279900Y17991D01*
X279876Y18088D01*
X279803Y18258D01*
X279827Y18575D01*
X279973Y18843D01*
X280022Y18891D01*
X280046Y18940D01*
X280083Y18976D01*
X280131Y19001D01*
X280204Y19074D01*
X280326Y19123D01*
X280363Y19159D01*
X280338Y19208D01*
X280253Y19293D01*
X280131Y19366D01*
X280083Y19415D01*
X280046Y19427D01*
X280022Y19476D01*
X279912Y19609D01*
X279863Y19731D01*
X279803Y19889D01*
X279827Y20206D01*
X279973Y20473D01*
X280022Y20522D01*
X280046Y20571D01*
X280083Y20607D01*
X280131Y20632D01*
X280204Y20705D01*
X280314Y20766D01*
X280289Y20814D01*
X280083Y20826D01*
X280034Y20802D01*
X279961Y20826D01*
X277697Y20802D01*
X277685Y20766D01*
X277722Y20729D01*
X277843Y20656D01*
X277892Y20607D01*
X277941Y20583D01*
X278026Y20498D01*
X278099Y20376D01*
X278148Y20254D01*
X278172Y20157D01*
X278148Y19694D01*
X278074Y19621D01*
X278050Y19573D01*
X277977Y19451D01*
X277941Y19415D01*
X277892Y19390D01*
X277819Y19317D01*
X277551Y19195D01*
X276066Y19171D01*
X276054Y19135D01*
X276091Y19098D01*
X276212Y19025D01*
X276261Y18976D01*
X276310Y18952D01*
X276395Y18867D01*
X276468Y18745D01*
X276517Y18623D01*
X276541Y18526D01*
X276553Y18319D01*
X276529Y18173D01*
X276504Y18052D01*
X276468Y18015D01*
X276444Y17966D01*
X276322Y17796D01*
X276237Y17735D01*
X276188Y17686D01*
X275920Y17565D01*
X265697Y17589D01*
X265648Y17638D01*
X265478Y17735D01*
X265405Y17808D01*
X265356Y17832D01*
X265222Y18039D01*
X265173Y18161D01*
X265198Y18672D01*
X265271Y18745D01*
X265368Y18916D01*
X265429Y18976D01*
X265478Y19001D01*
X265551Y19074D01*
X265660Y19135D01*
X265636Y19183D01*
X263068Y19195D01*
X263031Y19159D01*
X263056Y19110D01*
X263190Y19025D01*
X263238Y18976D01*
X263287Y18952D01*
X263323Y18916D01*
X263348Y18867D01*
X263421Y18794D01*
X263482Y18636D01*
X263518Y18599D01*
X263542Y18356D01*
X263518Y18161D01*
X263396Y17942D01*
X263348Y17893D01*
X263323Y17845D01*
X263165Y17686D01*
X262897Y17565D01*
X262435Y17589D01*
X262386Y17638D01*
X262216Y17735D01*
X262033Y17918D01*
X261912Y18185D01*
X261936Y18672D01*
X262009Y18745D01*
X262082Y18867D01*
X262167Y18976D01*
X262216Y19001D01*
X262289Y19074D01*
X262411Y19123D01*
X262447Y19159D01*
X262423Y19208D01*
X262386Y19268D01*
X262216Y19366D01*
X262033Y19548D01*
X261912Y19816D01*
X261936Y20303D01*
X262009Y20376D01*
X262082Y20498D01*
X262131Y20547D01*
X262143Y20583D01*
X262192Y20607D01*
X262289Y20705D01*
X262398Y20766D01*
X262374Y20814D01*
X259234Y20839D01*
X259112Y20887D01*
X259051Y20948D01*
X258930Y21021D01*
X258771Y21179D01*
X258650Y21447D01*
X258674Y21910D01*
X258723Y21958D01*
X258820Y22129D01*
X258869Y22177D01*
X258893Y22226D01*
X259027Y22311D01*
X259076Y22360D01*
X259173Y22384D01*
X259343Y22457D01*
X262922Y22433D01*
X263190Y22287D01*
X263238Y22238D01*
X263287Y22214D01*
X263323Y22177D01*
X263348Y22129D01*
X263421Y22056D01*
X263445Y21958D01*
X263518Y21788D01*
X263542Y21690D01*
X263518Y21398D01*
X263469Y21350D01*
X263348Y21131D01*
X263299Y21082D01*
X263275Y21033D01*
X263068Y20899D01*
X263056Y20863D01*
X263165Y20826D01*
X266183Y20802D01*
X266451Y20656D01*
X266500Y20607D01*
X266549Y20583D01*
X266585Y20547D01*
X266658Y20425D01*
X266707Y20376D01*
X266743Y20242D01*
X266804Y20084D01*
X266780Y19816D01*
X266634Y19548D01*
X266524Y19415D01*
X266451Y19342D01*
X266330Y19293D01*
X266317Y19232D01*
X266354Y19195D01*
X270516Y19220D01*
X270529Y19256D01*
X270468Y19317D01*
X270297Y19415D01*
X270212Y19500D01*
X270139Y19621D01*
X270090Y19743D01*
X270066Y19841D01*
X270042Y20011D01*
X270078Y20218D01*
X270103Y20340D01*
X270188Y20425D01*
X270249Y20559D01*
X270297Y20583D01*
X270431Y20693D01*
X270735Y20826D01*
X271076Y20802D01*
X271295Y20680D01*
X271344Y20632D01*
X271393Y20607D01*
X271478Y20547D01*
X271551Y20425D01*
X271624Y20254D01*
X271673Y20084D01*
X271648Y19792D01*
X271624Y19719D01*
X271551Y19597D01*
X271429Y19427D01*
X271368Y19366D01*
X271198Y19268D01*
X271186Y19256D01*
X271247Y19195D01*
X273754Y19220D01*
X273790Y19256D01*
X273729Y19317D01*
X273608Y19366D01*
X273474Y19500D01*
X273449Y19548D01*
X273401Y19597D01*
X273352Y19719D01*
X273316Y19853D01*
X273304Y20133D01*
X273328Y20206D01*
X273352Y20303D01*
X273377Y20352D01*
X273498Y20522D01*
X273522Y20571D01*
X273608Y20632D01*
X273754Y20729D01*
X273803Y20753D01*
X273815Y20790D01*
X273778Y20826D01*
X273474Y20814D01*
X272257Y20839D01*
X272135Y20887D01*
X272074Y20948D01*
X271952Y21021D01*
X271843Y21131D01*
X271770Y21252D01*
X271721Y21374D01*
X271673Y21544D01*
X271697Y21861D01*
X271892Y22202D01*
X272026Y22287D01*
X272074Y22336D01*
X272196Y22384D01*
X272245Y22409D01*
X272318Y22433D01*
X272415Y22457D01*
X273729Y22482D01*
X273766Y22518D01*
X273705Y22579D01*
X273583Y22652D01*
X273535Y22701D01*
X273498Y22713D01*
X273425Y22835D01*
X273377Y22883D01*
X273340Y23017D01*
X273316Y23115D01*
X273304Y23394D01*
X273328Y23468D01*
X273389Y23626D01*
X273449Y23687D01*
X273535Y23845D01*
X273656Y23918D01*
X273754Y24015D01*
X273803Y24039D01*
X273815Y24052D01*
X273778Y24088D01*
X273462Y24064D01*
X273255Y24076D01*
X271733Y24064D01*
X271660Y24088D01*
X271563Y24064D01*
X270662Y24088D01*
X270589Y24113D01*
X270468Y24186D01*
X270297Y24307D01*
X270212Y24392D01*
X270188Y24441D01*
X270090Y24587D01*
X270054Y24770D01*
X270042Y24977D01*
X270066Y25050D01*
X270103Y25208D01*
X270212Y25366D01*
X270236Y25415D01*
X270322Y25500D01*
X270370Y25524D01*
X270516Y25622D01*
X270614Y25646D01*
X270650Y25683D01*
X270589Y25743D01*
X270419Y25841D01*
X270285Y25950D01*
X270212Y26023D01*
X270188Y26072D01*
X270139Y26121D01*
X270115Y26169D01*
X270090Y26242D01*
X270054Y26401D01*
X270042Y26608D01*
X270066Y26681D01*
X270103Y26839D01*
X270163Y26924D01*
X270322Y27131D01*
X270370Y27155D01*
X270516Y27253D01*
X270614Y27277D01*
X270650Y27313D01*
X270638Y27350D01*
X270419Y27472D01*
X270285Y27581D01*
X270212Y27654D01*
X270188Y27703D01*
X270115Y27776D01*
X270090Y27873D01*
X270054Y28031D01*
X270042Y28238D01*
X270066Y28312D01*
X270103Y28470D01*
X270163Y28555D01*
X270297Y28737D01*
X270346Y28762D01*
X270455Y28847D01*
X270480Y28920D01*
X270443Y28956D01*
X269032Y28981D01*
X268958Y29005D01*
X268837Y29054D01*
X268764Y29127D01*
X268715Y29151D01*
X268581Y29285D01*
X268557Y29334D01*
X268459Y29480D01*
X268423Y29687D01*
X268411Y29845D01*
X268435Y29918D01*
X268472Y30101D01*
X268533Y30161D01*
X268557Y30210D01*
X268666Y30344D01*
X268691Y30393D01*
X268812Y30466D01*
X268861Y30514D01*
X269153Y30587D01*
X270480Y30600D01*
X270455Y30697D01*
X270395Y30758D01*
X270346Y30782D01*
X270297Y30831D01*
X270249Y30855D01*
X270224Y30904D01*
X270212Y30916D01*
X270188Y30965D01*
X270115Y31038D01*
X270090Y31135D01*
X270054Y31293D01*
X270042Y31500D01*
X270066Y31573D01*
X270115Y31768D01*
X270212Y31865D01*
X270236Y31914D01*
X270370Y32048D01*
X270419Y32072D01*
X270492Y32145D01*
X270589Y32170D01*
X270748Y32206D01*
X275421Y32231D01*
X275324Y32328D01*
X275299Y32376D01*
X275166Y32462D01*
X275105Y32523D01*
X275032Y32644D01*
X274934Y32888D01*
X274910Y33107D01*
X274959Y33228D01*
X275032Y33423D01*
X275105Y33496D01*
X275178Y33618D01*
X275214Y33654D01*
X275263Y33679D01*
X275433Y33800D01*
X275519Y33837D01*
X275506Y33898D01*
X275409Y33922D01*
X275360Y33947D01*
X275190Y34068D01*
X275153Y34080D01*
X275129Y34129D01*
X274983Y34372D01*
X274934Y34543D01*
X274910Y34713D01*
X275032Y35054D01*
X275105Y35127D01*
X275178Y35249D01*
X275373Y35371D01*
X275348Y35444D01*
X271271Y35456D01*
X271234Y35419D01*
X271259Y35346D01*
X271393Y35261D01*
X271478Y35200D01*
X271551Y35078D01*
X271600Y35030D01*
X271636Y34872D01*
X271673Y34738D01*
X271648Y34446D01*
X271624Y34372D01*
X271551Y34251D01*
X271502Y34202D01*
X271429Y34080D01*
X271393Y34044D01*
X271344Y34020D01*
X271198Y33922D01*
X271076Y33874D01*
X270882Y33825D01*
X269616Y33800D01*
X269604Y33740D01*
X269640Y33703D01*
X269810Y33606D01*
X269847Y33569D01*
X269920Y33448D01*
X269969Y33399D01*
X270042Y33131D01*
X270066Y33034D01*
X270042Y32936D01*
X270017Y32815D01*
X269969Y32693D01*
X269944Y32644D01*
X269871Y32571D01*
X269798Y32450D01*
X269762Y32413D01*
X269640Y32340D01*
X269591Y32291D01*
X269457Y32255D01*
X269348Y32218D01*
X269178Y32194D01*
X267985Y32170D01*
X267973Y32133D01*
X268009Y32072D01*
X268179Y31975D01*
X268216Y31938D01*
X268289Y31817D01*
X268338Y31768D01*
X268374Y31634D01*
X268411Y31525D01*
X268435Y31427D01*
X268411Y31233D01*
X268338Y31062D01*
X268313Y31013D01*
X268265Y30965D01*
X268240Y30916D01*
X268131Y30782D01*
X268009Y30709D01*
X267960Y30660D01*
X267863Y30636D01*
X267693Y30587D01*
X267303Y30563D01*
X266682Y30575D01*
X266622Y30563D01*
X266549Y30587D01*
X266378Y30563D01*
X266366Y30478D01*
X266427Y30417D01*
X266549Y30344D01*
X266585Y30308D01*
X266609Y30259D01*
X266682Y30186D01*
X266743Y30028D01*
X266780Y29918D01*
X266804Y29821D01*
X266780Y29577D01*
X266634Y29309D01*
X266585Y29261D01*
X266561Y29212D01*
X266476Y29127D01*
X266403Y29103D01*
X266330Y29030D01*
X266038Y28956D01*
X264723Y28932D01*
X264711Y28920D01*
X264796Y28786D01*
X264930Y28725D01*
X265003Y28604D01*
X265052Y28555D01*
X265112Y28397D01*
X265149Y28360D01*
X265173Y28117D01*
X265149Y27946D01*
X265003Y27679D01*
X264954Y27630D01*
X264930Y27581D01*
X264845Y27496D01*
X264723Y27423D01*
X264601Y27374D01*
X264504Y27350D01*
X264261Y27326D01*
X262508Y27350D01*
X262435Y27374D01*
X262313Y27447D01*
X262143Y27569D01*
X262058Y27654D01*
X261960Y27825D01*
X261912Y27946D01*
X261936Y28433D01*
X261985Y28482D01*
X262009Y28530D01*
X262082Y28652D01*
X262155Y28725D01*
X262167Y28762D01*
X262289Y28835D01*
X262508Y28932D01*
X262678Y28956D01*
X262776Y28981D01*
X263956Y28993D01*
X263932Y29090D01*
X263895Y29127D01*
X263822Y29151D01*
X263664Y29309D01*
X263640Y29383D01*
X263591Y29431D01*
X263542Y29602D01*
X263567Y30064D01*
X263664Y30210D01*
X263689Y30259D01*
X263847Y30417D01*
X263895Y30441D01*
X263944Y30490D01*
X264066Y30539D01*
X264114Y30563D01*
X264127Y30624D01*
X263932Y30697D01*
X263871Y30758D01*
X263822Y30782D01*
X263664Y30940D01*
X263640Y31013D01*
X263591Y31062D01*
X263542Y31233D01*
X263567Y31695D01*
X263615Y31744D01*
X263640Y31792D01*
X263762Y31963D01*
X263847Y32048D01*
X263968Y32121D01*
X264090Y32170D01*
X264285Y32218D01*
X265636Y32231D01*
X265563Y32304D01*
X265539Y32352D01*
X265502Y32389D01*
X265453Y32413D01*
X265295Y32571D01*
X265222Y32693D01*
X265198Y32766D01*
X265173Y32863D01*
X265198Y33326D01*
X265319Y33496D01*
X265344Y33545D01*
X265478Y33679D01*
X265526Y33703D01*
X265672Y33800D01*
X265721Y33825D01*
X265758Y33861D01*
X265721Y33898D01*
X265563Y33959D01*
X265502Y34020D01*
X265453Y34044D01*
X265295Y34202D01*
X265222Y34324D01*
X265198Y34397D01*
X265173Y34494D01*
X265198Y34957D01*
X265319Y35127D01*
X265344Y35176D01*
X265478Y35310D01*
X265599Y35383D01*
X265770Y35456D01*
X266281Y35431D01*
X266354Y35358D01*
X266524Y35261D01*
X266561Y35224D01*
X266585Y35176D01*
X266695Y35042D01*
X266743Y34920D01*
X266780Y34811D01*
X266804Y34713D01*
X266780Y34470D01*
X266634Y34202D01*
X266524Y34068D01*
X266390Y33959D01*
X266330Y33898D01*
X266281Y33874D01*
X266269Y33861D01*
X266378Y33825D01*
X266451Y33849D01*
X268873Y33837D01*
X268922Y33861D01*
X268885Y33898D01*
X268837Y33922D01*
X268800Y33959D01*
X268776Y34007D01*
X268630Y34105D01*
X268459Y34348D01*
X268423Y34580D01*
X268411Y34738D01*
X268435Y34811D01*
X268484Y35005D01*
X268533Y35054D01*
X268557Y35103D01*
X268666Y35237D01*
X268764Y35334D01*
X268837Y35358D01*
X268885Y35407D01*
X269056Y35456D01*
X269445Y35480D01*
X270090Y35468D01*
X270370Y35480D01*
X270443Y35456D01*
X270541Y35480D01*
X270553Y35517D01*
X270419Y35602D01*
X270322Y35699D01*
X270273Y35724D01*
X270212Y35784D01*
X270139Y35906D01*
X270090Y36028D01*
X270066Y36125D01*
X270042Y36295D01*
X270066Y36490D01*
X270090Y36563D01*
X270188Y36734D01*
X270297Y36868D01*
X270370Y36941D01*
X270492Y37014D01*
X270662Y37087D01*
X271417Y37111D01*
X271758Y37087D01*
X271831Y37111D01*
X273425Y37099D01*
X274825Y37111D01*
X274898Y37087D01*
X275214Y37111D01*
X275287Y37087D01*
X275433Y37111D01*
X275445Y37148D01*
X275312Y37233D01*
X275239Y37306D01*
X275129Y37367D01*
X275056Y37488D01*
X274959Y37707D01*
X274934Y37805D01*
X274910Y37975D01*
X274934Y38048D01*
X275032Y38316D01*
X275105Y38389D01*
X275166Y38498D01*
X275214Y38523D01*
X275263Y38572D01*
X275397Y38632D01*
X275373Y38705D01*
X273985Y38730D01*
X273888Y38754D01*
X273681Y38864D01*
X273632Y38912D01*
X273583Y38937D01*
X273498Y38997D01*
X273425Y39119D01*
X273328Y39338D01*
X273304Y39509D01*
X273328Y39776D01*
X273449Y39996D01*
X273535Y40129D01*
X273583Y40154D01*
X273632Y40202D01*
X273754Y40251D01*
X273790Y40288D01*
X273778Y40324D01*
X273681Y40348D01*
X273279Y40361D01*
X271709Y40348D01*
X271660Y40373D01*
X271587Y40348D01*
X270017Y40361D01*
X266342Y40336D01*
X266293Y40288D01*
X266354Y40227D01*
X266451Y40202D01*
X266524Y40129D01*
X266561Y40117D01*
X266585Y40068D01*
X266707Y39898D01*
X266768Y39740D01*
X266804Y39606D01*
X266780Y39363D01*
X266634Y39095D01*
X266524Y38937D01*
X266476Y38912D01*
X266427Y38864D01*
X266269Y38778D01*
X266305Y38742D01*
X266403Y38718D01*
X266646Y38742D01*
X266719Y38718D01*
X267181Y38742D01*
X267814Y38718D01*
X268082Y38572D01*
X268240Y38413D01*
X268265Y38365D01*
X268338Y38292D01*
X268374Y38158D01*
X268411Y38048D01*
X268435Y37951D01*
X268399Y37720D01*
X268289Y37488D01*
X268240Y37440D01*
X268179Y37330D01*
X268131Y37306D01*
X267960Y37184D01*
X267839Y37135D01*
X267766Y37111D01*
X267668Y37087D01*
X265770Y37111D01*
X265502Y37257D01*
X265392Y37367D01*
X265344Y37488D01*
X265368Y38413D01*
X265478Y38572D01*
X265648Y38669D01*
X265709Y38730D01*
X265685Y38803D01*
X265526Y38864D01*
X265392Y38997D01*
X265344Y39119D01*
X265368Y40044D01*
X265478Y40178D01*
X265648Y40275D01*
X265660Y40288D01*
X265599Y40348D01*
X265380Y40373D01*
X265344Y40409D01*
X265368Y41967D01*
X265551Y42004D01*
X265624Y41979D01*
X268630Y41992D01*
X268837Y41979D01*
X268922Y42016D01*
X268910Y42077D01*
X268691Y42198D01*
X268642Y42247D01*
X268605Y42259D01*
X268508Y42430D01*
X268435Y42600D01*
X268411Y42868D01*
X268435Y42941D01*
X268472Y43123D01*
X268557Y43233D01*
X268630Y43355D01*
X268666Y43391D01*
X268715Y43415D01*
X268788Y43488D01*
X269056Y43610D01*
X269896Y43622D01*
X270151Y43610D01*
X270200Y43635D01*
X270273Y43610D01*
D02*
G37*
G36*
X266038Y46872D02*
X266232Y46848D01*
X266281Y46799D01*
X266403Y46750D01*
X266476Y46677D01*
X266524Y46653D01*
X266609Y46568D01*
X266634Y46519D01*
X266682Y46470D01*
X266743Y46312D01*
X266780Y46203D01*
X266804Y46105D01*
X266780Y45862D01*
X266634Y45594D01*
X266585Y45545D01*
X266561Y45497D01*
X266524Y45460D01*
X266476Y45436D01*
X266403Y45363D01*
X266330Y45339D01*
X266269Y45278D01*
X266244Y45205D01*
X266281Y45168D01*
X266403Y45119D01*
X266451Y45071D01*
X266500Y45046D01*
X266609Y44937D01*
X266634Y44888D01*
X266682Y44840D01*
X266780Y44596D01*
X266804Y44499D01*
X266780Y44231D01*
X266634Y43963D01*
X266585Y43914D01*
X266561Y43866D01*
X266524Y43829D01*
X266476Y43805D01*
X266403Y43732D01*
X266330Y43708D01*
X266208Y43635D01*
X265965Y43610D01*
X265721Y43635D01*
X265672Y43683D01*
X265453Y43805D01*
X265344Y43987D01*
X265356Y44900D01*
X265368Y44913D01*
X265441Y45034D01*
X265502Y45095D01*
X265551Y45119D01*
X265660Y45180D01*
X265648Y45241D01*
X265380Y45265D01*
X265344Y45302D01*
X265368Y46860D01*
X265466Y46884D01*
X265965Y46896D01*
X266038Y46872D01*
D02*
G37*
G36*
X245055Y45217D02*
X245274Y45095D01*
X245347Y45022D01*
X245396Y44998D01*
X245432Y44961D01*
X245530Y44791D01*
X245578Y44669D01*
X245627Y44377D01*
X245603Y44304D01*
X245566Y44170D01*
X245542Y44073D01*
X245457Y43987D01*
X245384Y43866D01*
X245298Y43781D01*
X245250Y43756D01*
X245079Y43659D01*
X245006Y43635D01*
X244836Y43610D01*
X244544Y43635D01*
X244495Y43683D01*
X244373Y43732D01*
X244361Y43744D01*
X244276Y43829D01*
X244227Y43854D01*
X244142Y43939D01*
X244118Y44012D01*
X244045Y44085D01*
X243996Y44377D01*
X244020Y44693D01*
X244093Y44815D01*
X244191Y44985D01*
X244276Y45046D01*
X244325Y45095D01*
X244373Y45119D01*
X244641Y45241D01*
X245055Y45217D01*
D02*
G37*
G36*
X241793D02*
X242012Y45095D01*
X242085Y45022D01*
X242134Y44998D01*
X242171Y44961D01*
X242243Y44840D01*
X242316Y44669D01*
X242365Y44547D01*
X242341Y44231D01*
X242292Y44134D01*
Y44109D01*
X242219Y43987D01*
X242171Y43939D01*
X242146Y43890D01*
X242012Y43756D01*
X241744Y43635D01*
X241574Y43610D01*
X241306Y43635D01*
X241160Y43732D01*
X241039Y43805D01*
X240990Y43854D01*
X240941Y43878D01*
X240905Y43914D01*
X240807Y44085D01*
X240759Y44207D01*
X240734Y44450D01*
X240771Y44730D01*
X240856Y44840D01*
X240929Y44961D01*
X241014Y45046D01*
X241063Y45071D01*
X241136Y45144D01*
X241233Y45168D01*
X241282Y45217D01*
X241379Y45241D01*
X241793Y45217D01*
D02*
G37*
G36*
X238556D02*
X238604Y45168D01*
X238775Y45071D01*
X238824Y45022D01*
X238872Y44998D01*
X238909Y44961D01*
X238933Y44913D01*
X238982Y44864D01*
X239030Y44742D01*
X239103Y44572D01*
X239079Y44207D01*
X238957Y43987D01*
X238909Y43939D01*
X238884Y43890D01*
X238860Y43866D01*
X238848Y43854D01*
X238750Y43756D01*
X238483Y43635D01*
X238312Y43610D01*
X238045Y43635D01*
X237899Y43732D01*
X237777Y43805D01*
X237619Y43963D01*
X237546Y44085D01*
X237497Y44207D01*
X237472Y44450D01*
X237497Y44693D01*
X237594Y44840D01*
X237619Y44888D01*
X237728Y45022D01*
X237777Y45046D01*
X237850Y45119D01*
X238118Y45241D01*
X238556Y45217D01*
D02*
G37*
G36*
X279279Y41955D02*
X279328Y41906D01*
X279498Y41809D01*
X279571Y41736D01*
X279620Y41712D01*
X279681Y41602D01*
X279705Y41553D01*
X279778Y41480D01*
X279803Y41237D01*
X279778Y40872D01*
X279705Y40799D01*
X279608Y40628D01*
X279571Y40592D01*
X279523Y40567D01*
X279425Y40470D01*
X279182Y40373D01*
X279085Y40348D01*
X278768Y40373D01*
X278622Y40470D01*
X278549Y40494D01*
X278476Y40567D01*
X278427Y40592D01*
X278391Y40628D01*
X278367Y40677D01*
X278318Y40726D01*
X278293Y40774D01*
X278221Y40945D01*
X278172Y41115D01*
X278196Y41359D01*
X278269Y41529D01*
Y41553D01*
X278281Y41565D01*
X278367Y41651D01*
X278427Y41760D01*
X278476Y41785D01*
X278549Y41858D01*
X278817Y41979D01*
X279279Y41955D01*
D02*
G37*
G36*
X243448D02*
X243497Y41906D01*
X243668Y41809D01*
X243716Y41760D01*
X243765Y41736D01*
X243801Y41699D01*
X243874Y41578D01*
X243947Y41407D01*
X243996Y41237D01*
X243972Y40993D01*
X243923Y40872D01*
X243850Y40750D01*
X243728Y40580D01*
X243643Y40519D01*
X243594Y40470D01*
X243351Y40373D01*
X243254Y40348D01*
X241306Y40373D01*
X241258Y40422D01*
X241039Y40543D01*
X240990Y40592D01*
X240941Y40616D01*
X240905Y40653D01*
X240807Y40823D01*
X240759Y40945D01*
X240734Y41188D01*
X240771Y41468D01*
X240880Y41626D01*
X240941Y41736D01*
X240990Y41760D01*
X241087Y41858D01*
X241209Y41906D01*
X241258Y41955D01*
X241428Y41979D01*
X241891D01*
X243448Y41955D01*
D02*
G37*
G36*
X232057D02*
X232129Y41882D01*
X232300Y41785D01*
X232434Y41651D01*
X232531Y41480D01*
X232580Y41359D01*
X232556Y40896D01*
X232507Y40847D01*
X232409Y40677D01*
X232227Y40494D01*
X231959Y40373D01*
X231862Y40348D01*
X231545Y40373D01*
X231326Y40494D01*
X231253Y40567D01*
X231205Y40592D01*
X231168Y40628D01*
X231144Y40677D01*
X231071Y40750D01*
X230973Y40969D01*
X230949Y41066D01*
X230973Y41432D01*
X231022Y41480D01*
X231119Y41651D01*
X231192Y41724D01*
X231205Y41760D01*
X231253Y41785D01*
X231326Y41858D01*
X231594Y41979D01*
X231837D01*
X232057Y41955D01*
D02*
G37*
G36*
X240211Y40324D02*
X240284Y40251D01*
X240406Y40178D01*
X240540Y40068D01*
X240564Y40020D01*
X240613Y39971D01*
X240686Y39801D01*
X240734Y39679D01*
X240710Y39338D01*
X240564Y39070D01*
X240454Y38937D01*
X240406Y38912D01*
X240333Y38839D01*
X240175Y38778D01*
X240138Y38742D01*
X240089D01*
X239992Y38718D01*
X239700Y38742D01*
X239481Y38864D01*
X239432Y38912D01*
X239383Y38937D01*
X239249Y39070D01*
X239177Y39192D01*
X239128Y39314D01*
X239103Y39557D01*
X239140Y39837D01*
X239201Y39922D01*
X239286Y40081D01*
X239335Y40105D01*
X239456Y40227D01*
X239724Y40348D01*
X240211Y40324D01*
D02*
G37*
G36*
X233687D02*
X233760Y40251D01*
X233931Y40154D01*
X233943Y40142D01*
X233955Y40129D01*
X234016Y40068D01*
X234040Y40020D01*
X234113Y39947D01*
X234138Y39874D01*
X234211Y39703D01*
X234186Y39290D01*
X234113Y39168D01*
X234089Y39119D01*
X233979Y38985D01*
X233906Y38912D01*
X233858Y38888D01*
X233809Y38839D01*
X233590Y38742D01*
X233420Y38718D01*
X233176Y38742D01*
X232957Y38864D01*
X232884Y38937D01*
X232835Y38961D01*
X232775Y39022D01*
X232750Y39070D01*
X232702Y39119D01*
X232604Y39338D01*
X232580Y39436D01*
X232604Y39801D01*
X232653Y39849D01*
X232750Y40020D01*
X232799Y40068D01*
X232823Y40117D01*
X232908Y40202D01*
X233079Y40300D01*
X233201Y40348D01*
X233687Y40324D01*
D02*
G37*
G36*
X252577Y50669D02*
X252662Y50584D01*
X252759Y50414D01*
X252905Y50146D01*
X253027Y49927D01*
X253197Y49610D01*
X253246Y49562D01*
X253441Y49197D01*
X253635Y48856D01*
X253757Y48661D01*
X254049Y48126D01*
X254110Y48040D01*
X254159Y48016D01*
X254280Y47967D01*
X254487Y47955D01*
X254597Y47967D01*
X254670Y47943D01*
X254755Y47955D01*
X257238Y47931D01*
X259356Y47906D01*
X259368Y47894D01*
X259441Y47919D01*
X259526Y47882D01*
X259502Y47809D01*
X259429Y47736D01*
X259404Y47639D01*
X259356Y47590D01*
X259234Y47371D01*
X259039Y47030D01*
X258918Y46835D01*
X258893Y46787D01*
X258771Y46592D01*
X258747Y46543D01*
X258650Y46373D01*
X258589Y46312D01*
X255327Y46288D01*
X255266Y46227D01*
X255254Y46117D01*
X255303Y45996D01*
X255546Y45582D01*
X255656Y45399D01*
X255680Y45351D01*
X255972Y44840D01*
X256070Y44693D01*
X256216Y44426D01*
X256337Y44231D01*
X256362Y44182D01*
X256483Y43963D01*
X256678Y43622D01*
X256800Y43428D01*
X256824Y43379D01*
X257068Y42941D01*
X257189Y42746D01*
X257214Y42697D01*
X257226Y42685D01*
X257615Y42004D01*
X257968Y41359D01*
X258066Y41188D01*
X258187Y40969D01*
X258285Y40799D01*
X258406Y40604D01*
X258650Y40093D01*
X258625Y39947D01*
X258504Y39752D01*
X258309Y39387D01*
X258114Y39046D01*
X257993Y38827D01*
X257895Y38681D01*
X257810Y38523D01*
X257737Y38547D01*
X257530Y38900D01*
X257433Y39070D01*
X257311Y39265D01*
X257287Y39314D01*
X257165Y39509D01*
X257019Y39776D01*
X256922Y39922D01*
X256824Y40093D01*
X256702Y40312D01*
X256581Y40507D01*
X256386Y40847D01*
X256264Y41066D01*
X256167Y41237D01*
X256070Y41383D01*
X255924Y41651D01*
X255802Y41870D01*
X255704Y42040D01*
X255631Y42162D01*
X255607Y42211D01*
X255485Y42405D01*
X255339Y42673D01*
X255218Y42892D01*
X255120Y43063D01*
X255023Y43209D01*
X254853Y43525D01*
X254755Y43695D01*
X254706Y43744D01*
X254682Y43842D01*
X254633Y43890D01*
X254609Y43939D01*
X254414Y44280D01*
X254293Y44474D01*
X254268Y44523D01*
X254171Y44693D01*
X254049Y44888D01*
X254025Y44937D01*
X253830Y45278D01*
X253708Y45472D01*
X253587Y45691D01*
X253392Y46032D01*
X253295Y46178D01*
X253124Y46495D01*
X253027Y46665D01*
X252905Y46884D01*
X252783Y47079D01*
X252759Y47128D01*
X252564Y47468D01*
X252467Y47614D01*
X252297Y47931D01*
X252199Y48101D01*
X252126Y48223D01*
X252102Y48272D01*
X252005Y48418D01*
X251834Y48734D01*
X251712Y48929D01*
X251688Y48977D01*
X251396Y49489D01*
X251250Y49732D01*
X251007Y50170D01*
X250909Y50341D01*
X250787Y50560D01*
X250739Y50608D01*
X250751Y50694D01*
X252577Y50669D01*
D02*
G37*
G36*
X241842Y38693D02*
X241915Y38620D01*
X242085Y38523D01*
X242171Y38438D01*
X242195Y38389D01*
X242243Y38340D01*
X242341Y38097D01*
X242365Y37999D01*
X242341Y37707D01*
X242219Y37488D01*
X242207Y37476D01*
X242195Y37464D01*
X242122Y37342D01*
X242085Y37306D01*
X242037Y37281D01*
X241988Y37233D01*
X241939Y37208D01*
X241720Y37111D01*
X241623Y37087D01*
X241331Y37111D01*
X241112Y37233D01*
X241063Y37281D01*
X241014Y37306D01*
X240880Y37440D01*
X240807Y37561D01*
X240759Y37683D01*
X240734Y37926D01*
X240759Y38194D01*
X240880Y38365D01*
X240941Y38474D01*
X240990Y38498D01*
X241087Y38596D01*
X241355Y38718D01*
X241842Y38693D01*
D02*
G37*
G36*
X264845Y36892D02*
X264979Y36782D01*
X265003Y36758D01*
X265015Y36746D01*
X265076Y36636D01*
X265149Y36466D01*
X265173Y36369D01*
X265149Y36077D01*
X265027Y35857D01*
X264979Y35809D01*
X264906Y35687D01*
X264772Y35602D01*
X264504Y35480D01*
X264407Y35456D01*
X264139Y35480D01*
X263920Y35602D01*
X263871Y35650D01*
X263822Y35675D01*
X263664Y35833D01*
X263542Y36101D01*
X263567Y36588D01*
X263640Y36661D01*
X263725Y36819D01*
X263774Y36843D01*
X263944Y36916D01*
X264845Y36892D01*
D02*
G37*
G36*
X243473Y37062D02*
X243521Y37014D01*
X243570Y36989D01*
X243741Y36868D01*
X243801Y36807D01*
X243874Y36685D01*
X243923Y36636D01*
X243947Y36490D01*
X243996Y36369D01*
X243972Y36101D01*
X243923Y35979D01*
X243850Y35857D01*
X243801Y35809D01*
X243777Y35736D01*
X243716Y35675D01*
X243594Y35602D01*
X243327Y35480D01*
X243229Y35456D01*
X242986Y35480D01*
X242840Y35553D01*
X242815D01*
X242596Y35724D01*
X242511Y35809D01*
X242438Y35930D01*
X242390Y36052D01*
X242365Y36295D01*
X242390Y36563D01*
X242596Y36868D01*
X242670Y36941D01*
X242840Y37038D01*
X242962Y37087D01*
X243473Y37062D01*
D02*
G37*
G36*
X232057Y38693D02*
X232203Y38596D01*
X232251Y38572D01*
X232458Y38365D01*
X232507Y38243D01*
X232556Y38194D01*
X232580Y38024D01*
X232556Y37634D01*
X232482Y37561D01*
X232458Y37488D01*
X232349Y37354D01*
X232276Y37281D01*
X232227Y37257D01*
X232178Y37208D01*
X232020Y37148D01*
X232044Y37099D01*
X232154Y36989D01*
X232312Y36904D01*
X232336Y36855D01*
X232458Y36734D01*
X232507Y36612D01*
X232556Y36563D01*
X232580Y36393D01*
X232556Y36028D01*
X232458Y35882D01*
X232385Y35760D01*
X232276Y35650D01*
X232227Y35626D01*
X232178Y35577D01*
X231935Y35480D01*
X231837Y35456D01*
X231570Y35480D01*
X231302Y35626D01*
X231253Y35675D01*
X231205Y35699D01*
X231168Y35736D01*
X231144Y35784D01*
X231071Y35857D01*
X230973Y36077D01*
X230949Y36174D01*
X230973Y36539D01*
X231022Y36588D01*
X231119Y36758D01*
X231168Y36807D01*
X231192Y36855D01*
X231278Y36941D01*
X231448Y37038D01*
X231533Y37123D01*
X231472Y37184D01*
X231338Y37220D01*
X231253Y37306D01*
X231205Y37330D01*
X231168Y37367D01*
X231144Y37415D01*
X231071Y37488D01*
X230973Y37707D01*
X230949Y37805D01*
X230973Y38170D01*
X231022Y38219D01*
X231119Y38389D01*
X231168Y38438D01*
X231192Y38486D01*
X231278Y38572D01*
X231448Y38669D01*
X231570Y38718D01*
X231643D01*
X232057Y38693D01*
D02*
G37*
G36*
X262849Y33825D02*
X263031Y33788D01*
X263287Y33606D01*
X263323Y33569D01*
X263348Y33521D01*
X263421Y33448D01*
X263482Y33289D01*
X263518Y33253D01*
X263542Y33009D01*
X263518Y32815D01*
X263396Y32596D01*
X263348Y32547D01*
X263323Y32498D01*
X263263Y32413D01*
X263190Y32389D01*
X263177Y32376D01*
X263116Y32316D01*
X262995Y32267D01*
X262824Y32218D01*
X262691Y32206D01*
X262544Y32231D01*
X262350Y32304D01*
X262264Y32364D01*
X262131Y32474D01*
X262033Y32571D01*
X262009Y32644D01*
X261936Y32766D01*
X261912Y32863D01*
X261936Y33301D01*
X262033Y33448D01*
X262106Y33569D01*
X262216Y33679D01*
X262337Y33752D01*
X262459Y33800D01*
X262557Y33825D01*
X262776Y33849D01*
X262849Y33825D01*
D02*
G37*
G36*
X280788Y30563D02*
X280813D01*
X280910Y30539D01*
X281032Y30466D01*
X281202Y30344D01*
X281287Y30259D01*
X281361Y30137D01*
X281434Y29967D01*
X281409Y29480D01*
X281287Y29309D01*
X281263Y29261D01*
X281129Y29127D01*
X281008Y29054D01*
X280886Y29005D01*
X280691Y28956D01*
X280423Y28981D01*
X280350Y29005D01*
X280229Y29078D01*
X280058Y29176D01*
X279973Y29309D01*
X279924Y29358D01*
X279827Y29602D01*
X279803Y29699D01*
X279827Y29991D01*
X279876Y30040D01*
X279900Y30137D01*
X280010Y30271D01*
X280083Y30393D01*
X280253Y30490D01*
X280423Y30563D01*
X280667Y30587D01*
X280788Y30563D01*
D02*
G37*
G36*
X254792D02*
X254865Y30539D01*
X254986Y30466D01*
X255145Y30356D01*
X255169Y30308D01*
X255242Y30234D01*
X255315Y30113D01*
X255364Y29991D01*
X255388Y29675D01*
X255364Y29577D01*
X255339Y29455D01*
X255266Y29383D01*
X255193Y29261D01*
X255145Y29212D01*
X255120Y29163D01*
X254986Y29078D01*
X254974Y29066D01*
X254938Y29030D01*
X254779Y28993D01*
X254646Y28956D01*
X252747Y28981D01*
X252674Y29005D01*
X252577Y29030D01*
X252479Y29127D01*
X252358Y29200D01*
X252260Y29346D01*
X252224Y29383D01*
X252163Y29541D01*
X252126Y29650D01*
X252151Y29991D01*
X252272Y30210D01*
X252406Y30393D01*
X252528Y30466D01*
X252577Y30514D01*
X252869Y30587D01*
X254792Y30563D01*
D02*
G37*
G36*
X282468Y28932D02*
X282541Y28908D01*
X282712Y28811D01*
X282845Y28701D01*
X282918Y28628D01*
X283016Y28458D01*
X283064Y28336D01*
X283040Y27849D01*
X282967Y27776D01*
X282870Y27606D01*
X282785Y27520D01*
X282663Y27447D01*
X282651Y27362D01*
X283965Y27338D01*
X284062Y27313D01*
X284257Y27240D01*
X284306Y27216D01*
X284318Y27204D01*
X284367Y27155D01*
X284415Y27131D01*
X284549Y26997D01*
X284647Y26827D01*
X284695Y26705D01*
X284671Y26242D01*
X284622Y26194D01*
X284525Y26023D01*
X284476Y25975D01*
X284452Y25926D01*
X284391Y25865D01*
X284221Y25768D01*
X284148Y25743D01*
X284050Y25719D01*
X283734Y25695D01*
X282054Y25719D01*
X281981Y25743D01*
X281860Y25817D01*
X281689Y25938D01*
X281653Y25975D01*
X281628Y26023D01*
X281555Y26096D01*
X281507Y26218D01*
X281434Y26388D01*
X281458Y26729D01*
X281604Y26997D01*
X281653Y27046D01*
X281677Y27094D01*
X281714Y27131D01*
X281835Y27204D01*
X282042Y27313D01*
X282018Y27362D01*
X281896Y27411D01*
X281835Y27472D01*
X281714Y27545D01*
X281653Y27606D01*
X281628Y27654D01*
X281555Y27727D01*
X281458Y27946D01*
X281434Y28044D01*
X281458Y28360D01*
X281580Y28579D01*
X281628Y28628D01*
X281653Y28677D01*
X281714Y28762D01*
X281835Y28835D01*
X281884Y28884D01*
X282176Y28956D01*
X282468Y28932D01*
D02*
G37*
G36*
X251530D02*
X251603Y28908D01*
X251725Y28835D01*
X251895Y28713D01*
X251956Y28652D01*
X252029Y28530D01*
X252102Y28360D01*
X252126Y28117D01*
X252090Y27861D01*
X252029Y27776D01*
X251931Y27606D01*
X251846Y27520D01*
X251798Y27496D01*
X251652Y27399D01*
X251518Y27338D01*
X251542Y27289D01*
X251652Y27253D01*
X251700Y27228D01*
X251919Y27058D01*
X251956Y27021D01*
X252029Y26900D01*
X252102Y26729D01*
X252126Y26486D01*
X252090Y26230D01*
X252029Y26145D01*
X251944Y25987D01*
X251895Y25963D01*
X251859Y25926D01*
X251846Y25889D01*
X251603Y25743D01*
X251372Y25707D01*
X251262Y25695D01*
X251189Y25719D01*
X251007Y25756D01*
X250751Y25938D01*
X250690Y25999D01*
X250666Y26048D01*
X250593Y26121D01*
X250508Y26352D01*
X250495Y26656D01*
X250568Y26827D01*
X250641Y26948D01*
X250763Y27119D01*
X250897Y27204D01*
X251104Y27313D01*
X251092Y27350D01*
X250873Y27472D01*
X250739Y27581D01*
X250690Y27630D01*
X250666Y27679D01*
X250593Y27752D01*
X250508Y27983D01*
X250495Y28068D01*
Y28092D01*
X250520Y28360D01*
X250641Y28579D01*
X250775Y28762D01*
X250897Y28835D01*
X250946Y28884D01*
X251043Y28908D01*
X251213Y28956D01*
X251530Y28932D01*
D02*
G37*
G36*
X267778Y27313D02*
X267973Y27240D01*
X268034Y27180D01*
X268192Y27094D01*
X268265Y26973D01*
X268313Y26924D01*
X268362Y26802D01*
X268411Y26632D01*
X268435Y26535D01*
X268411Y26340D01*
X268338Y26169D01*
X268313Y26121D01*
X268240Y26048D01*
X268216Y25999D01*
X268155Y25914D01*
X268106Y25889D01*
X267936Y25768D01*
X267827Y25707D01*
X267839Y25646D01*
X267936Y25622D01*
X268058Y25549D01*
X268192Y25464D01*
X268216Y25415D01*
X268338Y25244D01*
X268399Y25086D01*
X268423Y24964D01*
X268435Y24806D01*
X268411Y24733D01*
X268313Y24490D01*
X268240Y24417D01*
X268216Y24368D01*
X268082Y24234D01*
X267960Y24161D01*
X267912Y24113D01*
X267595Y24088D01*
X267303Y24113D01*
X267133Y24234D01*
X267084Y24259D01*
X266950Y24392D01*
X266877Y24514D01*
X266829Y24636D01*
Y24660D01*
X266804Y24733D01*
X266829Y25196D01*
X266902Y25269D01*
X266999Y25439D01*
X267060Y25500D01*
X267108Y25524D01*
X267255Y25622D01*
X267352Y25646D01*
X267388Y25683D01*
X267376Y25719D01*
X267157Y25841D01*
X267023Y25950D01*
X266950Y26023D01*
X266877Y26145D01*
X266829Y26267D01*
X266804Y26364D01*
X266792Y26522D01*
X266816Y26741D01*
X266841Y26839D01*
X266902Y26900D01*
X266975Y27021D01*
X267023Y27070D01*
X267048Y27119D01*
X267181Y27204D01*
X267230Y27253D01*
X267364Y27289D01*
X267571Y27350D01*
X267778Y27313D01*
D02*
G37*
G36*
X284075Y24064D02*
X284245Y23991D01*
X284294Y23967D01*
X284367Y23893D01*
X284391D01*
X284574Y23711D01*
X284695Y23443D01*
X284671Y22981D01*
X284622Y22932D01*
X284525Y22762D01*
X284428Y22664D01*
X284415Y22628D01*
X284367Y22603D01*
X284245Y22530D01*
X284075Y22457D01*
X283588Y22482D01*
X283515Y22555D01*
X283344Y22652D01*
X283284Y22713D01*
X283259Y22762D01*
X283186Y22835D01*
X283137Y22956D01*
X283064Y23127D01*
X283089Y23492D01*
X283211Y23711D01*
X283284Y23784D01*
X283308Y23833D01*
X283344Y23869D01*
X283393Y23893D01*
X283466Y23967D01*
X283624Y24027D01*
X283734Y24064D01*
X283831Y24088D01*
X284075Y24064D01*
D02*
G37*
G36*
X246710Y41955D02*
X246759Y41906D01*
X246929Y41809D01*
X246978Y41760D01*
X247027Y41736D01*
X247063Y41699D01*
X247136Y41578D01*
X247209Y41407D01*
X247234Y41237D01*
X247209Y40921D01*
X247112Y40750D01*
X247002Y40592D01*
X246954Y40567D01*
X246881Y40494D01*
X246722Y40409D01*
X246759Y40373D01*
X246856Y40348D01*
X247112Y40361D01*
X249911Y40336D01*
X249996Y40300D01*
X250167Y40202D01*
X250228Y40142D01*
X250252Y40093D01*
X250301Y39971D01*
X250276Y39022D01*
X250228Y38973D01*
X250203Y38924D01*
X250118Y38864D01*
X249850Y38742D01*
X249753Y38718D01*
X248414Y38693D01*
X248402Y38632D01*
X248645Y38486D01*
X248694Y38438D01*
X248791Y38267D01*
X248840Y38145D01*
X248864Y37902D01*
X248840Y37659D01*
X248657Y37354D01*
X248609Y37330D01*
X248475Y37220D01*
X248438Y37184D01*
X248353Y37148D01*
X248365Y37111D01*
X248463Y37087D01*
X248755Y37111D01*
X248828Y37087D01*
X249290Y37111D01*
X250057Y37099D01*
X250167Y37111D01*
X250288Y37038D01*
X250325Y37001D01*
X250349Y36953D01*
X250386Y36916D01*
X250544Y36904D01*
X253380Y36916D01*
X253550Y36819D01*
X253611Y36758D01*
X253733Y36490D01*
X253757Y36247D01*
X253721Y36016D01*
X253623Y35870D01*
X253538Y35736D01*
X253477Y35675D01*
X253428Y35650D01*
X253331Y35553D01*
X253246Y35517D01*
X253270Y35468D01*
X253404Y35456D01*
X253477Y35480D01*
X255851Y35468D01*
X255899Y35492D01*
X255887Y35529D01*
X255765Y35602D01*
X255692Y35675D01*
X255644Y35699D01*
X255583Y35760D01*
X255558Y35809D01*
X255485Y35882D01*
X255461Y35979D01*
X255412Y36028D01*
X255388Y36198D01*
X255412Y36539D01*
X255510Y36709D01*
X255558Y36758D01*
X255583Y36807D01*
X255644Y36868D01*
X255765Y36916D01*
X261583Y36892D01*
X261717Y36782D01*
X261790Y36709D01*
X261887Y36466D01*
X261912Y36369D01*
X261887Y36052D01*
X261790Y35906D01*
X261717Y35784D01*
X261632Y35675D01*
X261583Y35650D01*
X261437Y35553D01*
X261279Y35492D01*
X261145Y35456D01*
X259830Y35431D01*
X259818Y35371D01*
X259855Y35334D01*
X259976Y35285D01*
X260086Y35176D01*
X260110Y35127D01*
X260159Y35078D01*
X260256Y34859D01*
X260281Y34689D01*
X260256Y34421D01*
X260159Y34275D01*
X260086Y34153D01*
X260001Y34044D01*
X259879Y33971D01*
X259757Y33922D01*
X259709Y33898D01*
X259672Y33861D01*
X259733Y33800D01*
X259855Y33728D01*
X260013Y33642D01*
X260037Y33594D01*
X260135Y33496D01*
X260256Y33228D01*
X260281Y33058D01*
X260256Y32790D01*
X260159Y32644D01*
X260086Y32523D01*
X260037Y32474D01*
X260013Y32425D01*
X259879Y32340D01*
X259672Y32231D01*
X259684Y32194D01*
X260013Y32011D01*
X260037Y31963D01*
X260135Y31865D01*
X260256Y31598D01*
X260281Y31427D01*
X260256Y31159D01*
X260208Y31111D01*
X260086Y30892D01*
X260037Y30843D01*
X260013Y30794D01*
X259879Y30709D01*
X259672Y30600D01*
X259697Y30551D01*
X259818Y30502D01*
X259855Y30466D01*
X259903Y30441D01*
X260037Y30356D01*
X260062Y30308D01*
X260135Y30234D01*
X260256Y29967D01*
X260281Y29869D01*
X260256Y29529D01*
X260208Y29480D01*
X260086Y29261D01*
X260037Y29212D01*
X260013Y29163D01*
X259818Y29042D01*
X259697Y28993D01*
X259672Y28944D01*
X259709Y28908D01*
X259806Y28884D01*
X259976Y28762D01*
X260025Y28737D01*
X260086Y28652D01*
X260135Y28604D01*
X260256Y28336D01*
X260281Y28238D01*
X260256Y27898D01*
X260208Y27849D01*
X260086Y27630D01*
X260013Y27557D01*
X260001Y27520D01*
X259830Y27423D01*
X259672Y27338D01*
X259697Y27289D01*
X259879Y27204D01*
X259928Y27155D01*
X260049Y27082D01*
X260110Y26997D01*
X260208Y26827D01*
X260256Y26705D01*
X260281Y26608D01*
X260256Y26291D01*
X260135Y26072D01*
X260086Y26023D01*
X260062Y25975D01*
X259976Y25889D01*
X259855Y25817D01*
X259842Y25756D01*
X259879Y25719D01*
X264528Y25695D01*
X264796Y25549D01*
X264954Y25439D01*
X265027Y25317D01*
X265149Y25050D01*
X265173Y24952D01*
X265149Y24685D01*
X265003Y24417D01*
X264954Y24368D01*
X264930Y24319D01*
X264893Y24283D01*
X264845Y24259D01*
X264711Y24173D01*
X264735Y24100D01*
X266074Y24076D01*
X266171Y24052D01*
X266403Y23942D01*
X266451Y23893D01*
X266573Y23820D01*
X266658Y23687D01*
X266780Y23419D01*
X266804Y23248D01*
X266780Y23078D01*
X266707Y22908D01*
X266682Y22859D01*
X266609Y22786D01*
X266585Y22737D01*
X266451Y22603D01*
X266330Y22530D01*
X266281Y22482D01*
X266038Y22457D01*
X264042Y22482D01*
X263968Y22555D01*
X263798Y22652D01*
X263689Y22762D01*
X263542Y23078D01*
X263567Y23565D01*
X263640Y23638D01*
X263713Y23760D01*
X263762Y23808D01*
X263774Y23845D01*
X263822Y23869D01*
X263908Y23930D01*
X263932Y23979D01*
X264029Y24027D01*
X264005Y24076D01*
X263895Y24088D01*
X263822Y24064D01*
X259246Y24088D01*
X259173Y24113D01*
X259124Y24137D01*
X259051Y24210D01*
X258893Y24295D01*
X258869Y24344D01*
X258771Y24441D01*
X258650Y24709D01*
X258674Y25147D01*
X258796Y25366D01*
X258869Y25439D01*
X258893Y25488D01*
X259027Y25573D01*
X259149Y25622D01*
X259234Y25658D01*
X259210Y25731D01*
X259124Y25768D01*
X258978Y25865D01*
X258930Y25889D01*
X258869Y25950D01*
X258845Y25999D01*
X258771Y26072D01*
X258650Y26340D01*
X258674Y26778D01*
X258796Y26997D01*
X258893Y27094D01*
X258905Y27131D01*
X259027Y27204D01*
X259198Y27277D01*
X259246Y27301D01*
X259258Y27313D01*
X259198Y27374D01*
X258930Y27520D01*
X258869Y27581D01*
X258845Y27630D01*
X258771Y27703D01*
X258650Y27971D01*
X258674Y28409D01*
X258747Y28530D01*
X258771Y28579D01*
X258881Y28713D01*
X258954Y28786D01*
X259003Y28811D01*
X259124Y28884D01*
X259246Y28932D01*
X259258Y28969D01*
X259222Y29005D01*
X259124Y29030D01*
X258978Y29127D01*
X258930Y29151D01*
X258845Y29237D01*
X258820Y29285D01*
X258771Y29334D01*
X258650Y29602D01*
X258674Y30040D01*
X258723Y30088D01*
X258845Y30308D01*
X258930Y30393D01*
X259051Y30466D01*
X259064Y30551D01*
X258930Y30587D01*
X258613Y30563D01*
X257688Y30587D01*
X257567Y30636D01*
X257469Y30660D01*
X257396Y30733D01*
X257274Y30807D01*
X257214Y30867D01*
X257189Y30916D01*
X257141Y30965D01*
X257019Y31233D01*
X257043Y31671D01*
X257092Y31719D01*
X257189Y31890D01*
X257238Y31938D01*
X257262Y31987D01*
X257299Y32024D01*
X257433Y32084D01*
X257457Y32157D01*
X257421Y32194D01*
X252796Y32218D01*
X252552Y32316D01*
X252479Y32389D01*
X252358Y32462D01*
X252321Y32498D01*
X252297Y32547D01*
X252199Y32693D01*
X252175Y32790D01*
X252126Y32912D01*
X252151Y33253D01*
X252272Y33472D01*
X252406Y33654D01*
X252577Y33752D01*
X252625Y33800D01*
X252698Y33825D01*
X252710Y33886D01*
X252528Y33971D01*
X252321Y34129D01*
X252297Y34178D01*
X252248Y34227D01*
X252199Y34348D01*
X252126Y34519D01*
X252151Y34884D01*
X252272Y35103D01*
X252321Y35152D01*
X252345Y35200D01*
X252455Y35310D01*
X252577Y35383D01*
X252589Y35395D01*
X252552Y35456D01*
X250069Y35431D01*
X250057Y35371D01*
X250094Y35334D01*
X250264Y35237D01*
X250325Y35176D01*
X250398Y35054D01*
X250471Y34884D01*
X250495Y34640D01*
X250459Y34385D01*
X250422Y34299D01*
X250349Y34227D01*
X250276Y34105D01*
X250215Y34044D01*
X250167Y34020D01*
X250094Y33947D01*
X249972Y33898D01*
X249802Y33849D01*
X249704Y33825D01*
X248438Y33800D01*
X248426Y33764D01*
X248463Y33703D01*
X248633Y33606D01*
X248694Y33545D01*
X248767Y33423D01*
X248840Y33253D01*
X248864Y33009D01*
X248828Y32754D01*
X248791Y32669D01*
X248718Y32596D01*
X248645Y32474D01*
X248584Y32413D01*
X248475Y32352D01*
X248451Y32304D01*
X248378Y32231D01*
X251420Y32206D01*
X251542Y32182D01*
X251639Y32157D01*
X251895Y31975D01*
X251956Y31914D01*
X252053Y31744D01*
X252102Y31622D01*
X252126Y31379D01*
X252090Y31123D01*
X252005Y30989D01*
X251883Y30819D01*
X251846Y30782D01*
X251798Y30758D01*
X251652Y30660D01*
X251408Y30587D01*
X250946Y30563D01*
X250422Y30575D01*
X248998Y30563D01*
X248925Y30587D01*
X248536Y30563D01*
X247927Y30587D01*
X247806Y30636D01*
X247708Y30660D01*
X247489Y30831D01*
X247428Y30892D01*
X247404Y30940D01*
X247331Y31013D01*
X247258Y31257D01*
X247234Y31354D01*
X247258Y31598D01*
X247307Y31719D01*
X247380Y31841D01*
X247428Y31890D01*
X247453Y31938D01*
X247538Y32024D01*
X247659Y32097D01*
X247672Y32182D01*
X247282Y32206D01*
X247221Y32218D01*
X247148Y32194D01*
X245578Y32206D01*
X245189Y32182D01*
X245213Y32084D01*
X245250Y32048D01*
X245371Y31975D01*
X245432Y31914D01*
X245457Y31865D01*
X245554Y31719D01*
X245590Y31585D01*
X245615Y31488D01*
X245627Y31330D01*
X245603Y31257D01*
X245578Y31159D01*
X245530Y31038D01*
X245481Y30989D01*
X245457Y30940D01*
X245347Y30807D01*
X245298Y30758D01*
X245250Y30733D01*
X245128Y30660D01*
X245019Y30600D01*
X245043Y30551D01*
X245165Y30502D01*
X245201Y30466D01*
X245250Y30441D01*
X245384Y30332D01*
X245432Y30283D01*
X245457Y30234D01*
X245554Y30088D01*
X245627Y29796D01*
X245603Y29602D01*
X245554Y29480D01*
X245530Y29407D01*
X245481Y29358D01*
X245457Y29309D01*
X245347Y29176D01*
X245213Y29090D01*
X245189Y28993D01*
X245676Y28969D01*
X246442Y28981D01*
X246516Y28956D01*
X246649Y28920D01*
X246747Y28896D01*
X246881Y28811D01*
X247015Y28701D01*
X247063Y28652D01*
X247136Y28530D01*
X247185Y28482D01*
X247234Y28190D01*
X247209Y27898D01*
X247185Y27825D01*
X247160Y27776D01*
X247087Y27703D01*
X247015Y27581D01*
X246929Y27496D01*
X246808Y27423D01*
X246686Y27374D01*
X246528Y27338D01*
X245140Y27313D01*
X245189Y27265D01*
X245213Y27216D01*
X245298Y27131D01*
X245347Y27107D01*
X245408Y27070D01*
X245481Y26948D01*
X245530Y26900D01*
X245578Y26729D01*
X245603Y26632D01*
X245627Y26462D01*
X245578Y26291D01*
X245554Y26194D01*
X245530Y26145D01*
X245457Y26072D01*
X245384Y25950D01*
X245323Y25889D01*
X245201Y25817D01*
X245189Y25731D01*
X246528Y25707D01*
X246625Y25683D01*
X246783Y25622D01*
X246832Y25597D01*
X246905Y25524D01*
X246954Y25500D01*
X247015Y25464D01*
X247039Y25415D01*
X247185Y25196D01*
Y25171D01*
X247209Y25098D01*
X247234Y24928D01*
X247209Y24636D01*
X247112Y24465D01*
X246990Y24295D01*
X246954Y24259D01*
X246795Y24173D01*
X246820Y24100D01*
X249290Y24088D01*
X249327Y24149D01*
X249290Y24210D01*
X249120Y24307D01*
X249059Y24368D01*
X249035Y24417D01*
X248962Y24490D01*
X248864Y24806D01*
X248889Y25098D01*
X249011Y25317D01*
X249132Y25488D01*
X249266Y25573D01*
X249315Y25622D01*
X249449Y25658D01*
X249558Y25695D01*
X249655Y25719D01*
X249850Y25695D01*
X249972Y25646D01*
X250142Y25549D01*
X250276Y25439D01*
X250325Y25391D01*
X250398Y25269D01*
X250447Y25220D01*
X250471Y25050D01*
X250495Y24952D01*
X250471Y24636D01*
X250398Y24514D01*
X250301Y24344D01*
X250240Y24283D01*
X250191Y24259D01*
X250057Y24173D01*
X250082Y24100D01*
X256313Y24076D01*
X256410Y24052D01*
X256544Y23991D01*
X256666Y23918D01*
X256715Y23869D01*
X256763Y23845D01*
X256800Y23808D01*
X256824Y23760D01*
X256897Y23687D01*
X256995Y23468D01*
X257019Y23224D01*
X256982Y22993D01*
X256812Y22725D01*
X256690Y22603D01*
X256520Y22506D01*
X256435Y22421D01*
X256495Y22360D01*
X256617Y22336D01*
X256715Y22238D01*
X256763Y22214D01*
X256849Y22129D01*
X256873Y22080D01*
X256995Y21885D01*
X257019Y21520D01*
X256995Y21447D01*
X256970Y21325D01*
X256897Y21252D01*
X256873Y21179D01*
X256763Y21045D01*
X256690Y20972D01*
X256520Y20875D01*
X256459Y20814D01*
X256471Y20753D01*
X256629Y20693D01*
X256715Y20607D01*
X256763Y20583D01*
X256849Y20498D01*
X256873Y20449D01*
X256995Y20254D01*
X257019Y19889D01*
X256995Y19816D01*
X256970Y19694D01*
X256897Y19621D01*
X256873Y19548D01*
X256775Y19451D01*
X256751Y19402D01*
X256715Y19366D01*
X256666Y19342D01*
X256471Y19220D01*
X256374Y19195D01*
X255911Y19220D01*
X255838Y19293D01*
X255668Y19390D01*
X255583Y19476D01*
X255558Y19524D01*
X255485Y19597D01*
X255461Y19694D01*
X255412Y19743D01*
X255388Y19841D01*
X255412Y20254D01*
X255534Y20473D01*
X255607Y20547D01*
X255631Y20595D01*
X255717Y20656D01*
X255936Y20778D01*
X255948Y20790D01*
X255790Y20948D01*
X255668Y21021D01*
X255583Y21106D01*
X255558Y21155D01*
X255485Y21228D01*
X255461Y21325D01*
X255412Y21374D01*
X255388Y21472D01*
X255412Y21885D01*
X255510Y22056D01*
X255619Y22214D01*
X255668Y22238D01*
X255802Y22348D01*
X255887Y22409D01*
X255899Y22421D01*
X255790Y22457D01*
X255571Y22433D01*
X255497Y22457D01*
X253441Y22445D01*
X253282Y22457D01*
X253246Y22421D01*
X253258Y22384D01*
X253380Y22311D01*
X253453Y22238D01*
X253501Y22214D01*
X253611Y22104D01*
X253708Y21934D01*
X253733Y21861D01*
X253757Y21544D01*
X253733Y21447D01*
X253708Y21325D01*
X253660Y21277D01*
X253562Y21106D01*
X253428Y20972D01*
X253258Y20875D01*
X253136Y20826D01*
X252650Y20851D01*
X252479Y20972D01*
X252430Y20997D01*
X252321Y21106D01*
X252297Y21155D01*
X252224Y21228D01*
X252199Y21325D01*
X252126Y21496D01*
X252151Y21861D01*
X252272Y22080D01*
X252321Y22129D01*
X252358Y22214D01*
X252406Y22238D01*
X252540Y22348D01*
X252637Y22396D01*
X252613Y22445D01*
X252430Y22457D01*
X252358Y22433D01*
X252114Y22457D01*
X250666Y22445D01*
X250386Y22457D01*
X250361Y22433D01*
X250288Y22457D01*
X249035Y22445D01*
X248779Y22457D01*
X248706Y22433D01*
X248390Y22457D01*
X248353Y22421D01*
X248414Y22360D01*
X248463Y22336D01*
X248536Y22263D01*
X248584Y22238D01*
X248694Y22153D01*
X248791Y21983D01*
X248840Y21861D01*
X248864Y21618D01*
X248840Y21374D01*
X248767Y21252D01*
X248670Y21082D01*
X248633Y21045D01*
X248584Y21021D01*
X248536Y20972D01*
X248402Y20912D01*
X248414Y20851D01*
X248512Y20826D01*
X249899Y20802D01*
X250118Y20680D01*
X250167Y20632D01*
X250215Y20607D01*
X250264Y20559D01*
X250301Y20547D01*
X250325Y20498D01*
X250471Y20254D01*
X250495Y19889D01*
X250471Y19816D01*
X250447Y19670D01*
X250374Y19597D01*
X250301Y19476D01*
X250167Y19342D01*
X250045Y19293D01*
X250009Y19256D01*
X250069Y19195D01*
X253185Y19171D01*
X253234Y19123D01*
X253404Y19025D01*
X253538Y18916D01*
X253611Y18843D01*
X253684Y18721D01*
X253733Y18599D01*
X253757Y18283D01*
X253733Y18185D01*
X253708Y18064D01*
X253635Y17991D01*
X253538Y17820D01*
X253453Y17735D01*
X253404Y17711D01*
X253209Y17589D01*
X253112Y17565D01*
X249412Y17589D01*
X249266Y17686D01*
X249217Y17711D01*
X249144Y17784D01*
X249096Y17808D01*
X249059Y17845D01*
X248986Y17966D01*
X248889Y18185D01*
X248864Y18283D01*
X248889Y18575D01*
X248937Y18697D01*
X248962Y18745D01*
X249083Y18916D01*
X249096Y18952D01*
X249144Y18976D01*
X249315Y19098D01*
X249363Y19123D01*
X249376Y19159D01*
X249266Y19195D01*
X247781Y19220D01*
X247635Y19317D01*
X247586Y19342D01*
X247514Y19415D01*
X247465Y19439D01*
X247428Y19476D01*
X247355Y19597D01*
X247282Y19768D01*
X247234Y19938D01*
X247258Y20181D01*
X247282Y20254D01*
X247331Y20376D01*
X247404Y20449D01*
X247465Y20583D01*
X247586Y20656D01*
X247635Y20705D01*
X247733Y20729D01*
X247781Y20753D01*
X247793Y20814D01*
X247684Y20924D01*
X247514Y21021D01*
X247428Y21106D01*
X247355Y21228D01*
X247282Y21398D01*
X247234Y21569D01*
X247258Y21812D01*
X247307Y21934D01*
X247331Y22007D01*
X247404Y22080D01*
X247477Y22202D01*
X247514Y22238D01*
X247562Y22263D01*
X247635Y22336D01*
X247684Y22360D01*
X247769Y22421D01*
X247659Y22457D01*
X247392Y22433D01*
X247319Y22457D01*
X247063Y22445D01*
X246211Y22469D01*
X246114Y22494D01*
X246053Y22555D01*
X245883Y22652D01*
X245797Y22737D01*
X245724Y22859D01*
X245676Y22908D01*
X245651Y23054D01*
X245627Y23127D01*
X245603Y23224D01*
X245639Y23455D01*
X245664Y23553D01*
X245749Y23687D01*
X245858Y23845D01*
X245907Y23869D01*
X246041Y23979D01*
X246077Y24015D01*
X246114Y24027D01*
X246089Y24076D01*
X245980Y24088D01*
X245907Y24064D01*
X245554Y24076D01*
X244763Y24064D01*
X244690Y24088D01*
X244495Y24113D01*
X244325Y24234D01*
X244276Y24259D01*
X244167Y24368D01*
X244093Y24490D01*
X244045Y24539D01*
X243996Y24831D01*
X244020Y25147D01*
X244118Y25317D01*
X244227Y25476D01*
X244276Y25500D01*
X244446Y25622D01*
X244580Y25658D01*
X244568Y25719D01*
X244398Y25817D01*
X244227Y25938D01*
X244167Y25999D01*
X244093Y26121D01*
X244045Y26169D01*
X243996Y26462D01*
X243972Y26535D01*
X243996Y26608D01*
X244033Y26790D01*
X244081Y26912D01*
X244118Y26924D01*
X244191Y27046D01*
X244300Y27155D01*
X244349Y27180D01*
X244398Y27228D01*
X244580Y27289D01*
X244556Y27362D01*
X244410Y27435D01*
X244373Y27472D01*
X244252Y27545D01*
X244167Y27630D01*
X244093Y27752D01*
X244045Y27800D01*
X243996Y28092D01*
X243972Y28165D01*
X243996Y28238D01*
X244033Y28421D01*
X244069Y28506D01*
X244118Y28555D01*
X244191Y28677D01*
X244300Y28786D01*
X244349Y28811D01*
X244398Y28859D01*
X244556Y28920D01*
X244580Y28969D01*
X244544Y29005D01*
X244422Y29054D01*
X244373Y29103D01*
X244252Y29176D01*
X244167Y29261D01*
X244142Y29309D01*
X244045Y29455D01*
X244020Y29553D01*
X243972Y29796D01*
X243996Y29869D01*
X244057Y30125D01*
X244118Y30186D01*
X244191Y30308D01*
X244276Y30393D01*
X244398Y30466D01*
X244410Y30551D01*
X244276Y30587D01*
X244081Y30563D01*
X244008Y30587D01*
X243619Y30563D01*
X242243Y30575D01*
X241598Y30563D01*
X241525Y30587D01*
X241331Y30612D01*
X241258Y30636D01*
X241136Y30709D01*
X240966Y30831D01*
X240905Y30892D01*
X240832Y31013D01*
X240783Y31062D01*
X240734Y31354D01*
X240759Y31671D01*
X240832Y31792D01*
X240880Y31841D01*
X240905Y31914D01*
X241039Y32048D01*
X241160Y32121D01*
X241282Y32170D01*
X241379Y32194D01*
X241550Y32218D01*
X242828Y32231D01*
X242815Y32267D01*
X242779Y32279D01*
X242755Y32328D01*
X242670Y32413D01*
X242621Y32437D01*
X242536Y32523D01*
X242511Y32571D01*
X242390Y32742D01*
X242365Y33131D01*
X242426Y33387D01*
X242511Y33472D01*
X242584Y33594D01*
X242670Y33679D01*
X242791Y33752D01*
X242913Y33800D01*
X243010Y33825D01*
X243254Y33849D01*
X247696Y33837D01*
X247745Y33861D01*
X247586Y34020D01*
X247538Y34044D01*
X247428Y34129D01*
X247355Y34251D01*
X247282Y34421D01*
X247234Y34616D01*
X247258Y34835D01*
X247282Y34908D01*
X247343Y35066D01*
X247428Y35152D01*
X247453Y35200D01*
X247538Y35285D01*
X247672Y35346D01*
X247696Y35419D01*
X247659Y35456D01*
X246248Y35480D01*
X246077Y35553D01*
X246029Y35577D01*
X245956Y35650D01*
X245907Y35675D01*
X245797Y35760D01*
X245724Y35882D01*
X245651Y36052D01*
X245615Y36210D01*
X245603Y36369D01*
X245627Y36442D01*
X245651Y36539D01*
X245700Y36661D01*
X245773Y36734D01*
X245846Y36855D01*
X245931Y36941D01*
X246102Y37038D01*
X246187Y37123D01*
X246175Y37160D01*
X246017Y37220D01*
X245980Y37257D01*
X245931Y37281D01*
X245797Y37391D01*
X245724Y37513D01*
X245651Y37683D01*
X245627Y37780D01*
X245603Y37951D01*
X245639Y38109D01*
X245664Y38206D01*
X245700Y38292D01*
X245773Y38365D01*
X245846Y38486D01*
X245931Y38572D01*
X246102Y38669D01*
X246162Y38730D01*
X246138Y38803D01*
X246017Y38851D01*
X245931Y38912D01*
X245797Y39022D01*
X245724Y39144D01*
X245676Y39192D01*
X245639Y39350D01*
X245615Y39472D01*
X245603Y39630D01*
X245627Y39703D01*
X245676Y39874D01*
X245700Y39922D01*
X245773Y39996D01*
X245846Y40117D01*
X245931Y40178D01*
X245980Y40227D01*
X246102Y40300D01*
X246162Y40361D01*
X246150Y40422D01*
X246029Y40470D01*
X245980Y40494D01*
X245907Y40567D01*
X245858Y40592D01*
X245797Y40653D01*
X245724Y40774D01*
X245676Y40823D01*
X245639Y40981D01*
X245615Y41103D01*
X245603Y41261D01*
X245627Y41334D01*
X245712Y41565D01*
X245773Y41626D01*
X245846Y41748D01*
X245931Y41809D01*
X245980Y41858D01*
X246248Y41979D01*
X246710Y41955D01*
D02*
G37*
G36*
X269421Y24064D02*
X269689Y23918D01*
X269847Y23808D01*
X269920Y23687D01*
X270017Y23468D01*
X270042Y23370D01*
X270054Y23212D01*
X270030Y23090D01*
X269944Y22859D01*
X269871Y22786D01*
X269847Y22737D01*
X269713Y22603D01*
X269591Y22530D01*
X269457Y22421D01*
X269494Y22384D01*
X269652Y22323D01*
X269713Y22263D01*
X269762Y22238D01*
X269847Y22177D01*
X269920Y22056D01*
X270017Y21837D01*
X270042Y21739D01*
X270054Y21581D01*
X270030Y21459D01*
X269956Y21265D01*
X269896Y21179D01*
X269786Y21045D01*
X269713Y20972D01*
X269591Y20899D01*
X269421Y20826D01*
X268934Y20851D01*
X268885Y20899D01*
X268837Y20924D01*
X268666Y21045D01*
X268581Y21131D01*
X268508Y21252D01*
X268459Y21374D01*
X268435Y21472D01*
X268411Y21690D01*
X268435Y21764D01*
X268472Y21946D01*
X268654Y22202D01*
X268691Y22238D01*
X268739Y22263D01*
X268812Y22336D01*
X268910Y22360D01*
X268958Y22384D01*
X268983Y22409D01*
X268995Y22421D01*
X268910Y22506D01*
X268861Y22530D01*
X268812Y22579D01*
X268691Y22652D01*
X268581Y22762D01*
X268508Y22883D01*
X268459Y23005D01*
X268435Y23102D01*
X268411Y23321D01*
X268435Y23394D01*
X268472Y23577D01*
X268654Y23833D01*
X268691Y23869D01*
X268739Y23893D01*
X268812Y23967D01*
X268971Y24027D01*
X269080Y24064D01*
X269178Y24088D01*
X269421Y24064D01*
D02*
G37*
G36*
X284123Y19171D02*
X284269Y19074D01*
X284342Y19050D01*
X284574Y18818D01*
X284695Y18550D01*
X284671Y18088D01*
X284598Y18015D01*
X284501Y17845D01*
X284367Y17711D01*
X284196Y17613D01*
X284075Y17565D01*
X283612Y17589D01*
X283466Y17686D01*
X283417Y17711D01*
X283186Y17942D01*
X283162Y18039D01*
X283125Y18076D01*
X283113Y18088D01*
X283064Y18258D01*
X283089Y18599D01*
X283211Y18818D01*
X283284Y18891D01*
X283308Y18940D01*
X283344Y18976D01*
X283393Y19001D01*
X283466Y19074D01*
X283685Y19171D01*
X283783Y19195D01*
X284123Y19171D01*
D02*
G37*
G36*
X258078D02*
X258126Y19123D01*
X258297Y19025D01*
X258346Y18976D01*
X258394Y18952D01*
X258479Y18867D01*
X258504Y18818D01*
X258625Y18623D01*
X258650Y18307D01*
Y18283D01*
X258601Y18088D01*
X258552Y18039D01*
X258455Y17869D01*
X258272Y17686D01*
X258005Y17565D01*
X257542Y17589D01*
X257469Y17662D01*
X257299Y17759D01*
X257214Y17845D01*
X257189Y17893D01*
X257116Y17966D01*
X257092Y18039D01*
X257019Y18210D01*
X257043Y18648D01*
X257092Y18697D01*
X257189Y18867D01*
X257238Y18916D01*
X257262Y18964D01*
X257348Y19025D01*
X257396Y19074D01*
X257494Y19098D01*
X257542Y19147D01*
X257737Y19195D01*
X258078Y19171D01*
D02*
G37*
G36*
X241355Y28956D02*
X241428Y28932D01*
X241525Y28908D01*
X241659Y28871D01*
X241720Y28811D01*
X241891Y28713D01*
X242024Y28604D01*
X242073Y28555D01*
X242097Y28506D01*
X242171Y28433D01*
X242195Y28336D01*
X242268Y28263D01*
X242329Y27983D01*
X242365Y27654D01*
X242341Y18575D01*
X242316Y18502D01*
X242292Y18404D01*
X242256Y18246D01*
X242195Y18185D01*
X242097Y18015D01*
X242024Y17942D01*
X242012Y17905D01*
X241964Y17881D01*
X241866Y17784D01*
X241817Y17759D01*
X241769Y17711D01*
X241538Y17625D01*
X241428Y17589D01*
X241331Y17565D01*
X237533D01*
X231837Y17589D01*
X231667Y17662D01*
X231545Y17711D01*
X231497Y17759D01*
X231448Y17784D01*
X231314Y17893D01*
X231192Y18015D01*
X231168Y18064D01*
X231071Y18210D01*
X231010Y18368D01*
X230973Y18477D01*
X230949Y18648D01*
X230973Y28092D01*
X231071Y28312D01*
X231144Y28433D01*
X231253Y28567D01*
X231290Y28604D01*
X231302Y28640D01*
X231351Y28664D01*
X231448Y28762D01*
X231764Y28908D01*
X231947Y28944D01*
X232276Y28981D01*
X241355Y28956D01*
D02*
G37*
%LPC*%
G36*
X281981Y69680D02*
X281105D01*
X275798Y69656D01*
X275579Y69558D01*
X275458Y69485D01*
X275324Y69376D01*
X275129Y69181D01*
X275032Y69011D01*
X275007Y68938D01*
X274934Y68646D01*
X274910Y68402D01*
X274934Y62512D01*
X274983Y62390D01*
X275020Y62232D01*
X275080Y62146D01*
X275178Y61976D01*
X275409Y61745D01*
X275531Y61696D01*
X275579Y61647D01*
X275774Y61599D01*
X275944Y61550D01*
X276261Y61526D01*
X282079Y61550D01*
X282152Y61574D01*
X282346Y61623D01*
X282395Y61647D01*
X282444Y61696D01*
X282614Y61793D01*
X282845Y62025D01*
X282870Y62073D01*
X282918Y62122D01*
X283004Y62353D01*
X283040Y62463D01*
X283064Y62633D01*
X283040Y68816D01*
X282943Y69035D01*
X282870Y69157D01*
X282821Y69205D01*
X282797Y69254D01*
X282614Y69437D01*
X282565Y69461D01*
X282493Y69534D01*
X282261Y69619D01*
X282152Y69656D01*
X281981Y69680D01*
D02*
G37*
%LPD*%
G36*
X280594Y68025D02*
X280716Y67952D01*
X280874Y67891D01*
X280959Y67806D01*
X281068Y67745D01*
X281093Y67696D01*
X281166Y67648D01*
X281239Y67526D01*
X281287Y67477D01*
X281361Y67283D01*
X281409Y67161D01*
X281434Y66917D01*
X281409Y64021D01*
X281239Y63704D01*
X281068Y63485D01*
X280983Y63424D01*
X280935Y63376D01*
X280813Y63303D01*
X280691Y63254D01*
X280594Y63230D01*
X280472Y63181D01*
X280204Y63157D01*
X280180D01*
X277502Y63181D01*
X277381Y63230D01*
X277283Y63254D01*
X277016Y63400D01*
X276918Y63497D01*
X276882Y63509D01*
X276857Y63558D01*
X276760Y63656D01*
X276638Y63923D01*
X276565Y64167D01*
X276541Y64337D01*
X276565Y67112D01*
X276614Y67234D01*
X276638Y67331D01*
X276711Y67453D01*
X276833Y67623D01*
X276943Y67757D01*
X277186Y67927D01*
X277283Y67952D01*
X277454Y68025D01*
X277624Y68049D01*
X280594Y68025D01*
D02*
G37*
%LPC*%
G36*
X239578Y69680D02*
X235318D01*
X233444Y69656D01*
X233225Y69558D01*
X233103Y69485D01*
X233055Y69437D01*
X233006Y69412D01*
X232823Y69230D01*
X232799Y69181D01*
X232726Y69108D01*
X232641Y68877D01*
X232604Y68767D01*
X232580Y68597D01*
X232604Y62414D01*
X232702Y62195D01*
X232775Y62073D01*
X232884Y61940D01*
X233079Y61745D01*
X233249Y61647D01*
X233322Y61623D01*
X233614Y61550D01*
X233858Y61526D01*
X239748Y61550D01*
X239870Y61599D01*
X240028Y61635D01*
X240114Y61696D01*
X240284Y61793D01*
X240515Y62025D01*
X240564Y62146D01*
X240613Y62195D01*
X240661Y62390D01*
X240710Y62560D01*
X240734Y62877D01*
X240710Y68694D01*
X240686Y68767D01*
X240637Y68962D01*
X240613Y69011D01*
X240564Y69059D01*
X240467Y69230D01*
X240235Y69461D01*
X240187Y69485D01*
X240138Y69534D01*
X239943Y69607D01*
X239821Y69656D01*
X239578Y69680D01*
D02*
G37*
%LPD*%
G36*
X238239Y68025D02*
X238556Y67854D01*
X238775Y67684D01*
X238836Y67599D01*
X238884Y67550D01*
Y67526D01*
X239006Y67355D01*
X239043Y67173D01*
X239079Y67063D01*
X239103Y66820D01*
X239079Y64118D01*
X239030Y63996D01*
X239006Y63899D01*
X238860Y63631D01*
X238763Y63534D01*
X238750Y63497D01*
X238702Y63473D01*
X238604Y63376D01*
X238337Y63254D01*
X238093Y63181D01*
X237850Y63157D01*
X235148Y63181D01*
X235026Y63230D01*
X234929Y63254D01*
X234807Y63327D01*
X234637Y63449D01*
X234503Y63558D01*
X234333Y63802D01*
X234308Y63899D01*
X234235Y64069D01*
X234211Y64240D01*
X234235Y67210D01*
X234308Y67331D01*
X234369Y67489D01*
X234454Y67575D01*
X234515Y67684D01*
X234564Y67709D01*
X234612Y67782D01*
X234734Y67854D01*
X234783Y67903D01*
X234977Y67976D01*
X235099Y68025D01*
X235343Y68049D01*
X238239Y68025D01*
D02*
G37*
%LPC*%
G36*
X235440Y33825D02*
X235403Y33788D01*
X235428Y33715D01*
X235623Y33594D01*
X235647Y33545D01*
X235720Y33472D01*
X235769Y33350D01*
X235793Y33301D01*
X235842Y33180D01*
X235817Y32790D01*
X235696Y32571D01*
X235647Y32523D01*
X235623Y32474D01*
X235562Y32413D01*
X235452Y32352D01*
X235428Y32304D01*
X235355Y32231D01*
X237947Y32218D01*
X237959Y32231D01*
X237862Y32328D01*
X237838Y32376D01*
X237704Y32462D01*
X237643Y32523D01*
X237546Y32693D01*
X237497Y32815D01*
X237472Y33058D01*
X237509Y33314D01*
X237570Y33399D01*
X237606Y33460D01*
X237619Y33472D01*
X237692Y33594D01*
X237752Y33654D01*
X237911Y33740D01*
X237886Y33813D01*
X235440Y33825D01*
D02*
G37*
G36*
X276845Y30587D02*
X276663Y30575D01*
X276480Y30587D01*
X276407Y30563D01*
X274837Y30575D01*
X273413Y30563D01*
X273340Y30587D01*
X272950Y30563D01*
X271575Y30575D01*
X271490Y30563D01*
X271417Y30587D01*
X271271Y30563D01*
X271234Y30527D01*
X271320Y30417D01*
X271368Y30393D01*
X271478Y30308D01*
X271551Y30186D01*
X271600Y30137D01*
X271636Y30003D01*
X271660Y29906D01*
X271673Y29650D01*
X271624Y29529D01*
X271587Y29395D01*
X271502Y29309D01*
X271429Y29188D01*
X271393Y29151D01*
X271271Y29078D01*
X271064Y28969D01*
X271088Y28920D01*
X271247Y28859D01*
X271295Y28811D01*
X271344Y28786D01*
X271478Y28677D01*
X271551Y28555D01*
X271600Y28506D01*
X271636Y28372D01*
X271660Y28275D01*
X271673Y28019D01*
X271624Y27898D01*
X271587Y27764D01*
X271502Y27679D01*
X271478Y27630D01*
X271344Y27496D01*
X271295Y27472D01*
X271247Y27423D01*
X271064Y27338D01*
X271088Y27289D01*
X271247Y27228D01*
X271295Y27180D01*
X271344Y27155D01*
X271478Y27046D01*
X271551Y26924D01*
X271600Y26875D01*
X271673Y26583D01*
X271648Y26316D01*
X271624Y26242D01*
X271575Y26121D01*
X271502Y26048D01*
X271478Y25999D01*
X271441Y25938D01*
X271393Y25914D01*
X271344Y25865D01*
X271271Y25841D01*
X271234Y25804D01*
X271259Y25731D01*
X276967Y25719D01*
X277003Y25756D01*
X276967Y25841D01*
X276796Y25938D01*
X276760Y25975D01*
X276687Y26096D01*
X276638Y26145D01*
X276602Y26279D01*
X276565Y26388D01*
X276541Y26486D01*
X276565Y26681D01*
X276590Y26729D01*
Y26754D01*
X276711Y26973D01*
X276760Y27021D01*
X276796Y27107D01*
X276845Y27131D01*
X277016Y27253D01*
X277113Y27277D01*
X277150Y27313D01*
X277125Y27362D01*
X276979Y27435D01*
X276943Y27472D01*
X276894Y27496D01*
X276760Y27606D01*
X276687Y27727D01*
X276638Y27776D01*
X276602Y27910D01*
X276565Y28019D01*
X276541Y28117D01*
X276565Y28312D01*
X276614Y28433D01*
X276711Y28604D01*
X276760Y28652D01*
X276784Y28701D01*
X276870Y28786D01*
X276991Y28859D01*
X277150Y28944D01*
X277125Y28993D01*
X276979Y29066D01*
X276943Y29103D01*
X276894Y29127D01*
X276760Y29237D01*
X276736Y29285D01*
X276614Y29455D01*
X276577Y29589D01*
X276553Y29687D01*
X276541Y29845D01*
X276565Y29918D01*
X276651Y30149D01*
X276711Y30210D01*
X276736Y30259D01*
X276845Y30393D01*
X276967Y30466D01*
X276979Y30551D01*
X276845Y30587D01*
D02*
G37*
G36*
X276967Y22457D02*
X276711Y22445D01*
X275141Y22457D01*
X275093Y22433D01*
X275020Y22457D01*
X274642Y22445D01*
X274460Y22457D01*
X274423Y22421D01*
X274435Y22384D01*
X274557Y22311D01*
X274630Y22238D01*
X274679Y22214D01*
X274764Y22129D01*
X274837Y22007D01*
X274886Y21885D01*
X274910Y21788D01*
X274934Y21544D01*
X274910Y21472D01*
X274874Y21313D01*
X274691Y21058D01*
X274630Y20997D01*
X274472Y20912D01*
X274496Y20839D01*
X275020Y20826D01*
X275044D01*
X277016Y20851D01*
X277028Y20912D01*
X276991Y20948D01*
X276894Y20972D01*
X276821Y21045D01*
X276772Y21070D01*
X276687Y21204D01*
X276638Y21252D01*
X276602Y21386D01*
X276565Y21496D01*
X276541Y21593D01*
X276565Y21812D01*
X276638Y21983D01*
X276663Y22031D01*
X276736Y22104D01*
X276809Y22226D01*
X276943Y22311D01*
X276991Y22360D01*
X277040Y22384D01*
X277076Y22421D01*
X276967Y22457D01*
D02*
G37*
%LPD*%
G36*
X274338Y28932D02*
X274411Y28908D01*
X274533Y28835D01*
X274581Y28786D01*
X274703Y28713D01*
X274800Y28567D01*
X274861Y28506D01*
X274886Y28409D01*
X274934Y28117D01*
X274886Y27849D01*
X274874Y27837D01*
X274788Y27703D01*
X274679Y27569D01*
X274606Y27496D01*
X274557Y27472D01*
X274508Y27423D01*
X274387Y27374D01*
X274095Y27326D01*
X273754Y27399D01*
X273656Y27496D01*
X273608Y27520D01*
X273498Y27606D01*
X273425Y27727D01*
X273377Y27776D01*
X273352Y27873D01*
X273304Y28044D01*
X273328Y28360D01*
X273352Y28433D01*
X273425Y28555D01*
X273583Y28762D01*
X273632Y28786D01*
X273803Y28908D01*
X273948Y28932D01*
X274022Y28956D01*
X274338Y28932D01*
D02*
G37*
%LPC*%
G36*
X239383Y27350D02*
X233566Y27326D01*
X233493Y27301D01*
X233298Y27253D01*
X233249Y27228D01*
X233201Y27180D01*
X233030Y27082D01*
X232799Y26851D01*
X232775Y26802D01*
X232726Y26754D01*
X232641Y26522D01*
X232604Y26413D01*
X232580Y26242D01*
X232604Y20060D01*
X232702Y19841D01*
X232775Y19719D01*
X232823Y19670D01*
X232848Y19621D01*
X233030Y19439D01*
X233079Y19415D01*
X233152Y19342D01*
X233383Y19256D01*
X233493Y19220D01*
X233663Y19195D01*
X239846Y19220D01*
X240065Y19317D01*
X240187Y19390D01*
X240320Y19500D01*
X240515Y19694D01*
X240613Y19865D01*
X240637Y19938D01*
X240710Y20230D01*
Y20254D01*
Y20279D01*
X240734Y20376D01*
X240710Y26364D01*
X240661Y26486D01*
X240625Y26644D01*
X240564Y26729D01*
X240467Y26900D01*
X240235Y27131D01*
X240114Y27180D01*
X240065Y27228D01*
X239870Y27277D01*
X239700Y27326D01*
X239383Y27350D01*
D02*
G37*
%LPD*%
G36*
X238142Y25695D02*
X238264Y25646D01*
X238361Y25622D01*
X238629Y25476D01*
X238726Y25378D01*
X238763Y25366D01*
X238787Y25317D01*
X238884Y25220D01*
X239006Y24952D01*
X239079Y24709D01*
X239103Y24465D01*
X239079Y21764D01*
X239030Y21642D01*
X239006Y21544D01*
X238933Y21423D01*
X238811Y21252D01*
X238702Y21119D01*
X238458Y20948D01*
X238361Y20924D01*
X238191Y20851D01*
X238020Y20826D01*
X235051Y20851D01*
X234929Y20924D01*
X234771Y20985D01*
X234685Y21070D01*
X234576Y21131D01*
X234552Y21179D01*
X234478Y21228D01*
X234405Y21350D01*
X234357Y21398D01*
X234284Y21593D01*
X234235Y21715D01*
X234211Y21958D01*
X234235Y24855D01*
X234405Y25171D01*
X234576Y25391D01*
X234661Y25451D01*
X234673Y25464D01*
X234685Y25476D01*
X234929Y25622D01*
X235087Y25658D01*
X235197Y25695D01*
X235440Y25719D01*
X238142Y25695D01*
D02*
G37*
D10*
X552845Y244883D02*
G03*
X552845Y244883I-1270J0D01*
G01*
X432675Y357097D02*
G03*
X432675Y357097I-1270J0D01*
G01*
X510520Y353750D02*
G03*
X510520Y353750I-1250J0D01*
G01*
X357745Y415517D02*
G03*
X357745Y415517I-1270J0D01*
G01*
D11*
X434340Y482600D02*
G03*
X434340Y482600I-2540J0D01*
G01*
X643890Y389890D02*
G03*
X643890Y389890I-1270J0D01*
G01*
X502920Y78740D02*
X576580Y5080D01*
X502920Y78740D02*
Y256540D01*
X335280D02*
X556260D01*
X698500Y398780D01*
Y502920D01*
X622300Y197866D02*
X636524D01*
X698500D02*
X712724D01*
X764540D02*
X778764D01*
X840740D02*
X854964D01*
X403860Y322580D02*
Y505460D01*
X337820Y256540D02*
X403860Y322580D01*
X0Y256540D02*
X337820D01*
X370205Y245110D02*
X372052D01*
X367665Y241300D02*
X374015D01*
X370840Y234882D02*
Y237490D01*
X365125D02*
X376555D01*
X395605Y245110D02*
X397452D01*
X393065Y241300D02*
X399415D01*
X396240Y234882D02*
Y237490D01*
X390525D02*
X401955D01*
X421005Y245110D02*
X422852D01*
X418465Y241300D02*
X424815D01*
X421640Y234882D02*
Y237490D01*
X415925D02*
X427355D01*
X477520Y477044D02*
Y481647D01*
Y463232D02*
Y467836D01*
Y481647D02*
Y490855D01*
Y454025D02*
Y463232D01*
X420370Y490220D02*
X435610D01*
X420370Y452120D02*
Y490220D01*
X464820Y490855D02*
X477520D01*
Y467836D02*
Y477044D01*
X436880Y439420D02*
X462280D01*
X668020Y398780D02*
Y492760D01*
X647700D02*
X668020D01*
X647700Y396240D02*
Y492760D01*
Y396240D02*
X668020D01*
Y398780D01*
X647700Y429260D02*
X657860Y419100D01*
X668020Y429260D01*
X743585Y455930D02*
X745432D01*
X741045Y452120D02*
X747395D01*
X744220Y445702D02*
Y448310D01*
X738505D02*
X749935D01*
X768985Y455930D02*
X770832D01*
X766445Y452120D02*
X772795D01*
X769620Y445702D02*
Y448310D01*
X763905D02*
X775335D01*
X794385Y455930D02*
X796232D01*
X791845Y452120D02*
X798195D01*
X795020Y445702D02*
Y448310D01*
X789305D02*
X800735D01*
X330454Y373380D02*
Y387604D01*
X80240Y459740D02*
X80320D01*
X156845Y351790D02*
X158692D01*
X154305Y347980D02*
X160655D01*
X157480Y341562D02*
Y344170D01*
X151765D02*
X163195D01*
X182245Y351790D02*
X184092D01*
X179705Y347980D02*
X186055D01*
X182880Y341562D02*
Y344170D01*
X177165D02*
X188595D01*
X207645Y351790D02*
X209492D01*
X205105Y347980D02*
X211455D01*
X208280Y341562D02*
Y344170D01*
X202565D02*
X213995D01*
X68577Y180340D02*
X58420D01*
X68577Y190497D01*
Y193036D01*
X66038Y195575D01*
X60959D01*
X58420Y193036D01*
X81273Y180340D02*
Y195575D01*
X73655Y187957D01*
X83812D01*
X114282Y195575D02*
X109204D01*
X111743D01*
Y182879D01*
X109204Y180340D01*
X106664D01*
X104125Y182879D01*
X121899Y190497D02*
X126978D01*
X129517Y187957D01*
Y180340D01*
X121899D01*
X119360Y182879D01*
X121899Y185418D01*
X129517D01*
X134595Y180340D02*
Y190497D01*
X142213D01*
X144752Y187957D01*
Y180340D01*
X167605Y198114D02*
Y193036D01*
X165065Y190497D01*
X185379Y180340D02*
X175222D01*
X185379Y190497D01*
Y193036D01*
X182840Y195575D01*
X177761D01*
X175222Y193036D01*
X198075Y180340D02*
Y195575D01*
X190457Y187957D01*
X200614D01*
X622303Y86369D02*
X637537D01*
Y96526D01*
X622303Y111761D02*
Y101604D01*
X637537D01*
Y111761D01*
X629920Y101604D02*
Y106683D01*
X622303Y116839D02*
X637537D01*
Y124457D01*
X634998Y126996D01*
X624842D01*
X622303Y124457D01*
Y116839D01*
Y142231D02*
Y132074D01*
X629920D01*
X627381Y137153D01*
Y139692D01*
X629920Y142231D01*
X634998D01*
X637537Y139692D01*
Y134613D01*
X634998Y132074D01*
X701042Y88909D02*
X716277D01*
Y99066D01*
X701042Y114301D02*
Y104144D01*
X716277D01*
Y114301D01*
X708660Y104144D02*
Y109222D01*
X701042Y119379D02*
X716277D01*
Y126997D01*
X713738Y129536D01*
X703582D01*
X701042Y126997D01*
Y119379D01*
X716277Y142232D02*
X701042D01*
X708660Y134614D01*
Y144771D01*
X767083Y86369D02*
X782318D01*
Y96526D01*
X767083Y111761D02*
Y101604D01*
X782318D01*
Y111761D01*
X774700Y101604D02*
Y106683D01*
X767083Y116839D02*
X782318D01*
Y124457D01*
X779778Y126996D01*
X769622D01*
X767083Y124457D01*
Y116839D01*
X769622Y132074D02*
X767083Y134613D01*
Y139692D01*
X769622Y142231D01*
X772161D01*
X774700Y139692D01*
Y137153D01*
Y139692D01*
X777239Y142231D01*
X779778D01*
X782318Y139692D01*
Y134613D01*
X779778Y132074D01*
X840742Y88909D02*
X855977D01*
Y99066D01*
X840742Y114301D02*
Y104144D01*
X855977D01*
Y114301D01*
X848360Y104144D02*
Y109222D01*
X840742Y119379D02*
X855977D01*
Y126997D01*
X853438Y129536D01*
X843282D01*
X840742Y126997D01*
Y119379D01*
X855977Y144771D02*
Y134614D01*
X845821Y144771D01*
X843282D01*
X840742Y142232D01*
Y137153D01*
X843282Y134614D01*
X157482Y490474D02*
X154943Y487935D01*
Y482856D01*
X157482Y480317D01*
X167638D01*
X170177Y482856D01*
Y487935D01*
X167638Y490474D01*
X170177Y495552D02*
Y500631D01*
Y498092D01*
X154943D01*
X157482Y495552D01*
X572773Y116861D02*
Y111782D01*
X575312Y109243D01*
X585469D01*
X588008Y111782D01*
Y116861D01*
X585469Y119400D01*
X575312D01*
X572773Y116861D01*
Y124478D02*
X585469D01*
X588008Y127017D01*
Y132096D01*
X585469Y134635D01*
X572773D01*
Y139713D02*
Y149870D01*
Y144791D01*
X588008D01*
Y154948D02*
X572773D01*
Y162566D01*
X575312Y165105D01*
X580390D01*
X582930Y162566D01*
Y154948D01*
X572773Y170183D02*
X585469D01*
X588008Y172722D01*
Y177801D01*
X585469Y180340D01*
X572773D01*
Y185418D02*
Y195575D01*
Y190497D01*
X588008D01*
X590547Y200653D02*
Y210810D01*
X575312Y226045D02*
X572773Y223506D01*
Y218428D01*
X575312Y215889D01*
X577851D01*
X580390Y218428D01*
Y223506D01*
X582930Y226045D01*
X585469D01*
X588008Y223506D01*
Y218428D01*
X585469Y215889D01*
X572773Y231124D02*
X588008D01*
X582930Y236202D01*
X588008Y241280D01*
X572773D01*
X588008Y246359D02*
Y251437D01*
Y248898D01*
X572773D01*
X575312Y246359D01*
X490221Y414018D02*
X487682Y416558D01*
X482603D01*
X480064Y414018D01*
Y403862D01*
X482603Y401323D01*
X487682D01*
X490221Y403862D01*
X495299Y414018D02*
X497838Y416558D01*
X502917D01*
X505456Y414018D01*
Y411479D01*
X502917Y408940D01*
X500378D01*
X502917D01*
X505456Y406401D01*
Y403862D01*
X502917Y401323D01*
X497838D01*
X495299Y403862D01*
X383542Y160027D02*
Y170183D01*
Y165105D01*
X398778D01*
Y175262D02*
X383542D01*
Y182879D01*
X386082Y185418D01*
X391160D01*
X393699Y182879D01*
Y175262D01*
X386082Y190497D02*
X383542Y193036D01*
Y198114D01*
X386082Y200653D01*
X388621D01*
X391160Y198114D01*
Y195575D01*
Y198114D01*
X393699Y200653D01*
X396238D01*
X398778Y198114D01*
Y193036D01*
X396238Y190497D01*
X434344Y457202D02*
Y472438D01*
X441962D01*
X444501Y469898D01*
Y464820D01*
X441962Y462281D01*
X434344D01*
X439422D02*
X444501Y457202D01*
X459736D02*
X449579D01*
X459736Y467359D01*
Y469898D01*
X457197Y472438D01*
X452118D01*
X449579Y469898D01*
X617223Y492757D02*
Y477523D01*
X624841D01*
X627380Y480062D01*
Y490218D01*
X624841Y492757D01*
X617223D01*
X632458Y477523D02*
X637537D01*
X634998D01*
Y492757D01*
X632458Y490218D01*
X55880Y106673D02*
Y93977D01*
X58419Y91438D01*
X63498D01*
X66037Y93977D01*
Y106673D01*
X71115Y91438D02*
Y101595D01*
X78733D01*
X81272Y99056D01*
Y91438D01*
X86350D02*
X91428D01*
X88889D01*
Y101595D01*
X86350D01*
X99046D02*
X104124Y91438D01*
X109203Y101595D01*
X121899Y91438D02*
X116820D01*
X114281Y93977D01*
Y99056D01*
X116820Y101595D01*
X121899D01*
X124438Y99056D01*
Y96517D01*
X114281D01*
X129516Y101595D02*
Y91438D01*
Y96517D01*
X132055Y99056D01*
X134594Y101595D01*
X137134D01*
X144751Y91438D02*
X152369D01*
X154908Y93977D01*
X152369Y96517D01*
X147290D01*
X144751Y99056D01*
X147290Y101595D01*
X154908D01*
X159986Y91438D02*
X165065D01*
X162526D01*
Y101595D01*
X159986D01*
X175221Y104134D02*
Y101595D01*
X172682D01*
X177761D01*
X175221D01*
Y93977D01*
X177761Y91438D01*
X185378Y101595D02*
Y93977D01*
X187917Y91438D01*
X195535D01*
Y88899D01*
X192996Y86360D01*
X190456D01*
X195535Y91438D02*
Y101595D01*
X218387Y91438D02*
X223466D01*
X226005Y93977D01*
Y99056D01*
X223466Y101595D01*
X218387D01*
X215848Y99056D01*
Y93977D01*
X218387Y91438D01*
X233622D02*
Y104134D01*
Y99056D01*
X231083D01*
X236162D01*
X233622D01*
Y104134D01*
X236162Y106673D01*
X269171Y104134D02*
X266632Y106673D01*
X261553D01*
X259014Y104134D01*
Y93977D01*
X261553Y91438D01*
X266632D01*
X269171Y93977D01*
X276789Y91438D02*
X281867D01*
X284406Y93977D01*
Y99056D01*
X281867Y101595D01*
X276789D01*
X274249Y99056D01*
Y93977D01*
X276789Y91438D01*
X289484D02*
X294563D01*
X292024D01*
Y106673D01*
X289484D01*
X304720Y91438D02*
X309798D01*
X312337Y93977D01*
Y99056D01*
X309798Y101595D01*
X304720D01*
X302180Y99056D01*
Y93977D01*
X304720Y91438D01*
X317415Y101595D02*
Y91438D01*
Y96517D01*
X319955Y99056D01*
X322494Y101595D01*
X325033D01*
X335190D02*
X340268D01*
X342807Y99056D01*
Y91438D01*
X335190D01*
X332650Y93977D01*
X335190Y96517D01*
X342807D01*
X358042Y106673D02*
Y91438D01*
X350425D01*
X347886Y93977D01*
Y99056D01*
X350425Y101595D01*
X358042D01*
X365660Y91438D02*
X370738D01*
X373277Y93977D01*
Y99056D01*
X370738Y101595D01*
X365660D01*
X363121Y99056D01*
Y93977D01*
X365660Y91438D01*
X393591Y106673D02*
Y91438D01*
X401208D01*
X403747Y93977D01*
Y96517D01*
X401208Y99056D01*
X393591D01*
X401208D01*
X403747Y101595D01*
Y104134D01*
X401208Y106673D01*
X393591D01*
X411365Y91438D02*
X416443D01*
X418983Y93977D01*
Y99056D01*
X416443Y101595D01*
X411365D01*
X408826Y99056D01*
Y93977D01*
X411365Y91438D01*
X424061Y101595D02*
Y93977D01*
X426600Y91438D01*
X434218D01*
Y101595D01*
X439296Y91438D02*
X444374D01*
X441835D01*
Y106673D01*
X439296D01*
X462149D02*
Y91438D01*
X454531D01*
X451992Y93977D01*
Y99056D01*
X454531Y101595D01*
X462149D01*
X474844Y91438D02*
X469766D01*
X467227Y93977D01*
Y99056D01*
X469766Y101595D01*
X474844D01*
X477384Y99056D01*
Y96517D01*
X467227D01*
X482462Y101595D02*
Y91438D01*
Y96517D01*
X485001Y99056D01*
X487540Y101595D01*
X490079D01*
X55880Y121918D02*
Y137153D01*
X66037Y121918D01*
Y137153D01*
X81272D02*
X71115D01*
Y121918D01*
X81272D01*
X71115Y129536D02*
X76193D01*
X96507Y137153D02*
X86350D01*
Y129536D01*
X91428Y132075D01*
X93968D01*
X96507Y129536D01*
Y124458D01*
X93968Y121918D01*
X88889D01*
X86350Y124458D01*
X111742Y137153D02*
X101585D01*
Y129536D01*
X106664Y132075D01*
X109203D01*
X111742Y129536D01*
Y124458D01*
X109203Y121918D01*
X104124D01*
X101585Y124458D01*
X126977Y137153D02*
X116820D01*
Y129536D01*
X121899Y132075D01*
X124438D01*
X126977Y129536D01*
Y124458D01*
X124438Y121918D01*
X119360D01*
X116820Y124458D01*
X147290Y137153D02*
X157447D01*
X152369D01*
Y121918D01*
X162526D02*
X167604D01*
X165065D01*
Y132075D01*
X162526D01*
X175221Y121918D02*
Y132075D01*
X177761D01*
X180300Y129536D01*
Y121918D01*
Y129536D01*
X182839Y132075D01*
X185378Y129536D01*
Y121918D01*
X198074D02*
X192996D01*
X190457Y124458D01*
Y129536D01*
X192996Y132075D01*
X198074D01*
X200613Y129536D01*
Y126997D01*
X190457D01*
X205692Y132075D02*
Y121918D01*
Y126997D01*
X208231Y129536D01*
X210770Y132075D01*
X213309D01*
X246318Y137153D02*
Y121918D01*
X238701D01*
X236162Y124458D01*
Y129536D01*
X238701Y132075D01*
X246318D01*
X259014Y121918D02*
X253936D01*
X251397Y124458D01*
Y129536D01*
X253936Y132075D01*
X259014D01*
X261553Y129536D01*
Y126997D01*
X251397D01*
X266632Y121918D02*
X274249D01*
X276789Y124458D01*
X274249Y126997D01*
X269171D01*
X266632Y129536D01*
X269171Y132075D01*
X276789D01*
X281867Y121918D02*
X286945D01*
X284406D01*
Y132075D01*
X281867D01*
X299641Y116840D02*
X302180D01*
X304720Y119379D01*
Y132075D01*
X297102D01*
X294563Y129536D01*
Y124458D01*
X297102Y121918D01*
X304720D01*
X309798D02*
Y132075D01*
X317415D01*
X319955Y129536D01*
Y121918D01*
X68577Y167635D02*
X58420D01*
Y152400D01*
X68577D01*
X58420Y160018D02*
X63498D01*
X83812Y165096D02*
X81273Y167635D01*
X76194D01*
X73655Y165096D01*
Y154939D01*
X76194Y152400D01*
X81273D01*
X83812Y154939D01*
X99047Y167635D02*
X88890D01*
Y152400D01*
X99047D01*
X88890Y160018D02*
X93968D01*
X104125Y152400D02*
Y167635D01*
X114282Y152400D01*
Y167635D01*
X144752D02*
X134595D01*
Y160018D01*
X139674Y162557D01*
X142213D01*
X144752Y160018D01*
Y154939D01*
X142213Y152400D01*
X137135D01*
X134595Y154939D01*
X149830Y167635D02*
X159987D01*
Y165096D01*
X149830Y154939D01*
Y152400D01*
X165065Y165096D02*
X167605Y167635D01*
X172683D01*
X175222Y165096D01*
Y162557D01*
X172683Y160018D01*
X170144D01*
X172683D01*
X175222Y157478D01*
Y154939D01*
X172683Y152400D01*
X167605D01*
X165065Y154939D01*
X180301Y165096D02*
X182840Y167635D01*
X187918D01*
X190457Y165096D01*
Y154939D01*
X187918Y152400D01*
X182840D01*
X180301Y154939D01*
Y165096D01*
X60960Y208280D02*
Y223515D01*
X68577D01*
X71117Y220976D01*
Y215898D01*
X68577Y213358D01*
X60960D01*
X78734Y218437D02*
X83813D01*
X86352Y215898D01*
Y208280D01*
X78734D01*
X76195Y210819D01*
X78734Y213358D01*
X86352D01*
X91430Y218437D02*
Y208280D01*
Y213358D01*
X93969Y215898D01*
X96509Y218437D01*
X99048D01*
X109204Y220976D02*
Y218437D01*
X106665D01*
X111744D01*
X109204D01*
Y210819D01*
X111744Y208280D01*
X119361Y223515D02*
Y208280D01*
Y215898D01*
X121900Y218437D01*
X126979D01*
X129518Y215898D01*
Y208280D01*
X149831Y223515D02*
X159988D01*
X154910D01*
Y208280D01*
X165066Y223515D02*
Y208280D01*
Y215898D01*
X167605Y218437D01*
X172684D01*
X175223Y215898D01*
Y208280D01*
X182841Y218437D02*
X187919D01*
X190458Y215898D01*
Y208280D01*
X182841D01*
X180301Y210819D01*
X182841Y213358D01*
X190458D01*
X195536Y208280D02*
Y223515D01*
Y213358D02*
X203154Y218437D01*
X195536Y213358D02*
X203154Y208280D01*
X210772D02*
Y223515D01*
Y213358D02*
X218389Y218437D01*
X210772Y213358D02*
X218389Y208280D01*
X228546Y218437D02*
X233624D01*
X236163Y215898D01*
Y208280D01*
X228546D01*
X226007Y210819D01*
X228546Y213358D01*
X236163D01*
X241242Y218437D02*
Y208280D01*
Y213358D01*
X243781Y215898D01*
X246320Y218437D01*
X248859D01*
X467357Y383541D02*
Y388619D01*
Y386080D01*
X452122D01*
X454662Y383541D01*
X729488Y480055D02*
X739645D01*
X734566D01*
Y464820D01*
X744723D02*
Y480055D01*
X752341D01*
X754880Y477516D01*
Y472438D01*
X752341Y469898D01*
X744723D01*
X770115Y464820D02*
X759958D01*
X770115Y474977D01*
Y477516D01*
X767576Y480055D01*
X762497D01*
X759958Y477516D01*
X538484Y452122D02*
Y467357D01*
X546102D01*
X548641Y464818D01*
Y459740D01*
X546102Y457201D01*
X538484D01*
X543563D02*
X548641Y452122D01*
X553719Y464818D02*
X556258Y467357D01*
X561337D01*
X563876Y464818D01*
Y462279D01*
X561337Y459740D01*
X558797D01*
X561337D01*
X563876Y457201D01*
Y454662D01*
X561337Y452122D01*
X556258D01*
X553719Y454662D01*
X508000Y454655D02*
Y441959D01*
X510539Y439420D01*
X515617D01*
X518157Y441959D01*
Y454655D01*
X523235Y439420D02*
X528313D01*
X525774D01*
Y454655D01*
X523235Y452116D01*
X327668Y360677D02*
Y345443D01*
X337825D01*
X353060Y360677D02*
X342903D01*
Y345443D01*
X353060D01*
X342903Y353060D02*
X347982D01*
X358138Y360677D02*
Y345443D01*
X365756D01*
X368295Y347982D01*
Y358138D01*
X365756Y360677D01*
X358138D01*
X373373Y345443D02*
X378452D01*
X375913D01*
Y360677D01*
X373373Y358138D01*
X378462Y495287D02*
X393698D01*
Y487669D01*
X391158Y485130D01*
X386080D01*
X383541Y487669D01*
Y495287D01*
X393698Y472434D02*
Y477513D01*
X391158Y480052D01*
X381002D01*
X378462Y477513D01*
Y472434D01*
X381002Y469895D01*
X391158D01*
X393698Y472434D01*
Y464817D02*
X378462D01*
X383541Y459738D01*
X378462Y454660D01*
X393698D01*
Y439425D02*
Y449582D01*
X378462D01*
Y439425D01*
X386080Y449582D02*
Y444503D01*
X378462Y434347D02*
X393698D01*
Y426729D01*
X391158Y424190D01*
X386080D01*
X383541Y426729D01*
Y434347D01*
Y429268D02*
X378462Y424190D01*
Y419112D02*
Y414033D01*
Y416572D01*
X393698D01*
X391158Y419112D01*
X302261Y457198D02*
X299722Y459738D01*
X294643D01*
X292104Y457198D01*
Y447042D01*
X294643Y444502D01*
X299722D01*
X302261Y447042D01*
X317496Y444502D02*
X307339D01*
X317496Y454659D01*
Y457198D01*
X314957Y459738D01*
X309878D01*
X307339Y457198D01*
X220986Y474982D02*
Y490218D01*
X228603D01*
X231143Y487678D01*
Y482600D01*
X228603Y480061D01*
X220986D01*
X246378Y487678D02*
X243838Y490218D01*
X238760D01*
X236221Y487678D01*
Y485139D01*
X238760Y482600D01*
X243838D01*
X246378Y480061D01*
Y477522D01*
X243838Y474982D01*
X238760D01*
X236221Y477522D01*
X251456Y474982D02*
X256534D01*
X253995D01*
Y490218D01*
X251456Y487678D01*
X20323Y453392D02*
Y468628D01*
X27941D01*
X30480Y466088D01*
Y461010D01*
X27941Y458471D01*
X20323D01*
X35558Y453392D02*
X40637D01*
X38098D01*
Y468628D01*
X35558Y466088D01*
X280670Y400812D02*
Y416047D01*
X288288D01*
X290827Y413508D01*
Y408429D01*
X288288Y405890D01*
X280670D01*
X285748D02*
X290827Y400812D01*
X295905D02*
X300983D01*
X298444D01*
Y416047D01*
X295905Y413508D01*
X142748Y375915D02*
X152905D01*
X147826D01*
Y360680D01*
X157983D02*
Y375915D01*
X165601D01*
X168140Y373376D01*
Y368298D01*
X165601Y365758D01*
X157983D01*
X173218Y360680D02*
X178297D01*
X175757D01*
Y375915D01*
X173218Y373376D01*
X620268Y288798D02*
Y304033D01*
X627886D01*
X630425Y301494D01*
Y296416D01*
X627886Y293876D01*
X620268D01*
X625346D02*
X630425Y288798D01*
X643121D02*
Y304033D01*
X635503Y296416D01*
X645660D01*
X595119Y437384D02*
X592579Y439923D01*
X587501D01*
X584962Y437384D01*
Y427227D01*
X587501Y424688D01*
X592579D01*
X595119Y427227D01*
X607815Y424688D02*
Y439923D01*
X600197Y432305D01*
X610354D01*
X696468Y288798D02*
Y304033D01*
X704085D01*
X706625Y301494D01*
Y296416D01*
X704085Y293876D01*
X696468D01*
X701546D02*
X706625Y288798D01*
X711703Y304033D02*
X721860D01*
Y301494D01*
X711703Y291337D01*
Y288798D01*
X762508D02*
Y304033D01*
X770126D01*
X772665Y301494D01*
Y296416D01*
X770126Y293876D01*
X762508D01*
X767586D02*
X772665Y288798D01*
X787900Y304033D02*
X782821Y301494D01*
X777743Y296416D01*
Y291337D01*
X780282Y288798D01*
X785361D01*
X787900Y291337D01*
Y293876D01*
X785361Y296416D01*
X777743D01*
X838708Y288798D02*
Y304033D01*
X846326D01*
X848865Y301494D01*
Y296416D01*
X846326Y293876D01*
X838708D01*
X843786D02*
X848865Y288798D01*
X864100Y304033D02*
X853943D01*
Y296416D01*
X859021Y298955D01*
X861561D01*
X864100Y296416D01*
Y291337D01*
X861561Y288798D01*
X856482D01*
X853943Y291337D01*
X503679Y330704D02*
X501139Y333243D01*
X496061D01*
X493522Y330704D01*
Y320547D01*
X496061Y318008D01*
X501139D01*
X503679Y320547D01*
X518914Y333243D02*
X508757D01*
Y325625D01*
X513835Y328165D01*
X516375D01*
X518914Y325625D01*
Y320547D01*
X516375Y318008D01*
X511296D01*
X508757Y320547D01*
D12*
X520938Y376936D02*
G03*
X520938Y376936I-1000J0D01*
G01*
D13*
X216156Y473710D02*
G03*
X216156Y473710I-1796J0D01*
G01*
X616920Y159004D02*
Y186944D01*
X642920Y159258D02*
Y187198D01*
X693120Y159004D02*
Y186944D01*
X719120Y159258D02*
Y187198D01*
X759160Y159004D02*
Y186944D01*
X785160Y159258D02*
Y187198D01*
X835360Y159004D02*
Y186944D01*
X861360Y159258D02*
Y187198D01*
X191770Y470408D02*
Y480060D01*
X173990Y470408D02*
Y480060D01*
X491490Y371094D02*
Y380746D01*
X473710Y371094D02*
Y380746D01*
X538988Y473740D02*
X548640D01*
X538988Y496540D02*
X548640D01*
X341376Y368000D02*
X369316D01*
X341122Y394000D02*
X369062D01*
X299974Y468630D02*
X309626D01*
X299974Y486410D02*
X309626D01*
X220218Y403352D02*
Y470408D01*
X257302D01*
Y403352D02*
Y470408D01*
X220218Y403352D02*
X257302D01*
X294894Y392400D02*
X304546D01*
X294894Y369600D02*
X304546D01*
X641320Y254254D02*
Y263906D01*
X618520Y254254D02*
Y263906D01*
X599694Y415290D02*
X609346D01*
X599694Y397510D02*
X609346D01*
X717520Y254254D02*
Y263906D01*
X694720Y254254D02*
Y263906D01*
X783560Y254254D02*
Y263906D01*
X760760Y254254D02*
Y263906D01*
X859760Y254254D02*
Y263906D01*
X836960Y254254D02*
Y263906D01*
X508254Y290830D02*
X517906D01*
X508254Y308610D02*
X517906D01*
D14*
X167918Y459486D02*
G03*
X167918Y459486I-2000J0D01*
G01*
D15*
X538480Y173299D02*
X563791D01*
Y233101D01*
X538480D02*
X563791D01*
X538480Y173299D02*
Y233101D01*
X419189Y428681D02*
X444500D01*
X419189Y368879D02*
Y428681D01*
Y368879D02*
X444500D01*
Y428681D01*
X344259Y487101D02*
X369570D01*
X344259Y427299D02*
Y487101D01*
Y427299D02*
X369570D01*
Y487101D01*
D16*
X355600Y207010D02*
X462280D01*
X355600D02*
Y234950D01*
X359410D01*
X462280Y207010D02*
Y234950D01*
X435610D02*
X462280D01*
X728980Y417830D02*
X835660D01*
X728980D02*
Y445770D01*
X732790D01*
X835660Y417830D02*
Y445770D01*
X808990D02*
X835660D01*
X142240Y313690D02*
X248920D01*
X142240D02*
Y341630D01*
X146050D01*
X248920Y313690D02*
Y341630D01*
X222250D02*
X248920D01*
D17*
X510794Y365002D02*
Y397002D01*
X566166Y364998D02*
Y396998D01*
D18*
X3240Y414740D02*
X92740D01*
X147240Y483870D02*
Y504740D01*
X3240D02*
X147240D01*
X3240Y414740D02*
Y504740D01*
X147240Y414740D02*
Y437642D01*
X135184Y414740D02*
X147240D01*
M02*
