G04*
G04 #@! TF.GenerationSoftware,Altium Limited,Altium Designer,24.1.2 (44)*
G04*
G04 Layer_Physical_Order=2*
G04 Layer_Color=16711680*
%FSLAX44Y44*%
%MOMM*%
G71*
G04*
G04 #@! TF.SameCoordinates,F52A13A3-DB3F-44E1-B1C3-80E51AC4D0DF*
G04*
G04*
G04 #@! TF.FilePolarity,Positive*
G04*
G01*
G75*
%ADD36C,1.6200*%
%ADD37C,1.7780*%
%ADD38C,1.6510*%
%ADD39O,2.0000X3.8000*%
%ADD40O,3.3000X1.8000*%
%ADD41C,0.6350*%
G36*
X883820Y5179D02*
X5179D01*
Y502821D01*
X883820D01*
Y5179D01*
D02*
G37*
%LPC*%
G36*
X275590Y485720D02*
Y481330D01*
X279980D01*
X279165Y483297D01*
X277557Y484905D01*
X275590Y485720D01*
D02*
G37*
G36*
X273050D02*
X271083Y484905D01*
X269475Y483297D01*
X268660Y481330D01*
X273050D01*
Y485720D01*
D02*
G37*
G36*
X451001Y501015D02*
X448159D01*
X445413Y500279D01*
X442952Y498858D01*
X440942Y496848D01*
X439521Y494387D01*
X438785Y491641D01*
Y488799D01*
X439521Y486053D01*
X440942Y483592D01*
X442952Y481582D01*
X445413Y480161D01*
X448159Y479425D01*
X451001D01*
X453747Y480161D01*
X456208Y481582D01*
X458218Y483592D01*
X459639Y486053D01*
X460375Y488799D01*
Y491641D01*
X459639Y494387D01*
X458218Y496848D01*
X456208Y498858D01*
X453747Y500279D01*
X451001Y501015D01*
D02*
G37*
G36*
X204470Y480640D02*
Y476250D01*
X208860D01*
X208045Y478217D01*
X206437Y479825D01*
X204470Y480640D01*
D02*
G37*
G36*
X201930D02*
X199963Y479825D01*
X198355Y478217D01*
X197540Y476250D01*
X201930D01*
Y480640D01*
D02*
G37*
G36*
X279980Y478790D02*
X275590D01*
Y474400D01*
X277557Y475215D01*
X279165Y476823D01*
X279980Y478790D01*
D02*
G37*
G36*
X273050D02*
X268660D01*
X269475Y476823D01*
X271083Y475215D01*
X273050Y474400D01*
Y478790D01*
D02*
G37*
G36*
X659281Y493395D02*
X656439D01*
X653693Y492659D01*
X651232Y491238D01*
X649222Y489228D01*
X647801Y486767D01*
X647065Y484021D01*
Y481179D01*
X647801Y478433D01*
X649222Y475972D01*
X651232Y473962D01*
X653693Y472541D01*
X656439Y471805D01*
X659281D01*
X662027Y472541D01*
X664488Y473962D01*
X666498Y475972D01*
X667919Y478433D01*
X668655Y481179D01*
Y484021D01*
X667919Y486767D01*
X666498Y489228D01*
X664488Y491238D01*
X662027Y492659D01*
X659281Y493395D01*
D02*
G37*
G36*
X208860Y473710D02*
X204470D01*
Y469320D01*
X206437Y470135D01*
X208045Y471743D01*
X208860Y473710D01*
D02*
G37*
G36*
X201930D02*
X197540D01*
X198355Y471743D01*
X199963Y470135D01*
X201930Y469320D01*
Y473710D01*
D02*
G37*
G36*
X81280Y481221D02*
Y461010D01*
X92658D01*
Y468740D01*
X92227Y472014D01*
X90964Y475064D01*
X88954Y477684D01*
X86334Y479694D01*
X83284Y480957D01*
X81280Y481221D01*
D02*
G37*
G36*
X78740D02*
X76736Y480957D01*
X73686Y479694D01*
X71066Y477684D01*
X69056Y475064D01*
X67793Y472014D01*
X67362Y468740D01*
Y461010D01*
X78740D01*
Y481221D01*
D02*
G37*
G36*
X358271Y480540D02*
X355469D01*
X352763Y479815D01*
X350337Y478414D01*
X348356Y476433D01*
X346955Y474007D01*
X346230Y471301D01*
Y468499D01*
X346955Y465793D01*
X348356Y463367D01*
X350337Y461386D01*
X352763Y459985D01*
X355469Y459260D01*
X358271D01*
X360977Y459985D01*
X363403Y461386D01*
X365384Y463367D01*
X366785Y465793D01*
X367510Y468499D01*
Y471301D01*
X366785Y474007D01*
X365384Y476433D01*
X363403Y478414D01*
X360977Y479815D01*
X358271Y480540D01*
D02*
G37*
G36*
X476401Y450215D02*
X476250D01*
Y440690D01*
X485775D01*
Y440841D01*
X485039Y443587D01*
X483618Y446048D01*
X481608Y448058D01*
X479147Y449479D01*
X476401Y450215D01*
D02*
G37*
G36*
X473710D02*
X473559D01*
X470813Y449479D01*
X468352Y448058D01*
X466342Y446048D01*
X464921Y443587D01*
X464185Y440841D01*
Y440690D01*
X473710D01*
Y450215D01*
D02*
G37*
G36*
X92658Y458470D02*
X81280D01*
Y438259D01*
X83284Y438523D01*
X86334Y439786D01*
X88954Y441796D01*
X90964Y444416D01*
X92227Y447466D01*
X92658Y450740D01*
Y458470D01*
D02*
G37*
G36*
X78740D02*
X67362D01*
Y450740D01*
X67793Y447466D01*
X69056Y444416D01*
X71066Y441796D01*
X73686Y439786D01*
X76736Y438523D01*
X78740Y438259D01*
Y458470D01*
D02*
G37*
G36*
X140010Y481388D02*
X136736Y480957D01*
X133686Y479694D01*
X131066Y477684D01*
X129056Y475064D01*
X127793Y472014D01*
X127362Y468740D01*
Y450740D01*
X127793Y447466D01*
X129056Y444416D01*
X131066Y441796D01*
X133686Y439786D01*
X136736Y438523D01*
X140010Y438092D01*
X143284Y438523D01*
X146334Y439786D01*
X148954Y441796D01*
X150964Y444416D01*
X152227Y447466D01*
X152658Y450740D01*
Y468740D01*
X152227Y472014D01*
X150964Y475064D01*
X148954Y477684D01*
X146334Y479694D01*
X143284Y480957D01*
X140010Y481388D01*
D02*
G37*
G36*
X358271Y455140D02*
X355469D01*
X352763Y454415D01*
X350337Y453014D01*
X348356Y451033D01*
X346955Y448607D01*
X346230Y445901D01*
Y443099D01*
X346955Y440393D01*
X348356Y437967D01*
X350337Y435986D01*
X352763Y434585D01*
X355469Y433860D01*
X358271D01*
X360977Y434585D01*
X363403Y435986D01*
X365384Y437967D01*
X366785Y440393D01*
X367510Y443099D01*
Y445901D01*
X366785Y448607D01*
X365384Y451033D01*
X363403Y453014D01*
X360977Y454415D01*
X358271Y455140D01*
D02*
G37*
G36*
X745725Y443230D02*
X745490D01*
Y433070D01*
X755650D01*
Y433305D01*
X754871Y436212D01*
X753366Y438818D01*
X751238Y440946D01*
X748632Y442451D01*
X745725Y443230D01*
D02*
G37*
G36*
X771125D02*
X770890D01*
Y433070D01*
X781050D01*
Y433305D01*
X780271Y436212D01*
X778766Y438818D01*
X776638Y440946D01*
X774032Y442451D01*
X771125Y443230D01*
D02*
G37*
G36*
X796525D02*
X796290D01*
Y433070D01*
X806450D01*
Y433305D01*
X805671Y436212D01*
X804166Y438818D01*
X802038Y440946D01*
X799432Y442451D01*
X796525Y443230D01*
D02*
G37*
G36*
X742950D02*
X742715D01*
X739808Y442451D01*
X737202Y440946D01*
X735074Y438818D01*
X733569Y436212D01*
X732790Y433305D01*
Y433070D01*
X742950D01*
Y443230D01*
D02*
G37*
G36*
X768350D02*
X768115D01*
X765208Y442451D01*
X762602Y440946D01*
X760474Y438818D01*
X758969Y436212D01*
X758190Y433305D01*
Y433070D01*
X768350D01*
Y443230D01*
D02*
G37*
G36*
X793750D02*
X793515D01*
X790608Y442451D01*
X788002Y440946D01*
X785874Y438818D01*
X784369Y436212D01*
X783590Y433305D01*
Y433070D01*
X793750D01*
Y443230D01*
D02*
G37*
G36*
X485775Y438150D02*
X476250D01*
Y428625D01*
X476401D01*
X479147Y429361D01*
X481608Y430782D01*
X483618Y432792D01*
X485039Y435253D01*
X485775Y437999D01*
Y438150D01*
D02*
G37*
G36*
X473710D02*
X464185D01*
Y437999D01*
X464921Y435253D01*
X466342Y432792D01*
X468352Y430782D01*
X470813Y429361D01*
X473559Y428625D01*
X473710D01*
Y438150D01*
D02*
G37*
G36*
X425601Y450215D02*
X422759D01*
X420013Y449479D01*
X417552Y448058D01*
X415542Y446048D01*
X414121Y443587D01*
X413385Y440841D01*
Y437999D01*
X414121Y435253D01*
X415542Y432792D01*
X417552Y430782D01*
X420013Y429361D01*
X422759Y428625D01*
X425601D01*
X428347Y429361D01*
X430808Y430782D01*
X432818Y432792D01*
X434239Y435253D01*
X434975Y437999D01*
Y440841D01*
X434239Y443587D01*
X432818Y446048D01*
X430808Y448058D01*
X428347Y449479D01*
X425601Y450215D01*
D02*
G37*
G36*
X821925Y443230D02*
X818915D01*
X816008Y442451D01*
X813402Y440946D01*
X811274Y438818D01*
X809769Y436212D01*
X808990Y433305D01*
Y430295D01*
X809769Y427388D01*
X811274Y424782D01*
X813402Y422654D01*
X816008Y421149D01*
X818915Y420370D01*
X821925D01*
X824832Y421149D01*
X827438Y422654D01*
X829566Y424782D01*
X831071Y427388D01*
X831850Y430295D01*
Y433305D01*
X831071Y436212D01*
X829566Y438818D01*
X827438Y440946D01*
X824832Y442451D01*
X821925Y443230D01*
D02*
G37*
G36*
X806450Y430530D02*
X796290D01*
Y420370D01*
X796525D01*
X799432Y421149D01*
X802038Y422654D01*
X804166Y424782D01*
X805671Y427388D01*
X806450Y430295D01*
Y430530D01*
D02*
G37*
G36*
X793750D02*
X783590D01*
Y430295D01*
X784369Y427388D01*
X785874Y424782D01*
X788002Y422654D01*
X790608Y421149D01*
X793515Y420370D01*
X793750D01*
Y430530D01*
D02*
G37*
G36*
X781050D02*
X770890D01*
Y420370D01*
X771125D01*
X774032Y421149D01*
X776638Y422654D01*
X778766Y424782D01*
X780271Y427388D01*
X781050Y430295D01*
Y430530D01*
D02*
G37*
G36*
X768350D02*
X758190D01*
Y430295D01*
X758969Y427388D01*
X760474Y424782D01*
X762602Y422654D01*
X765208Y421149D01*
X768115Y420370D01*
X768350D01*
Y430530D01*
D02*
G37*
G36*
X755650D02*
X745490D01*
Y420370D01*
X745725D01*
X748632Y421149D01*
X751238Y422654D01*
X753366Y424782D01*
X754871Y427388D01*
X755650Y430295D01*
Y430530D01*
D02*
G37*
G36*
X742950D02*
X732790D01*
Y430295D01*
X733569Y427388D01*
X735074Y424782D01*
X737202Y422654D01*
X739808Y421149D01*
X742715Y420370D01*
X742950D01*
Y430530D01*
D02*
G37*
G36*
X636270Y412060D02*
Y407670D01*
X640660D01*
X639845Y409637D01*
X638237Y411245D01*
X636270Y412060D01*
D02*
G37*
G36*
X633730D02*
X631763Y411245D01*
X630155Y409637D01*
X629340Y407670D01*
X633730D01*
Y412060D01*
D02*
G37*
G36*
X122510Y424879D02*
X107510D01*
X104497Y424483D01*
X101690Y423320D01*
X99280Y421470D01*
X97430Y419060D01*
X96267Y416253D01*
X95870Y413240D01*
X96267Y410227D01*
X97430Y407420D01*
X99280Y405010D01*
X101690Y403160D01*
X104497Y401997D01*
X107510Y401600D01*
X122510D01*
X125523Y401997D01*
X128330Y403160D01*
X130740Y405010D01*
X132590Y407420D01*
X133753Y410227D01*
X134150Y413240D01*
X133753Y416253D01*
X132590Y419060D01*
X130740Y421470D01*
X128330Y423320D01*
X125523Y424483D01*
X122510Y424879D01*
D02*
G37*
G36*
X433201Y422120D02*
X430399D01*
X427693Y421395D01*
X425267Y419994D01*
X423286Y418013D01*
X421885Y415587D01*
X421160Y412881D01*
Y410079D01*
X421885Y407373D01*
X423286Y404947D01*
X425267Y402966D01*
X427693Y401565D01*
X430399Y400840D01*
X433201D01*
X435907Y401565D01*
X438333Y402966D01*
X440314Y404947D01*
X441715Y407373D01*
X442440Y410079D01*
Y412881D01*
X441715Y415587D01*
X440314Y418013D01*
X438333Y419994D01*
X435907Y421395D01*
X433201Y422120D01*
D02*
G37*
G36*
X640660Y405130D02*
X636270D01*
Y400740D01*
X638237Y401555D01*
X639845Y403163D01*
X640660Y405130D01*
D02*
G37*
G36*
X633730D02*
X629340D01*
X630155Y403163D01*
X631763Y401555D01*
X633730Y400740D01*
Y405130D01*
D02*
G37*
G36*
X659281Y417195D02*
X656439D01*
X653693Y416459D01*
X651232Y415038D01*
X649222Y413028D01*
X647801Y410567D01*
X647065Y407821D01*
Y404979D01*
X647801Y402233D01*
X649222Y399772D01*
X651232Y397762D01*
X653693Y396341D01*
X656439Y395605D01*
X659281D01*
X662027Y396341D01*
X664488Y397762D01*
X666498Y399772D01*
X667919Y402233D01*
X668655Y404979D01*
Y407821D01*
X667919Y410567D01*
X666498Y413028D01*
X664488Y415038D01*
X662027Y416459D01*
X659281Y417195D01*
D02*
G37*
G36*
X433201Y396720D02*
X430399D01*
X427693Y395995D01*
X425267Y394594D01*
X423286Y392613D01*
X421885Y390187D01*
X421160Y387481D01*
Y384679D01*
X421885Y381973D01*
X423286Y379547D01*
X425267Y377566D01*
X427693Y376165D01*
X430399Y375440D01*
X433201D01*
X435907Y376165D01*
X438333Y377566D01*
X440314Y379547D01*
X441715Y381973D01*
X442440Y384679D01*
Y387481D01*
X441715Y390187D01*
X440314Y392613D01*
X438333Y394594D01*
X435907Y395995D01*
X433201Y396720D01*
D02*
G37*
G36*
X285750Y371420D02*
Y367030D01*
X290140D01*
X289325Y368997D01*
X287717Y370605D01*
X285750Y371420D01*
D02*
G37*
G36*
X283210D02*
X281243Y370605D01*
X279635Y368997D01*
X278820Y367030D01*
X283210D01*
Y371420D01*
D02*
G37*
G36*
X290140Y364490D02*
X285750D01*
Y360100D01*
X287717Y360915D01*
X289325Y362523D01*
X290140Y364490D01*
D02*
G37*
G36*
X283210D02*
X278820D01*
X279635Y362523D01*
X281243Y360915D01*
X283210Y360100D01*
Y364490D01*
D02*
G37*
G36*
X483870Y351100D02*
Y346710D01*
X488260D01*
X487445Y348677D01*
X485837Y350285D01*
X483870Y351100D01*
D02*
G37*
G36*
X481330D02*
X479363Y350285D01*
X477755Y348677D01*
X476940Y346710D01*
X481330D01*
Y351100D01*
D02*
G37*
G36*
X509270Y348560D02*
Y344170D01*
X513660D01*
X512845Y346137D01*
X511237Y347745D01*
X509270Y348560D01*
D02*
G37*
G36*
X506730D02*
X504763Y347745D01*
X503155Y346137D01*
X502340Y344170D01*
X506730D01*
Y348560D01*
D02*
G37*
G36*
X488260Y344170D02*
X483870D01*
Y339780D01*
X485837Y340595D01*
X487445Y342203D01*
X488260Y344170D01*
D02*
G37*
G36*
X481330D02*
X476940D01*
X477755Y342203D01*
X479363Y340595D01*
X481330Y339780D01*
Y344170D01*
D02*
G37*
G36*
X513660Y341630D02*
X509270D01*
Y337240D01*
X511237Y338055D01*
X512845Y339663D01*
X513660Y341630D01*
D02*
G37*
G36*
X506730D02*
X502340D01*
X503155Y339663D01*
X504763Y338055D01*
X506730Y337240D01*
Y341630D01*
D02*
G37*
G36*
X209785Y339090D02*
X209550D01*
Y328930D01*
X219710D01*
Y329165D01*
X218931Y332072D01*
X217426Y334678D01*
X215298Y336806D01*
X212692Y338311D01*
X209785Y339090D01*
D02*
G37*
G36*
X184385D02*
X184150D01*
Y328930D01*
X194310D01*
Y329165D01*
X193531Y332072D01*
X192026Y334678D01*
X189898Y336806D01*
X187292Y338311D01*
X184385Y339090D01*
D02*
G37*
G36*
X158985D02*
X158750D01*
Y328930D01*
X168910D01*
Y329165D01*
X168131Y332072D01*
X166626Y334678D01*
X164498Y336806D01*
X161892Y338311D01*
X158985Y339090D01*
D02*
G37*
G36*
X207010D02*
X206775D01*
X203868Y338311D01*
X201262Y336806D01*
X199134Y334678D01*
X197629Y332072D01*
X196850Y329165D01*
Y328930D01*
X207010D01*
Y339090D01*
D02*
G37*
G36*
X181610D02*
X181375D01*
X178468Y338311D01*
X175862Y336806D01*
X173734Y334678D01*
X172229Y332072D01*
X171450Y329165D01*
Y328930D01*
X181610D01*
Y339090D01*
D02*
G37*
G36*
X156210D02*
X155975D01*
X153068Y338311D01*
X150462Y336806D01*
X148334Y334678D01*
X146829Y332072D01*
X146050Y329165D01*
Y328930D01*
X156210D01*
Y339090D01*
D02*
G37*
G36*
X235185D02*
X232175D01*
X229268Y338311D01*
X226662Y336806D01*
X224534Y334678D01*
X223029Y332072D01*
X222250Y329165D01*
Y326155D01*
X223029Y323248D01*
X224534Y320642D01*
X226662Y318514D01*
X229268Y317009D01*
X232175Y316230D01*
X235185D01*
X238092Y317009D01*
X240698Y318514D01*
X242826Y320642D01*
X244331Y323248D01*
X245110Y326155D01*
Y329165D01*
X244331Y332072D01*
X242826Y334678D01*
X240698Y336806D01*
X238092Y338311D01*
X235185Y339090D01*
D02*
G37*
G36*
X219710Y326390D02*
X209550D01*
Y316230D01*
X209785D01*
X212692Y317009D01*
X215298Y318514D01*
X217426Y320642D01*
X218931Y323248D01*
X219710Y326155D01*
Y326390D01*
D02*
G37*
G36*
X207010D02*
X196850D01*
Y326155D01*
X197629Y323248D01*
X199134Y320642D01*
X201262Y318514D01*
X203868Y317009D01*
X206775Y316230D01*
X207010D01*
Y326390D01*
D02*
G37*
G36*
X194310D02*
X184150D01*
Y316230D01*
X184385D01*
X187292Y317009D01*
X189898Y318514D01*
X192026Y320642D01*
X193531Y323248D01*
X194310Y326155D01*
Y326390D01*
D02*
G37*
G36*
X181610D02*
X171450D01*
Y326155D01*
X172229Y323248D01*
X173734Y320642D01*
X175862Y318514D01*
X178468Y317009D01*
X181375Y316230D01*
X181610D01*
Y326390D01*
D02*
G37*
G36*
X168910D02*
X158750D01*
Y316230D01*
X158985D01*
X161892Y317009D01*
X164498Y318514D01*
X166626Y320642D01*
X168131Y323248D01*
X168910Y326155D01*
Y326390D01*
D02*
G37*
G36*
X156210D02*
X146050D01*
Y326155D01*
X146829Y323248D01*
X148334Y320642D01*
X150462Y318514D01*
X153068Y317009D01*
X155975Y316230D01*
X156210D01*
Y326390D01*
D02*
G37*
G36*
X499110Y287600D02*
Y283210D01*
X503500D01*
X502685Y285177D01*
X501077Y286785D01*
X499110Y287600D01*
D02*
G37*
G36*
X496570D02*
X494603Y286785D01*
X492995Y285177D01*
X492180Y283210D01*
X496570D01*
Y287600D01*
D02*
G37*
G36*
X503500Y280670D02*
X499110D01*
Y276280D01*
X501077Y277095D01*
X502685Y278703D01*
X503500Y280670D01*
D02*
G37*
G36*
X496570D02*
X492180D01*
X492995Y278703D01*
X494603Y277095D01*
X496570Y276280D01*
Y280670D01*
D02*
G37*
G36*
X869950Y279980D02*
Y275590D01*
X874340D01*
X873525Y277557D01*
X871917Y279165D01*
X869950Y279980D01*
D02*
G37*
G36*
X867410D02*
X865443Y279165D01*
X863835Y277557D01*
X863020Y275590D01*
X867410D01*
Y279980D01*
D02*
G37*
G36*
X793750D02*
Y275590D01*
X798140D01*
X797325Y277557D01*
X795717Y279165D01*
X793750Y279980D01*
D02*
G37*
G36*
X791210D02*
X789243Y279165D01*
X787635Y277557D01*
X786820Y275590D01*
X791210D01*
Y279980D01*
D02*
G37*
G36*
X727710D02*
Y275590D01*
X732100D01*
X731285Y277557D01*
X729677Y279165D01*
X727710Y279980D01*
D02*
G37*
G36*
X725170D02*
X723203Y279165D01*
X721595Y277557D01*
X720780Y275590D01*
X725170D01*
Y279980D01*
D02*
G37*
G36*
X648970D02*
Y275590D01*
X653360D01*
X652545Y277557D01*
X650937Y279165D01*
X648970Y279980D01*
D02*
G37*
G36*
X646430D02*
X644463Y279165D01*
X642855Y277557D01*
X642040Y275590D01*
X646430D01*
Y279980D01*
D02*
G37*
G36*
X874340Y273050D02*
X869950D01*
Y268660D01*
X871917Y269475D01*
X873525Y271083D01*
X874340Y273050D01*
D02*
G37*
G36*
X867410D02*
X863020D01*
X863835Y271083D01*
X865443Y269475D01*
X867410Y268660D01*
Y273050D01*
D02*
G37*
G36*
X798140D02*
X793750D01*
Y268660D01*
X795717Y269475D01*
X797325Y271083D01*
X798140Y273050D01*
D02*
G37*
G36*
X791210D02*
X786820D01*
X787635Y271083D01*
X789243Y269475D01*
X791210Y268660D01*
Y273050D01*
D02*
G37*
G36*
X732100D02*
X727710D01*
Y268660D01*
X729677Y269475D01*
X731285Y271083D01*
X732100Y273050D01*
D02*
G37*
G36*
X725170D02*
X720780D01*
X721595Y271083D01*
X723203Y269475D01*
X725170Y268660D01*
Y273050D01*
D02*
G37*
G36*
X653360D02*
X648970D01*
Y268660D01*
X650937Y269475D01*
X652545Y271083D01*
X653360Y273050D01*
D02*
G37*
G36*
X646430D02*
X642040D01*
X642855Y271083D01*
X644463Y269475D01*
X646430Y268660D01*
Y273050D01*
D02*
G37*
G36*
X423145Y232410D02*
X422910D01*
Y222250D01*
X433070D01*
Y222485D01*
X432291Y225392D01*
X430786Y227998D01*
X428658Y230126D01*
X426052Y231631D01*
X423145Y232410D01*
D02*
G37*
G36*
X397745D02*
X397510D01*
Y222250D01*
X407670D01*
Y222485D01*
X406891Y225392D01*
X405386Y227998D01*
X403258Y230126D01*
X400652Y231631D01*
X397745Y232410D01*
D02*
G37*
G36*
X372345D02*
X372110D01*
Y222250D01*
X382270D01*
Y222485D01*
X381491Y225392D01*
X379986Y227998D01*
X377858Y230126D01*
X375252Y231631D01*
X372345Y232410D01*
D02*
G37*
G36*
X420370D02*
X420135D01*
X417228Y231631D01*
X414622Y230126D01*
X412494Y227998D01*
X410989Y225392D01*
X410210Y222485D01*
Y222250D01*
X420370D01*
Y232410D01*
D02*
G37*
G36*
X394970D02*
X394735D01*
X391828Y231631D01*
X389222Y230126D01*
X387094Y227998D01*
X385589Y225392D01*
X384810Y222485D01*
Y222250D01*
X394970D01*
Y232410D01*
D02*
G37*
G36*
X369570D02*
X369335D01*
X366428Y231631D01*
X363822Y230126D01*
X361694Y227998D01*
X360189Y225392D01*
X359410Y222485D01*
Y222250D01*
X369570D01*
Y232410D01*
D02*
G37*
G36*
X448545D02*
X445535D01*
X442628Y231631D01*
X440022Y230126D01*
X437894Y227998D01*
X436389Y225392D01*
X435610Y222485D01*
Y219475D01*
X436389Y216568D01*
X437894Y213962D01*
X440022Y211834D01*
X442628Y210329D01*
X445535Y209550D01*
X448545D01*
X451452Y210329D01*
X454058Y211834D01*
X456186Y213962D01*
X457691Y216568D01*
X458470Y219475D01*
Y222485D01*
X457691Y225392D01*
X456186Y227998D01*
X454058Y230126D01*
X451452Y231631D01*
X448545Y232410D01*
D02*
G37*
G36*
X433070Y219710D02*
X422910D01*
Y209550D01*
X423145D01*
X426052Y210329D01*
X428658Y211834D01*
X430786Y213962D01*
X432291Y216568D01*
X433070Y219475D01*
Y219710D01*
D02*
G37*
G36*
X420370D02*
X410210D01*
Y219475D01*
X410989Y216568D01*
X412494Y213962D01*
X414622Y211834D01*
X417228Y210329D01*
X420135Y209550D01*
X420370D01*
Y219710D01*
D02*
G37*
G36*
X407670D02*
X397510D01*
Y209550D01*
X397745D01*
X400652Y210329D01*
X403258Y211834D01*
X405386Y213962D01*
X406891Y216568D01*
X407670Y219475D01*
Y219710D01*
D02*
G37*
G36*
X394970D02*
X384810D01*
Y219475D01*
X385589Y216568D01*
X387094Y213962D01*
X389222Y211834D01*
X391828Y210329D01*
X394735Y209550D01*
X394970D01*
Y219710D01*
D02*
G37*
G36*
X382270D02*
X372110D01*
Y209550D01*
X372345D01*
X375252Y210329D01*
X377858Y211834D01*
X379986Y213962D01*
X381491Y216568D01*
X382270Y219475D01*
Y219710D01*
D02*
G37*
G36*
X369570D02*
X359410D01*
Y219475D01*
X360189Y216568D01*
X361694Y213962D01*
X363822Y211834D01*
X366428Y210329D01*
X369335Y209550D01*
X369570D01*
Y219710D01*
D02*
G37*
G36*
X552581Y226540D02*
X549779D01*
X547073Y225815D01*
X544647Y224414D01*
X542666Y222433D01*
X541265Y220007D01*
X540540Y217301D01*
Y214499D01*
X541265Y211793D01*
X542666Y209367D01*
X544647Y207386D01*
X547073Y205985D01*
X549779Y205260D01*
X552581D01*
X555287Y205985D01*
X557713Y207386D01*
X559694Y209367D01*
X561095Y211793D01*
X561820Y214499D01*
Y217301D01*
X561095Y220007D01*
X559694Y222433D01*
X557713Y224414D01*
X555287Y225815D01*
X552581Y226540D01*
D02*
G37*
G36*
Y201140D02*
X549779D01*
X547073Y200415D01*
X544647Y199014D01*
X542666Y197033D01*
X541265Y194607D01*
X540540Y191901D01*
Y189099D01*
X541265Y186393D01*
X542666Y183967D01*
X544647Y181986D01*
X547073Y180585D01*
X549779Y179860D01*
X552581D01*
X555287Y180585D01*
X557713Y181986D01*
X559694Y183967D01*
X561095Y186393D01*
X561820Y189099D01*
Y191901D01*
X561095Y194607D01*
X559694Y197033D01*
X557713Y199014D01*
X555287Y200415D01*
X552581Y201140D01*
D02*
G37*
%LPD*%
D36*
X551180Y215900D02*
D03*
Y190500D02*
D03*
X431800Y386080D02*
D03*
Y411480D02*
D03*
X356870Y444500D02*
D03*
Y469900D02*
D03*
D37*
X421640Y220980D02*
D03*
X447040D02*
D03*
X370840D02*
D03*
X396240D02*
D03*
X795020Y431800D02*
D03*
X820420D02*
D03*
X744220D02*
D03*
X769620D02*
D03*
X208280Y327660D02*
D03*
X233680D02*
D03*
X157480D02*
D03*
X182880D02*
D03*
D38*
X424180Y439420D02*
D03*
X474980D02*
D03*
X449580Y490220D02*
D03*
X657860Y482600D02*
D03*
Y406400D02*
D03*
D39*
X140010Y459740D02*
D03*
X80010D02*
D03*
D40*
X115010Y413240D02*
D03*
D41*
X635000Y406400D02*
D03*
X482600Y345440D02*
D03*
X508000Y342900D02*
D03*
X497840Y281940D02*
D03*
X647700Y274320D02*
D03*
X868680D02*
D03*
X792480D02*
D03*
X726440D02*
D03*
X284480Y365760D02*
D03*
X274320Y480060D02*
D03*
X203200Y474980D02*
D03*
M02*
